<?xml version="1.0" encoding="utf-8" standalone="no"?>
<!DOCTYPE svg PUBLIC "-//W3C//DTD SVG 1.1//EN"
  "http://www.w3.org/Graphics/SVG/1.1/DTD/svg11.dtd">
<svg xmlns:xlink="http://www.w3.org/1999/xlink" width="607.501562pt" height="390.993125pt" viewBox="0 0 607.501562 390.993125" xmlns="http://www.w3.org/2000/svg" version="1.1">
 <metadata>
  <rdf:RDF xmlns:dc="http://purl.org/dc/elements/1.1/" xmlns:cc="http://creativecommons.org/ns#" xmlns:rdf="http://www.w3.org/1999/02/22-rdf-syntax-ns#">
   <cc:Work>
    <dc:type rdf:resource="http://purl.org/dc/dcmitype/StillImage"/>
    <dc:date>2025-03-07T01:17:50.180831</dc:date>
    <dc:format>image/svg+xml</dc:format>
    <dc:creator>
     <cc:Agent>
      <dc:title>Matplotlib v3.9.2, https://matplotlib.org/</dc:title>
     </cc:Agent>
    </dc:creator>
   </cc:Work>
  </rdf:RDF>
 </metadata>
 <defs>
  <style type="text/css">*{stroke-linejoin: round; stroke-linecap: butt}</style>
 </defs>
 <g id="figure_1">
  <g id="patch_1">
   <path d="M 0 390.993125 
L 607.501562 390.993125 
L 607.501562 0 
L 0 0 
z
" style="fill: #ffffff"/>
  </g>
  <g id="axes_1">
   <g id="patch_2">
    <path d="M 42.301563 355.449375 
L 600.301563 355.449375 
L 600.301563 22.809375 
L 42.301563 22.809375 
z
" style="fill: #ffffff"/>
   </g>
   <g id="matplotlib.axis_1">
    <g id="xtick_1">
     <g id="line2d_1">
      <path d="M 67.665193 355.449375 
L 67.665193 22.809375 
" clip-path="url(#p012e565a7e)" style="fill: none; stroke: #b0b0b0; stroke-width: 0.8; stroke-linecap: square"/>
     </g>
     <g id="line2d_2">
      <defs>
       <path id="m659b5e3910" d="M 0 0 
L 0 3.5 
" style="stroke: #000000; stroke-width: 0.8"/>
      </defs>
      <g>
       <use xlink:href="#m659b5e3910" x="67.665193" y="355.449375" style="stroke: #000000; stroke-width: 0.8"/>
      </g>
     </g>
     <g id="text_1">
      <!-- 0.0 -->
      <g transform="translate(60.165193 369.324375) scale(0.1 -0.1)">
       <defs>
        <path id="SimHei-30" d="M 225 2537 
Q 250 3200 412 3587 
Q 575 3975 875 4225 
Q 1175 4475 1612 4475 
Q 2050 4475 2375 4112 
Q 2700 3750 2800 3200 
Q 2900 2650 2862 1937 
Q 2825 1225 2612 775 
Q 2400 325 1975 150 
Q 1550 -25 1125 187 
Q 700 400 525 750 
Q 350 1100 275 1487 
Q 200 1875 225 2537 
z
M 750 2687 
Q 675 2000 800 1462 
Q 925 925 1212 700 
Q 1500 475 1800 612 
Q 2100 750 2237 1162 
Q 2375 1575 2375 2062 
Q 2375 2550 2337 2950 
Q 2300 3350 2112 3675 
Q 1925 4000 1612 4012 
Q 1300 4025 1062 3700 
Q 825 3375 750 2687 
z
" transform="scale(0.015625)"/>
        <path id="SimHei-2e" d="M 1075 125 
L 500 125 
L 500 675 
L 1075 675 
L 1075 125 
z
" transform="scale(0.015625)"/>
       </defs>
       <use xlink:href="#SimHei-30"/>
       <use xlink:href="#SimHei-2e" x="50"/>
       <use xlink:href="#SimHei-30" x="100"/>
      </g>
     </g>
    </g>
    <g id="xtick_2">
     <g id="line2d_3">
      <path d="M 169.11974 355.449375 
L 169.11974 22.809375 
" clip-path="url(#p012e565a7e)" style="fill: none; stroke: #b0b0b0; stroke-width: 0.8; stroke-linecap: square"/>
     </g>
     <g id="line2d_4">
      <g>
       <use xlink:href="#m659b5e3910" x="169.11974" y="355.449375" style="stroke: #000000; stroke-width: 0.8"/>
      </g>
     </g>
     <g id="text_2">
      <!-- 0.2 -->
      <g transform="translate(161.61974 369.324375) scale(0.1 -0.1)">
       <defs>
        <path id="SimHei-32" d="M 300 250 
Q 325 625 650 925 
Q 975 1225 1475 1862 
Q 1975 2500 2125 2850 
Q 2275 3200 2237 3450 
Q 2200 3700 2000 3862 
Q 1800 4025 1537 4000 
Q 1275 3975 1037 3800 
Q 800 3625 675 3275 
L 200 3350 
Q 400 3925 712 4187 
Q 1025 4450 1450 4475 
Q 1700 4500 1900 4462 
Q 2100 4425 2312 4287 
Q 2525 4150 2662 3875 
Q 2800 3600 2762 3212 
Q 2725 2825 2375 2287 
Q 2025 1750 1025 600 
L 2825 600 
L 2825 150 
L 300 150 
L 300 250 
z
" transform="scale(0.015625)"/>
       </defs>
       <use xlink:href="#SimHei-30"/>
       <use xlink:href="#SimHei-2e" x="50"/>
       <use xlink:href="#SimHei-32" x="100"/>
      </g>
     </g>
    </g>
    <g id="xtick_3">
     <g id="line2d_5">
      <path d="M 270.574286 355.449375 
L 270.574286 22.809375 
" clip-path="url(#p012e565a7e)" style="fill: none; stroke: #b0b0b0; stroke-width: 0.8; stroke-linecap: square"/>
     </g>
     <g id="line2d_6">
      <g>
       <use xlink:href="#m659b5e3910" x="270.574286" y="355.449375" style="stroke: #000000; stroke-width: 0.8"/>
      </g>
     </g>
     <g id="text_3">
      <!-- 0.4 -->
      <g transform="translate(263.074286 369.324375) scale(0.1 -0.1)">
       <defs>
        <path id="SimHei-34" d="M 2000 1100 
L 75 1100 
L 75 1525 
L 2100 4450 
L 2475 4450 
L 2475 1525 
L 3075 1525 
L 3075 1100 
L 2475 1100 
L 2475 150 
L 2000 150 
L 2000 1100 
z
M 2000 1525 
L 2000 3500 
L 600 1525 
L 2000 1525 
z
" transform="scale(0.015625)"/>
       </defs>
       <use xlink:href="#SimHei-30"/>
       <use xlink:href="#SimHei-2e" x="50"/>
       <use xlink:href="#SimHei-34" x="100"/>
      </g>
     </g>
    </g>
    <g id="xtick_4">
     <g id="line2d_7">
      <path d="M 372.028833 355.449375 
L 372.028833 22.809375 
" clip-path="url(#p012e565a7e)" style="fill: none; stroke: #b0b0b0; stroke-width: 0.8; stroke-linecap: square"/>
     </g>
     <g id="line2d_8">
      <g>
       <use xlink:href="#m659b5e3910" x="372.028833" y="355.449375" style="stroke: #000000; stroke-width: 0.8"/>
      </g>
     </g>
     <g id="text_4">
      <!-- 0.6 -->
      <g transform="translate(364.528833 369.324375) scale(0.1 -0.1)">
       <defs>
        <path id="SimHei-36" d="M 250 1612 
Q 275 1975 387 2225 
Q 500 2475 725 2850 
L 1750 4450 
L 2325 4450 
L 1275 2800 
Q 1950 2975 2350 2750 
Q 2750 2525 2887 2237 
Q 3025 1950 3037 1612 
Q 3050 1275 2937 950 
Q 2825 625 2537 362 
Q 2250 100 1737 75 
Q 1225 50 862 262 
Q 500 475 362 862 
Q 225 1250 250 1612 
z
M 1025 787 
Q 1250 550 1625 525 
Q 2000 500 2250 775 
Q 2500 1050 2500 1575 
Q 2500 2100 2187 2300 
Q 1875 2500 1487 2450 
Q 1100 2400 925 2075 
Q 750 1750 775 1387 
Q 800 1025 1025 787 
z
" transform="scale(0.015625)"/>
       </defs>
       <use xlink:href="#SimHei-30"/>
       <use xlink:href="#SimHei-2e" x="50"/>
       <use xlink:href="#SimHei-36" x="100"/>
      </g>
     </g>
    </g>
    <g id="xtick_5">
     <g id="line2d_9">
      <path d="M 473.48338 355.449375 
L 473.48338 22.809375 
" clip-path="url(#p012e565a7e)" style="fill: none; stroke: #b0b0b0; stroke-width: 0.8; stroke-linecap: square"/>
     </g>
     <g id="line2d_10">
      <g>
       <use xlink:href="#m659b5e3910" x="473.48338" y="355.449375" style="stroke: #000000; stroke-width: 0.8"/>
      </g>
     </g>
     <g id="text_5">
      <!-- 0.8 -->
      <g transform="translate(465.98338 369.324375) scale(0.1 -0.1)">
       <defs>
        <path id="SimHei-38" d="M 175 1375 
Q 175 1675 325 1962 
Q 475 2250 825 2425 
Q 525 2600 425 2812 
Q 325 3025 312 3300 
Q 300 3575 387 3775 
Q 475 3975 650 4150 
Q 825 4325 1037 4387 
Q 1250 4450 1500 4450 
Q 1750 4450 1950 4400 
Q 2150 4350 2375 4187 
Q 2600 4025 2700 3725 
Q 2800 3425 2687 3025 
Q 2575 2625 2100 2400 
Q 2525 2275 2700 2012 
Q 2875 1750 2875 1375 
Q 2875 1000 2762 775 
Q 2650 550 2512 400 
Q 2375 250 2137 162 
Q 1900 75 1537 75 
Q 1175 75 912 162 
Q 650 250 475 425 
Q 300 600 237 837 
Q 175 1075 175 1375 
z
M 687 1400 
Q 675 1100 787 875 
Q 900 650 1200 587 
Q 1500 525 1825 600 
Q 2150 675 2275 950 
Q 2400 1225 2362 1500 
Q 2325 1775 2050 1962 
Q 1775 2150 1450 2125 
Q 1125 2100 912 1900 
Q 700 1700 687 1400 
z
M 775 3350 
Q 775 3100 950 2875 
Q 1125 2650 1500 2650 
Q 1875 2650 2062 2875 
Q 2250 3100 2237 3412 
Q 2225 3725 2012 3875 
Q 1800 4025 1437 4000 
Q 1075 3975 925 3787 
Q 775 3600 775 3350 
z
" transform="scale(0.015625)"/>
       </defs>
       <use xlink:href="#SimHei-30"/>
       <use xlink:href="#SimHei-2e" x="50"/>
       <use xlink:href="#SimHei-38" x="100"/>
      </g>
     </g>
    </g>
    <g id="xtick_6">
     <g id="line2d_11">
      <path d="M 574.937926 355.449375 
L 574.937926 22.809375 
" clip-path="url(#p012e565a7e)" style="fill: none; stroke: #b0b0b0; stroke-width: 0.8; stroke-linecap: square"/>
     </g>
     <g id="line2d_12">
      <g>
       <use xlink:href="#m659b5e3910" x="574.937926" y="355.449375" style="stroke: #000000; stroke-width: 0.8"/>
      </g>
     </g>
     <g id="text_6">
      <!-- 1.0 -->
      <g transform="translate(567.437926 369.324375) scale(0.1 -0.1)">
       <defs>
        <path id="SimHei-31" d="M 1400 3600 
Q 1075 3275 575 2975 
L 575 3450 
Q 1200 3875 1600 4450 
L 1900 4450 
L 1900 150 
L 1400 150 
L 1400 3600 
z
" transform="scale(0.015625)"/>
       </defs>
       <use xlink:href="#SimHei-31"/>
       <use xlink:href="#SimHei-2e" x="50"/>
       <use xlink:href="#SimHei-30" x="100"/>
      </g>
     </g>
    </g>
    <g id="text_7">
     <!-- 阈值 -->
     <g transform="translate(311.301562 382.543125) scale(0.1 -0.1)">
      <defs>
       <path id="SimHei-9608" d="M 5225 825 
Q 4925 75 4612 150 
Q 4300 225 3975 800 
Q 3850 600 3687 362 
Q 3525 125 3325 -100 
Q 3150 50 2875 175 
Q 3150 425 3337 687 
Q 3525 950 3700 1250 
Q 3525 1750 3437 2087 
Q 3350 2425 3300 3175 
L 1900 3175 
Q 1675 3175 1350 3150 
L 1350 3550 
Q 1675 3525 1900 3525 
L 3300 3525 
Q 3250 4025 3225 4300 
Q 3425 4275 3775 4275 
Q 3750 3850 3750 3525 
L 4425 3525 
Q 4675 3525 5075 3550 
L 5075 3150 
Q 4675 3175 4425 3175 
L 3750 3175 
Q 3750 2900 3812 2475 
Q 3875 2050 4000 1775 
Q 4075 1975 4137 2237 
Q 4200 2500 4250 2925 
Q 4675 2800 4850 2725 
Q 4700 2550 4562 2112 
Q 4425 1675 4225 1200 
Q 4350 950 4537 787 
Q 4725 625 4850 1100 
Q 5075 925 5225 825 
z
M 5900 4875 
Q 5875 4400 5875 3825 
L 5875 100 
Q 5875 -400 5550 -475 
Q 5225 -550 4850 -625 
Q 4750 -350 4575 -50 
Q 5150 -75 5300 -50 
Q 5450 -25 5450 300 
L 5450 4500 
L 3600 4500 
Q 3050 4500 2400 4475 
L 2400 4900 
Q 3050 4875 3550 4875 
L 5900 4875 
z
M 3050 2725 
Q 2975 2450 2975 2200 
L 2975 1300 
L 1450 1300 
Q 1475 1550 1475 1725 
L 1475 2200 
Q 1475 2425 1450 2725 
L 3050 2725 
z
M 1075 3850 
Q 1050 3475 1050 3100 
L 1050 -575 
L 550 -575 
Q 600 100 600 625 
L 600 2975 
Q 600 3500 550 3850 
L 1075 3850 
z
M 3100 1050 
Q 3075 775 3100 650 
Q 2775 575 2200 450 
Q 1625 325 1325 200 
Q 1200 475 1125 725 
Q 1425 750 1987 850 
Q 2550 950 3100 1050 
z
M 1375 5275 
Q 1650 4900 1975 4375 
Q 1725 4225 1475 4100 
Q 1200 4625 900 5000 
Q 1150 5200 1375 5275 
z
M 2550 1675 
L 2550 2350 
L 1900 2350 
L 1900 1675 
L 2550 1675 
z
M 4500 4400 
Q 4625 4150 4800 3875 
Q 4625 3800 4350 3650 
Q 4225 3925 4075 4175 
Q 4325 4350 4500 4400 
z
" transform="scale(0.015625)"/>
       <path id="SimHei-503c" d="M 3675 4450 
L 3675 5100 
Q 3975 5075 4350 5050 
Q 4225 4875 4200 4450 
L 5125 4450 
Q 5550 4450 5875 4475 
L 5875 4025 
Q 5525 4050 5125 4050 
L 4175 4050 
L 4125 3500 
L 5400 3500 
Q 5375 3200 5375 2700 
L 5375 150 
Q 5875 150 6100 175 
L 6100 -275 
Q 5775 -250 5200 -250 
L 2850 -250 
Q 2275 -250 1900 -275 
L 1900 175 
Q 2125 150 2600 150 
L 2600 2700 
Q 2600 3175 2575 3500 
L 3600 3500 
L 3650 4050 
L 3200 4050 
Q 2575 4050 2225 4025 
L 2225 4475 
Q 2550 4450 3200 4450 
L 3675 4450 
z
M 2225 4900 
Q 2025 4675 1650 3750 
L 1650 450 
Q 1650 -75 1675 -550 
L 1150 -550 
Q 1175 -125 1175 375 
L 1175 2950 
Q 875 2450 625 2150 
Q 425 2425 250 2575 
Q 500 2825 937 3537 
Q 1375 4250 1625 5150 
Q 1975 4975 2225 4900 
z
M 4925 2650 
L 4925 3150 
L 3075 3150 
L 3075 2650 
L 4925 2650 
z
M 4925 150 
L 4925 625 
L 3075 625 
L 3075 150 
L 4925 150 
z
M 4925 1000 
L 4925 1450 
L 3075 1450 
L 3075 1000 
L 4925 1000 
z
M 4925 1825 
L 4925 2275 
L 3075 2275 
L 3075 1825 
L 4925 1825 
z
" transform="scale(0.015625)"/>
      </defs>
      <use xlink:href="#SimHei-9608"/>
      <use xlink:href="#SimHei-503c" x="100"/>
     </g>
    </g>
   </g>
   <g id="matplotlib.axis_2">
    <g id="ytick_1">
     <g id="line2d_13">
      <path d="M 42.301563 322.368648 
L 600.301563 322.368648 
" clip-path="url(#p012e565a7e)" style="fill: none; stroke: #b0b0b0; stroke-width: 0.8; stroke-linecap: square"/>
     </g>
     <g id="line2d_14">
      <defs>
       <path id="m42968b7cc3" d="M 0 0 
L -3.5 0 
" style="stroke: #000000; stroke-width: 0.8"/>
      </defs>
      <g>
       <use xlink:href="#m42968b7cc3" x="42.301563" y="322.368648" style="stroke: #000000; stroke-width: 0.8"/>
      </g>
     </g>
     <g id="text_8">
      <!-- 0.1 -->
      <g transform="translate(20.301563 325.806148) scale(0.1 -0.1)">
       <use xlink:href="#SimHei-30"/>
       <use xlink:href="#SimHei-2e" x="50"/>
       <use xlink:href="#SimHei-31" x="100"/>
      </g>
     </g>
    </g>
    <g id="ytick_2">
     <g id="line2d_15">
      <path d="M 42.301563 267.925193 
L 600.301563 267.925193 
" clip-path="url(#p012e565a7e)" style="fill: none; stroke: #b0b0b0; stroke-width: 0.8; stroke-linecap: square"/>
     </g>
     <g id="line2d_16">
      <g>
       <use xlink:href="#m42968b7cc3" x="42.301563" y="267.925193" style="stroke: #000000; stroke-width: 0.8"/>
      </g>
     </g>
     <g id="text_9">
      <!-- 0.2 -->
      <g transform="translate(20.301563 271.362693) scale(0.1 -0.1)">
       <use xlink:href="#SimHei-30"/>
       <use xlink:href="#SimHei-2e" x="50"/>
       <use xlink:href="#SimHei-32" x="100"/>
      </g>
     </g>
    </g>
    <g id="ytick_3">
     <g id="line2d_17">
      <path d="M 42.301563 213.481739 
L 600.301563 213.481739 
" clip-path="url(#p012e565a7e)" style="fill: none; stroke: #b0b0b0; stroke-width: 0.8; stroke-linecap: square"/>
     </g>
     <g id="line2d_18">
      <g>
       <use xlink:href="#m42968b7cc3" x="42.301563" y="213.481739" style="stroke: #000000; stroke-width: 0.8"/>
      </g>
     </g>
     <g id="text_10">
      <!-- 0.3 -->
      <g transform="translate(20.301563 216.919239) scale(0.1 -0.1)">
       <defs>
        <path id="SimHei-33" d="M 250 1225 
L 700 1300 
Q 800 975 1025 762 
Q 1250 550 1587 562 
Q 1925 575 2125 837 
Q 2325 1100 2300 1437 
Q 2275 1775 2037 1962 
Q 1800 2150 1275 2225 
L 1275 2550 
Q 1800 2600 2037 2825 
Q 2275 3050 2250 3412 
Q 2225 3775 1925 3937 
Q 1625 4100 1287 3975 
Q 950 3850 750 3275 
L 300 3350 
Q 450 3800 712 4100 
Q 975 4400 1425 4450 
Q 1875 4500 2212 4337 
Q 2550 4175 2687 3837 
Q 2825 3500 2725 3100 
Q 2625 2700 2150 2400 
Q 2500 2250 2687 1950 
Q 2875 1650 2812 1162 
Q 2750 675 2375 375 
Q 2000 75 1525 87 
Q 1050 100 700 387 
Q 350 675 250 1225 
z
" transform="scale(0.015625)"/>
       </defs>
       <use xlink:href="#SimHei-30"/>
       <use xlink:href="#SimHei-2e" x="50"/>
       <use xlink:href="#SimHei-33" x="100"/>
      </g>
     </g>
    </g>
    <g id="ytick_4">
     <g id="line2d_19">
      <path d="M 42.301563 159.038284 
L 600.301563 159.038284 
" clip-path="url(#p012e565a7e)" style="fill: none; stroke: #b0b0b0; stroke-width: 0.8; stroke-linecap: square"/>
     </g>
     <g id="line2d_20">
      <g>
       <use xlink:href="#m42968b7cc3" x="42.301563" y="159.038284" style="stroke: #000000; stroke-width: 0.8"/>
      </g>
     </g>
     <g id="text_11">
      <!-- 0.4 -->
      <g transform="translate(20.301563 162.475784) scale(0.1 -0.1)">
       <use xlink:href="#SimHei-30"/>
       <use xlink:href="#SimHei-2e" x="50"/>
       <use xlink:href="#SimHei-34" x="100"/>
      </g>
     </g>
    </g>
    <g id="ytick_5">
     <g id="line2d_21">
      <path d="M 42.301563 104.59483 
L 600.301563 104.59483 
" clip-path="url(#p012e565a7e)" style="fill: none; stroke: #b0b0b0; stroke-width: 0.8; stroke-linecap: square"/>
     </g>
     <g id="line2d_22">
      <g>
       <use xlink:href="#m42968b7cc3" x="42.301563" y="104.59483" style="stroke: #000000; stroke-width: 0.8"/>
      </g>
     </g>
     <g id="text_12">
      <!-- 0.5 -->
      <g transform="translate(20.301563 108.03233) scale(0.1 -0.1)">
       <defs>
        <path id="SimHei-35" d="M 550 1325 
Q 725 650 1150 575 
Q 1575 500 1837 662 
Q 2100 825 2212 1087 
Q 2325 1350 2312 1675 
Q 2300 2000 2137 2225 
Q 1975 2450 1725 2525 
Q 1475 2600 1162 2525 
Q 850 2450 650 2175 
L 225 2225 
Q 275 2375 700 4375 
L 2675 4375 
L 2675 3925 
L 1075 3925 
Q 950 3250 825 2850 
Q 1200 3025 1525 3012 
Q 1850 3000 2150 2862 
Q 2450 2725 2587 2487 
Q 2725 2250 2787 2012 
Q 2850 1775 2837 1500 
Q 2825 1225 2725 937 
Q 2625 650 2425 462 
Q 2225 275 1937 162 
Q 1650 50 1275 75 
Q 900 100 562 350 
Q 225 600 100 1200 
L 550 1325 
z
" transform="scale(0.015625)"/>
       </defs>
       <use xlink:href="#SimHei-30"/>
       <use xlink:href="#SimHei-2e" x="50"/>
       <use xlink:href="#SimHei-35" x="100"/>
      </g>
     </g>
    </g>
    <g id="ytick_6">
     <g id="line2d_23">
      <path d="M 42.301563 50.151375 
L 600.301563 50.151375 
" clip-path="url(#p012e565a7e)" style="fill: none; stroke: #b0b0b0; stroke-width: 0.8; stroke-linecap: square"/>
     </g>
     <g id="line2d_24">
      <g>
       <use xlink:href="#m42968b7cc3" x="42.301563" y="50.151375" style="stroke: #000000; stroke-width: 0.8"/>
      </g>
     </g>
     <g id="text_13">
      <!-- 0.6 -->
      <g transform="translate(20.301563 53.588875) scale(0.1 -0.1)">
       <use xlink:href="#SimHei-30"/>
       <use xlink:href="#SimHei-2e" x="50"/>
       <use xlink:href="#SimHei-36" x="100"/>
      </g>
     </g>
    </g>
    <g id="text_14">
     <!-- F1分数 -->
     <g transform="translate(15.051563 204.129375) rotate(-90) scale(0.1 -0.1)">
      <defs>
       <path id="SimHei-46" d="M 2925 3925 
L 875 3925 
L 875 2525 
L 2425 2525 
L 2425 2050 
L 875 2050 
L 875 125 
L 300 125 
L 300 4400 
L 2925 4400 
L 2925 3925 
z
" transform="scale(0.015625)"/>
       <path id="SimHei-5206" d="M 1000 -650 
Q 825 -375 575 -225 
Q 975 -75 1300 137 
Q 1625 350 1875 662 
Q 2125 975 2250 1350 
Q 2375 1725 2425 2275 
Q 1850 2275 1500 2250 
L 1500 2775 
Q 1900 2750 2525 2750 
L 5025 2750 
Q 4975 2375 4950 2100 
L 4750 250 
Q 4700 -200 4350 -350 
Q 4000 -500 3575 -525 
Q 3550 -275 3325 50 
Q 3850 25 4037 87 
Q 4225 150 4275 525 
L 4450 2275 
L 2950 2275 
Q 2875 1625 2737 1187 
Q 2600 750 2350 425 
Q 2100 100 1750 -175 
Q 1400 -450 1000 -650 
z
M 3950 5175 
Q 4125 4650 4662 3975 
Q 5200 3300 6175 2800 
Q 5975 2625 5775 2275 
Q 5325 2600 4987 2887 
Q 4650 3175 4425 3425 
Q 4200 3675 3925 4137 
Q 3650 4600 3475 5000 
Q 3750 5075 3950 5175 
z
M 2700 4825 
Q 2475 4425 2325 4125 
Q 2175 3825 2025 3587 
Q 1875 3350 1575 2950 
Q 1275 2550 850 2125 
Q 625 2350 400 2475 
Q 900 2925 1187 3300 
Q 1475 3675 1737 4112 
Q 2000 4550 2200 5075 
Q 2400 4925 2700 4825 
z
" transform="scale(0.015625)"/>
       <path id="SimHei-6570" d="M 4525 4925 
Q 4475 4800 4400 4587 
Q 4325 4375 4175 3825 
L 5325 3825 
Q 5575 3825 5925 3850 
L 5925 3400 
Q 5650 3425 5500 3425 
Q 5500 3025 5362 2162 
Q 5225 1300 4875 675 
Q 5125 375 5437 137 
Q 5750 -100 6025 -200 
Q 5725 -425 5625 -625 
Q 5325 -450 5075 -225 
Q 4825 0 4575 325 
Q 4300 25 3987 -187 
Q 3675 -400 3200 -650 
Q 3075 -425 2850 -300 
Q 3225 -150 3650 125 
Q 4075 400 4300 675 
Q 4125 1025 3962 1425 
Q 3800 1825 3675 2475 
Q 3600 2275 3425 1950 
Q 3250 2050 3000 2150 
Q 3400 2850 3650 3675 
Q 3900 4500 3975 5100 
Q 4275 4975 4525 4925 
z
M 2100 2250 
Q 2000 2150 1875 1925 
L 3250 1925 
Q 3100 1300 2725 675 
Q 3125 525 3350 400 
Q 3225 225 3125 25 
Q 2900 175 2450 325 
Q 1950 -225 725 -650 
Q 600 -375 400 -275 
Q 1575 0 2000 475 
Q 1300 650 850 775 
Q 1000 1000 1250 1525 
Q 1000 1525 425 1500 
L 425 1950 
Q 900 1925 1400 1925 
Q 1500 2150 1550 2425 
Q 1825 2325 2100 2250 
z
M 1775 3950 
Q 1775 4550 1750 5100 
L 2250 5100 
Q 2225 4575 2225 3950 
Q 3075 3950 3425 3975 
L 3425 3525 
Q 3075 3550 2225 3550 
Q 2225 2825 2250 2425 
L 1750 2425 
Q 1775 2775 1775 3300 
Q 1650 3100 1300 2787 
Q 950 2475 650 2300 
Q 525 2525 275 2625 
Q 500 2700 875 2975 
Q 1250 3250 1450 3550 
Q 950 3550 500 3525 
L 500 3975 
Q 925 3950 1775 3950 
z
M 3975 3175 
Q 4200 1700 4600 1125 
Q 4850 1700 4937 2287 
Q 5025 2875 5050 3425 
L 4075 3425 
L 3975 3175 
z
M 1450 1000 
Q 1750 925 2275 800 
Q 2475 1050 2650 1525 
L 1725 1525 
Q 1600 1275 1450 1000 
z
M 3325 4825 
Q 3200 4625 3125 4450 
Q 3050 4275 2925 4025 
Q 2725 4125 2525 4175 
Q 2725 4500 2900 5000 
Q 3150 4875 3325 4825 
z
M 2575 3375 
Q 2900 3050 3200 2725 
Q 3050 2600 2875 2425 
Q 2525 2850 2300 3100 
Q 2450 3225 2575 3375 
z
M 925 5000 
Q 1275 4650 1500 4300 
L 1125 4075 
Q 950 4425 600 4725 
Q 825 4875 925 5000 
z
" transform="scale(0.015625)"/>
      </defs>
      <use xlink:href="#SimHei-46"/>
      <use xlink:href="#SimHei-31" x="50"/>
      <use xlink:href="#SimHei-5206" x="100"/>
      <use xlink:href="#SimHei-6570" x="200"/>
     </g>
    </g>
   </g>
   <g id="line2d_25">
    <path d="M 67.665199 340.329375 
L 67.781952 301.462952 
L 68.118259 286.520002 
L 68.148533 286.971418 
L 68.355686 283.346944 
L 68.744398 278.449944 
L 68.825742 277.824003 
L 68.93416 276.915855 
L 69.572441 272.414299 
L 69.840421 271.810261 
L 70.019664 270.373286 
L 70.166767 270.164787 
L 70.342001 269.216342 
L 70.418099 269.003281 
L 70.418714 268.896434 
L 70.623775 268.682103 
L 70.842284 268.466919 
L 70.994156 268.142532 
L 71.191007 267.925193 
L 71.39762 266.714115 
L 71.874873 265.703011 
L 72.941662 263.269966 
L 73.185906 263.032678 
L 73.470885 262.674881 
L 73.722746 262.435097 
L 73.847937 262.194303 
L 73.976592 261.831206 
L 74.068929 261.58786 
L 74.25268 261.343482 
L 74.419808 261.098065 
L 74.723086 260.851603 
L 74.815055 260.604088 
L 74.952034 260.479934 
L 75.504304 260.355515 
L 75.757357 259.477071 
L 75.823342 259.350496 
L 76.252616 259.096525 
L 76.275993 258.969127 
L 76.492582 258.713502 
L 76.954728 257.939931 
L 77.592953 257.679817 
L 77.836002 256.892599 
L 78.1488 256.627876 
L 78.247463 256.094908 
L 78.492901 255.826648 
L 78.581046 255.286534 
L 78.80625 255.150751 
L 78.868373 254.878274 
L 79.188808 254.741576 
L 79.295796 255.826648 
L 79.677891 255.417913 
L 80.432342 255.281054 
L 80.719008 254.730517 
L 81.352557 254.453374 
L 81.471586 254.174969 
L 81.585537 253.895295 
L 81.98645 253.614342 
L 82.214658 253.332102 
L 82.530622 253.048566 
L 83.070177 252.906309 
L 83.161086 252.620812 
L 83.79032 252.477569 
L 83.856135 252.190091 
L 84.105685 251.756371 
L 85.488555 251.465544 
L 85.584322 251.026758 
L 86.196748 250.879813 
L 86.778353 250.139905 
L 87.172994 249.990879 
L 87.212838 249.841502 
L 87.864287 249.541689 
L 88.160881 249.391251 
L 89.626914 249.089306 
L 90.068578 248.937796 
L 90.196536 248.633696 
L 90.382898 248.328145 
L 91.013604 248.021135 
L 91.360921 247.712653 
L 91.796299 247.402691 
L 92.534766 246.934946 
L 93.783928 246.621233 
L 94.133308 246.306001 
L 94.702112 245.989238 
L 96.344822 245.83028 
L 96.383471 245.670934 
L 96.641303 245.511201 
L 97.334965 245.190564 
L 97.713585 244.544569 
L 98.277793 244.219187 
L 98.335598 244.055895 
L 99.339837 243.728102 
L 99.455631 243.563598 
L 103.96345 243.067636 
L 103.984944 242.901494 
L 104.832254 242.734938 
L 104.838902 242.567968 
L 105.630812 242.400581 
L 105.85501 242.232776 
L 106.653965 242.064552 
L 106.693548 241.895907 
L 107.454194 241.726839 
L 107.46136 241.557347 
L 107.982266 241.387429 
L 108.873962 241.217083 
L 109.269185 240.875104 
L 111.369554 240.531394 
L 111.551475 240.358887 
L 113.699257 240.012559 
L 114.00036 239.838735 
L 114.950165 239.664469 
L 114.961625 239.489758 
L 115.220043 239.314602 
L 116.329194 238.962946 
L 116.685134 238.432077 
L 118.022978 238.25421 
L 118.418251 238.075886 
L 119.787823 237.897102 
L 119.996571 237.717857 
L 120.589065 237.538149 
L 120.762539 237.357975 
L 121.238742 237.177335 
L 122.092922 236.996227 
L 125.421722 236.632596 
L 125.423548 236.450071 
L 127.122918 236.083591 
L 131.427356 235.344858 
L 134.409484 234.972576 
L 134.495905 234.785699 
L 135.569193 234.222102 
L 136.729568 234.033241 
L 137.120887 233.843879 
L 137.824649 233.654015 
L 138.179141 233.272768 
L 138.321604 233.081382 
L 138.958499 232.889485 
L 138.982242 232.697076 
L 139.332546 232.310708 
L 142.233015 231.922264 
L 142.469466 231.531725 
L 144.842819 231.335665 
L 145.465782 231.139075 
L 145.766047 230.744297 
L 146.149286 230.546105 
L 148.305673 230.347374 
L 148.54409 230.148102 
L 153.492914 229.948288 
L 155.137871 229.747928 
L 155.323193 229.54702 
L 155.664132 229.345563 
L 159.94578 228.737872 
L 160.881669 228.534193 
L 162.654833 228.329954 
L 162.657335 228.125151 
L 162.975741 227.919782 
L 164.103832 227.713845 
L 166.160834 227.507338 
L 170.1925 227.300258 
L 170.834482 227.092602 
L 172.396192 226.884369 
L 172.521829 226.675556 
L 175.19246 226.466161 
L 175.496247 226.25618 
L 177.205644 225.834455 
L 177.726078 225.410361 
L 179.330488 225.197419 
L 179.432972 224.983877 
L 186.834464 224.339627 
L 187.206818 223.907081 
L 187.700713 225.236575 
L 189.814075 225.020963 
L 190.09235 224.804736 
L 190.739011 224.587893 
L 192.273146 224.37043 
L 192.942181 223.933634 
L 194.060339 223.714296 
L 194.469506 223.494328 
L 195.242885 223.273727 
L 195.280982 223.05249 
L 196.019824 222.830615 
L 197.939662 222.608098 
L 199.241253 222.16113 
L 199.246469 221.936673 
L 203.089546 221.485798 
L 210.165573 221.032291 
L 211.73726 220.804542 
L 211.987235 220.576127 
L 214.110122 220.347042 
L 214.172211 220.117284 
L 222.464579 219.886851 
L 238.053739 218.958299 
L 238.952317 218.48989 
L 244.164503 218.018693 
L 255.092435 217.782041 
L 263.50493 217.306615 
L 263.960039 217.067834 
L 268.261975 216.828338 
L 275.236183 215.863127 
L 275.549275 215.620001 
L 281.728356 215.37614 
L 282.003743 215.13154 
L 285.292311 214.886198 
L 286.365728 214.64011 
L 290.710387 214.145683 
L 293.286433 213.897338 
L 293.475694 213.648232 
L 294.315055 213.14773 
L 297.138551 212.644147 
L 302.695092 212.391192 
L 305.227915 212.137456 
L 309.617505 211.882935 
L 314.676939 211.371527 
L 314.789098 211.114632 
L 315.831916 210.856938 
L 327.539873 210.59844 
L 329.83341 210.339137 
L 330.620116 210.079023 
L 336.152725 209.818095 
L 339.118676 209.556348 
L 349.442755 209.030387 
L 352.917908 208.766164 
L 353.370447 208.501107 
L 368.251939 207.968477 
L 370.068476 207.700896 
L 370.795254 207.432466 
L 371.158175 207.163182 
L 376.663239 206.89304 
L 379.78557 206.622037 
L 384.545715 206.350168 
L 384.691663 206.077429 
L 385.416325 205.803816 
L 385.663049 205.529324 
L 386.995088 205.25395 
L 389.27133 204.977689 
L 398.392628 204.422489 
L 398.868328 204.143541 
L 403.287443 203.863689 
L 404.638409 203.582929 
L 406.789113 203.301255 
L 408.866131 202.735151 
L 410.981852 202.450712 
L 412.103268 202.165341 
L 413.979067 201.879035 
L 417.395049 201.591789 
L 417.863492 201.303597 
L 419.299603 201.014457 
L 427.001903 200.724361 
L 427.361165 200.433307 
L 430.538496 200.14129 
L 437.179096 199.848303 
L 439.06823 199.554343 
L 441.999289 199.259405 
L 442.198876 198.963484 
L 446.072537 198.666575 
L 446.528855 198.368673 
L 451.600913 197.769869 
L 452.327207 197.468958 
L 452.600781 197.167033 
L 457.866771 196.864091 
L 460.725022 196.560124 
L 460.767171 198.097548 
L 465.3355 197.794642 
L 465.94593 197.490707 
L 466.275471 197.185739 
L 469.248558 196.572679 
L 469.460813 196.264578 
L 469.915681 195.955421 
L 475.45733 195.645204 
L 478.723947 195.33392 
L 481.934779 194.708134 
L 491.216931 193.124621 
L 502.355773 192.804608 
L 506.58534 192.161225 
L 506.61993 191.837843 
L 508.263397 191.513327 
L 508.540508 191.18767 
L 511.231375 190.860867 
L 512.858485 190.53291 
L 513.782491 190.203795 
L 513.857294 189.873515 
L 515.024215 189.542064 
L 518.154438 191.143483 
L 520.067337 190.813112 
L 520.572003 190.14883 
L 521.849496 189.479786 
L 523.109422 189.143462 
L 525.679738 188.805928 
L 525.927521 188.467178 
L 527.123619 188.127206 
L 527.131571 187.786003 
L 527.663359 187.443565 
L 527.741367 187.099883 
L 528.934049 186.061313 
L 529.766985 185.712591 
L 533.324258 185.011308 
L 533.435829 184.658733 
L 533.819612 184.30486 
L 533.95014 183.94968 
L 534.466356 183.593188 
L 534.542852 183.235375 
L 535.095926 182.876235 
L 535.99275 182.515759 
L 536.014157 182.153941 
L 537.799824 181.426247 
L 540.018467 181.060356 
L 540.511734 180.693092 
L 541.482001 180.324447 
L 541.693501 179.954414 
L 542.209505 179.582984 
L 543.826667 178.835904 
L 543.931465 178.460238 
L 544.443297 178.083143 
L 544.508152 179.778648 
L 544.980405 179.40263 
L 545.711961 179.025174 
L 547.441238 178.646272 
L 548.237921 177.884095 
L 549.450256 177.500804 
L 551.255818 177.116033 
L 552.08954 176.342018 
L 552.21384 175.952755 
L 553.073716 175.561978 
L 553.283522 175.169678 
L 553.300333 174.775845 
L 555.530617 174.380471 
L 555.592661 173.983546 
L 557.047699 173.185009 
L 557.082107 172.783377 
L 557.55563 172.380158 
L 557.574679 174.131519 
L 558.140905 173.729375 
L 558.953462 173.325632 
L 560.17387 172.92028 
L 560.857986 172.513311 
L 561.042666 171.282595 
L 562.939782 170.453847 
L 563.365169 169.198117 
L 563.710221 168.776138 
L 563.791253 167.927011 
L 563.838662 167.499843 
L 564.162155 167.070925 
L 564.837412 166.640245 
L 565.000957 165.773557 
L 565.666719 165.337527 
L 566.157537 164.460039 
L 566.235153 164.018559 
L 567.010973 163.575239 
L 567.212072 162.234126 
L 567.719066 161.783332 
L 567.780777 161.33064 
L 567.856608 163.17323 
L 568.566092 162.721562 
L 569.0069 162.267981 
L 569.214589 160.89563 
L 569.26333 160.43427 
L 569.859126 159.970934 
L 569.904994 159.50561 
L 570.161122 158.568944 
L 570.617229 156.191568 
L 570.766654 154.740117 
L 571.212511 154.252046 
L 571.676208 153.269441 
L 571.717268 152.774878 
L 571.907633 152.278121 
L 571.946667 151.779157 
L 572.251565 151.27797 
L 572.331327 149.760924 
L 572.479634 148.738171 
L 572.647926 145.613871 
L 572.753328 144.0194 
L 572.937434 142.944145 
L 572.948803 144.923314 
L 572.99337 144.385289 
L 573.150385 143.301714 
L 573.27287 141.10397 
L 573.356291 137.728674 
L 573.536738 137.156704 
L 573.697562 134.255307 
L 573.887685 130.679531 
L 573.888834 130.073293 
L 574.132565 132.152628 
L 574.133533 131.547035 
L 574.346 127.222462 
L 574.450162 122.089513 
L 574.574461 115.3686 
L 574.597108 119.758126 
L 574.615552 123.519025 
L 574.685759 115.843477 
L 574.697672 118.130495 
L 574.767578 114.507503 
L 574.780095 114.619828 
L 574.922869 64.500813 
L 574.934298 37.929375 
L 574.937926 248.709856 
L 574.937926 248.709856 
" clip-path="url(#p012e565a7e)" style="fill: none; stroke: #0000ff; stroke-width: 1.5; stroke-linecap: square"/>
   </g>
   <g id="line2d_26">
    <path d="M 574.934298 355.449375 
L 574.934298 22.809375 
" clip-path="url(#p012e565a7e)" style="fill: none; stroke-dasharray: 5.55,2.4; stroke-dashoffset: 0; stroke: #ff0000; stroke-width: 1.5"/>
   </g>
   <g id="patch_3">
    <path d="M 42.301563 355.449375 
L 42.301563 22.809375 
" style="fill: none; stroke: #000000; stroke-width: 0.8; stroke-linejoin: miter; stroke-linecap: square"/>
   </g>
   <g id="patch_4">
    <path d="M 600.301563 355.449375 
L 600.301563 22.809375 
" style="fill: none; stroke: #000000; stroke-width: 0.8; stroke-linejoin: miter; stroke-linecap: square"/>
   </g>
   <g id="patch_5">
    <path d="M 42.301563 355.449375 
L 600.301562 355.449375 
" style="fill: none; stroke: #000000; stroke-width: 0.8; stroke-linejoin: miter; stroke-linecap: square"/>
   </g>
   <g id="patch_6">
    <path d="M 42.301563 22.809375 
L 600.301562 22.809375 
" style="fill: none; stroke: #000000; stroke-width: 0.8; stroke-linejoin: miter; stroke-linecap: square"/>
   </g>
   <g id="text_15">
    <!-- F1分数与阈值的关系 -->
    <g transform="translate(267.301562 16.809375) scale(0.12 -0.12)">
     <defs>
      <path id="SimHei-4e0e" d="M 5350 100 
Q 5275 -300 4925 -425 
Q 4575 -550 3900 -600 
Q 3875 -375 3650 -25 
Q 4375 -50 4575 0 
Q 4775 50 4837 225 
Q 4900 400 5100 2350 
L 1125 2350 
Q 1450 4350 1475 5200 
Q 1800 5150 2075 5125 
Q 1975 4825 1900 4275 
L 4900 4275 
Q 5400 4275 5800 4300 
L 5800 3825 
Q 5400 3850 4950 3850 
L 1850 3850 
L 1700 2750 
L 5675 2750 
Q 5625 2450 5575 2050 
L 5350 100 
z
M 3675 1350 
Q 4125 1350 4500 1375 
L 4500 875 
Q 4125 900 3850 900 
L 1450 900 
Q 1000 900 500 875 
L 500 1375 
Q 1000 1350 1450 1350 
L 3675 1350 
z
" transform="scale(0.015625)"/>
      <path id="SimHei-7684" d="M 2100 4975 
Q 1975 4750 1750 3950 
L 2875 3950 
Q 2850 3525 2850 2875 
L 2850 675 
Q 2850 300 2875 -400 
L 2375 -400 
L 2375 100 
L 1100 100 
L 1100 -450 
L 600 -450 
Q 625 350 625 550 
L 625 2850 
Q 625 3525 600 3950 
L 1325 3950 
Q 1450 4525 1525 5150 
Q 1875 5025 2100 4975 
z
M 5825 3075 
Q 5800 1550 5700 175 
Q 5650 -275 5225 -425 
Q 4800 -575 4275 -625 
Q 4250 -350 4050 -50 
Q 4550 -75 4837 -25 
Q 5125 25 5200 200 
Q 5275 375 5312 1225 
Q 5350 2075 5375 3600 
L 3925 3600 
Q 3725 3125 3350 2475 
Q 3175 2650 2925 2750 
Q 3150 3050 3350 3475 
Q 3550 3900 3700 4400 
Q 3850 4900 3875 5175 
Q 4225 5025 4475 4950 
Q 4350 4750 4262 4512 
Q 4175 4275 4075 4050 
L 5850 4050 
Q 5825 3525 5825 3075 
z
M 2375 525 
L 2375 1850 
L 1100 1850 
L 1100 525 
L 2375 525 
z
M 2375 2275 
L 2375 3525 
L 1100 3525 
L 1100 2275 
L 2375 2275 
z
M 4350 2050 
Q 4500 1750 4700 1275 
Q 4525 1200 4225 1025 
Q 4050 1500 3900 1837 
Q 3750 2175 3600 2400 
Q 3775 2500 4050 2650 
L 4350 2050 
z
" transform="scale(0.015625)"/>
      <path id="SimHei-5173" d="M 4675 4850 
Q 4525 4675 4362 4375 
Q 4200 4075 4075 3825 
L 4625 3825 
Q 5150 3825 5550 3850 
L 5550 3375 
Q 5225 3400 4700 3400 
L 3400 3400 
L 3400 2150 
L 4975 2150 
Q 5475 2150 5875 2175 
L 5875 1700 
Q 5475 1725 5025 1725 
L 3500 1725 
Q 4250 450 6000 75 
Q 5775 -175 5600 -525 
Q 4025 0 3225 1300 
Q 2800 200 875 -600 
Q 775 -350 500 -150 
Q 2425 375 2875 1725 
L 1550 1725 
Q 975 1725 600 1700 
L 600 2150 
Q 875 2125 1450 2125 
L 2925 2125 
L 2925 3400 
L 1750 3400 
Q 1275 3400 900 3375 
L 900 3850 
Q 1275 3825 1775 3825 
L 3575 3825 
Q 3925 4625 4075 5150 
Q 4325 5000 4675 4850 
z
M 2125 5125 
Q 2450 4725 2800 4175 
Q 2500 4025 2325 3875 
Q 2025 4450 1725 4825 
Q 1950 4975 2125 5125 
z
" transform="scale(0.015625)"/>
      <path id="SimHei-7cfb" d="M 5300 5200 
Q 5450 4950 5725 4675 
Q 4975 4650 4437 4587 
Q 3900 4525 3125 4450 
Q 3250 4325 3475 4225 
Q 3150 4025 2837 3762 
Q 2525 3500 2225 3275 
L 3475 3275 
Q 4100 3700 4525 4050 
Q 4775 3850 5125 3700 
Q 4775 3550 4450 3375 
Q 4125 3200 3387 2737 
Q 2650 2275 2125 1975 
Q 3600 2050 4875 2100 
Q 4750 2225 4225 2625 
Q 4475 2725 4650 2875 
Q 4950 2650 5337 2312 
Q 5725 1975 6075 1650 
Q 5775 1475 5600 1325 
Q 5400 1575 5225 1725 
Q 4550 1700 3625 1650 
L 3625 150 
Q 3625 -325 3387 -412 
Q 3150 -500 2525 -600 
Q 2475 -300 2300 -25 
Q 2875 -25 3012 12 
Q 3150 50 3150 300 
L 3150 1650 
Q 1625 1625 1075 1525 
Q 1000 1775 900 2050 
Q 1450 2100 1875 2300 
Q 2300 2500 2900 2900 
Q 2325 2900 2037 2875 
Q 1750 2850 1400 2800 
Q 1325 3075 1250 3325 
Q 1675 3325 2100 3662 
Q 2525 4000 2750 4400 
Q 1350 4350 925 4300 
Q 850 4550 750 4750 
Q 2150 4750 3250 4850 
Q 4350 4950 5300 5200 
z
M 4625 1250 
Q 4925 1025 5325 737 
Q 5725 450 6000 175 
Q 5800 0 5600 -225 
Q 5275 125 4925 400 
Q 4575 675 4275 875 
Q 4500 1050 4625 1250 
z
M 2200 875 
Q 1900 725 1537 375 
Q 1175 25 800 -300 
Q 575 -75 375 25 
Q 1075 450 1675 1225 
Q 1900 1050 2200 875 
z
" transform="scale(0.015625)"/>
     </defs>
     <use xlink:href="#SimHei-46"/>
     <use xlink:href="#SimHei-31" x="50"/>
     <use xlink:href="#SimHei-5206" x="100"/>
     <use xlink:href="#SimHei-6570" x="200"/>
     <use xlink:href="#SimHei-4e0e" x="300"/>
     <use xlink:href="#SimHei-9608" x="400"/>
     <use xlink:href="#SimHei-503c" x="500"/>
     <use xlink:href="#SimHei-7684" x="600"/>
     <use xlink:href="#SimHei-5173" x="700"/>
     <use xlink:href="#SimHei-7cfb" x="800"/>
    </g>
   </g>
   <g id="legend_1">
    <g id="patch_7">
     <path d="M 49.301563 54.528125 
L 166.301562 54.528125 
Q 168.301562 54.528125 168.301562 52.528125 
L 168.301562 29.809375 
Q 168.301562 27.809375 166.301562 27.809375 
L 49.301563 27.809375 
Q 47.301563 27.809375 47.301563 29.809375 
L 47.301563 52.528125 
Q 47.301563 54.528125 49.301563 54.528125 
z
" style="fill: #ffffff; opacity: 0.8; stroke: #cccccc; stroke-linejoin: miter"/>
    </g>
    <g id="line2d_27">
     <path d="M 51.301563 41.10625 
L 61.301563 41.10625 
L 71.301563 41.10625 
" style="fill: none; stroke-dasharray: 5.55,2.4; stroke-dashoffset: 0; stroke: #ff0000; stroke-width: 1.5"/>
    </g>
    <g id="text_16">
     <!-- 最佳阈值 = 1.0000 -->
     <g transform="translate(79.301563 39.778125) scale(0.1 -0.1)">
      <defs>
       <path id="SimHei-6700" d="M 475 275 
Q 675 300 1100 350 
L 1100 2450 
Q 775 2450 425 2425 
L 425 2850 
Q 775 2825 1125 2825 
L 5025 2825 
Q 5475 2825 5900 2850 
L 5900 2425 
Q 5475 2450 5025 2450 
L 3050 2450 
L 3050 675 
L 3400 775 
Q 3400 550 3425 400 
Q 3225 350 3050 325 
Q 3050 -125 3075 -550 
L 2600 -550 
Q 2625 -125 2625 250 
Q 2350 200 1812 87 
Q 1275 -25 650 -175 
Q 575 100 475 275 
z
M 5100 4925 
Q 5075 4600 5075 4325 
L 5075 3875 
Q 5075 3600 5100 3250 
L 1275 3250 
Q 1300 3600 1300 3875 
L 1300 4325 
Q 1300 4600 1275 4925 
L 5100 4925 
z
M 3300 2050 
Q 3750 2025 4125 2025 
L 5375 2025 
Q 5100 975 4725 400 
Q 5350 0 5925 -100 
Q 5700 -275 5650 -500 
Q 5025 -300 4475 150 
Q 4150 -200 3600 -575 
Q 3500 -425 3250 -275 
Q 3775 -100 4150 350 
Q 3725 775 3500 1675 
L 3300 1675 
L 3300 2050 
z
M 4600 4250 
L 4600 4600 
L 1750 4600 
L 1750 4250 
L 4600 4250 
z
M 4600 3575 
L 4600 3900 
L 1750 3900 
L 1750 3575 
L 4600 3575 
z
M 3900 1675 
Q 4000 1075 4400 625 
Q 4700 1050 4850 1675 
L 3900 1675 
z
M 2625 1250 
L 2625 1675 
L 1525 1675 
L 1525 1250 
L 2625 1250 
z
M 2625 575 
L 2625 925 
L 1525 925 
L 1525 425 
L 2625 575 
z
M 2625 2025 
L 2625 2450 
L 1525 2450 
L 1525 2025 
L 2625 2025 
z
" transform="scale(0.015625)"/>
       <path id="SimHei-4f73" d="M 3750 4250 
Q 3750 4825 3725 5050 
L 4275 5050 
Q 4250 4850 4250 4250 
L 4675 4250 
Q 5275 4250 5700 4275 
L 5700 3775 
Q 5250 3825 4725 3825 
L 4250 3825 
L 4250 2925 
L 5000 2925 
Q 5550 2925 5950 2975 
L 5950 2500 
Q 5575 2525 5000 2525 
L 3075 2525 
Q 2500 2525 2125 2500 
L 2125 2975 
Q 2450 2950 3075 2925 
L 3750 2925 
L 3750 3825 
L 3200 3825 
Q 2650 3825 2325 3775 
L 2325 4275 
Q 2650 4250 3175 4250 
L 3750 4250 
z
M 3775 1525 
Q 3775 1775 3750 2325 
L 4300 2325 
Q 4275 1875 4275 1525 
L 4750 1525 
Q 5300 1525 5700 1550 
L 5700 1100 
Q 5275 1125 4775 1125 
L 4275 1125 
L 4275 125 
L 5000 125 
Q 5700 125 6050 150 
L 6050 -300 
Q 5525 -275 5050 -275 
L 2950 -275 
Q 2400 -275 2050 -300 
L 2050 150 
Q 2300 125 2925 125 
L 3775 125 
L 3775 1125 
L 3300 1125 
Q 2800 1125 2375 1075 
L 2375 1550 
Q 2825 1525 3300 1525 
L 3775 1525 
z
M 2225 4950 
Q 2050 4775 1700 3950 
L 1700 625 
Q 1700 -150 1750 -550 
L 1175 -550 
Q 1225 -125 1225 600 
L 1225 3150 
Q 1000 2700 575 2175 
Q 400 2375 200 2550 
Q 550 2900 1050 3837 
Q 1550 4775 1600 5200 
Q 1925 5050 2225 4950 
z
" transform="scale(0.015625)"/>
       <path id="SimHei-20" transform="scale(0.015625)"/>
       <path id="SimHei-3d" d="M 2975 2900 
L 125 2900 
L 125 3300 
L 2975 3300 
L 2975 2900 
z
M 2975 1375 
L 125 1375 
L 125 1775 
L 2975 1775 
L 2975 1375 
z
" transform="scale(0.015625)"/>
      </defs>
      <use xlink:href="#SimHei-6700"/>
      <use xlink:href="#SimHei-4f73" x="100"/>
      <use xlink:href="#SimHei-9608" x="200"/>
      <use xlink:href="#SimHei-503c" x="300"/>
      <use xlink:href="#SimHei-20" x="400"/>
      <use xlink:href="#SimHei-3d" x="450"/>
      <use xlink:href="#SimHei-20" x="500"/>
      <use xlink:href="#SimHei-31" x="550"/>
      <use xlink:href="#SimHei-2e" x="600"/>
      <use xlink:href="#SimHei-30" x="650"/>
      <use xlink:href="#SimHei-30" x="700"/>
      <use xlink:href="#SimHei-30" x="750"/>
      <use xlink:href="#SimHei-30" x="800"/>
     </g>
     <!-- F1 = 0.6224 -->
     <g transform="translate(79.301563 49.278125) scale(0.1 -0.1)">
      <use xlink:href="#SimHei-46"/>
      <use xlink:href="#SimHei-31" x="50"/>
      <use xlink:href="#SimHei-20" x="100"/>
      <use xlink:href="#SimHei-3d" x="150"/>
      <use xlink:href="#SimHei-20" x="200"/>
      <use xlink:href="#SimHei-30" x="250"/>
      <use xlink:href="#SimHei-2e" x="300"/>
      <use xlink:href="#SimHei-36" x="350"/>
      <use xlink:href="#SimHei-32" x="400"/>
      <use xlink:href="#SimHei-32" x="450"/>
      <use xlink:href="#SimHei-34" x="500"/>
     </g>
    </g>
   </g>
  </g>
 </g>
 <defs>
  <clipPath id="p012e565a7e">
   <rect x="42.301563" y="22.809375" width="558" height="332.64"/>
  </clipPath>
 </defs>
</svg>
