<?xml version="1.0" encoding="utf-8" standalone="no"?>
<!DOCTYPE svg PUBLIC "-//W3C//DTD SVG 1.1//EN"
  "http://www.w3.org/Graphics/SVG/1.1/DTD/svg11.dtd">
<svg xmlns:xlink="http://www.w3.org/1999/xlink" width="684pt" height="515.52pt" viewBox="0 0 684 515.52" xmlns="http://www.w3.org/2000/svg" version="1.1">
 <metadata>
  <rdf:RDF xmlns:dc="http://purl.org/dc/elements/1.1/" xmlns:cc="http://creativecommons.org/ns#" xmlns:rdf="http://www.w3.org/1999/02/22-rdf-syntax-ns#">
   <cc:Work>
    <dc:type rdf:resource="http://purl.org/dc/dcmitype/StillImage"/>
    <dc:date>2025-03-03T14:20:58.976354</dc:date>
    <dc:format>image/svg+xml</dc:format>
    <dc:creator>
     <cc:Agent>
      <dc:title>Matplotlib v3.9.2, https://matplotlib.org/</dc:title>
     </cc:Agent>
    </dc:creator>
   </cc:Work>
  </rdf:RDF>
 </metadata>
 <defs>
  <style type="text/css">*{stroke-linejoin: round; stroke-linecap: butt}</style>
 </defs>
 <g id="figure_1">
  <g id="patch_1">
   <path d="M 0 515.52 
L 684 515.52 
L 684 0 
L 0 0 
z
" style="fill: #ffffff"/>
  </g>
  <g id="axes_1">
   <g id="patch_2">
    <path d="M 241.56 342 
C 241.56 349.348982 245.089755 356.404485 251.366065 361.601 
C 257.642375 366.797515 266.163957 369.72 275.04 369.72 
C 283.916043 369.72 292.437625 366.797515 298.713935 361.601 
C 304.990245 356.404485 308.52 349.348982 308.52 342 
" clip-path="url(#pd4aa035ff6)" style="fill: none; stroke: #34495e; stroke-width: 2; stroke-linejoin: miter"/>
   </g>
   <g id="patch_3">
    <path d="M 308.52 347.544 
L 311.868 353.088 
L 308.55348 353.088 
L 308.55348 364.176 
L 308.48652 364.176 
L 308.48652 353.088 
L 305.172 353.088 
z
" clip-path="url(#pd4aa035ff6)" style="fill: #34495e; stroke: #34495e; stroke-linejoin: miter"/>
   </g>
   <g id="patch_4">
    <path d="M 275.04 258.84 
L 261.648 264.384 
L 261.648 258.86772 
L 174.6 258.86772 
L 174.6 258.81228 
L 261.648 258.81228 
L 261.648 253.296 
z
" clip-path="url(#pd4aa035ff6)" style="fill: #34495e; stroke: #34495e; stroke-width: 2; stroke-linejoin: miter"/>
   </g>
   <g id="patch_5">
    <path d="M 542.88 231.12 
L 529.488 236.664 
L 529.488 231.14772 
L 408.96 231.14772 
L 408.96 231.09228 
L 529.488 231.09228 
L 529.488 225.576 
z
" clip-path="url(#pd4aa035ff6)" style="fill: #34495e; stroke: #34495e; stroke-width: 2; stroke-linejoin: miter"/>
   </g>
   <g id="patch_6">
    <path d="M 275.04 286.56 
L 408.96 286.56 
L 408.96 175.68 
L 275.04 175.68 
z
" clip-path="url(#pd4aa035ff6)" style="fill: #e74c3c; opacity: 0.9; stroke: #e74c3c; stroke-width: 2; stroke-linejoin: miter"/>
   </g>
   <g id="patch_7">
    <path d="M 74.16 286.56 
L 174.6 286.56 
L 174.6 231.12 
L 74.16 231.12 
z
" clip-path="url(#pd4aa035ff6)" style="fill: #3498db; opacity: 0.9; stroke: #3498db; stroke-width: 2; stroke-linejoin: miter"/>
   </g>
   <g id="patch_8">
    <path d="M 542.88 258.84 
L 643.32 258.84 
L 643.32 203.4 
L 542.88 203.4 
z
" clip-path="url(#pd4aa035ff6)" style="fill: #2ecc71; opacity: 0.9; stroke: #2ecc71; stroke-width: 2; stroke-linejoin: miter"/>
   </g>
   <g id="text_1">
    <!-- 状态 h_t -->
    <g style="fill: #2c3e50" transform="translate(314 235.9325) scale(0.14 -0.14)">
     <defs>
      <path id="SimHei-72b6" d="M 2225 -275 
Q 2675 25 2975 475 
Q 3275 925 3450 1350 
Q 3625 1775 3700 2175 
Q 3775 2575 3800 2875 
L 3225 2875 
Q 2850 2875 2500 2850 
L 2500 3325 
Q 2850 3300 3200 3300 
L 3825 3300 
Q 3825 3975 3812 4375 
Q 3800 4775 3775 5075 
L 4425 5075 
Q 4350 4750 4337 4412 
Q 4325 4075 4325 3300 
L 5350 3300 
Q 5625 3300 5975 3325 
L 5975 2850 
Q 5625 2875 5350 2875 
L 4375 2875 
Q 4675 1450 5012 962 
Q 5350 475 5625 262 
Q 5900 50 6125 -75 
Q 5775 -225 5625 -525 
Q 5225 -200 4987 112 
Q 4750 425 4587 725 
Q 4425 1025 4312 1337 
Q 4200 1650 4125 2000 
Q 4000 1400 3812 975 
Q 3625 550 3425 237 
Q 3225 -75 2750 -625 
Q 2525 -400 2225 -275 
z
M 2225 5200 
Q 2200 4825 2200 4250 
L 2200 775 
Q 2200 50 2225 -625 
L 1675 -625 
Q 1700 75 1700 775 
L 1700 1950 
Q 1525 1750 1200 1350 
Q 875 950 700 750 
Q 500 1000 275 1150 
Q 575 1375 912 1712 
Q 1250 2050 1700 2600 
L 1700 4250 
Q 1700 4825 1675 5200 
L 2225 5200 
z
M 625 4325 
Q 800 4125 1000 3875 
Q 1200 3625 1375 3375 
Q 1175 3225 1050 3075 
Q 850 3350 250 4050 
Q 400 4175 625 4325 
z
M 5475 3650 
Q 5250 3975 4700 4475 
Q 4900 4625 5025 4750 
Q 5250 4575 5425 4387 
Q 5600 4200 5825 3975 
Q 5625 3800 5475 3650 
z
" transform="scale(0.015625)"/>
      <path id="SimHei-6001" d="M 2575 4325 
Q 2700 4800 2725 5250 
Q 3075 5125 3350 5100 
Q 3225 4875 3100 4325 
L 5025 4325 
Q 5375 4325 5825 4375 
L 5825 3850 
Q 5350 3875 5000 3875 
L 3975 3875 
Q 4225 3300 4575 2987 
Q 4925 2675 5250 2525 
Q 5575 2375 6100 2275 
Q 5800 2075 5675 1775 
Q 4900 2100 4525 2412 
Q 4150 2725 3900 3075 
Q 3650 3425 3500 3875 
L 2975 3875 
Q 2675 3200 2187 2687 
Q 1700 2175 725 1625 
Q 650 1850 300 2075 
Q 900 2275 1512 2750 
Q 2125 3225 2425 3875 
L 1300 3875 
Q 900 3875 450 3850 
L 450 4375 
Q 875 4325 1300 4325 
L 2575 4325 
z
M 2525 1350 
Q 2500 875 2500 575 
Q 2500 300 2512 150 
Q 2525 0 2800 0 
L 3825 0 
Q 4025 -25 4175 62 
Q 4325 150 4400 625 
Q 4650 450 4975 375 
Q 4775 -150 4625 -312 
Q 4475 -475 4000 -450 
L 2500 -450 
Q 2050 -400 2012 -162 
Q 1975 75 1975 425 
Q 1975 800 1950 1350 
L 2525 1350 
z
M 1425 1175 
Q 1175 450 825 -325 
Q 625 -175 325 -125 
Q 775 625 875 1375 
Q 1175 1250 1425 1175 
z
M 5175 1525 
Q 5600 950 6050 350 
Q 5800 175 5600 0 
Q 5225 700 4750 1250 
Q 5000 1350 5175 1525 
z
M 2700 3050 
Q 3175 2675 3500 2325 
Q 3275 2175 3100 1975 
Q 2825 2350 2350 2700 
L 2700 3050 
z
M 3375 1750 
Q 3625 1350 3825 925 
Q 3625 800 3375 675 
Q 3200 1175 2950 1525 
Q 3175 1600 3375 1750 
z
" transform="scale(0.015625)"/>
      <path id="SimHei-20" transform="scale(0.015625)"/>
      <path id="SimHei-68" d="M 2800 125 
L 2300 125 
L 2300 1925 
Q 2300 2225 2150 2400 
Q 2000 2575 1750 2575 
Q 1425 2575 1137 2237 
Q 850 1900 850 1400 
L 850 125 
L 350 125 
L 350 4400 
L 850 4400 
L 850 2400 
Q 1050 2675 1287 2825 
Q 1525 2975 1900 2975 
Q 2350 2975 2575 2725 
Q 2800 2475 2800 2100 
L 2800 125 
z
" transform="scale(0.015625)"/>
      <path id="SimHei-5f" d="M 3150 -850 
L 0 -850 
L 0 -550 
L 3150 -550 
L 3150 -850 
z
" transform="scale(0.015625)"/>
      <path id="SimHei-74" d="M 2750 200 
Q 2625 150 2462 112 
Q 2300 75 2025 75 
Q 1575 75 1300 325 
Q 1025 575 1025 1025 
L 1025 2525 
L 175 2525 
L 175 2925 
L 1025 2925 
L 1025 3900 
L 1525 3900 
L 1525 2925 
L 2550 2925 
L 2550 2525 
L 1525 2525 
L 1525 1000 
Q 1525 800 1625 662 
Q 1725 525 2000 525 
Q 2275 525 2450 575 
Q 2625 625 2750 700 
L 2750 200 
z
" transform="scale(0.015625)"/>
     </defs>
     <use xlink:href="#SimHei-72b6"/>
     <use xlink:href="#SimHei-6001" x="100"/>
     <use xlink:href="#SimHei-20" x="200"/>
     <use xlink:href="#SimHei-68" x="250"/>
     <use xlink:href="#SimHei-5f" x="300"/>
     <use xlink:href="#SimHei-74" x="350"/>
    </g>
   </g>
   <g id="text_2">
    <!-- 输入 x_t -->
    <g style="fill: #2c3e50" transform="translate(96.38 263.707187) scale(0.14 -0.14)">
     <defs>
      <path id="SimHei-8f93" d="M 3225 3650 
Q 2725 3100 2550 2950 
L 4100 2950 
Q 4075 2675 4075 2275 
L 4075 -100 
Q 4100 -325 3962 -425 
Q 3825 -525 3475 -600 
Q 3400 -350 3225 -100 
Q 3650 -100 3650 25 
L 3650 675 
L 2975 675 
L 2975 -575 
L 2525 -575 
Q 2550 -125 2550 325 
L 2550 2075 
Q 2550 2500 2525 2925 
L 2375 2800 
Q 2200 3000 1950 3100 
Q 2575 3525 3025 4087 
Q 3475 4650 3775 5300 
Q 4075 5150 4325 5100 
L 4225 4975 
Q 4700 4325 5225 3975 
Q 5750 3625 6200 3475 
Q 5975 3275 5825 3025 
Q 5275 3300 4875 3650 
L 4875 3350 
L 3225 3350 
L 3225 3650 
z
M 2225 825 
Q 1975 775 1725 675 
Q 1725 -100 1750 -650 
L 1275 -650 
Q 1300 -100 1300 575 
Q 725 425 475 325 
Q 400 575 250 825 
Q 650 875 1300 1025 
L 1300 1975 
Q 700 1925 400 1800 
L 225 2225 
Q 425 2350 600 2850 
Q 775 3350 875 3825 
Q 625 3825 350 3800 
L 350 4250 
Q 675 4225 950 4225 
Q 1050 4700 1075 5175 
Q 1400 5075 1675 5025 
Q 1525 4850 1400 4225 
Q 1925 4225 2300 4250 
L 2300 3800 
Q 1850 3825 1325 3825 
Q 1075 2900 825 2325 
L 1300 2375 
Q 1300 2700 1275 3125 
L 1750 3125 
Q 1725 2900 1725 2425 
L 2150 2475 
L 2150 2075 
L 1725 2025 
L 1725 1125 
L 2225 1250 
L 2225 825 
z
M 5775 2925 
Q 5750 2525 5750 2150 
L 5750 -100 
Q 5750 -375 5625 -475 
Q 5500 -575 5000 -675 
Q 4950 -450 4750 -175 
Q 5300 -200 5325 0 
L 5325 2100 
Q 5325 2500 5300 2925 
L 5775 2925 
z
M 4975 2700 
Q 4950 2400 4950 2000 
L 4950 900 
Q 4950 425 4975 125 
L 4475 125 
Q 4500 500 4500 875 
L 4500 2000 
Q 4500 2350 4475 2700 
L 4975 2700 
z
M 4750 3750 
Q 4450 4025 3975 4675 
Q 3575 4075 3300 3750 
L 4750 3750 
z
M 3650 2000 
L 3650 2575 
L 2975 2575 
L 2975 2000 
L 3650 2000 
z
M 3650 1075 
L 3650 1625 
L 2975 1625 
L 2975 1075 
L 3650 1075 
z
" transform="scale(0.015625)"/>
      <path id="SimHei-5165" d="M 5650 -375 
Q 5050 25 4500 650 
Q 3950 1275 3275 3050 
Q 2575 975 675 -475 
Q 575 -225 225 50 
Q 1850 825 2975 3525 
Q 2900 3725 2525 4125 
Q 2150 4525 1750 4675 
Q 2025 4900 2175 5125 
Q 2800 4650 3175 4225 
Q 3550 3800 4125 2375 
Q 4700 950 6125 250 
Q 5775 0 5650 -375 
z
" transform="scale(0.015625)"/>
      <path id="SimHei-78" d="M 2875 125 
L 2275 125 
L 1550 1200 
L 825 125 
L 225 125 
L 1250 1550 
L 300 2925 
L 900 2925 
L 1550 1875 
L 2200 2925 
L 2800 2925 
L 1850 1550 
L 2875 125 
z
" transform="scale(0.015625)"/>
     </defs>
     <use xlink:href="#SimHei-8f93"/>
     <use xlink:href="#SimHei-5165" x="100"/>
     <use xlink:href="#SimHei-20" x="200"/>
     <use xlink:href="#SimHei-78" x="250"/>
     <use xlink:href="#SimHei-5f" x="300"/>
     <use xlink:href="#SimHei-74" x="350"/>
    </g>
   </g>
   <g id="text_3">
    <!-- 输出 y_t -->
    <g style="fill: #2c3e50" transform="translate(565.1 235.987187) scale(0.14 -0.14)">
     <defs>
      <path id="SimHei-51fa" d="M 1475 4550 
Q 1450 4225 1450 3950 
L 1450 2950 
L 2925 2950 
L 2925 4425 
Q 2925 4775 2900 5125 
L 3425 5125 
Q 3400 4825 3400 4425 
L 3400 2950 
L 4900 2950 
L 4900 3875 
Q 4900 4275 4875 4525 
L 5400 4525 
Q 5375 4275 5375 3850 
L 5375 3175 
Q 5375 2775 5400 2525 
L 3400 2525 
L 3400 225 
L 5125 225 
L 5125 1275 
Q 5125 1650 5100 1925 
L 5625 1925 
Q 5600 1650 5600 1300 
L 5600 175 
Q 5600 -325 5625 -650 
L 5125 -650 
L 5125 -200 
L 675 -200 
Q 700 100 700 525 
L 700 1275 
Q 700 1700 675 1950 
L 1200 1950 
Q 1175 1700 1175 1275 
L 1175 225 
L 2925 225 
L 2925 2525 
L 950 2525 
Q 975 2775 975 3150 
L 975 3925 
Q 975 4250 950 4550 
L 1475 4550 
z
" transform="scale(0.015625)"/>
      <path id="SimHei-79" d="M 2900 2925 
L 1750 -100 
Q 1650 -450 1450 -625 
Q 1250 -800 950 -800 
Q 825 -800 712 -787 
Q 600 -775 500 -725 
L 500 -225 
Q 600 -275 700 -300 
Q 800 -325 875 -325 
Q 1075 -325 1150 -262 
Q 1225 -200 1300 25 
L 200 2925 
L 750 2925 
L 1550 725 
L 1575 725 
L 2350 2925 
L 2900 2925 
z
" transform="scale(0.015625)"/>
     </defs>
     <use xlink:href="#SimHei-8f93"/>
     <use xlink:href="#SimHei-51fa" x="100"/>
     <use xlink:href="#SimHei-20" x="200"/>
     <use xlink:href="#SimHei-79" x="250"/>
     <use xlink:href="#SimHei-5f" x="300"/>
     <use xlink:href="#SimHei-74" x="350"/>
    </g>
   </g>
   <g id="text_4">
    <!-- A -->
    <g style="fill: #9b59b6" transform="translate(304.52 374.22) scale(0.16 -0.16)">
     <defs>
      <path id="SimHei-41" d="M 3075 125 
L 2475 125 
L 2125 1450 
L 1025 1450 
L 675 125 
L 75 125 
L 1325 4450 
L 1825 4450 
L 3075 125 
z
M 2000 1925 
L 1600 3450 
L 1550 3450 
L 1150 1925 
L 2000 1925 
z
" transform="scale(0.015625)"/>
     </defs>
     <use xlink:href="#SimHei-41"/>
    </g>
   </g>
   <g id="text_5">
    <!-- B -->
    <g style="fill: #9b59b6" transform="translate(204.08 263.34) scale(0.16 -0.16)">
     <defs>
      <path id="SimHei-42" d="M 2950 1400 
Q 2950 675 2550 400 
Q 2150 125 1525 125 
L 275 125 
L 275 4400 
L 1575 4400 
Q 2200 4400 2512 4075 
Q 2825 3750 2825 3300 
Q 2825 2850 2612 2637 
Q 2400 2425 2175 2350 
Q 2475 2275 2712 2037 
Q 2950 1800 2950 1400 
z
M 2250 3300 
Q 2250 3625 2062 3775 
Q 1875 3925 1600 3925 
L 850 3925 
L 850 2600 
L 1575 2600 
Q 1850 2600 2050 2762 
Q 2250 2925 2250 3300 
z
M 2350 1400 
Q 2350 1800 2087 1962 
Q 1825 2125 1500 2125 
L 850 2125 
L 850 600 
L 1425 600 
Q 1875 600 2112 775 
Q 2350 950 2350 1400 
z
" transform="scale(0.015625)"/>
     </defs>
     <use xlink:href="#SimHei-42"/>
    </g>
   </g>
   <g id="text_6">
    <!-- C -->
    <g style="fill: #9b59b6" transform="translate(438.44 235.62) scale(0.16 -0.16)">
     <defs>
      <path id="SimHei-43" d="M 2975 1825 
Q 2950 875 2575 475 
Q 2200 75 1675 75 
Q 1075 75 650 562 
Q 225 1050 225 2125 
Q 225 3300 637 3875 
Q 1050 4450 1700 4450 
Q 2250 4450 2612 4037 
Q 2975 3625 2950 2875 
L 2400 2875 
Q 2400 3425 2225 3700 
Q 2050 3975 1700 3975 
Q 1300 3975 1062 3562 
Q 825 3150 825 2175 
Q 825 1275 1062 912 
Q 1300 550 1675 550 
Q 1950 550 2175 812 
Q 2400 1075 2400 1825 
L 2975 1825 
z
" transform="scale(0.015625)"/>
     </defs>
     <use xlink:href="#SimHei-43"/>
    </g>
   </g>
   <g id="text_7">
    <!-- 状态更新: $h_t = Ah_{t-1} + Bx_t$ -->
    <g style="fill: #2c3e50" transform="translate(238.8 125.52) scale(0.16 -0.16)">
     <defs>
      <path id="SimHei-66f4" d="M 5175 4750 
Q 5400 4750 5800 4775 
L 5800 4325 
Q 5475 4350 5175 4350 
L 3475 4350 
L 3475 3825 
L 5300 3825 
Q 5275 3400 5275 2675 
Q 5275 1975 5300 1550 
L 3400 1550 
Q 3325 1025 3050 575 
Q 3425 350 4137 175 
Q 4850 0 5237 -25 
Q 5625 -50 6000 -50 
Q 5850 -175 5750 -575 
Q 5075 -525 4250 -337 
Q 3425 -150 2775 200 
Q 2525 -25 2037 -262 
Q 1550 -500 600 -650 
Q 500 -375 350 -175 
Q 1075 -150 1612 37 
Q 2150 225 2400 450 
Q 1925 775 1400 1275 
Q 1550 1375 1700 1550 
L 1100 1550 
Q 1125 2025 1125 2725 
Q 1125 3450 1100 3825 
L 3000 3825 
L 3000 4350 
L 1450 4350 
Q 1050 4350 600 4325 
L 600 4775 
Q 1050 4750 1425 4750 
L 5175 4750 
z
M 2975 1975 
Q 3000 2250 3000 2525 
L 1625 2525 
L 1625 1975 
L 2975 1975 
z
M 3000 2925 
L 3000 3450 
L 1625 3450 
L 1625 2925 
L 3000 2925 
z
M 4775 1975 
L 4775 2525 
L 3475 2525 
Q 3475 2350 3450 1975 
L 4775 1975 
z
M 4775 2925 
L 4775 3450 
L 3475 3450 
L 3475 2925 
L 4775 2925 
z
M 1775 1550 
Q 2225 1075 2675 800 
Q 2875 1175 2925 1550 
L 1775 1550 
z
" transform="scale(0.015625)"/>
      <path id="SimHei-65b0" d="M 6125 4650 
Q 5750 4650 4275 4500 
L 4275 3225 
L 5575 3225 
Q 5850 3225 6150 3250 
L 6150 2775 
Q 5800 2800 5550 2800 
L 5550 225 
Q 5550 -200 5575 -675 
L 5050 -675 
Q 5075 -200 5075 200 
L 5075 2800 
L 4275 2800 
Q 4275 2175 4225 1600 
Q 4175 1025 4012 462 
Q 3850 -100 3525 -700 
Q 3275 -550 3025 -450 
Q 3425 125 3587 762 
Q 3750 1400 3775 1875 
Q 3800 2350 3800 3300 
Q 3800 4275 3775 4850 
Q 4900 4900 5800 5200 
Q 6000 4800 6125 4650 
z
M 2975 3825 
Q 2800 3725 2575 3050 
Q 3000 3050 3450 3075 
L 3450 2575 
Q 3025 2600 2175 2600 
L 2175 1975 
Q 2950 1975 3400 2000 
L 3400 1500 
Q 2950 1525 2175 1525 
L 2175 0 
Q 2175 -375 1937 -500 
Q 1700 -625 1325 -625 
Q 1225 -325 1075 -75 
Q 1425 -100 1562 -75 
Q 1700 -50 1700 150 
L 1700 1525 
Q 900 1525 450 1500 
L 450 2000 
Q 925 1975 1700 1975 
L 1700 2600 
Q 775 2600 325 2575 
L 325 3075 
Q 775 3050 1175 3050 
L 2125 3050 
Q 2325 3650 2425 3975 
Q 2625 3925 2975 3825 
z
M 2125 5275 
Q 2250 4750 2275 4550 
Q 2850 4550 3350 4575 
L 3350 4075 
Q 2825 4100 2500 4100 
L 1300 4100 
Q 875 4100 475 4075 
L 475 4575 
Q 900 4550 1300 4550 
L 1750 4550 
Q 1700 4825 1600 5125 
Q 1850 5200 2125 5275 
z
M 1525 1050 
Q 1375 875 1175 612 
Q 975 350 600 -125 
Q 425 50 225 175 
Q 750 750 1050 1375 
Q 1300 1175 1525 1050 
z
M 2725 1300 
Q 3025 900 3275 475 
Q 3025 350 2875 150 
Q 2675 600 2350 1025 
Q 2525 1175 2725 1300 
z
M 1275 3950 
Q 1450 3600 1575 3250 
Q 1350 3200 1150 3100 
Q 1025 3475 875 3775 
Q 1050 3875 1275 3950 
z
" transform="scale(0.015625)"/>
      <path id="SimHei-3a" d="M 1825 2425 
L 1250 2425 
L 1250 2975 
L 1825 2975 
L 1825 2425 
z
M 1825 125 
L 1250 125 
L 1250 675 
L 1825 675 
L 1825 125 
z
" transform="scale(0.015625)"/>
      <path id="DejaVuSans-Oblique-68" d="M 3566 2113 
L 3156 0 
L 2578 0 
L 2988 2091 
Q 3016 2238 3031 2350 
Q 3047 2463 3047 2528 
Q 3047 2791 2881 2937 
Q 2716 3084 2419 3084 
Q 1956 3084 1617 2771 
Q 1278 2459 1178 1941 
L 800 0 
L 225 0 
L 1172 4863 
L 1747 4863 
L 1375 2950 
Q 1594 3244 1934 3414 
Q 2275 3584 2650 3584 
Q 3113 3584 3367 3334 
Q 3622 3084 3622 2631 
Q 3622 2519 3608 2391 
Q 3594 2263 3566 2113 
z
" transform="scale(0.015625)"/>
      <path id="DejaVuSans-Oblique-74" d="M 2706 3500 
L 2619 3053 
L 1472 3053 
L 1100 1153 
Q 1081 1047 1072 975 
Q 1063 903 1063 863 
Q 1063 663 1183 572 
Q 1303 481 1569 481 
L 2150 481 
L 2053 0 
L 1503 0 
Q 991 0 739 200 
Q 488 400 488 806 
Q 488 878 497 964 
Q 506 1050 525 1153 
L 897 3053 
L 409 3053 
L 500 3500 
L 978 3500 
L 1172 4494 
L 1747 4494 
L 1556 3500 
L 2706 3500 
z
" transform="scale(0.015625)"/>
      <path id="DejaVuSans-3d" d="M 678 2906 
L 4684 2906 
L 4684 2381 
L 678 2381 
L 678 2906 
z
M 678 1631 
L 4684 1631 
L 4684 1100 
L 678 1100 
L 678 1631 
z
" transform="scale(0.015625)"/>
      <path id="DejaVuSans-Oblique-41" d="M 2356 4666 
L 3072 4666 
L 3938 0 
L 3278 0 
L 3084 1197 
L 984 1197 
L 325 0 
L -341 0 
L 2356 4666 
z
M 2584 4044 
L 1275 1722 
L 2988 1722 
L 2584 4044 
z
" transform="scale(0.015625)"/>
      <path id="DejaVuSans-2212" d="M 678 2272 
L 4684 2272 
L 4684 1741 
L 678 1741 
L 678 2272 
z
" transform="scale(0.015625)"/>
      <path id="DejaVuSans-31" d="M 794 531 
L 1825 531 
L 1825 4091 
L 703 3866 
L 703 4441 
L 1819 4666 
L 2450 4666 
L 2450 531 
L 3481 531 
L 3481 0 
L 794 0 
L 794 531 
z
" transform="scale(0.015625)"/>
      <path id="DejaVuSans-2b" d="M 2944 4013 
L 2944 2272 
L 4684 2272 
L 4684 1741 
L 2944 1741 
L 2944 0 
L 2419 0 
L 2419 1741 
L 678 1741 
L 678 2272 
L 2419 2272 
L 2419 4013 
L 2944 4013 
z
" transform="scale(0.015625)"/>
      <path id="DejaVuSans-Oblique-42" d="M 1081 4666 
L 2694 4666 
Q 3350 4666 3675 4422 
Q 4000 4178 4000 3688 
Q 4000 3238 3720 2911 
Q 3441 2584 2988 2516 
Q 3375 2428 3569 2181 
Q 3763 1934 3763 1522 
Q 3763 819 3242 409 
Q 2722 0 1819 0 
L 172 0 
L 1081 4666 
z
M 1234 2228 
L 903 519 
L 1919 519 
Q 2491 519 2800 781 
Q 3109 1044 3109 1522 
Q 3109 1891 2904 2059 
Q 2700 2228 2247 2228 
L 1234 2228 
z
M 1606 4147 
L 1331 2741 
L 2272 2741 
Q 2775 2741 3058 2959 
Q 3341 3178 3341 3566 
Q 3341 3869 3150 4008 
Q 2959 4147 2541 4147 
L 1606 4147 
z
" transform="scale(0.015625)"/>
      <path id="DejaVuSans-Oblique-78" d="M 3841 3500 
L 2234 1784 
L 3219 0 
L 2559 0 
L 1819 1388 
L 531 0 
L -166 0 
L 1556 1844 
L 641 3500 
L 1300 3500 
L 1972 2234 
L 3144 3500 
L 3841 3500 
z
" transform="scale(0.015625)"/>
     </defs>
     <use xlink:href="#SimHei-72b6" transform="translate(0 0.578125)"/>
     <use xlink:href="#SimHei-6001" transform="translate(100 0.578125)"/>
     <use xlink:href="#SimHei-66f4" transform="translate(200 0.578125)"/>
     <use xlink:href="#SimHei-65b0" transform="translate(300 0.578125)"/>
     <use xlink:href="#SimHei-3a" transform="translate(400 0.578125)"/>
     <use xlink:href="#SimHei-20" transform="translate(450 0.578125)"/>
     <use xlink:href="#DejaVuSans-Oblique-68" transform="translate(500 0.578125)"/>
     <use xlink:href="#DejaVuSans-Oblique-74" transform="translate(563.378906 -15.828125) scale(0.7)"/>
     <use xlink:href="#DejaVuSans-3d" transform="translate(613.041992 0.578125)"/>
     <use xlink:href="#DejaVuSans-Oblique-41" transform="translate(716.313477 0.578125)"/>
     <use xlink:href="#DejaVuSans-Oblique-68" transform="translate(784.72168 0.578125)"/>
     <use xlink:href="#DejaVuSans-Oblique-74" transform="translate(848.100586 -15.828125) scale(0.7)"/>
     <use xlink:href="#DejaVuSans-2212" transform="translate(889.18457 -15.828125) scale(0.7)"/>
     <use xlink:href="#DejaVuSans-31" transform="translate(961.474609 -15.828125) scale(0.7)"/>
     <use xlink:href="#DejaVuSans-2b" transform="translate(1028.227539 0.578125)"/>
     <use xlink:href="#DejaVuSans-Oblique-42" transform="translate(1131.499023 0.578125)"/>
     <use xlink:href="#DejaVuSans-Oblique-78" transform="translate(1200.102539 0.578125)"/>
     <use xlink:href="#DejaVuSans-Oblique-74" transform="translate(1259.282227 -15.828125) scale(0.7)"/>
    </g>
   </g>
   <g id="text_8">
    <!-- 输出计算: $y_t = Ch_t$ -->
    <g style="fill: #2c3e50" transform="translate(271.92 152.92) scale(0.16 -0.16)">
     <defs>
      <path id="SimHei-8ba1" d="M 3925 3100 
L 3925 4350 
Q 3925 4850 3900 5125 
L 4425 5125 
Q 4400 4800 4400 4550 
L 4400 3100 
L 5425 3100 
Q 5725 3100 6075 3125 
L 6075 2650 
Q 5700 2675 5450 2675 
L 4400 2675 
L 4400 175 
Q 4400 -125 4425 -550 
L 3900 -550 
Q 3925 -125 3925 150 
L 3925 2675 
L 2950 2675 
Q 2575 2675 2200 2650 
L 2200 3125 
Q 2575 3100 2900 3100 
L 3925 3100 
z
M 1775 3150 
Q 1750 2675 1750 2150 
L 1750 625 
Q 2175 1050 2425 1400 
Q 2575 1200 2775 1000 
L 2075 300 
Q 1750 -25 1450 -350 
Q 1275 -125 1125 50 
Q 1300 250 1275 650 
L 1275 2725 
Q 600 2725 275 2700 
L 275 3175 
Q 675 3150 825 3150 
L 1775 3150 
z
M 1150 5050 
Q 1475 4725 2175 4000 
Q 1950 3800 1750 3625 
Q 1425 4100 775 4750 
Q 950 4875 1150 5050 
z
" transform="scale(0.015625)"/>
      <path id="SimHei-7b97" d="M 5175 3650 
Q 5150 3200 5150 2500 
Q 5150 1800 5175 1325 
L 4575 1325 
L 4575 875 
L 5250 875 
Q 5650 875 6150 900 
L 6150 475 
Q 5650 500 5250 500 
L 4575 500 
Q 4575 -75 4600 -625 
L 4050 -625 
Q 4075 -75 4075 500 
L 2650 500 
Q 2475 100 2125 -175 
Q 1775 -450 1075 -675 
Q 925 -425 700 -250 
Q 1250 -150 1600 37 
Q 1950 225 2125 500 
L 1225 500 
Q 800 500 300 475 
L 300 900 
Q 825 875 1225 875 
L 2200 875 
Q 2250 1075 2250 1325 
L 1250 1325 
Q 1275 1775 1275 2475 
Q 1275 3200 1250 3650 
L 5175 3650 
z
M 1825 5100 
Q 1625 4900 1475 4725 
L 2425 4725 
Q 2750 4725 3175 4750 
L 3175 4325 
Q 2750 4350 2200 4350 
Q 2250 4175 2350 3875 
Q 2075 3850 1825 3750 
Q 1750 4075 1675 4350 
L 1200 4350 
Q 1075 4125 775 3775 
Q 525 3925 250 4000 
Q 500 4225 762 4537 
Q 1025 4850 1275 5300 
Q 1500 5175 1825 5100 
z
M 4525 5100 
Q 4325 4950 4175 4725 
L 5225 4725 
Q 5500 4725 5950 4750 
L 5950 4325 
Q 5550 4350 4975 4350 
L 5175 3950 
Q 4925 3925 4650 3825 
Q 4575 4100 4500 4350 
L 3900 4350 
Q 3700 4025 3525 3775 
Q 3250 3950 3025 4000 
Q 3325 4300 3550 4612 
Q 3775 4925 3900 5275 
Q 4175 5175 4525 5100 
z
M 4650 1675 
L 4650 2000 
L 1775 2000 
L 1775 1675 
L 4650 1675 
z
M 4650 2350 
L 4650 2650 
L 1775 2650 
L 1775 2350 
L 4650 2350 
z
M 4650 3000 
L 4650 3300 
L 1775 3300 
L 1775 3000 
L 4650 3000 
z
M 4075 875 
L 4075 1325 
L 2725 1325 
Q 2725 1075 2700 875 
L 4075 875 
z
" transform="scale(0.015625)"/>
      <path id="DejaVuSans-Oblique-79" d="M 1588 -325 
Q 1188 -997 936 -1164 
Q 684 -1331 294 -1331 
L -159 -1331 
L -63 -850 
L 269 -850 
Q 509 -850 678 -719 
Q 847 -588 1056 -206 
L 1234 128 
L 459 3500 
L 1069 3500 
L 1650 819 
L 3256 3500 
L 3859 3500 
L 1588 -325 
z
" transform="scale(0.015625)"/>
      <path id="DejaVuSans-Oblique-43" d="M 4447 4306 
L 4319 3641 
Q 4019 3944 3683 4091 
Q 3347 4238 2956 4238 
Q 2422 4238 2017 3981 
Q 1613 3725 1319 3200 
Q 1131 2863 1032 2486 
Q 934 2109 934 1728 
Q 934 1091 1264 756 
Q 1594 422 2222 422 
Q 2656 422 3056 561 
Q 3456 700 3834 978 
L 3688 231 
Q 3316 72 2936 -9 
Q 2556 -91 2175 -91 
Q 1278 -91 773 396 
Q 269 884 269 1753 
Q 269 2309 461 2846 
Q 653 3384 1013 3828 
Q 1394 4300 1883 4525 
Q 2372 4750 3022 4750 
Q 3422 4750 3780 4639 
Q 4138 4528 4447 4306 
z
" transform="scale(0.015625)"/>
     </defs>
     <use xlink:href="#SimHei-8f93" transform="translate(0 0.1875)"/>
     <use xlink:href="#SimHei-51fa" transform="translate(100 0.1875)"/>
     <use xlink:href="#SimHei-8ba1" transform="translate(200 0.1875)"/>
     <use xlink:href="#SimHei-7b97" transform="translate(300 0.1875)"/>
     <use xlink:href="#SimHei-3a" transform="translate(400 0.1875)"/>
     <use xlink:href="#SimHei-20" transform="translate(450 0.1875)"/>
     <use xlink:href="#DejaVuSans-Oblique-79" transform="translate(500 0.1875)"/>
     <use xlink:href="#DejaVuSans-Oblique-74" transform="translate(559.179688 -16.21875) scale(0.7)"/>
     <use xlink:href="#DejaVuSans-3d" transform="translate(608.842773 0.1875)"/>
     <use xlink:href="#DejaVuSans-Oblique-43" transform="translate(712.114258 0.1875)"/>
     <use xlink:href="#DejaVuSans-Oblique-68" transform="translate(781.938477 0.1875)"/>
     <use xlink:href="#DejaVuSans-Oblique-74" transform="translate(845.317383 -16.21875) scale(0.7)"/>
    </g>
   </g>
   <g id="text_9">
    <g id="patch_9">
     <path d="M 198.5 458.962344 
L 485.5 458.962344 
Q 489.7 458.962344 489.7 454.762344 
L 489.7 395.557656 
Q 489.7 391.357656 485.5 391.357656 
L 198.5 391.357656 
Q 194.3 391.357656 194.3 395.557656 
L 194.3 454.762344 
Q 194.3 458.962344 198.5 458.962344 
z
" style="fill: #f39c12; opacity: 0.2; stroke: #000000; stroke-linejoin: miter"/>
    </g>
    <!-- Mamba的创新: 选择性扫描机制 -->
    <g style="fill: #2c3e50" transform="translate(247.5 406.877969) scale(0.14 -0.14)">
     <defs>
      <path id="SimHei-4d" d="M 2925 125 
L 2425 125 
L 2425 3175 
L 2375 3175 
L 1775 125 
L 1375 125 
L 775 3175 
L 725 3175 
L 725 125 
L 225 125 
L 225 4400 
L 1000 4400 
L 1550 1575 
L 1600 1575 
L 2150 4400 
L 2925 4400 
L 2925 125 
z
" transform="scale(0.015625)"/>
      <path id="SimHei-61" d="M 2875 125 
L 2275 125 
Q 2225 175 2200 262 
Q 2175 350 2175 475 
Q 2000 275 1750 175 
Q 1500 75 1225 75 
Q 825 75 550 275 
Q 275 475 275 850 
Q 275 1225 525 1450 
Q 775 1675 1300 1750 
Q 1650 1800 1912 1875 
Q 2175 1950 2175 2075 
Q 2175 2225 2062 2375 
Q 1950 2525 1575 2525 
Q 1275 2525 1137 2412 
Q 1000 2300 950 2100 
L 400 2100 
Q 450 2500 762 2737 
Q 1075 2975 1575 2975 
Q 2125 2975 2400 2725 
Q 2675 2475 2675 2025 
L 2675 650 
Q 2675 500 2725 375 
Q 2775 250 2875 125 
z
M 2175 1050 
L 2175 1550 
Q 2025 1500 1887 1462 
Q 1750 1425 1425 1375 
Q 1050 1325 937 1200 
Q 825 1075 825 900 
Q 825 750 937 637 
Q 1050 525 1275 525 
Q 1500 525 1762 650 
Q 2025 775 2175 1050 
z
" transform="scale(0.015625)"/>
      <path id="SimHei-6d" d="M 3050 125 
L 2550 125 
L 2550 2150 
Q 2550 2300 2500 2400 
Q 2450 2500 2300 2500 
Q 2125 2500 1975 2312 
Q 1825 2125 1825 1825 
L 1825 125 
L 1325 125 
L 1325 2150 
Q 1325 2300 1275 2400 
Q 1225 2500 1075 2500 
Q 900 2500 750 2312 
Q 600 2125 600 1825 
L 600 125 
L 100 125 
L 100 2925 
L 600 2925 
L 600 2550 
Q 725 2750 900 2862 
Q 1075 2975 1275 2975 
Q 1475 2975 1612 2862 
Q 1750 2750 1800 2550 
Q 1925 2750 2087 2862 
Q 2250 2975 2450 2975 
Q 2750 2975 2900 2812 
Q 3050 2650 3050 2350 
L 3050 125 
z
" transform="scale(0.015625)"/>
      <path id="SimHei-62" d="M 2825 1525 
Q 2825 800 2475 437 
Q 2125 75 1625 75 
Q 1350 75 1150 175 
Q 950 275 800 500 
L 800 125 
L 300 125 
L 300 4400 
L 800 4400 
L 800 2550 
Q 950 2775 1150 2887 
Q 1350 3000 1625 3000 
Q 2125 3000 2475 2625 
Q 2825 2250 2825 1525 
z
M 2275 1525 
Q 2275 2000 2087 2275 
Q 1900 2550 1525 2550 
Q 1225 2550 1012 2275 
Q 800 2000 800 1525 
Q 800 1050 1012 787 
Q 1225 525 1525 525 
Q 1900 525 2087 787 
Q 2275 1050 2275 1525 
z
" transform="scale(0.015625)"/>
      <path id="SimHei-7684" d="M 2100 4975 
Q 1975 4750 1750 3950 
L 2875 3950 
Q 2850 3525 2850 2875 
L 2850 675 
Q 2850 300 2875 -400 
L 2375 -400 
L 2375 100 
L 1100 100 
L 1100 -450 
L 600 -450 
Q 625 350 625 550 
L 625 2850 
Q 625 3525 600 3950 
L 1325 3950 
Q 1450 4525 1525 5150 
Q 1875 5025 2100 4975 
z
M 5825 3075 
Q 5800 1550 5700 175 
Q 5650 -275 5225 -425 
Q 4800 -575 4275 -625 
Q 4250 -350 4050 -50 
Q 4550 -75 4837 -25 
Q 5125 25 5200 200 
Q 5275 375 5312 1225 
Q 5350 2075 5375 3600 
L 3925 3600 
Q 3725 3125 3350 2475 
Q 3175 2650 2925 2750 
Q 3150 3050 3350 3475 
Q 3550 3900 3700 4400 
Q 3850 4900 3875 5175 
Q 4225 5025 4475 4950 
Q 4350 4750 4262 4512 
Q 4175 4275 4075 4050 
L 5850 4050 
Q 5825 3525 5825 3075 
z
M 2375 525 
L 2375 1850 
L 1100 1850 
L 1100 525 
L 2375 525 
z
M 2375 2275 
L 2375 3525 
L 1100 3525 
L 1100 2275 
L 2375 2275 
z
M 4350 2050 
Q 4500 1750 4700 1275 
Q 4525 1200 4225 1025 
Q 4050 1500 3900 1837 
Q 3750 2175 3600 2400 
Q 3775 2500 4050 2650 
L 4350 2050 
z
" transform="scale(0.015625)"/>
      <path id="SimHei-521b" d="M 2125 850 
Q 2050 1125 1925 1400 
Q 2400 1400 2537 1525 
Q 2675 1650 2650 2700 
L 1500 2700 
L 1500 375 
Q 1500 25 1800 25 
L 2825 25 
Q 3000 0 3087 200 
Q 3175 400 3200 700 
Q 3400 575 3725 475 
Q 3550 -175 3387 -287 
Q 3225 -400 2950 -400 
L 1550 -400 
Q 1050 -400 1050 125 
L 1050 2250 
Q 1050 2625 1025 3075 
Q 850 2875 625 2650 
Q 400 2900 200 3025 
Q 475 3225 725 3462 
Q 975 3700 1200 4000 
Q 1425 4300 1625 4600 
Q 1825 4900 1975 5275 
Q 2175 5125 2525 4950 
Q 2375 4850 2275 4750 
Q 2500 4575 2850 4350 
Q 3200 4125 3725 3600 
Q 3525 3450 3350 3200 
Q 2875 3775 2612 3975 
Q 2350 4175 2075 4375 
Q 1700 3850 1475 3575 
L 1100 3150 
L 3150 3150 
Q 3125 2425 3125 2025 
Q 3125 1650 3062 1387 
Q 3000 1125 2750 1012 
Q 2500 900 2125 850 
z
M 5725 5100 
Q 5700 4675 5700 4225 
L 5700 100 
Q 5700 -325 5487 -425 
Q 5275 -525 4775 -600 
Q 4700 -275 4550 -25 
Q 5000 -25 5125 0 
Q 5250 25 5250 275 
L 5250 4225 
Q 5250 4625 5225 5100 
L 5725 5100 
z
M 4425 4225 
Q 4400 3825 4400 3350 
L 4400 1550 
Q 4400 1075 4425 750 
L 3900 750 
Q 3925 1150 3925 1550 
L 3925 3425 
Q 3925 3800 3900 4225 
L 4425 4225 
z
" transform="scale(0.015625)"/>
      <path id="SimHei-9009" d="M 3200 4850 
Q 3025 4575 2900 4225 
L 3725 4225 
Q 3725 4725 3700 5175 
L 4275 5175 
Q 4225 4825 4225 4225 
Q 5100 4250 5475 4250 
L 5475 3825 
Q 5050 3850 4225 3850 
L 4225 2975 
L 5075 2975 
Q 5450 2975 5825 3000 
L 5825 2550 
Q 5450 2575 4675 2575 
L 4675 1200 
Q 4675 950 4950 950 
L 5250 950 
Q 5425 1050 5450 1525 
Q 5700 1375 5975 1325 
Q 5825 475 5450 475 
L 4775 475 
Q 4200 475 4200 1000 
L 4200 2575 
L 3700 2575 
Q 3700 1825 3425 1300 
Q 3150 775 2675 325 
Q 2500 500 2175 600 
Q 2800 1050 3012 1487 
Q 3225 1925 3225 2575 
Q 2475 2575 2100 2550 
L 2100 3025 
Q 2500 2975 2800 2975 
L 3725 2975 
L 3725 3850 
L 2775 3850 
Q 2650 3550 2575 3275 
Q 2300 3375 2075 3450 
Q 2450 4100 2625 5000 
Q 2875 4925 3200 4850 
z
M 1675 2875 
Q 1650 2350 1650 1925 
L 1650 575 
Q 2300 50 3725 0 
Q 5150 -50 6125 125 
Q 6000 0 5875 -450 
Q 4325 -475 3637 -425 
Q 2950 -375 2475 -237 
Q 2000 -100 1725 75 
Q 1450 250 1250 37 
Q 1050 -175 800 -500 
Q 625 -300 350 -175 
Q 625 125 1175 525 
L 1175 2475 
Q 800 2475 375 2450 
L 375 2900 
Q 850 2875 1675 2875 
z
M 1300 4850 
Q 1625 4100 1750 3725 
Q 1525 3650 1300 3550 
Q 1200 3850 800 4675 
Q 1025 4750 1300 4850 
z
" transform="scale(0.015625)"/>
      <path id="SimHei-62e9" d="M 2675 5050 
Q 3025 5050 3525 5025 
L 5675 5025 
Q 5400 4475 5187 4150 
Q 4975 3825 4500 3375 
Q 4825 3175 5187 3100 
Q 5550 3025 6150 2975 
Q 5900 2700 5850 2450 
Q 5225 2575 4850 2712 
Q 4475 2850 4125 3100 
Q 3750 2875 3425 2737 
Q 3100 2600 2575 2450 
Q 2525 2650 2225 2875 
Q 2675 2950 3025 3050 
Q 3375 3150 3725 3375 
Q 3175 3950 2975 4625 
L 2675 4625 
L 2675 5050 
z
M 2125 2825 
Q 2125 2600 2150 2350 
Q 1875 2250 1625 2125 
L 1625 175 
Q 1575 -250 1350 -337 
Q 1125 -425 625 -500 
Q 600 -200 500 175 
Q 1100 125 1125 250 
L 1125 1925 
Q 625 1675 450 1550 
Q 350 1850 200 2125 
Q 450 2175 1125 2400 
L 1125 3600 
Q 675 3600 350 3575 
L 350 4050 
Q 650 4025 1125 4025 
Q 1125 4575 1100 5225 
L 1650 5225 
Q 1625 4625 1625 4025 
Q 1900 4025 2350 4050 
L 2350 3575 
Q 1950 3600 1625 3600 
L 1625 2600 
Q 1875 2700 2125 2825 
z
M 3825 2025 
Q 3825 2325 3775 2650 
L 4350 2650 
Q 4325 2325 4325 2025 
Q 4950 2025 5525 2050 
L 5525 1600 
Q 4850 1625 4325 1625 
L 4325 875 
Q 5125 875 6000 900 
L 6000 450 
Q 5300 475 4325 475 
Q 4325 -400 4350 -675 
L 3775 -675 
Q 3825 -400 3825 475 
Q 2450 475 2075 450 
L 2075 900 
Q 2475 875 3825 875 
L 3825 1625 
Q 2900 1625 2575 1600 
L 2575 2050 
Q 3000 2025 3825 2025 
z
M 3425 4625 
Q 3725 3875 4125 3625 
Q 4325 3775 4537 4012 
Q 4750 4250 4950 4625 
L 3425 4625 
z
" transform="scale(0.015625)"/>
      <path id="SimHei-6027" d="M 3450 4525 
Q 3325 4075 3275 3750 
L 4050 3750 
L 4050 4275 
Q 4050 4700 4025 5100 
L 4550 5100 
Q 4525 4700 4525 4275 
L 4525 3750 
L 5025 3750 
Q 5350 3750 5800 3775 
L 5800 3300 
Q 5350 3325 5025 3325 
L 4525 3325 
L 4525 2000 
L 4975 2000 
Q 5350 2000 5725 2025 
L 5725 1550 
Q 5350 1575 4975 1575 
L 4525 1575 
L 4525 25 
L 5200 25 
Q 5625 25 6025 50 
L 6025 -400 
Q 5625 -375 5200 -375 
L 3275 -375 
Q 2825 -375 2400 -400 
L 2400 50 
Q 2825 25 3250 25 
L 4050 25 
L 4050 1575 
L 3625 1575 
Q 3300 1575 2875 1550 
L 2875 2025 
Q 3200 2000 3625 2000 
L 4050 2000 
L 4050 3325 
L 3175 3325 
Q 3100 2950 2775 2225 
Q 2500 2375 2325 2400 
Q 2675 3125 2775 3650 
Q 2875 4175 2950 4650 
Q 3200 4575 3450 4525 
z
M 1700 5150 
Q 1675 4650 1675 4175 
L 1675 425 
Q 1675 -100 1700 -625 
L 1175 -625 
Q 1200 -100 1200 425 
L 1200 4175 
Q 1200 4700 1175 5150 
L 1700 5150 
z
M 975 3725 
Q 825 2675 700 2150 
Q 450 2200 250 2250 
Q 425 2900 525 3800 
Q 725 3775 975 3725 
z
M 2125 4025 
Q 2325 3625 2525 3000 
Q 2300 2925 2125 2825 
Q 1950 3375 1750 3850 
Q 1950 3950 2125 4025 
z
" transform="scale(0.015625)"/>
      <path id="SimHei-626b" d="M 5900 4750 
Q 5875 4200 5875 3575 
L 5875 625 
Q 5875 25 5900 -525 
L 5375 -525 
L 5375 150 
L 3700 150 
Q 3200 150 2725 125 
L 2725 625 
Q 3200 600 3700 600 
L 5375 600 
L 5375 2325 
L 4200 2325 
Q 3700 2325 3200 2300 
L 3200 2775 
Q 3700 2750 4200 2750 
L 5375 2750 
L 5375 4300 
L 3850 4300 
Q 3350 4300 2900 4275 
L 2900 4775 
Q 3350 4750 3850 4750 
L 5900 4750 
z
M 1375 3925 
Q 1375 4675 1350 5150 
L 1925 5150 
Q 1900 4850 1900 3925 
Q 2450 3925 2800 3975 
L 2800 3450 
Q 2450 3475 1900 3475 
L 1900 2450 
Q 2100 2550 2675 2875 
Q 2675 2625 2700 2375 
Q 2450 2300 1900 2000 
L 1900 -25 
Q 1900 -250 1675 -400 
Q 1450 -550 775 -625 
Q 775 -325 600 -50 
Q 1075 -100 1225 -62 
Q 1375 -25 1375 175 
L 1375 1775 
Q 825 1525 550 1300 
Q 450 1550 225 1750 
Q 550 1850 1375 2250 
L 1375 3475 
Q 775 3475 325 3450 
L 325 3975 
Q 750 3925 1375 3925 
z
" transform="scale(0.015625)"/>
      <path id="SimHei-63cf" d="M 2600 2150 
Q 2575 2575 2550 2800 
L 5800 2800 
Q 5775 2475 5775 2225 
L 5775 175 
Q 5775 -50 5800 -600 
L 5300 -600 
L 5300 -225 
L 3075 -225 
L 3075 -600 
L 2550 -600 
Q 2575 -400 2600 75 
L 2600 2150 
z
M 1150 3750 
L 1150 4475 
Q 1150 4850 1125 5150 
L 1650 5150 
Q 1625 4875 1625 4475 
L 1625 3750 
Q 1850 3750 2250 3775 
L 2250 3325 
Q 1875 3350 1625 3350 
L 1625 2425 
Q 2025 2600 2175 2675 
Q 2175 2525 2225 2250 
Q 2075 2200 1625 1975 
L 1625 150 
Q 1575 -175 1400 -362 
Q 1225 -550 725 -625 
Q 675 -175 575 -25 
Q 950 -75 1050 62 
Q 1150 200 1150 325 
L 1150 1775 
Q 1000 1725 450 1450 
Q 300 1825 225 1975 
Q 925 2175 1150 2275 
L 1150 3350 
L 1000 3350 
Q 650 3350 275 3325 
L 275 3775 
Q 625 3750 1000 3750 
L 1150 3750 
z
M 6175 3850 
Q 6025 3875 5575 3875 
L 5100 3875 
Q 5100 3550 5125 3150 
L 4625 3150 
L 4625 3875 
L 3675 3875 
L 3675 3150 
L 3200 3150 
Q 3225 3550 3225 3875 
L 3000 3875 
Q 2500 3875 2350 3850 
L 2350 4300 
Q 2650 4275 2875 4275 
L 3225 4275 
L 3225 4725 
Q 3225 5100 3200 5225 
L 3700 5225 
Q 3675 5150 3675 4725 
L 3675 4275 
L 4625 4275 
L 4625 4625 
Q 4625 5000 4600 5225 
L 5125 5225 
Q 5100 5075 5100 4700 
L 5100 4275 
L 5625 4275 
Q 6025 4275 6175 4300 
L 6175 3850 
z
M 3975 1475 
L 3975 2425 
L 3075 2425 
L 3075 1475 
L 3975 1475 
z
M 3975 150 
L 3975 1075 
L 3075 1075 
L 3075 150 
L 3975 150 
z
M 5300 1475 
L 5300 2425 
L 4425 2425 
L 4425 1475 
L 5300 1475 
z
M 5300 150 
L 5300 1075 
L 4425 1075 
L 4425 150 
L 5300 150 
z
" transform="scale(0.015625)"/>
      <path id="SimHei-673a" d="M 5100 4775 
Q 5075 4075 5075 3575 
L 5075 325 
Q 5075 0 5225 -25 
Q 5375 -50 5475 -37 
Q 5575 -25 5612 137 
Q 5650 300 5650 625 
Q 5875 500 6175 425 
Q 6075 -100 5975 -275 
Q 5875 -450 5650 -450 
L 5125 -450 
Q 4825 -450 4687 -312 
Q 4550 -175 4575 250 
L 4575 4350 
L 3625 4350 
Q 3625 2925 3587 2137 
Q 3550 1350 3362 712 
Q 3175 75 2625 -575 
Q 2500 -425 2175 -175 
Q 2525 100 2737 500 
Q 2950 900 3025 1325 
Q 3100 1750 3125 2225 
Q 3150 2700 3150 3425 
Q 3150 4175 3125 4775 
L 5100 4775 
z
M 2150 2725 
Q 2550 2175 2750 1875 
Q 2575 1725 2325 1550 
Q 2175 1875 1800 2425 
L 1800 600 
Q 1800 100 1825 -525 
L 1275 -525 
Q 1300 100 1300 600 
L 1300 2200 
Q 1175 1825 1025 1487 
Q 875 1150 600 725 
Q 375 975 200 1125 
Q 400 1350 725 2000 
Q 1050 2650 1225 3450 
L 1075 3450 
Q 725 3450 375 3400 
L 375 3875 
Q 725 3850 1050 3850 
L 1300 3850 
L 1300 4350 
Q 1300 4750 1275 5100 
L 1850 5100 
Q 1800 4850 1800 4350 
L 1800 3850 
L 2075 3850 
Q 2350 3850 2700 3875 
L 2700 3425 
Q 2150 3450 1800 3450 
L 1800 2450 
Q 1950 2575 2150 2725 
z
" transform="scale(0.015625)"/>
      <path id="SimHei-5236" d="M 1325 4625 
Q 1175 4375 1075 4150 
L 1800 4150 
Q 1800 4775 1775 5125 
L 2350 5125 
Q 2325 4800 2325 4150 
L 2700 4150 
Q 3200 4150 3600 4175 
L 3600 3725 
Q 3250 3750 2725 3750 
L 2325 3750 
L 2325 3025 
L 2950 3025 
Q 3325 3025 3750 3050 
L 3750 2625 
L 2325 2625 
L 2325 1950 
L 3675 1950 
Q 3650 1650 3637 1125 
Q 3625 600 3612 412 
Q 3600 225 3400 137 
Q 3200 50 2825 -25 
Q 2775 250 2650 550 
Q 2975 550 3050 587 
Q 3125 625 3125 975 
L 3125 1550 
L 2325 1550 
L 2325 175 
Q 2325 -250 2350 -550 
L 1775 -550 
Q 1800 -75 1800 175 
L 1800 1550 
L 1025 1550 
L 1025 -25 
L 500 -25 
Q 525 300 525 650 
L 525 1200 
Q 525 1675 500 1950 
L 1800 1950 
L 1800 2625 
L 1000 2625 
Q 550 2625 225 2600 
L 225 3050 
Q 550 3025 1000 3025 
L 1800 3025 
L 1800 3750 
L 925 3750 
Q 800 3450 675 3250 
Q 450 3400 225 3500 
Q 400 3750 525 4075 
Q 650 4400 750 4800 
Q 1000 4700 1325 4625 
z
M 5875 5075 
Q 5850 4825 5850 4350 
L 5850 25 
Q 5850 -325 5587 -412 
Q 5325 -500 4825 -575 
Q 4750 -250 4625 0 
Q 5050 0 5200 25 
Q 5350 50 5350 350 
L 5350 4350 
Q 5350 4775 5325 5075 
L 5875 5075 
z
M 4675 4325 
Q 4650 3975 4650 3700 
L 4650 1625 
Q 4650 1275 4675 775 
L 4125 775 
Q 4175 1200 4175 1625 
L 4175 3700 
Q 4175 3950 4125 4325 
L 4675 4325 
z
" transform="scale(0.015625)"/>
     </defs>
     <use xlink:href="#SimHei-4d"/>
     <use xlink:href="#SimHei-61" x="50"/>
     <use xlink:href="#SimHei-6d" x="100"/>
     <use xlink:href="#SimHei-62" x="150"/>
     <use xlink:href="#SimHei-61" x="200"/>
     <use xlink:href="#SimHei-7684" x="250"/>
     <use xlink:href="#SimHei-521b" x="350"/>
     <use xlink:href="#SimHei-65b0" x="450"/>
     <use xlink:href="#SimHei-3a" x="550"/>
     <use xlink:href="#SimHei-20" x="600"/>
     <use xlink:href="#SimHei-9009" x="650"/>
     <use xlink:href="#SimHei-62e9" x="750"/>
     <use xlink:href="#SimHei-6027" x="850"/>
     <use xlink:href="#SimHei-626b" x="950"/>
     <use xlink:href="#SimHei-63cf" x="1050"/>
     <use xlink:href="#SimHei-673a" x="1150"/>
     <use xlink:href="#SimHei-5236" x="1250"/>
    </g>
    <!-- • 参数A和B是输入依赖的: A(x), B(x) -->
    <g style="fill: #2c3e50" transform="translate(219.5 422.212344) scale(0.14 -0.14)">
     <defs>
      <path id="SimHei-2022" d="M 5600 -325 
L 700 -325 
L 700 4825 
L 5600 4825 
L 5600 -325 
z
M 5400 4650 
L 875 4650 
L 875 -150 
L 5400 -150 
L 5400 4650 
z
" transform="scale(0.015625)"/>
      <path id="SimHei-53c2" d="M 3325 4850 
Q 3100 4725 2850 4500 
Q 2600 4275 2175 3925 
Q 2850 3950 3275 3950 
Q 3700 3950 4200 3975 
Q 3950 4200 3600 4450 
Q 3800 4625 3925 4775 
Q 4900 4100 5325 3675 
Q 5100 3475 4925 3300 
Q 4750 3475 4550 3625 
Q 3625 3600 3200 3575 
Q 3025 3250 2925 3125 
L 5075 3125 
Q 5575 3125 5950 3150 
L 5950 2700 
Q 5600 2725 5075 2725 
L 4325 2725 
Q 4675 2350 5187 2075 
Q 5700 1800 6150 1700 
Q 5850 1550 5675 1225 
Q 5100 1525 4612 1900 
Q 4125 2275 3800 2725 
L 2725 2725 
Q 2325 2300 1812 1962 
Q 1300 1625 650 1325 
Q 525 1525 250 1700 
Q 725 1825 1237 2100 
Q 1750 2375 2100 2725 
L 1475 2725 
Q 950 2725 375 2700 
L 375 3150 
Q 875 3125 1475 3125 
L 2400 3125 
L 2550 3350 
L 2650 3550 
Q 1925 3500 1775 3475 
Q 1625 3450 1500 3425 
Q 1375 3725 1300 3875 
Q 1600 3950 2050 4337 
Q 2500 4725 2825 5225 
Q 3025 5050 3325 4850 
z
M 5350 800 
Q 5025 650 4612 437 
Q 4200 225 3850 75 
Q 3500 -75 3062 -212 
Q 2625 -350 2150 -450 
Q 1675 -550 1225 -600 
Q 1150 -350 900 -150 
Q 1675 -125 2362 25 
Q 3050 175 3512 387 
Q 3975 600 4312 800 
Q 4650 1000 4900 1250 
Q 5100 1025 5350 800 
z
M 4550 1450 
Q 4350 1375 4037 1200 
Q 3725 1025 3350 862 
Q 2975 700 2512 550 
Q 2050 400 1575 325 
Q 1450 575 1250 775 
Q 1775 800 2175 900 
Q 2575 1000 3075 1212 
Q 3575 1425 4125 1850 
Q 4300 1675 4550 1450 
z
M 3900 2075 
Q 3575 1950 3350 1825 
Q 3125 1700 2687 1525 
Q 2250 1350 1750 1200 
Q 1625 1425 1450 1600 
Q 2025 1700 2587 1937 
Q 3150 2175 3500 2500 
Q 3700 2275 3900 2075 
z
" transform="scale(0.015625)"/>
      <path id="SimHei-6570" d="M 4525 4925 
Q 4475 4800 4400 4587 
Q 4325 4375 4175 3825 
L 5325 3825 
Q 5575 3825 5925 3850 
L 5925 3400 
Q 5650 3425 5500 3425 
Q 5500 3025 5362 2162 
Q 5225 1300 4875 675 
Q 5125 375 5437 137 
Q 5750 -100 6025 -200 
Q 5725 -425 5625 -625 
Q 5325 -450 5075 -225 
Q 4825 0 4575 325 
Q 4300 25 3987 -187 
Q 3675 -400 3200 -650 
Q 3075 -425 2850 -300 
Q 3225 -150 3650 125 
Q 4075 400 4300 675 
Q 4125 1025 3962 1425 
Q 3800 1825 3675 2475 
Q 3600 2275 3425 1950 
Q 3250 2050 3000 2150 
Q 3400 2850 3650 3675 
Q 3900 4500 3975 5100 
Q 4275 4975 4525 4925 
z
M 2100 2250 
Q 2000 2150 1875 1925 
L 3250 1925 
Q 3100 1300 2725 675 
Q 3125 525 3350 400 
Q 3225 225 3125 25 
Q 2900 175 2450 325 
Q 1950 -225 725 -650 
Q 600 -375 400 -275 
Q 1575 0 2000 475 
Q 1300 650 850 775 
Q 1000 1000 1250 1525 
Q 1000 1525 425 1500 
L 425 1950 
Q 900 1925 1400 1925 
Q 1500 2150 1550 2425 
Q 1825 2325 2100 2250 
z
M 1775 3950 
Q 1775 4550 1750 5100 
L 2250 5100 
Q 2225 4575 2225 3950 
Q 3075 3950 3425 3975 
L 3425 3525 
Q 3075 3550 2225 3550 
Q 2225 2825 2250 2425 
L 1750 2425 
Q 1775 2775 1775 3300 
Q 1650 3100 1300 2787 
Q 950 2475 650 2300 
Q 525 2525 275 2625 
Q 500 2700 875 2975 
Q 1250 3250 1450 3550 
Q 950 3550 500 3525 
L 500 3975 
Q 925 3950 1775 3950 
z
M 3975 3175 
Q 4200 1700 4600 1125 
Q 4850 1700 4937 2287 
Q 5025 2875 5050 3425 
L 4075 3425 
L 3975 3175 
z
M 1450 1000 
Q 1750 925 2275 800 
Q 2475 1050 2650 1525 
L 1725 1525 
Q 1600 1275 1450 1000 
z
M 3325 4825 
Q 3200 4625 3125 4450 
Q 3050 4275 2925 4025 
Q 2725 4125 2525 4175 
Q 2725 4500 2900 5000 
Q 3150 4875 3325 4825 
z
M 2575 3375 
Q 2900 3050 3200 2725 
Q 3050 2600 2875 2425 
Q 2525 2850 2300 3100 
Q 2450 3225 2575 3375 
z
M 925 5000 
Q 1275 4650 1500 4300 
L 1125 4075 
Q 950 4425 600 4725 
Q 825 4875 925 5000 
z
" transform="scale(0.015625)"/>
      <path id="SimHei-548c" d="M 5875 4200 
Q 5850 3700 5850 3275 
L 5850 700 
Q 5850 250 5875 -25 
L 5375 -25 
L 5375 575 
L 4175 575 
L 4175 -75 
L 3700 -75 
Q 3725 500 3725 625 
L 3725 3275 
Q 3725 3700 3700 4200 
L 5875 4200 
z
M 3275 4450 
Q 3050 4450 2250 4325 
L 2250 3200 
L 2625 3200 
Q 3000 3200 3425 3225 
L 3425 2775 
Q 3000 2800 2650 2800 
L 2250 2800 
L 2250 225 
Q 2250 -200 2275 -550 
L 1775 -550 
Q 1800 -150 1800 225 
L 1800 1850 
Q 1425 1150 675 250 
Q 550 425 275 600 
Q 825 1125 1237 1812 
Q 1650 2500 1700 2800 
L 1250 2800 
Q 700 2800 450 2775 
L 450 3225 
Q 725 3200 1250 3200 
L 1800 3200 
L 1800 4250 
Q 1475 4200 775 4125 
Q 725 4375 625 4575 
Q 1100 4600 1825 4700 
Q 2550 4800 3050 5000 
Q 3100 4725 3275 4450 
z
M 5375 975 
L 5375 3775 
L 4175 3775 
L 4175 975 
L 5375 975 
z
M 3075 1000 
Q 2750 1625 2325 2100 
Q 2475 2200 2700 2400 
Q 3175 1875 3500 1325 
Q 3250 1175 3075 1000 
z
" transform="scale(0.015625)"/>
      <path id="SimHei-662f" d="M 5075 5000 
Q 5050 4625 5050 3950 
Q 5050 3300 5075 2725 
L 1350 2725 
Q 1375 3300 1375 3950 
Q 1375 4625 1350 5000 
L 5075 5000 
z
M 5075 2275 
Q 5500 2275 6025 2300 
L 6025 1850 
Q 5500 1875 5075 1875 
L 3475 1875 
L 3475 1250 
Q 4950 1250 5400 1275 
L 5400 825 
Q 4950 850 3475 850 
L 3475 100 
Q 3950 25 4650 25 
Q 5350 25 6200 125 
Q 6000 -150 5950 -475 
L 4675 -475 
Q 4125 -475 3650 -412 
Q 3175 -350 2712 -175 
Q 2250 0 1725 450 
Q 1625 250 1437 -12 
Q 1250 -275 875 -650 
Q 625 -450 375 -300 
Q 875 0 1200 575 
Q 1525 1150 1575 1650 
L 2175 1475 
Q 2100 1375 1925 900 
Q 2375 425 3000 225 
L 3000 1875 
L 1400 1875 
Q 950 1875 450 1850 
L 450 2300 
Q 975 2275 1400 2275 
L 5075 2275 
z
M 4550 3150 
L 4550 3675 
L 1875 3675 
L 1875 3150 
L 4550 3150 
z
M 4550 4100 
L 4550 4600 
L 1875 4600 
L 1875 4100 
L 4550 4100 
z
" transform="scale(0.015625)"/>
      <path id="SimHei-4f9d" d="M 4025 5200 
Q 4100 5025 4175 4750 
Q 4250 4475 4325 4225 
L 5300 4225 
Q 5575 4225 5975 4250 
L 5975 3775 
Q 5600 3800 5325 3800 
L 4050 3800 
Q 3875 3125 3550 2525 
L 3550 175 
Q 3975 525 4200 775 
Q 4275 525 4400 250 
Q 3600 -350 3250 -675 
Q 3125 -475 2875 -225 
Q 3050 -100 3075 250 
L 3075 1775 
Q 2600 1175 2200 775 
Q 2025 975 1775 1150 
Q 3150 2250 3525 3800 
L 2800 3800 
Q 2450 3800 2075 3775 
L 2075 4250 
Q 2450 4225 2775 4225 
L 3775 4225 
Q 3750 4400 3525 5025 
Q 3675 5100 4025 5200 
z
M 2175 4975 
Q 1975 4800 1675 3925 
L 1675 625 
Q 1675 -175 1700 -575 
L 1175 -575 
Q 1200 -200 1200 600 
L 1200 3000 
Q 950 2525 575 2000 
Q 425 2225 225 2375 
Q 550 2775 937 3512 
Q 1325 4250 1650 5225 
Q 1800 5125 2175 4975 
z
M 5925 2675 
Q 5825 2550 5487 2287 
Q 5150 2025 4775 1675 
Q 5250 475 6075 25 
Q 5800 -250 5650 -425 
Q 4825 250 4400 1350 
Q 3975 2450 3875 3025 
Q 4100 3075 4325 3175 
Q 4450 2475 4600 2125 
Q 5125 2525 5475 3125 
L 5925 2675 
z
" transform="scale(0.015625)"/>
      <path id="SimHei-8d56" d="M 1550 3325 
L 1550 3950 
Q 650 3950 375 3925 
L 375 4350 
Q 650 4325 1550 4325 
Q 1550 4775 1525 5150 
L 2025 5150 
Q 2000 4875 2000 4325 
Q 2725 4325 3075 4350 
L 3075 3925 
Q 2725 3950 2000 3950 
L 2000 3325 
L 3000 3325 
Q 2975 3050 2975 2550 
Q 2975 2075 3000 1800 
L 2000 1800 
L 2000 1225 
Q 2150 1325 2300 1450 
Q 2875 925 3100 700 
Q 2925 575 2750 400 
Q 2200 1000 2000 1150 
Q 2000 -175 2025 -550 
L 1525 -550 
Q 1550 -175 1550 1175 
Q 1325 900 1150 650 
Q 975 400 675 25 
Q 425 225 225 375 
Q 625 675 862 962 
Q 1100 1250 1425 1800 
L 525 1800 
Q 550 2050 550 2575 
Q 550 3100 525 3325 
L 1550 3325 
z
M 4625 5000 
Q 4450 4875 4200 4475 
L 5650 4475 
Q 5425 4175 5237 3912 
Q 5050 3650 4850 3325 
L 5875 3325 
Q 5850 3025 5850 2075 
Q 5850 1125 5875 750 
L 5400 750 
L 5400 2950 
L 3800 2950 
L 3800 875 
L 3325 875 
Q 3350 1300 3350 2150 
Q 3350 3025 3325 3325 
Q 3100 3475 2925 3550 
Q 3350 3925 3600 4350 
Q 3850 4775 4025 5225 
Q 4325 5075 4625 5000 
z
M 4850 2425 
Q 4750 2125 4725 1650 
Q 4700 1175 4587 750 
Q 4475 325 4075 -25 
Q 3675 -375 3100 -675 
Q 2950 -475 2700 -300 
Q 3325 -50 3662 225 
Q 4000 500 4137 837 
Q 4275 1175 4287 1600 
Q 4300 2025 4300 2550 
Q 4725 2425 4850 2425 
z
M 5000 750 
Q 5600 275 6200 -250 
Q 5950 -400 5750 -575 
Q 5175 50 4600 425 
Q 4875 575 5000 750 
z
M 4350 3325 
L 4825 4100 
L 4000 4100 
Q 3825 3850 3400 3325 
L 4350 3325 
z
M 1550 2175 
L 1550 2950 
L 975 2950 
L 975 2175 
L 1550 2175 
z
M 2550 2175 
L 2550 2950 
L 2000 2950 
L 2000 2175 
L 2550 2175 
z
" transform="scale(0.015625)"/>
      <path id="SimHei-28" d="M 2975 -200 
L 2700 -475 
Q 2075 125 1762 775 
Q 1450 1425 1450 2250 
Q 1450 3075 1762 3725 
Q 2075 4375 2700 5000 
L 2975 4725 
Q 2400 4175 2112 3587 
Q 1825 3000 1825 2250 
Q 1825 1500 2112 912 
Q 2400 325 2975 -200 
z
" transform="scale(0.015625)"/>
      <path id="SimHei-29" d="M 1675 2250 
Q 1675 1425 1362 775 
Q 1050 125 425 -475 
L 150 -200 
Q 725 325 1012 912 
Q 1300 1500 1300 2250 
Q 1300 3000 1012 3587 
Q 725 4175 150 4725 
L 425 5000 
Q 1050 4375 1362 3725 
Q 1675 3075 1675 2250 
z
" transform="scale(0.015625)"/>
      <path id="SimHei-2c" d="M 1100 125 
L 775 -550 
L 525 -550 
L 775 125 
L 525 125 
L 525 675 
L 1100 675 
L 1100 125 
z
" transform="scale(0.015625)"/>
     </defs>
     <use xlink:href="#SimHei-2022"/>
     <use xlink:href="#SimHei-20" x="100"/>
     <use xlink:href="#SimHei-53c2" x="150"/>
     <use xlink:href="#SimHei-6570" x="250"/>
     <use xlink:href="#SimHei-41" x="350"/>
     <use xlink:href="#SimHei-548c" x="400"/>
     <use xlink:href="#SimHei-42" x="500"/>
     <use xlink:href="#SimHei-662f" x="550"/>
     <use xlink:href="#SimHei-8f93" x="650"/>
     <use xlink:href="#SimHei-5165" x="750"/>
     <use xlink:href="#SimHei-4f9d" x="850"/>
     <use xlink:href="#SimHei-8d56" x="950"/>
     <use xlink:href="#SimHei-7684" x="1050"/>
     <use xlink:href="#SimHei-3a" x="1150"/>
     <use xlink:href="#SimHei-20" x="1200"/>
     <use xlink:href="#SimHei-41" x="1250"/>
     <use xlink:href="#SimHei-28" x="1300"/>
     <use xlink:href="#SimHei-78" x="1350"/>
     <use xlink:href="#SimHei-29" x="1400"/>
     <use xlink:href="#SimHei-2c" x="1450"/>
     <use xlink:href="#SimHei-20" x="1500"/>
     <use xlink:href="#SimHei-42" x="1550"/>
     <use xlink:href="#SimHei-28" x="1600"/>
     <use xlink:href="#SimHei-78" x="1650"/>
     <use xlink:href="#SimHei-29" x="1700"/>
    </g>
    <!-- • 通过可学习的选择性机制决定保留哪些信息 -->
    <g style="fill: #2c3e50" transform="translate(198.5 437.612344) scale(0.14 -0.14)">
     <defs>
      <path id="SimHei-901a" d="M 5675 5050 
Q 5325 4650 4937 4300 
Q 4550 3950 4250 3650 
L 5700 3650 
Q 5675 3100 5675 2575 
L 5675 850 
Q 5700 525 5500 425 
Q 5300 325 4900 250 
Q 4850 475 4650 775 
Q 5025 800 5150 850 
Q 5275 900 5250 1325 
L 4125 1325 
L 4125 300 
L 3675 300 
L 3675 1325 
L 2575 1325 
L 2575 300 
L 2125 300 
Q 2150 1125 2150 1950 
Q 2150 2775 2125 3650 
L 3600 3650 
Q 3475 3850 3050 4200 
Q 3225 4350 3375 4525 
Q 3825 4175 4000 4000 
Q 4400 4425 4625 4650 
L 3025 4650 
Q 2525 4650 2150 4625 
L 2150 5075 
Q 2525 5050 2975 5050 
L 5675 5050 
z
M 1425 3000 
Q 1400 2500 1400 2100 
L 1400 600 
Q 2025 -25 3700 -25 
Q 5375 -25 6150 125 
Q 6000 -175 5975 -500 
Q 3975 -525 3137 -450 
Q 2300 -375 1775 -112 
Q 1250 150 1075 -37 
Q 900 -225 650 -650 
Q 425 -400 200 -225 
Q 600 125 975 425 
L 975 2575 
Q 775 2575 350 2550 
L 350 3025 
Q 750 3000 1425 3000 
z
M 5250 1725 
L 5250 2325 
L 4125 2325 
L 4125 1725 
L 5250 1725 
z
M 3675 1725 
L 3675 2325 
L 2575 2325 
L 2575 1725 
L 3675 1725 
z
M 5250 2725 
L 5250 3275 
L 4125 3275 
L 4125 2725 
L 5250 2725 
z
M 3675 2725 
L 3675 3275 
L 2575 3275 
L 2575 2725 
L 3675 2725 
z
M 1025 5025 
Q 1450 4425 1700 4075 
Q 1425 3925 1250 3725 
Q 1075 4100 600 4725 
Q 800 4875 1025 5025 
z
" transform="scale(0.015625)"/>
      <path id="SimHei-8fc7" d="M 250 -200 
Q 1025 475 1275 650 
L 1275 2475 
Q 675 2475 400 2450 
L 400 2950 
Q 625 2900 1325 2900 
L 1800 2900 
Q 1775 2525 1775 2150 
L 1775 600 
Q 2500 -25 3912 -37 
Q 5325 -50 6150 75 
Q 6000 -175 5925 -550 
L 4425 -550 
Q 3800 -550 3275 -512 
Q 2750 -475 2387 -300 
Q 2025 -125 1750 75 
Q 1475 275 1237 37 
Q 1000 -200 700 -625 
Q 550 -375 250 -200 
z
M 3625 850 
Q 4200 825 4350 875 
Q 4500 925 4500 1300 
L 4500 3575 
L 2875 3575 
Q 2600 3575 2275 3550 
L 2275 4025 
Q 2600 4000 3075 4000 
L 4500 4000 
Q 4500 4650 4450 5125 
L 5025 5125 
Q 5000 4800 5000 4000 
Q 5525 4000 5950 4025 
L 5950 3550 
Q 5550 3575 5000 3575 
L 5000 1100 
Q 5000 525 4662 412 
Q 4325 300 3825 275 
Q 3775 550 3625 850 
z
M 3125 1600 
Q 2900 2275 2575 2850 
Q 2800 2950 3050 3125 
Q 3500 2225 3625 1875 
Q 3450 1775 3125 1600 
z
M 1150 4975 
Q 1400 4675 1925 3875 
Q 1675 3725 1450 3550 
Q 950 4400 700 4625 
Q 925 4750 1150 4975 
z
" transform="scale(0.015625)"/>
      <path id="SimHei-53ef" d="M 3600 3500 
Q 3575 3175 3575 2775 
L 3575 1550 
Q 3575 1125 3600 825 
L 3075 825 
L 3075 1275 
L 1650 1275 
L 1650 600 
L 1150 600 
Q 1175 775 1175 1175 
L 1175 2775 
Q 1175 3175 1150 3500 
L 3600 3500 
z
M 5200 4675 
Q 5600 4675 6050 4700 
L 6050 4225 
Q 5650 4250 5225 4250 
L 5075 4250 
L 5075 125 
Q 5075 -325 4812 -462 
Q 4550 -600 3750 -675 
Q 3700 -350 3550 -75 
Q 4075 -100 4300 -50 
Q 4525 0 4525 225 
L 4525 4250 
L 1525 4250 
Q 875 4250 350 4225 
L 350 4700 
Q 875 4675 1500 4675 
L 5200 4675 
z
M 3075 1700 
L 3075 3075 
L 1650 3075 
L 1650 1700 
L 3075 1700 
z
" transform="scale(0.015625)"/>
      <path id="SimHei-5b66" d="M 4875 2675 
L 4875 2150 
Q 4525 2075 4237 1912 
Q 3950 1750 3575 1575 
L 3575 1350 
L 5150 1350 
Q 5450 1350 5925 1375 
L 5925 875 
Q 5425 900 5150 900 
L 3575 900 
L 3575 -125 
Q 3575 -475 3300 -562 
Q 3025 -650 2400 -700 
Q 2325 -425 2150 -150 
L 2825 -150 
Q 3075 -150 3075 125 
L 3075 900 
L 1350 900 
Q 950 900 450 875 
L 450 1375 
Q 975 1350 1325 1350 
L 3075 1350 
Q 3075 1550 3025 1800 
L 3925 2250 
L 2550 2250 
Q 2075 2250 1475 2225 
L 1475 2700 
Q 2025 2675 2525 2675 
L 4875 2675 
z
M 5350 4975 
Q 4850 4400 4500 3800 
L 5875 3800 
Q 5850 3575 5850 3275 
Q 5850 2975 5875 2700 
L 5350 2700 
L 5350 3375 
L 1025 3375 
L 1025 2675 
L 500 2675 
Q 525 2975 525 3275 
Q 525 3575 500 3800 
L 3975 3800 
Q 4175 4150 4387 4537 
Q 4600 4925 4725 5300 
Q 5125 5075 5350 4975 
z
M 2950 5225 
Q 3425 4625 3575 4350 
Q 3350 4175 3100 4025 
Q 2900 4425 2500 4925 
Q 2750 5100 2950 5225 
z
M 1250 5050 
Q 1700 4675 2025 4275 
Q 1750 4075 1600 3900 
Q 1275 4375 850 4725 
Q 1125 4925 1250 5050 
z
" transform="scale(0.015625)"/>
      <path id="SimHei-4e60" d="M 2500 4325 
Q 1775 4325 1125 4300 
L 1125 4800 
Q 1950 4775 2375 4775 
L 5500 4775 
Q 5450 4425 5425 3700 
L 5325 375 
Q 5275 -300 4925 -425 
Q 4575 -550 3775 -600 
Q 3700 -300 3500 0 
Q 4225 -50 4500 12 
Q 4775 75 4825 475 
L 4925 4325 
L 2500 4325 
z
M 4200 2075 
Q 4200 1800 4250 1550 
Q 2825 1025 1275 250 
Q 1150 550 925 825 
Q 1250 900 2212 1250 
Q 3175 1600 4200 2075 
z
M 1800 3825 
Q 2875 3200 3400 2800 
Q 3300 2650 3050 2325 
Q 2600 2750 1500 3400 
Q 1675 3625 1800 3825 
z
" transform="scale(0.015625)"/>
      <path id="SimHei-51b3" d="M 3400 3700 
Q 2675 3700 2225 3675 
L 2225 4150 
Q 2675 4125 3400 4125 
Q 3400 4825 3375 5200 
Q 3650 5175 3950 5150 
Q 3900 4800 3900 4125 
L 5375 4125 
Q 5350 3725 5350 2300 
Q 5750 2300 6050 2325 
L 6050 1850 
Q 5675 1875 5300 1875 
L 4025 1875 
Q 4750 325 6200 50 
Q 5925 -150 5825 -525 
Q 4275 0 3700 1500 
Q 3150 150 1800 -650 
Q 1650 -400 1375 -250 
Q 2850 500 3300 1875 
L 2900 1875 
Q 2450 1875 2000 1850 
L 2000 2325 
Q 2450 2300 2900 2300 
L 3350 2300 
Q 3400 3125 3400 3700 
z
M 4850 2300 
L 4850 3700 
L 3900 3700 
Q 3875 2850 3850 2300 
L 4850 2300 
z
M 1825 2150 
Q 1550 1675 1250 1087 
Q 950 500 800 150 
Q 575 350 250 525 
Q 525 850 850 1400 
Q 1175 1950 1375 2500 
Q 1550 2300 1825 2150 
z
M 750 4725 
Q 1025 4425 1275 4125 
Q 1525 3825 1800 3500 
Q 1600 3350 1375 3125 
Q 1150 3450 350 4350 
Q 550 4525 750 4725 
z
" transform="scale(0.015625)"/>
      <path id="SimHei-5b9a" d="M 4200 3125 
Q 4675 3125 5175 3150 
L 5175 2675 
Q 4725 2700 4100 2700 
L 3550 2700 
L 3550 1700 
L 4600 1700 
Q 4875 1700 5375 1725 
L 5375 1250 
Q 4875 1275 4575 1275 
L 3550 1275 
L 3550 100 
Q 4600 -25 6050 125 
Q 5850 -200 5800 -475 
Q 4800 -475 4150 -450 
Q 3500 -425 3050 -300 
Q 2600 -175 2250 75 
Q 1900 325 1600 675 
Q 1200 -50 675 -575 
Q 450 -350 175 -250 
Q 875 300 1200 1050 
Q 1525 1800 1550 2200 
Q 1800 2050 2150 1975 
Q 2075 1875 1987 1662 
Q 1900 1450 1775 1125 
Q 1950 900 2300 612 
Q 2650 325 3050 200 
L 3050 2700 
L 2250 2700 
Q 1825 2700 1400 2675 
L 1400 3150 
Q 1825 3125 2400 3125 
L 4200 3125 
z
M 5750 4275 
Q 5725 3925 5725 3750 
Q 5725 3575 5750 3275 
L 5225 3275 
L 5225 3875 
L 1225 3875 
L 1225 3275 
L 700 3275 
Q 725 3475 725 3725 
Q 725 3975 700 4275 
L 5750 4275 
z
M 2650 5050 
Q 2875 5125 3100 5300 
Q 3375 4975 3600 4550 
Q 3250 4400 3100 4300 
Q 3050 4525 2650 5050 
z
" transform="scale(0.015625)"/>
      <path id="SimHei-4fdd" d="M 5425 4925 
Q 5400 4550 5400 3950 
Q 5400 3375 5425 3050 
L 4225 3050 
L 4225 2250 
L 4975 2250 
Q 5650 2250 6025 2275 
L 6025 1800 
Q 5600 1825 5025 1825 
L 4600 1825 
Q 4825 1325 5225 937 
Q 5625 550 6175 350 
Q 5975 175 5800 -125 
Q 5200 200 4812 700 
Q 4425 1200 4225 1700 
L 4225 325 
Q 4225 -250 4250 -575 
L 3725 -575 
Q 3750 -225 3750 275 
L 3750 1800 
Q 3150 600 2225 -175 
Q 2075 50 1775 175 
Q 2650 650 3225 1825 
L 2875 1825 
Q 2350 1825 2000 1800 
L 2000 2275 
Q 2350 2250 2825 2250 
L 3750 2250 
L 3750 3050 
L 2600 3050 
Q 2625 3400 2625 4000 
Q 2625 4625 2600 4925 
L 5425 4925 
z
M 2125 4975 
Q 2000 4800 1850 4475 
Q 1700 4150 1600 3875 
L 1600 650 
Q 1600 -150 1625 -575 
L 1125 -575 
Q 1150 -175 1150 625 
L 1150 3000 
Q 800 2400 525 2050 
Q 400 2275 200 2425 
Q 725 3050 1087 3837 
Q 1450 4625 1575 5225 
Q 1775 5075 2125 4975 
z
M 4950 3450 
L 4950 4525 
L 3075 4525 
L 3075 3450 
L 4950 3450 
z
" transform="scale(0.015625)"/>
      <path id="SimHei-7559" d="M 5575 2300 
Q 5550 1900 5550 1275 
L 5550 375 
Q 5550 -50 5575 -650 
L 5050 -650 
L 5050 -150 
L 1500 -150 
L 1500 -650 
L 975 -650 
Q 1000 100 1000 450 
L 1000 1275 
Q 1000 1925 975 2300 
L 5575 2300 
z
M 3350 2475 
Q 3250 2650 2900 2850 
Q 3325 3050 3625 3400 
Q 3925 3750 4025 4450 
Q 3675 4450 3225 4400 
L 3225 4875 
Q 3675 4850 4050 4850 
L 5950 4850 
Q 5875 4425 5825 3912 
Q 5775 3400 5725 3125 
Q 5675 2850 5462 2775 
Q 5250 2700 4775 2600 
Q 4675 2950 4525 3200 
Q 4900 3200 5075 3225 
Q 5250 3250 5287 3400 
Q 5325 3550 5375 4450 
L 4525 4450 
Q 4425 3675 4112 3250 
Q 3800 2825 3350 2475 
z
M 2200 3575 
Q 2050 3800 1875 3975 
Q 2125 4100 2275 4250 
Q 2650 3750 3000 3250 
Q 2800 3100 2575 2950 
Q 2500 3100 2400 3250 
Q 2000 3075 1587 2862 
Q 1175 2650 800 2425 
Q 675 2650 500 2850 
Q 675 3000 675 3425 
L 675 4125 
Q 675 4550 650 4850 
Q 1075 4850 1575 4925 
Q 2075 5000 2550 5225 
Q 2650 4975 2950 4700 
Q 2775 4700 2287 4600 
Q 1800 4500 1175 4450 
L 1175 3125 
Q 1600 3300 2200 3575 
z
M 3075 250 
L 3075 875 
L 1500 875 
L 1500 250 
L 3075 250 
z
M 3075 1275 
L 3075 1900 
L 1500 1900 
L 1500 1275 
L 3075 1275 
z
M 5050 1275 
L 5050 1900 
L 3550 1900 
L 3550 1275 
L 5050 1275 
z
M 5050 250 
L 5050 875 
L 3550 875 
L 3550 250 
L 5050 250 
z
" transform="scale(0.015625)"/>
      <path id="SimHei-54ea" d="M 4050 25 
Q 4050 -250 3862 -375 
Q 3675 -500 3275 -600 
Q 3200 -275 3050 -75 
Q 3625 -100 3625 100 
L 3625 1650 
L 3125 1650 
Q 3100 1325 3012 937 
Q 2925 550 2675 100 
Q 2425 -350 2150 -625 
Q 2000 -450 1675 -375 
Q 2175 50 2400 625 
Q 2625 1200 2650 1650 
Q 2375 1650 2200 1625 
L 2200 2050 
Q 2275 2025 2675 2025 
Q 2700 2675 2700 3075 
Q 2375 3075 2200 3050 
L 2200 3450 
Q 2350 3425 2700 3425 
L 2700 4600 
Q 2500 4600 2200 4575 
L 2200 4975 
Q 2500 4950 2675 4950 
L 4075 4950 
Q 4050 4600 4050 4275 
L 4050 25 
z
M 550 3650 
Q 550 4525 525 4825 
L 2025 4825 
Q 2000 4525 2000 3650 
L 2000 1850 
Q 2000 1050 2025 775 
L 1550 775 
L 1550 1300 
L 975 1300 
L 975 225 
L 525 225 
Q 550 550 550 1375 
L 550 3650 
z
M 6175 4950 
Q 5900 3950 5575 2825 
Q 6125 1675 6162 1312 
Q 6200 950 6062 700 
Q 5925 450 5325 175 
Q 5275 450 5050 700 
Q 5800 750 5625 1462 
Q 5450 2175 5100 2750 
Q 5425 3850 5575 4600 
L 4875 4600 
L 4875 925 
Q 4875 125 4900 -650 
L 4375 -650 
Q 4450 125 4450 825 
L 4450 3650 
Q 4450 4300 4400 4950 
L 6175 4950 
z
M 1550 4475 
L 975 4475 
L 975 1650 
L 1550 1650 
L 1550 4475 
z
M 3625 3425 
L 3625 4600 
L 3150 4600 
L 3150 3425 
L 3625 3425 
z
M 3625 2025 
L 3625 3075 
L 3175 3075 
Q 3150 2300 3150 2025 
L 3625 2025 
z
" transform="scale(0.015625)"/>
      <path id="SimHei-4e9b" d="M 1400 4250 
Q 1375 3925 1375 3525 
L 1375 2225 
Q 1675 2275 2000 2350 
L 2000 4300 
Q 2000 4675 1975 5075 
L 2500 5075 
Q 2450 4675 2450 4300 
L 2450 3950 
Q 2875 3950 3250 3975 
L 3250 3550 
Q 2875 3575 2450 3575 
L 2450 2425 
Q 2800 2500 3325 2600 
Q 3275 2400 3325 2150 
Q 2050 1925 1400 1775 
Q 750 1625 550 1575 
Q 500 1775 375 2075 
L 925 2150 
L 925 3550 
Q 925 3950 900 4250 
L 1400 4250 
z
M 4050 5100 
Q 4025 4725 4025 4200 
L 4025 3550 
Q 5025 4075 5375 4425 
Q 5550 4175 5775 3975 
Q 5500 3875 4025 3125 
L 4025 2450 
Q 4000 2150 4325 2125 
L 5125 2125 
Q 5375 2125 5425 2725 
Q 5650 2550 5900 2500 
Q 5775 1725 5250 1725 
L 4100 1725 
Q 3575 1750 3575 2275 
L 3575 4175 
Q 3575 4750 3550 5100 
L 4050 5100 
z
M 4875 75 
Q 5250 75 5975 100 
L 5975 -375 
Q 5250 -350 4875 -350 
L 1350 -350 
Q 850 -350 450 -375 
L 450 100 
Q 875 75 1375 75 
L 4875 75 
z
M 4150 1275 
Q 4775 1275 5225 1300 
L 5225 850 
Q 4800 875 4075 875 
L 2150 875 
Q 1625 875 1150 850 
L 1150 1300 
Q 1800 1275 2150 1275 
L 4150 1275 
z
" transform="scale(0.015625)"/>
      <path id="SimHei-4fe1" d="M 5650 1575 
Q 5625 1275 5625 575 
Q 5625 -100 5650 -450 
L 5175 -450 
L 5175 -25 
L 3025 -25 
L 3025 -550 
L 2525 -550 
Q 2550 -175 2550 500 
Q 2550 1200 2525 1575 
L 5650 1575 
z
M 2125 4975 
Q 1975 4825 1650 3975 
L 1650 550 
Q 1650 -200 1675 -625 
L 1125 -625 
Q 1200 -175 1200 575 
L 1200 3100 
Q 900 2500 625 2100 
Q 475 2350 250 2500 
Q 525 2800 925 3562 
Q 1325 4325 1525 5175 
Q 1800 5075 2125 4975 
z
M 5175 375 
L 5175 1225 
L 3025 1225 
L 3025 375 
L 5175 375 
z
M 6075 3900 
Q 5575 3925 4100 3925 
Q 2625 3925 2100 3900 
L 2100 4325 
L 6075 4325 
L 6075 3900 
z
M 5700 3000 
Q 5275 3025 4150 3025 
Q 3025 3025 2475 3000 
L 2475 3425 
Q 2950 3400 4100 3400 
Q 5275 3400 5700 3425 
L 5700 3000 
z
M 5700 2125 
Q 5350 2150 4175 2150 
Q 3025 2150 2475 2125 
L 2475 2550 
Q 3000 2525 4175 2525 
Q 5375 2525 5700 2550 
L 5700 2125 
z
M 4025 5200 
Q 4100 5050 4175 4875 
Q 4250 4700 4325 4500 
Q 4100 4425 3875 4375 
Q 3700 4900 3575 5025 
Q 3825 5125 4025 5200 
z
" transform="scale(0.015625)"/>
      <path id="SimHei-606f" d="M 3100 5100 
Q 2850 4725 2775 4525 
L 5300 4525 
Q 5275 4025 5275 3175 
Q 5275 2350 5300 1775 
L 1150 1775 
Q 1175 2350 1175 3175 
Q 1175 4025 1150 4525 
L 2325 4525 
Q 2400 4725 2475 5250 
Q 2750 5175 3100 5100 
z
M 2350 1350 
Q 2325 675 2325 375 
Q 2325 75 2387 12 
Q 2450 -50 2775 -50 
L 4025 -50 
Q 4200 -50 4262 25 
Q 4325 100 4350 550 
Q 4550 425 4875 350 
Q 4750 -150 4650 -275 
Q 4550 -400 4200 -425 
L 2350 -425 
Q 1950 -400 1887 -212 
Q 1825 -25 1837 325 
Q 1850 675 1825 1350 
L 2350 1350 
z
M 4800 3725 
L 4800 4175 
L 1650 4175 
L 1650 3725 
L 4800 3725 
z
M 4800 2125 
L 4800 2575 
L 1650 2575 
L 1650 2125 
L 4800 2125 
z
M 4800 2925 
L 4800 3375 
L 1650 3375 
L 1650 2925 
L 4800 2925 
z
M 5225 1425 
Q 5650 875 6125 325 
Q 5875 150 5700 -25 
Q 5225 700 4825 1100 
Q 5025 1225 5225 1425 
z
M 1275 1075 
Q 975 150 800 -225 
Q 575 -125 300 -50 
Q 600 375 800 1200 
Q 1000 1125 1275 1075 
z
M 3350 1500 
Q 3625 1100 3800 750 
Q 3625 675 3350 500 
Q 3175 925 2925 1250 
Q 3150 1375 3350 1500 
z
" transform="scale(0.015625)"/>
     </defs>
     <use xlink:href="#SimHei-2022"/>
     <use xlink:href="#SimHei-20" x="100"/>
     <use xlink:href="#SimHei-901a" x="150"/>
     <use xlink:href="#SimHei-8fc7" x="250"/>
     <use xlink:href="#SimHei-53ef" x="350"/>
     <use xlink:href="#SimHei-5b66" x="450"/>
     <use xlink:href="#SimHei-4e60" x="550"/>
     <use xlink:href="#SimHei-7684" x="650"/>
     <use xlink:href="#SimHei-9009" x="750"/>
     <use xlink:href="#SimHei-62e9" x="850"/>
     <use xlink:href="#SimHei-6027" x="950"/>
     <use xlink:href="#SimHei-673a" x="1050"/>
     <use xlink:href="#SimHei-5236" x="1150"/>
     <use xlink:href="#SimHei-51b3" x="1250"/>
     <use xlink:href="#SimHei-5b9a" x="1350"/>
     <use xlink:href="#SimHei-4fdd" x="1450"/>
     <use xlink:href="#SimHei-7559" x="1550"/>
     <use xlink:href="#SimHei-54ea" x="1650"/>
     <use xlink:href="#SimHei-4e9b" x="1750"/>
     <use xlink:href="#SimHei-4fe1" x="1850"/>
     <use xlink:href="#SimHei-606f" x="1950"/>
    </g>
    <!-- • 实现了高效的并行计算和长距离依赖建模 -->
    <g style="fill: #2c3e50" transform="translate(205.5 453.012344) scale(0.14 -0.14)">
     <defs>
      <path id="SimHei-5b9e" d="M 4125 3500 
Q 4050 3200 4000 2675 
Q 3950 2150 3850 1550 
L 5025 1550 
Q 5475 1550 5975 1575 
L 5975 1100 
Q 5450 1125 5000 1125 
L 3725 1125 
Q 3500 625 3050 250 
Q 2600 -125 2000 -337 
Q 1400 -550 925 -675 
Q 825 -375 500 -200 
Q 1225 -125 2050 212 
Q 2875 550 3200 1125 
L 1425 1125 
Q 975 1125 425 1100 
L 425 1575 
Q 1000 1550 1425 1550 
L 3375 1550 
Q 3450 1975 3487 2462 
Q 3525 2950 3500 3650 
Q 3800 3550 4125 3500 
z
M 3250 5250 
Q 3450 4850 3600 4375 
L 5775 4375 
Q 5750 4100 5750 3825 
Q 5750 3575 5775 3275 
L 5200 3275 
L 5200 3975 
L 1225 3975 
L 1225 3225 
L 675 3225 
Q 700 3525 700 3800 
Q 700 4100 675 4375 
L 2975 4375 
Q 2900 4675 2700 5075 
Q 2900 5150 3250 5250 
z
M 4000 825 
Q 4550 525 5050 262 
Q 5550 0 5925 -225 
Q 5750 -425 5550 -650 
Q 5100 -325 4575 -37 
Q 4050 250 3675 400 
Q 3875 650 4000 825 
z
M 1175 2750 
Q 1600 2550 2350 2050 
Q 2250 1900 2050 1650 
Q 1350 2175 925 2350 
Q 1075 2500 1175 2750 
z
M 3150 2825 
Q 2975 2625 2850 2425 
Q 2050 3000 1675 3125 
Q 1800 3300 1950 3525 
L 3150 2825 
z
" transform="scale(0.015625)"/>
      <path id="SimHei-73b0" d="M 4650 3850 
Q 4550 3575 4512 2975 
Q 4475 2375 4350 1700 
L 4850 1700 
Q 4825 1450 4825 1025 
L 4825 225 
Q 4825 -150 4962 -175 
Q 5100 -200 5275 -187 
Q 5450 -175 5525 -12 
Q 5600 150 5625 575 
Q 5875 425 6175 375 
Q 6050 -150 5925 -337 
Q 5800 -525 5400 -575 
L 4900 -575 
Q 4350 -575 4350 -100 
L 4350 1650 
Q 4125 850 3700 312 
Q 3275 -225 2425 -675 
Q 2300 -475 2000 -325 
Q 2800 0 3175 387 
Q 3550 775 3775 1375 
Q 4000 1975 4037 2625 
Q 4075 3275 4050 3925 
Q 4375 3875 4650 3850 
z
M 1850 4625 
Q 2125 4625 2525 4650 
L 2525 4175 
Q 2125 4200 1675 4200 
L 1675 2825 
Q 2025 2825 2425 2850 
L 2425 2375 
Q 2025 2400 1675 2400 
L 1675 875 
Q 2100 975 2550 1125 
Q 2525 850 2525 650 
Q 1700 450 1200 275 
Q 700 100 450 -25 
Q 375 325 250 575 
Q 650 625 1225 750 
L 1225 2400 
Q 825 2400 450 2375 
L 450 2850 
Q 825 2825 1225 2825 
L 1225 4200 
Q 775 4200 425 4175 
L 425 4650 
Q 725 4625 1000 4625 
L 1850 4625 
z
M 5750 4875 
Q 5725 4475 5725 4075 
L 5725 2400 
Q 5725 1925 5750 1575 
L 5275 1575 
L 5275 4475 
L 3375 4475 
L 3375 1550 
L 2900 1550 
Q 2925 1975 2925 2500 
L 2925 3875 
Q 2925 4425 2900 4875 
L 5750 4875 
z
" transform="scale(0.015625)"/>
      <path id="SimHei-4e86" d="M 5600 4800 
L 5600 4250 
Q 5325 4150 4575 3650 
Q 3825 3150 3500 2900 
L 3500 50 
Q 3475 -375 3062 -487 
Q 2650 -600 2225 -650 
Q 2100 -125 1975 50 
Q 2600 25 2775 62 
Q 2950 100 2950 400 
L 2950 2400 
Q 2950 2975 2875 3200 
Q 3300 3375 4725 4350 
L 2075 4350 
Q 1475 4325 925 4325 
L 925 4825 
Q 1475 4800 1825 4800 
L 5600 4800 
z
" transform="scale(0.015625)"/>
      <path id="SimHei-9ad8" d="M 5825 -25 
Q 5850 -400 5550 -500 
Q 5250 -600 4975 -625 
Q 4875 -325 4725 -100 
Q 4975 -100 5175 -87 
Q 5375 -75 5350 250 
L 5350 1825 
L 1100 1825 
L 1100 -575 
L 600 -575 
Q 625 -225 625 850 
Q 625 1950 600 2200 
L 5850 2200 
Q 5825 1850 5825 1425 
L 5825 -25 
z
M 4925 3800 
Q 4900 3475 4900 3175 
Q 4900 2900 4925 2600 
L 1400 2600 
Q 1425 2825 1425 3175 
Q 1425 3525 1400 3800 
L 4925 3800 
z
M 4500 1400 
Q 4475 1125 4475 800 
Q 4475 500 4500 200 
L 1950 200 
Q 2000 500 2000 800 
Q 2000 1125 1950 1400 
L 4500 1400 
z
M 425 4600 
Q 750 4575 1125 4575 
L 2925 4575 
Q 2850 4875 2750 5100 
Q 3050 5125 3350 5200 
Q 3400 4950 3525 4575 
L 5250 4575 
Q 5600 4575 5975 4600 
L 5975 4150 
Q 5600 4175 5050 4175 
L 1150 4175 
Q 750 4175 425 4150 
L 425 4600 
z
M 4450 2975 
L 4450 3425 
L 1900 3425 
L 1900 2975 
L 4450 2975 
z
M 4025 550 
L 4025 1050 
L 2400 1050 
L 2400 550 
L 4025 550 
z
" transform="scale(0.015625)"/>
      <path id="SimHei-6548" d="M 3500 2400 
Q 3400 2675 3200 2900 
Q 3500 3350 3750 4025 
Q 4000 4700 4100 5300 
Q 4400 5150 4750 5075 
Q 4625 4950 4500 4687 
Q 4375 4425 4225 4025 
Q 5800 4025 6150 4050 
L 6150 3625 
Q 5850 3650 5475 3650 
Q 5450 2925 5300 2137 
Q 5150 1350 4825 800 
Q 4900 575 5312 275 
Q 5725 -25 6175 -175 
Q 5875 -350 5775 -650 
Q 5350 -425 5050 -162 
Q 4750 100 4500 425 
Q 4175 125 3837 -112 
Q 3500 -350 2850 -700 
Q 2725 -425 2425 -250 
Q 2750 -200 3325 137 
Q 3900 475 4200 800 
Q 4000 1225 3887 1675 
Q 3775 2125 3675 2700 
L 3500 2400 
z
M 1100 2225 
Q 1525 1875 1925 1575 
Q 2125 1900 2200 2400 
Q 2450 2275 2700 2200 
Q 2475 1625 2300 1250 
L 3000 550 
Q 2775 375 2575 175 
Q 2400 450 2025 825 
Q 1825 600 1550 312 
Q 1275 25 700 -425 
Q 500 -175 250 -25 
Q 575 125 950 400 
Q 1325 675 1675 1175 
Q 1325 1475 850 1875 
L 1100 2225 
z
M 4075 2950 
Q 4100 2700 4212 2187 
Q 4325 1675 4525 1225 
Q 4775 1700 4887 2475 
Q 5000 3250 4975 3650 
L 4100 3650 
Q 3900 3125 3725 2850 
Q 3900 2850 4075 2950 
z
M 2500 4200 
Q 2875 4200 3175 4225 
L 3175 3800 
Q 2875 3825 2525 3825 
L 1000 3825 
Q 600 3825 275 3800 
L 275 4225 
Q 600 4200 1000 4200 
L 2500 4200 
z
M 1125 3650 
Q 1400 3500 1625 3325 
Q 1525 3250 1300 2900 
Q 1050 2525 675 2000 
Q 450 2150 225 2275 
Q 550 2575 787 2975 
Q 1025 3375 1125 3650 
z
M 2475 3625 
Q 2625 3400 2850 3100 
Q 3075 2800 3250 2575 
Q 3025 2450 2825 2275 
Q 2325 3000 2075 3325 
Q 2275 3425 2475 3625 
z
M 1825 5250 
Q 2025 4875 2175 4475 
Q 1950 4375 1700 4275 
Q 1550 4650 1350 5075 
Q 1575 5150 1825 5250 
z
" transform="scale(0.015625)"/>
      <path id="SimHei-5e76" d="M 3750 3925 
Q 4000 4525 4150 5250 
Q 4475 5100 4825 5000 
Q 4700 4825 4562 4525 
Q 4425 4225 4300 3925 
Q 5200 3925 5625 3950 
L 5625 3450 
Q 5250 3475 4400 3475 
L 4400 2125 
Q 5575 2125 6075 2150 
L 6075 1650 
Q 5700 1675 4400 1675 
L 4400 400 
Q 4400 0 4425 -550 
L 3900 -550 
Q 3925 -25 3925 325 
L 3925 1675 
L 2450 1675 
Q 2375 850 2025 350 
Q 1675 -150 950 -650 
Q 725 -350 475 -200 
Q 1175 125 1537 587 
Q 1900 1050 1950 1675 
Q 850 1675 325 1650 
L 325 2150 
Q 825 2125 2000 2125 
L 2000 3475 
Q 1250 3475 725 3450 
L 725 3950 
Q 1025 3925 2100 3925 
Q 1850 4475 1500 4875 
Q 1850 5075 1975 5175 
Q 2500 4500 2650 4175 
Q 2450 4050 2250 3925 
L 3750 3925 
z
M 3925 2125 
L 3925 3475 
L 2475 3475 
L 2475 2125 
L 3925 2125 
z
" transform="scale(0.015625)"/>
      <path id="SimHei-884c" d="M 5300 3100 
Q 5775 3100 6175 3125 
L 6175 2625 
Q 5775 2650 5325 2650 
L 4975 2650 
L 4975 -75 
Q 5000 -375 4787 -487 
Q 4575 -600 3950 -675 
Q 3900 -375 3675 -75 
Q 4100 -125 4275 -112 
Q 4450 -100 4475 150 
L 4475 2650 
L 3475 2650 
Q 3000 2650 2575 2625 
L 2575 3125 
Q 3025 3100 3475 3100 
L 5300 3100 
z
M 2300 3400 
Q 2075 3275 1962 3075 
Q 1850 2875 1650 2575 
L 1650 325 
Q 1650 0 1675 -675 
L 1150 -675 
Q 1175 75 1175 450 
L 1175 2050 
Q 950 1675 575 1300 
Q 400 1550 250 1725 
Q 825 2275 1150 2775 
Q 1475 3275 1725 3725 
Q 1975 3575 2300 3400 
z
M 4875 4800 
Q 5300 4800 5750 4825 
L 5750 4350 
Q 5300 4375 4825 4375 
L 3900 4375 
Q 3350 4375 2950 4350 
L 2950 4825 
Q 3350 4800 3900 4800 
L 4875 4800 
z
M 2075 4925 
Q 1875 4900 1550 4387 
Q 1225 3875 650 3250 
Q 500 3450 325 3625 
Q 725 4025 1050 4487 
Q 1375 4950 1525 5300 
Q 1775 5150 2075 4925 
z
" transform="scale(0.015625)"/>
      <path id="SimHei-957f" d="M 1750 2800 
L 1750 4450 
Q 1750 4675 1725 5100 
L 2275 5100 
Q 2250 4625 2250 4475 
L 2250 2800 
L 5275 2800 
Q 5600 2800 5975 2825 
L 5975 2325 
Q 5500 2350 5100 2350 
L 3650 2350 
Q 3825 1850 4187 1375 
Q 4550 900 5050 587 
Q 5550 275 5950 150 
Q 5625 -50 5450 -350 
Q 4925 -75 4475 300 
Q 4025 675 3675 1212 
Q 3325 1750 3150 2350 
L 2250 2350 
L 2250 375 
Q 2975 825 3225 1050 
Q 3400 775 3575 550 
Q 3100 325 2625 -12 
Q 2150 -350 1925 -575 
Q 1725 -300 1550 -100 
Q 1750 100 1750 425 
L 1750 2350 
L 1175 2350 
Q 825 2350 375 2325 
L 375 2825 
Q 825 2800 1125 2800 
L 1750 2800 
z
M 4900 4700 
Q 4625 4475 4087 3937 
Q 3550 3400 3025 2900 
Q 2800 3200 2650 3300 
Q 3075 3600 3600 4150 
Q 4125 4700 4400 5100 
Q 4600 4925 4900 4700 
z
" transform="scale(0.015625)"/>
      <path id="SimHei-8ddd" d="M 3550 1275 
L 3550 25 
L 5250 25 
Q 5750 25 6125 50 
L 6125 -425 
Q 5750 -400 5275 -400 
L 3075 -400 
Q 3100 -75 3100 575 
L 3100 4075 
Q 3100 4575 3075 4950 
L 5200 4950 
Q 5550 4950 6000 4975 
L 6000 4525 
Q 5550 4550 5225 4550 
L 3550 4550 
L 3550 3325 
L 5650 3325 
Q 5625 3050 5625 2300 
Q 5625 1575 5650 1275 
L 3550 1275 
z
M 2650 4950 
Q 2625 4400 2625 3900 
Q 2625 3400 2650 3050 
L 2000 3050 
L 2000 2175 
Q 2375 2175 2875 2200 
L 2875 1725 
Q 2375 1750 2000 1750 
L 2000 525 
Q 2625 625 2875 700 
L 2875 250 
Q 1375 -50 1062 -150 
Q 750 -250 425 -375 
Q 350 -75 250 150 
L 625 225 
L 625 1775 
Q 625 2050 600 2325 
L 1100 2325 
Q 1075 2050 1075 1775 
L 1075 300 
L 1575 425 
L 1575 3050 
L 700 3050 
Q 725 3425 725 3900 
Q 725 4400 700 4950 
L 2650 4950 
z
M 5150 1700 
L 5150 2925 
L 3550 2925 
L 3550 1700 
L 5150 1700 
z
M 2200 3425 
L 2200 4575 
L 1150 4575 
L 1150 3425 
L 2200 3425 
z
" transform="scale(0.015625)"/>
      <path id="SimHei-79bb" d="M 3000 2275 
Q 3150 2175 3425 2050 
Q 3275 1900 3150 1725 
L 5825 1725 
L 5825 0 
Q 5825 -475 5612 -537 
Q 5400 -600 4850 -650 
Q 4775 -350 4650 -100 
Q 5225 -125 5300 -87 
Q 5375 -50 5375 175 
L 5375 1350 
L 2950 1350 
Q 2825 1150 2675 962 
Q 2525 775 2350 525 
Q 2650 525 4075 675 
Q 3975 800 3850 950 
Q 3975 1075 4200 1225 
Q 4350 1075 4537 825 
Q 4725 575 4900 300 
Q 4650 200 4475 50 
Q 4350 200 4275 350 
Q 3175 225 2700 150 
Q 2225 75 1850 -25 
Q 1800 275 1675 600 
Q 1875 700 2075 900 
Q 2275 1100 2450 1350 
L 1125 1350 
L 1125 -625 
L 650 -625 
Q 675 -225 675 225 
L 675 1000 
Q 675 1450 650 1725 
L 2625 1725 
Q 2800 2000 2925 2275 
L 1025 2275 
Q 1050 2525 1050 2725 
L 1050 3325 
Q 1050 3550 1025 3800 
L 1525 3800 
Q 1500 3525 1500 3275 
L 1500 2650 
L 5050 2650 
L 5050 3325 
Q 5050 3575 5025 3775 
L 5525 3775 
Q 5500 3575 5500 3325 
L 5500 2750 
Q 5500 2550 5525 2275 
L 3000 2275 
z
M 3300 5275 
Q 3400 5000 3525 4650 
L 4950 4650 
Q 5375 4650 5950 4675 
L 5950 4275 
Q 5375 4300 4775 4300 
L 1525 4300 
Q 1050 4300 475 4275 
L 475 4675 
Q 1025 4650 1050 4650 
L 2975 4650 
Q 2900 4900 2750 5150 
Q 3025 5200 3300 5275 
z
M 2175 4125 
Q 2450 4050 2750 3937 
Q 3050 3825 3350 3725 
Q 3850 4025 4125 4250 
Q 4375 4100 4650 3925 
Q 4200 3800 3825 3550 
Q 4250 3350 4800 3100 
Q 4625 2950 4375 2775 
Q 4025 3000 3787 3112 
Q 3550 3225 3325 3300 
Q 3125 3175 2825 3050 
Q 2525 2925 2150 2775 
Q 2000 2975 1800 3125 
Q 2175 3200 2412 3287 
Q 2650 3375 2950 3475 
Q 2625 3575 2425 3637 
Q 2225 3700 1850 3775 
Q 2050 3950 2175 4125 
z
" transform="scale(0.015625)"/>
      <path id="SimHei-5efa" d="M 3650 4700 
Q 3650 5025 3625 5250 
L 4125 5250 
Q 4100 5025 4100 4700 
L 5450 4700 
Q 5425 4400 5425 3850 
Q 5775 3850 6050 3875 
L 6050 3450 
Q 5800 3475 5425 3475 
Q 5425 2925 5450 2625 
L 4100 2625 
L 4100 2125 
Q 5075 2125 5400 2150 
L 5400 1725 
Q 5100 1750 4100 1750 
L 4100 1250 
L 4850 1250 
Q 5325 1250 5725 1275 
L 5725 825 
Q 5325 850 4850 850 
L 4100 850 
Q 4100 425 4125 125 
L 3625 125 
Q 3650 425 3650 850 
L 3075 850 
Q 2700 850 2250 825 
L 2250 1275 
Q 2675 1250 3100 1250 
L 3650 1250 
L 3650 1750 
Q 2950 1750 2425 1725 
L 2425 2150 
Q 2975 2125 3650 2125 
L 3650 2625 
Q 3000 2625 2550 2600 
L 2550 3025 
Q 3000 3000 3650 3000 
L 3650 3475 
L 3200 3475 
Q 2750 3475 2200 3450 
L 2200 3875 
Q 2750 3850 3200 3850 
L 3650 3850 
L 3650 4325 
Q 2975 4325 2525 4300 
L 2525 4725 
Q 2975 4700 3650 4700 
z
M 2050 4625 
Q 1975 4425 1300 2850 
L 2125 2850 
Q 2000 1875 1887 1475 
Q 1775 1075 1650 750 
Q 2000 425 2450 262 
Q 2900 100 3500 37 
Q 4100 -25 4775 -12 
Q 5450 0 6125 75 
Q 5950 -175 5925 -475 
Q 4775 -500 4037 -462 
Q 3300 -425 2812 -312 
Q 2325 -200 2012 -25 
Q 1700 150 1425 375 
Q 1125 -75 650 -550 
Q 475 -350 250 -200 
Q 750 150 1100 700 
Q 875 1000 737 1250 
Q 600 1500 475 1825 
Q 600 1850 900 2000 
Q 975 1700 1325 1125 
Q 1500 1650 1600 2450 
Q 1050 2450 725 2325 
L 600 2775 
Q 900 2875 1100 3362 
Q 1300 3850 1450 4250 
Q 950 4250 525 4225 
L 525 4650 
Q 1025 4625 2050 4625 
z
M 4975 3000 
L 4975 3475 
L 4100 3475 
L 4100 3000 
L 4975 3000 
z
M 4975 3850 
L 4975 4325 
L 4100 4325 
L 4100 3850 
L 4975 3850 
z
" transform="scale(0.015625)"/>
      <path id="SimHei-6a21" d="M 5700 3675 
Q 5675 3400 5675 2725 
Q 5675 2050 5700 1725 
L 4375 1725 
Q 4350 1450 4325 1200 
L 5225 1200 
Q 5750 1200 6025 1225 
L 6025 825 
Q 5725 850 5225 850 
L 4700 850 
Q 5075 375 5437 137 
Q 5800 -100 6200 -200 
Q 5975 -375 5850 -625 
Q 5275 -400 4862 25 
Q 4450 450 4300 775 
L 4225 775 
Q 4000 275 3537 -62 
Q 3075 -400 2475 -625 
Q 2350 -375 2125 -200 
Q 2775 -75 3200 200 
Q 3625 475 3775 850 
L 3325 850 
Q 2800 850 2400 825 
L 2400 1225 
Q 2800 1200 3350 1200 
L 3875 1200 
Q 3925 1475 3925 1725 
L 2750 1725 
Q 2775 2075 2775 2700 
Q 2775 3350 2750 3675 
L 5700 3675 
z
M 2175 1650 
Q 2025 1975 1675 2525 
L 1675 300 
Q 1675 -300 1700 -550 
L 1175 -550 
Q 1200 -275 1200 250 
L 1200 2225 
Q 1125 2000 962 1712 
Q 800 1425 600 1050 
Q 450 1275 200 1425 
Q 600 1825 850 2425 
Q 1100 3025 1175 3425 
L 950 3425 
Q 700 3425 400 3400 
L 400 3825 
Q 675 3800 825 3800 
L 1200 3800 
L 1200 4350 
Q 1200 4775 1175 5150 
L 1700 5150 
Q 1675 4825 1675 4425 
L 1675 3800 
Q 2075 3800 2375 3825 
L 2375 3400 
Q 2050 3425 1675 3425 
L 1675 2575 
Q 1850 2675 2000 2775 
Q 2150 2525 2287 2325 
Q 2425 2125 2550 1925 
Q 2325 1775 2175 1650 
z
M 3375 4300 
L 3175 4300 
Q 2700 4300 2425 4275 
L 2425 4675 
Q 2700 4650 3150 4650 
L 3375 4650 
Q 3375 5000 3350 5225 
L 3825 5225 
Q 3800 5000 3800 4650 
L 4550 4650 
Q 4550 4975 4525 5200 
L 5025 5200 
Q 5000 4925 5000 4650 
L 5375 4650 
Q 5650 4650 5950 4675 
L 5950 4275 
Q 5650 4300 5375 4300 
L 5000 4300 
L 5000 3850 
L 4550 3850 
L 4550 4300 
L 3800 4300 
L 3800 3875 
L 3375 3875 
L 3375 4300 
z
M 5275 2075 
L 5275 2525 
L 3200 2525 
L 3200 2075 
L 5275 2075 
z
M 5275 2875 
L 5275 3325 
L 3200 3325 
L 3200 2875 
L 5275 2875 
z
" transform="scale(0.015625)"/>
     </defs>
     <use xlink:href="#SimHei-2022"/>
     <use xlink:href="#SimHei-20" x="100"/>
     <use xlink:href="#SimHei-5b9e" x="150"/>
     <use xlink:href="#SimHei-73b0" x="250"/>
     <use xlink:href="#SimHei-4e86" x="350"/>
     <use xlink:href="#SimHei-9ad8" x="450"/>
     <use xlink:href="#SimHei-6548" x="550"/>
     <use xlink:href="#SimHei-7684" x="650"/>
     <use xlink:href="#SimHei-5e76" x="750"/>
     <use xlink:href="#SimHei-884c" x="850"/>
     <use xlink:href="#SimHei-8ba1" x="950"/>
     <use xlink:href="#SimHei-7b97" x="1050"/>
     <use xlink:href="#SimHei-548c" x="1150"/>
     <use xlink:href="#SimHei-957f" x="1250"/>
     <use xlink:href="#SimHei-8ddd" x="1350"/>
     <use xlink:href="#SimHei-79bb" x="1450"/>
     <use xlink:href="#SimHei-4f9d" x="1550"/>
     <use xlink:href="#SimHei-8d56" x="1650"/>
     <use xlink:href="#SimHei-5efa" x="1750"/>
     <use xlink:href="#SimHei-6a21" x="1850"/>
    </g>
   </g>
  </g>
  <g id="text_10">
   <!-- 状态空间模型(SSM)核心机制 -->
   <g transform="translate(206.2 23.215625) scale(0.2 -0.2)">
    <defs>
     <path id="SimHei-7a7a" d="M 4025 1925 
Q 4700 1925 5225 1975 
L 5225 1450 
Q 4725 1500 4025 1500 
L 3475 1500 
L 3475 0 
L 5000 0 
Q 5725 0 6175 50 
L 6175 -475 
Q 5750 -425 5050 -425 
L 1750 -425 
Q 775 -425 350 -475 
L 350 50 
Q 825 0 1800 0 
L 2925 0 
L 2925 1500 
L 2300 1500 
Q 1625 1500 1125 1450 
L 1125 1975 
Q 1600 1925 2375 1925 
L 4025 1925 
z
M 5250 3250 
L 5250 3925 
L 1150 3925 
L 1150 3175 
L 600 3175 
Q 625 3425 625 3750 
Q 625 4100 600 4375 
L 3100 4375 
Q 2950 4725 2750 5075 
Q 3000 5200 3300 5300 
Q 3500 4850 3650 4525 
Q 3400 4450 3175 4375 
L 5825 4375 
Q 5800 4150 5800 3775 
Q 5800 3425 5825 3250 
L 5250 3250 
z
M 3975 3525 
Q 4275 3400 4762 3175 
Q 5250 2950 5925 2550 
Q 5675 2275 5575 2075 
Q 5100 2375 4650 2625 
Q 4200 2875 3675 3125 
Q 3800 3275 3975 3525 
z
M 2700 3225 
Q 2425 3100 1937 2737 
Q 1450 2375 825 2000 
Q 675 2225 450 2450 
Q 925 2650 1375 2962 
Q 1825 3275 2150 3650 
Q 2400 3425 2700 3225 
z
" transform="scale(0.015625)"/>
     <path id="SimHei-95f4" d="M 4450 3550 
Q 4425 3075 4425 2725 
L 4425 1400 
Q 4425 1075 4450 625 
L 1925 625 
Q 1950 1075 1950 1425 
L 1950 2725 
Q 1950 3075 1925 3550 
L 4450 3550 
z
M 5800 4875 
Q 5775 4400 5775 3925 
L 5775 250 
Q 5800 -325 5462 -450 
Q 5125 -575 4725 -625 
Q 4700 -325 4525 -25 
Q 5000 -50 5137 25 
Q 5275 100 5275 350 
L 5275 4450 
L 3775 4450 
Q 3175 4450 2650 4425 
L 2650 4900 
Q 3175 4875 3775 4875 
L 5800 4875 
z
M 550 -525 
Q 600 -25 600 525 
L 600 3150 
Q 600 3675 550 4025 
L 1125 4025 
Q 1100 3650 1100 3300 
L 1100 500 
Q 1100 0 1125 -525 
L 550 -525 
z
M 3950 1025 
L 3950 1950 
L 2425 1950 
L 2425 1025 
L 3950 1025 
z
M 3950 2350 
L 3950 3150 
L 2425 3150 
L 2425 2350 
L 3950 2350 
z
M 1525 5300 
Q 1750 5000 2225 4350 
Q 1950 4225 1700 4075 
Q 1450 4575 1075 5025 
Q 1350 5225 1525 5300 
z
" transform="scale(0.015625)"/>
     <path id="SimHei-578b" d="M 2625 1775 
Q 2650 2325 2650 2700 
L 2650 3000 
L 1825 3000 
Q 1725 2375 1425 2000 
Q 1125 1625 775 1425 
Q 650 1650 375 1900 
Q 850 2075 1062 2362 
Q 1275 2650 1350 3000 
Q 900 3000 375 2975 
L 375 3450 
Q 925 3425 1400 3425 
Q 1425 3950 1425 4475 
Q 1075 4475 700 4450 
L 700 4900 
Q 1050 4875 1525 4875 
L 3000 4875 
Q 3275 4875 3650 4900 
L 3650 4450 
Q 3325 4475 3125 4475 
L 3125 3425 
Q 3450 3425 3825 3450 
L 3825 2975 
Q 3450 3000 3125 3000 
L 3125 2675 
Q 3125 2225 3150 1775 
L 2625 1775 
z
M 3000 1175 
Q 3000 1375 2975 1725 
L 3500 1725 
Q 3475 1375 3475 1175 
L 4550 1175 
Q 5050 1175 5450 1200 
L 5450 725 
Q 4975 750 4550 750 
L 3475 750 
L 3475 -50 
L 5275 -50 
Q 5700 -50 6100 -25 
L 6100 -500 
Q 5725 -475 5300 -475 
L 1250 -475 
Q 775 -475 400 -500 
L 400 -25 
Q 775 -50 1250 -50 
L 3000 -50 
L 3000 750 
L 2025 750 
Q 1500 750 975 725 
L 1050 1200 
Q 1500 1175 2025 1175 
L 3000 1175 
z
M 5775 5200 
Q 5750 4775 5750 4325 
L 5750 2400 
Q 5775 1950 5612 1775 
Q 5450 1600 4900 1525 
Q 4825 1775 4675 2100 
Q 5175 2075 5237 2150 
Q 5300 2225 5300 2525 
L 5300 4325 
Q 5300 4775 5275 5200 
L 5775 5200 
z
M 4600 4750 
Q 4575 4450 4575 3975 
L 4575 3200 
Q 4575 2825 4600 2425 
L 4100 2425 
Q 4125 2825 4125 3200 
L 4125 3975 
Q 4125 4450 4100 4750 
L 4600 4750 
z
M 2650 3425 
L 2650 4475 
L 1875 4475 
Q 1850 3750 1850 3425 
L 2650 3425 
z
" transform="scale(0.015625)"/>
     <path id="SimHei-53" d="M 2900 1325 
Q 2900 750 2537 412 
Q 2175 75 1550 75 
Q 925 75 575 425 
Q 225 775 225 1300 
L 225 1475 
L 800 1475 
L 800 1325 
Q 800 950 1025 750 
Q 1250 550 1550 550 
Q 1950 550 2137 762 
Q 2325 975 2325 1275 
Q 2325 1525 2100 1737 
Q 1875 1950 1450 2125 
Q 850 2350 587 2625 
Q 325 2900 325 3275 
Q 325 3800 687 4125 
Q 1050 4450 1550 4450 
Q 2200 4450 2487 4062 
Q 2775 3675 2775 3225 
L 2200 3225 
Q 2225 3500 2050 3725 
Q 1875 3950 1550 3950 
Q 1250 3950 1075 3787 
Q 900 3625 900 3350 
Q 900 3125 1037 2962 
Q 1175 2800 1750 2575 
Q 2300 2350 2600 2037 
Q 2900 1725 2900 1325 
z
" transform="scale(0.015625)"/>
     <path id="SimHei-6838" d="M 1275 4375 
Q 1275 4800 1250 5150 
L 1775 5150 
Q 1750 4850 1750 4375 
L 1750 3825 
Q 2075 3825 2450 3850 
L 2450 3350 
Q 2075 3375 1750 3375 
L 1750 2500 
Q 1800 2550 2050 2725 
Q 2375 2225 2625 1850 
Q 2375 1700 2200 1575 
Q 1950 2025 1750 2350 
L 1750 500 
Q 1750 -25 1775 -550 
L 1250 -550 
Q 1300 0 1275 500 
L 1275 2225 
Q 1025 1625 525 925 
Q 325 1250 200 1400 
Q 475 1675 775 2175 
Q 1075 2675 1250 3375 
Q 875 3375 450 3350 
L 450 3850 
Q 900 3825 1275 3825 
L 1275 4375 
z
M 2725 2650 
Q 2875 2650 3175 2937 
Q 3475 3225 3775 3825 
L 4300 3525 
Q 4100 3400 3912 3175 
Q 3725 2950 3425 2650 
L 4525 2675 
Q 4775 3000 4925 3400 
L 5500 3150 
Q 5375 3075 5150 2725 
Q 4925 2375 4500 1900 
Q 4075 1425 3675 1112 
Q 3275 800 2825 525 
Q 2650 725 2400 925 
Q 2925 1125 3400 1487 
Q 3875 1850 4225 2275 
Q 3825 2275 3525 2250 
Q 3225 2225 2875 2150 
L 2725 2650 
z
M 5950 2050 
Q 5800 1950 5612 1675 
Q 5425 1400 5100 975 
Q 5600 525 5862 250 
Q 6125 -25 6150 -50 
Q 5925 -200 5675 -450 
Q 5525 -225 5312 25 
Q 5100 275 4750 625 
Q 4400 300 4100 87 
Q 3800 -125 3462 -300 
Q 3125 -475 2775 -625 
Q 2650 -375 2400 -175 
Q 3075 25 3600 350 
Q 4125 675 4500 1062 
Q 4875 1450 5087 1775 
Q 5300 2100 5400 2350 
Q 5650 2175 5950 2050 
z
M 3100 3875 
Q 2875 3875 2650 3850 
L 2650 4350 
Q 2975 4300 3325 4300 
L 5200 4300 
Q 5600 4300 6025 4350 
L 6025 3850 
Q 5600 3875 5200 3875 
L 3100 3875 
z
M 4350 5225 
Q 4500 4975 4725 4575 
Q 4350 4425 4225 4325 
Q 4050 4750 3850 5000 
Q 4225 5175 4350 5225 
z
" transform="scale(0.015625)"/>
     <path id="SimHei-5fc3" d="M 2700 3425 
Q 2675 3125 2675 2525 
L 2675 375 
Q 2675 75 2975 75 
L 4150 75 
Q 4425 50 4512 212 
Q 4600 375 4650 950 
Q 4900 750 5225 675 
Q 5050 -125 4875 -287 
Q 4700 -450 4450 -425 
L 2625 -425 
Q 2175 -425 2125 125 
L 2125 2500 
Q 2125 3000 2100 3425 
L 2700 3425 
z
M 1475 3075 
Q 1400 2925 1275 2287 
Q 1150 1650 925 750 
Q 625 850 325 900 
Q 675 1900 850 3200 
Q 1075 3150 1475 3075 
z
M 5075 3300 
Q 5650 2500 6175 1700 
Q 5900 1575 5650 1350 
Q 5125 2350 4625 3000 
Q 4850 3125 5075 3300 
z
M 3050 5250 
Q 3325 4775 3925 3925 
Q 3625 3775 3375 3600 
Q 2975 4425 2600 4950 
Q 2825 5075 3050 5250 
z
" transform="scale(0.015625)"/>
    </defs>
    <use xlink:href="#SimHei-72b6"/>
    <use xlink:href="#SimHei-6001" x="100"/>
    <use xlink:href="#SimHei-7a7a" x="200"/>
    <use xlink:href="#SimHei-95f4" x="300"/>
    <use xlink:href="#SimHei-6a21" x="400"/>
    <use xlink:href="#SimHei-578b" x="500"/>
    <use xlink:href="#SimHei-28" x="600"/>
    <use xlink:href="#SimHei-53" x="650"/>
    <use xlink:href="#SimHei-53" x="700"/>
    <use xlink:href="#SimHei-4d" x="750"/>
    <use xlink:href="#SimHei-29" x="800"/>
    <use xlink:href="#SimHei-6838" x="850"/>
    <use xlink:href="#SimHei-5fc3" x="950"/>
    <use xlink:href="#SimHei-673a" x="1050"/>
    <use xlink:href="#SimHei-5236" x="1150"/>
   </g>
  </g>
 </g>
 <defs>
  <clipPath id="pd4aa035ff6">
   <rect x="7.2" y="64.8" width="669.6" height="443.52"/>
  </clipPath>
 </defs>
</svg>
