<?xml version="1.0" encoding="utf-8" standalone="no"?>
<!DOCTYPE svg PUBLIC "-//W3C//DTD SVG 1.1//EN"
  "http://www.w3.org/Graphics/SVG/1.1/DTD/svg11.dtd">
<svg xmlns:xlink="http://www.w3.org/1999/xlink" width="607.501562pt" height="390.993125pt" viewBox="0 0 607.501562 390.993125" xmlns="http://www.w3.org/2000/svg" version="1.1">
 <metadata>
  <rdf:RDF xmlns:dc="http://purl.org/dc/elements/1.1/" xmlns:cc="http://creativecommons.org/ns#" xmlns:rdf="http://www.w3.org/1999/02/22-rdf-syntax-ns#">
   <cc:Work>
    <dc:type rdf:resource="http://purl.org/dc/dcmitype/StillImage"/>
    <dc:date>2025-03-07T16:26:12.124511</dc:date>
    <dc:format>image/svg+xml</dc:format>
    <dc:creator>
     <cc:Agent>
      <dc:title>Matplotlib v3.9.2, https://matplotlib.org/</dc:title>
     </cc:Agent>
    </dc:creator>
   </cc:Work>
  </rdf:RDF>
 </metadata>
 <defs>
  <style type="text/css">*{stroke-linejoin: round; stroke-linecap: butt}</style>
 </defs>
 <g id="figure_1">
  <g id="patch_1">
   <path d="M 0 390.993125 
L 607.501562 390.993125 
L 607.501562 0 
L 0 0 
z
" style="fill: #ffffff"/>
  </g>
  <g id="axes_1">
   <g id="patch_2">
    <path d="M 42.301563 355.449375 
L 600.301563 355.449375 
L 600.301563 22.809375 
L 42.301563 22.809375 
z
" style="fill: #ffffff"/>
   </g>
   <g id="matplotlib.axis_1">
    <g id="xtick_1">
     <g id="line2d_1">
      <path d="M 67.665199 355.449375 
L 67.665199 22.809375 
" clip-path="url(#p430d60e907)" style="fill: none; stroke: #b0b0b0; stroke-width: 0.8; stroke-linecap: square"/>
     </g>
     <g id="line2d_2">
      <defs>
       <path id="m4066c98007" d="M 0 0 
L 0 3.5 
" style="stroke: #000000; stroke-width: 0.8"/>
      </defs>
      <g>
       <use xlink:href="#m4066c98007" x="67.665199" y="355.449375" style="stroke: #000000; stroke-width: 0.8"/>
      </g>
     </g>
     <g id="text_1">
      <!-- 0.0 -->
      <g transform="translate(60.165199 369.324375) scale(0.1 -0.1)">
       <defs>
        <path id="SimHei-30" d="M 225 2537 
Q 250 3200 412 3587 
Q 575 3975 875 4225 
Q 1175 4475 1612 4475 
Q 2050 4475 2375 4112 
Q 2700 3750 2800 3200 
Q 2900 2650 2862 1937 
Q 2825 1225 2612 775 
Q 2400 325 1975 150 
Q 1550 -25 1125 187 
Q 700 400 525 750 
Q 350 1100 275 1487 
Q 200 1875 225 2537 
z
M 750 2687 
Q 675 2000 800 1462 
Q 925 925 1212 700 
Q 1500 475 1800 612 
Q 2100 750 2237 1162 
Q 2375 1575 2375 2062 
Q 2375 2550 2337 2950 
Q 2300 3350 2112 3675 
Q 1925 4000 1612 4012 
Q 1300 4025 1062 3700 
Q 825 3375 750 2687 
z
" transform="scale(0.015625)"/>
        <path id="SimHei-2e" d="M 1075 125 
L 500 125 
L 500 675 
L 1075 675 
L 1075 125 
z
" transform="scale(0.015625)"/>
       </defs>
       <use xlink:href="#SimHei-30"/>
       <use xlink:href="#SimHei-2e" x="50"/>
       <use xlink:href="#SimHei-30" x="100"/>
      </g>
     </g>
    </g>
    <g id="xtick_2">
     <g id="line2d_3">
      <path d="M 169.119744 355.449375 
L 169.119744 22.809375 
" clip-path="url(#p430d60e907)" style="fill: none; stroke: #b0b0b0; stroke-width: 0.8; stroke-linecap: square"/>
     </g>
     <g id="line2d_4">
      <g>
       <use xlink:href="#m4066c98007" x="169.119744" y="355.449375" style="stroke: #000000; stroke-width: 0.8"/>
      </g>
     </g>
     <g id="text_2">
      <!-- 0.2 -->
      <g transform="translate(161.619744 369.324375) scale(0.1 -0.1)">
       <defs>
        <path id="SimHei-32" d="M 300 250 
Q 325 625 650 925 
Q 975 1225 1475 1862 
Q 1975 2500 2125 2850 
Q 2275 3200 2237 3450 
Q 2200 3700 2000 3862 
Q 1800 4025 1537 4000 
Q 1275 3975 1037 3800 
Q 800 3625 675 3275 
L 200 3350 
Q 400 3925 712 4187 
Q 1025 4450 1450 4475 
Q 1700 4500 1900 4462 
Q 2100 4425 2312 4287 
Q 2525 4150 2662 3875 
Q 2800 3600 2762 3212 
Q 2725 2825 2375 2287 
Q 2025 1750 1025 600 
L 2825 600 
L 2825 150 
L 300 150 
L 300 250 
z
" transform="scale(0.015625)"/>
       </defs>
       <use xlink:href="#SimHei-30"/>
       <use xlink:href="#SimHei-2e" x="50"/>
       <use xlink:href="#SimHei-32" x="100"/>
      </g>
     </g>
    </g>
    <g id="xtick_3">
     <g id="line2d_5">
      <path d="M 270.57429 355.449375 
L 270.57429 22.809375 
" clip-path="url(#p430d60e907)" style="fill: none; stroke: #b0b0b0; stroke-width: 0.8; stroke-linecap: square"/>
     </g>
     <g id="line2d_6">
      <g>
       <use xlink:href="#m4066c98007" x="270.57429" y="355.449375" style="stroke: #000000; stroke-width: 0.8"/>
      </g>
     </g>
     <g id="text_3">
      <!-- 0.4 -->
      <g transform="translate(263.07429 369.324375) scale(0.1 -0.1)">
       <defs>
        <path id="SimHei-34" d="M 2000 1100 
L 75 1100 
L 75 1525 
L 2100 4450 
L 2475 4450 
L 2475 1525 
L 3075 1525 
L 3075 1100 
L 2475 1100 
L 2475 150 
L 2000 150 
L 2000 1100 
z
M 2000 1525 
L 2000 3500 
L 600 1525 
L 2000 1525 
z
" transform="scale(0.015625)"/>
       </defs>
       <use xlink:href="#SimHei-30"/>
       <use xlink:href="#SimHei-2e" x="50"/>
       <use xlink:href="#SimHei-34" x="100"/>
      </g>
     </g>
    </g>
    <g id="xtick_4">
     <g id="line2d_7">
      <path d="M 372.028835 355.449375 
L 372.028835 22.809375 
" clip-path="url(#p430d60e907)" style="fill: none; stroke: #b0b0b0; stroke-width: 0.8; stroke-linecap: square"/>
     </g>
     <g id="line2d_8">
      <g>
       <use xlink:href="#m4066c98007" x="372.028835" y="355.449375" style="stroke: #000000; stroke-width: 0.8"/>
      </g>
     </g>
     <g id="text_4">
      <!-- 0.6 -->
      <g transform="translate(364.528835 369.324375) scale(0.1 -0.1)">
       <defs>
        <path id="SimHei-36" d="M 250 1612 
Q 275 1975 387 2225 
Q 500 2475 725 2850 
L 1750 4450 
L 2325 4450 
L 1275 2800 
Q 1950 2975 2350 2750 
Q 2750 2525 2887 2237 
Q 3025 1950 3037 1612 
Q 3050 1275 2937 950 
Q 2825 625 2537 362 
Q 2250 100 1737 75 
Q 1225 50 862 262 
Q 500 475 362 862 
Q 225 1250 250 1612 
z
M 1025 787 
Q 1250 550 1625 525 
Q 2000 500 2250 775 
Q 2500 1050 2500 1575 
Q 2500 2100 2187 2300 
Q 1875 2500 1487 2450 
Q 1100 2400 925 2075 
Q 750 1750 775 1387 
Q 800 1025 1025 787 
z
" transform="scale(0.015625)"/>
       </defs>
       <use xlink:href="#SimHei-30"/>
       <use xlink:href="#SimHei-2e" x="50"/>
       <use xlink:href="#SimHei-36" x="100"/>
      </g>
     </g>
    </g>
    <g id="xtick_5">
     <g id="line2d_9">
      <path d="M 473.483381 355.449375 
L 473.483381 22.809375 
" clip-path="url(#p430d60e907)" style="fill: none; stroke: #b0b0b0; stroke-width: 0.8; stroke-linecap: square"/>
     </g>
     <g id="line2d_10">
      <g>
       <use xlink:href="#m4066c98007" x="473.483381" y="355.449375" style="stroke: #000000; stroke-width: 0.8"/>
      </g>
     </g>
     <g id="text_5">
      <!-- 0.8 -->
      <g transform="translate(465.983381 369.324375) scale(0.1 -0.1)">
       <defs>
        <path id="SimHei-38" d="M 175 1375 
Q 175 1675 325 1962 
Q 475 2250 825 2425 
Q 525 2600 425 2812 
Q 325 3025 312 3300 
Q 300 3575 387 3775 
Q 475 3975 650 4150 
Q 825 4325 1037 4387 
Q 1250 4450 1500 4450 
Q 1750 4450 1950 4400 
Q 2150 4350 2375 4187 
Q 2600 4025 2700 3725 
Q 2800 3425 2687 3025 
Q 2575 2625 2100 2400 
Q 2525 2275 2700 2012 
Q 2875 1750 2875 1375 
Q 2875 1000 2762 775 
Q 2650 550 2512 400 
Q 2375 250 2137 162 
Q 1900 75 1537 75 
Q 1175 75 912 162 
Q 650 250 475 425 
Q 300 600 237 837 
Q 175 1075 175 1375 
z
M 687 1400 
Q 675 1100 787 875 
Q 900 650 1200 587 
Q 1500 525 1825 600 
Q 2150 675 2275 950 
Q 2400 1225 2362 1500 
Q 2325 1775 2050 1962 
Q 1775 2150 1450 2125 
Q 1125 2100 912 1900 
Q 700 1700 687 1400 
z
M 775 3350 
Q 775 3100 950 2875 
Q 1125 2650 1500 2650 
Q 1875 2650 2062 2875 
Q 2250 3100 2237 3412 
Q 2225 3725 2012 3875 
Q 1800 4025 1437 4000 
Q 1075 3975 925 3787 
Q 775 3600 775 3350 
z
" transform="scale(0.015625)"/>
       </defs>
       <use xlink:href="#SimHei-30"/>
       <use xlink:href="#SimHei-2e" x="50"/>
       <use xlink:href="#SimHei-38" x="100"/>
      </g>
     </g>
    </g>
    <g id="xtick_6">
     <g id="line2d_11">
      <path d="M 574.937926 355.449375 
L 574.937926 22.809375 
" clip-path="url(#p430d60e907)" style="fill: none; stroke: #b0b0b0; stroke-width: 0.8; stroke-linecap: square"/>
     </g>
     <g id="line2d_12">
      <g>
       <use xlink:href="#m4066c98007" x="574.937926" y="355.449375" style="stroke: #000000; stroke-width: 0.8"/>
      </g>
     </g>
     <g id="text_6">
      <!-- 1.0 -->
      <g transform="translate(567.437926 369.324375) scale(0.1 -0.1)">
       <defs>
        <path id="SimHei-31" d="M 1400 3600 
Q 1075 3275 575 2975 
L 575 3450 
Q 1200 3875 1600 4450 
L 1900 4450 
L 1900 150 
L 1400 150 
L 1400 3600 
z
" transform="scale(0.015625)"/>
       </defs>
       <use xlink:href="#SimHei-31"/>
       <use xlink:href="#SimHei-2e" x="50"/>
       <use xlink:href="#SimHei-30" x="100"/>
      </g>
     </g>
    </g>
    <g id="text_7">
     <!-- 阈值 -->
     <g transform="translate(311.301562 382.543125) scale(0.1 -0.1)">
      <defs>
       <path id="SimHei-9608" d="M 5225 825 
Q 4925 75 4612 150 
Q 4300 225 3975 800 
Q 3850 600 3687 362 
Q 3525 125 3325 -100 
Q 3150 50 2875 175 
Q 3150 425 3337 687 
Q 3525 950 3700 1250 
Q 3525 1750 3437 2087 
Q 3350 2425 3300 3175 
L 1900 3175 
Q 1675 3175 1350 3150 
L 1350 3550 
Q 1675 3525 1900 3525 
L 3300 3525 
Q 3250 4025 3225 4300 
Q 3425 4275 3775 4275 
Q 3750 3850 3750 3525 
L 4425 3525 
Q 4675 3525 5075 3550 
L 5075 3150 
Q 4675 3175 4425 3175 
L 3750 3175 
Q 3750 2900 3812 2475 
Q 3875 2050 4000 1775 
Q 4075 1975 4137 2237 
Q 4200 2500 4250 2925 
Q 4675 2800 4850 2725 
Q 4700 2550 4562 2112 
Q 4425 1675 4225 1200 
Q 4350 950 4537 787 
Q 4725 625 4850 1100 
Q 5075 925 5225 825 
z
M 5900 4875 
Q 5875 4400 5875 3825 
L 5875 100 
Q 5875 -400 5550 -475 
Q 5225 -550 4850 -625 
Q 4750 -350 4575 -50 
Q 5150 -75 5300 -50 
Q 5450 -25 5450 300 
L 5450 4500 
L 3600 4500 
Q 3050 4500 2400 4475 
L 2400 4900 
Q 3050 4875 3550 4875 
L 5900 4875 
z
M 3050 2725 
Q 2975 2450 2975 2200 
L 2975 1300 
L 1450 1300 
Q 1475 1550 1475 1725 
L 1475 2200 
Q 1475 2425 1450 2725 
L 3050 2725 
z
M 1075 3850 
Q 1050 3475 1050 3100 
L 1050 -575 
L 550 -575 
Q 600 100 600 625 
L 600 2975 
Q 600 3500 550 3850 
L 1075 3850 
z
M 3100 1050 
Q 3075 775 3100 650 
Q 2775 575 2200 450 
Q 1625 325 1325 200 
Q 1200 475 1125 725 
Q 1425 750 1987 850 
Q 2550 950 3100 1050 
z
M 1375 5275 
Q 1650 4900 1975 4375 
Q 1725 4225 1475 4100 
Q 1200 4625 900 5000 
Q 1150 5200 1375 5275 
z
M 2550 1675 
L 2550 2350 
L 1900 2350 
L 1900 1675 
L 2550 1675 
z
M 4500 4400 
Q 4625 4150 4800 3875 
Q 4625 3800 4350 3650 
Q 4225 3925 4075 4175 
Q 4325 4350 4500 4400 
z
" transform="scale(0.015625)"/>
       <path id="SimHei-503c" d="M 3675 4450 
L 3675 5100 
Q 3975 5075 4350 5050 
Q 4225 4875 4200 4450 
L 5125 4450 
Q 5550 4450 5875 4475 
L 5875 4025 
Q 5525 4050 5125 4050 
L 4175 4050 
L 4125 3500 
L 5400 3500 
Q 5375 3200 5375 2700 
L 5375 150 
Q 5875 150 6100 175 
L 6100 -275 
Q 5775 -250 5200 -250 
L 2850 -250 
Q 2275 -250 1900 -275 
L 1900 175 
Q 2125 150 2600 150 
L 2600 2700 
Q 2600 3175 2575 3500 
L 3600 3500 
L 3650 4050 
L 3200 4050 
Q 2575 4050 2225 4025 
L 2225 4475 
Q 2550 4450 3200 4450 
L 3675 4450 
z
M 2225 4900 
Q 2025 4675 1650 3750 
L 1650 450 
Q 1650 -75 1675 -550 
L 1150 -550 
Q 1175 -125 1175 375 
L 1175 2950 
Q 875 2450 625 2150 
Q 425 2425 250 2575 
Q 500 2825 937 3537 
Q 1375 4250 1625 5150 
Q 1975 4975 2225 4900 
z
M 4925 2650 
L 4925 3150 
L 3075 3150 
L 3075 2650 
L 4925 2650 
z
M 4925 150 
L 4925 625 
L 3075 625 
L 3075 150 
L 4925 150 
z
M 4925 1000 
L 4925 1450 
L 3075 1450 
L 3075 1000 
L 4925 1000 
z
M 4925 1825 
L 4925 2275 
L 3075 2275 
L 3075 1825 
L 4925 1825 
z
" transform="scale(0.015625)"/>
      </defs>
      <use xlink:href="#SimHei-9608"/>
      <use xlink:href="#SimHei-503c" x="100"/>
     </g>
    </g>
   </g>
   <g id="matplotlib.axis_2">
    <g id="ytick_1">
     <g id="line2d_13">
      <path d="M 42.301563 324.569114 
L 600.301563 324.569114 
" clip-path="url(#p430d60e907)" style="fill: none; stroke: #b0b0b0; stroke-width: 0.8; stroke-linecap: square"/>
     </g>
     <g id="line2d_14">
      <defs>
       <path id="md5f2e423bd" d="M 0 0 
L -3.5 0 
" style="stroke: #000000; stroke-width: 0.8"/>
      </defs>
      <g>
       <use xlink:href="#md5f2e423bd" x="42.301563" y="324.569114" style="stroke: #000000; stroke-width: 0.8"/>
      </g>
     </g>
     <g id="text_8">
      <!-- 0.1 -->
      <g transform="translate(20.301563 328.006614) scale(0.1 -0.1)">
       <use xlink:href="#SimHei-30"/>
       <use xlink:href="#SimHei-2e" x="50"/>
       <use xlink:href="#SimHei-31" x="100"/>
      </g>
     </g>
    </g>
    <g id="ytick_2">
     <g id="line2d_15">
      <path d="M 42.301563 276.795825 
L 600.301563 276.795825 
" clip-path="url(#p430d60e907)" style="fill: none; stroke: #b0b0b0; stroke-width: 0.8; stroke-linecap: square"/>
     </g>
     <g id="line2d_16">
      <g>
       <use xlink:href="#md5f2e423bd" x="42.301563" y="276.795825" style="stroke: #000000; stroke-width: 0.8"/>
      </g>
     </g>
     <g id="text_9">
      <!-- 0.2 -->
      <g transform="translate(20.301563 280.233325) scale(0.1 -0.1)">
       <use xlink:href="#SimHei-30"/>
       <use xlink:href="#SimHei-2e" x="50"/>
       <use xlink:href="#SimHei-32" x="100"/>
      </g>
     </g>
    </g>
    <g id="ytick_3">
     <g id="line2d_17">
      <path d="M 42.301563 229.022535 
L 600.301563 229.022535 
" clip-path="url(#p430d60e907)" style="fill: none; stroke: #b0b0b0; stroke-width: 0.8; stroke-linecap: square"/>
     </g>
     <g id="line2d_18">
      <g>
       <use xlink:href="#md5f2e423bd" x="42.301563" y="229.022535" style="stroke: #000000; stroke-width: 0.8"/>
      </g>
     </g>
     <g id="text_10">
      <!-- 0.3 -->
      <g transform="translate(20.301563 232.460035) scale(0.1 -0.1)">
       <defs>
        <path id="SimHei-33" d="M 250 1225 
L 700 1300 
Q 800 975 1025 762 
Q 1250 550 1587 562 
Q 1925 575 2125 837 
Q 2325 1100 2300 1437 
Q 2275 1775 2037 1962 
Q 1800 2150 1275 2225 
L 1275 2550 
Q 1800 2600 2037 2825 
Q 2275 3050 2250 3412 
Q 2225 3775 1925 3937 
Q 1625 4100 1287 3975 
Q 950 3850 750 3275 
L 300 3350 
Q 450 3800 712 4100 
Q 975 4400 1425 4450 
Q 1875 4500 2212 4337 
Q 2550 4175 2687 3837 
Q 2825 3500 2725 3100 
Q 2625 2700 2150 2400 
Q 2500 2250 2687 1950 
Q 2875 1650 2812 1162 
Q 2750 675 2375 375 
Q 2000 75 1525 87 
Q 1050 100 700 387 
Q 350 675 250 1225 
z
" transform="scale(0.015625)"/>
       </defs>
       <use xlink:href="#SimHei-30"/>
       <use xlink:href="#SimHei-2e" x="50"/>
       <use xlink:href="#SimHei-33" x="100"/>
      </g>
     </g>
    </g>
    <g id="ytick_4">
     <g id="line2d_19">
      <path d="M 42.301563 181.249245 
L 600.301563 181.249245 
" clip-path="url(#p430d60e907)" style="fill: none; stroke: #b0b0b0; stroke-width: 0.8; stroke-linecap: square"/>
     </g>
     <g id="line2d_20">
      <g>
       <use xlink:href="#md5f2e423bd" x="42.301563" y="181.249245" style="stroke: #000000; stroke-width: 0.8"/>
      </g>
     </g>
     <g id="text_11">
      <!-- 0.4 -->
      <g transform="translate(20.301563 184.686745) scale(0.1 -0.1)">
       <use xlink:href="#SimHei-30"/>
       <use xlink:href="#SimHei-2e" x="50"/>
       <use xlink:href="#SimHei-34" x="100"/>
      </g>
     </g>
    </g>
    <g id="ytick_5">
     <g id="line2d_21">
      <path d="M 42.301563 133.475955 
L 600.301563 133.475955 
" clip-path="url(#p430d60e907)" style="fill: none; stroke: #b0b0b0; stroke-width: 0.8; stroke-linecap: square"/>
     </g>
     <g id="line2d_22">
      <g>
       <use xlink:href="#md5f2e423bd" x="42.301563" y="133.475955" style="stroke: #000000; stroke-width: 0.8"/>
      </g>
     </g>
     <g id="text_12">
      <!-- 0.5 -->
      <g transform="translate(20.301563 136.913455) scale(0.1 -0.1)">
       <defs>
        <path id="SimHei-35" d="M 550 1325 
Q 725 650 1150 575 
Q 1575 500 1837 662 
Q 2100 825 2212 1087 
Q 2325 1350 2312 1675 
Q 2300 2000 2137 2225 
Q 1975 2450 1725 2525 
Q 1475 2600 1162 2525 
Q 850 2450 650 2175 
L 225 2225 
Q 275 2375 700 4375 
L 2675 4375 
L 2675 3925 
L 1075 3925 
Q 950 3250 825 2850 
Q 1200 3025 1525 3012 
Q 1850 3000 2150 2862 
Q 2450 2725 2587 2487 
Q 2725 2250 2787 2012 
Q 2850 1775 2837 1500 
Q 2825 1225 2725 937 
Q 2625 650 2425 462 
Q 2225 275 1937 162 
Q 1650 50 1275 75 
Q 900 100 562 350 
Q 225 600 100 1200 
L 550 1325 
z
" transform="scale(0.015625)"/>
       </defs>
       <use xlink:href="#SimHei-30"/>
       <use xlink:href="#SimHei-2e" x="50"/>
       <use xlink:href="#SimHei-35" x="100"/>
      </g>
     </g>
    </g>
    <g id="ytick_6">
     <g id="line2d_23">
      <path d="M 42.301563 85.702665 
L 600.301563 85.702665 
" clip-path="url(#p430d60e907)" style="fill: none; stroke: #b0b0b0; stroke-width: 0.8; stroke-linecap: square"/>
     </g>
     <g id="line2d_24">
      <g>
       <use xlink:href="#md5f2e423bd" x="42.301563" y="85.702665" style="stroke: #000000; stroke-width: 0.8"/>
      </g>
     </g>
     <g id="text_13">
      <!-- 0.6 -->
      <g transform="translate(20.301563 89.140165) scale(0.1 -0.1)">
       <use xlink:href="#SimHei-30"/>
       <use xlink:href="#SimHei-2e" x="50"/>
       <use xlink:href="#SimHei-36" x="100"/>
      </g>
     </g>
    </g>
    <g id="ytick_7">
     <g id="line2d_25">
      <path d="M 42.301563 37.929375 
L 600.301563 37.929375 
" clip-path="url(#p430d60e907)" style="fill: none; stroke: #b0b0b0; stroke-width: 0.8; stroke-linecap: square"/>
     </g>
     <g id="line2d_26">
      <g>
       <use xlink:href="#md5f2e423bd" x="42.301563" y="37.929375" style="stroke: #000000; stroke-width: 0.8"/>
      </g>
     </g>
     <g id="text_14">
      <!-- 0.7 -->
      <g transform="translate(20.301563 41.366875) scale(0.1 -0.1)">
       <defs>
        <path id="SimHei-37" d="M 850 150 
Q 1300 2050 2425 3925 
L 275 3925 
L 275 4375 
L 2950 4375 
L 2950 3950 
Q 1775 2050 1400 150 
L 850 150 
z
" transform="scale(0.015625)"/>
       </defs>
       <use xlink:href="#SimHei-30"/>
       <use xlink:href="#SimHei-2e" x="50"/>
       <use xlink:href="#SimHei-37" x="100"/>
      </g>
     </g>
    </g>
    <g id="text_15">
     <!-- F1分数 -->
     <g transform="translate(15.051563 204.129375) rotate(-90) scale(0.1 -0.1)">
      <defs>
       <path id="SimHei-46" d="M 2925 3925 
L 875 3925 
L 875 2525 
L 2425 2525 
L 2425 2050 
L 875 2050 
L 875 125 
L 300 125 
L 300 4400 
L 2925 4400 
L 2925 3925 
z
" transform="scale(0.015625)"/>
       <path id="SimHei-5206" d="M 1000 -650 
Q 825 -375 575 -225 
Q 975 -75 1300 137 
Q 1625 350 1875 662 
Q 2125 975 2250 1350 
Q 2375 1725 2425 2275 
Q 1850 2275 1500 2250 
L 1500 2775 
Q 1900 2750 2525 2750 
L 5025 2750 
Q 4975 2375 4950 2100 
L 4750 250 
Q 4700 -200 4350 -350 
Q 4000 -500 3575 -525 
Q 3550 -275 3325 50 
Q 3850 25 4037 87 
Q 4225 150 4275 525 
L 4450 2275 
L 2950 2275 
Q 2875 1625 2737 1187 
Q 2600 750 2350 425 
Q 2100 100 1750 -175 
Q 1400 -450 1000 -650 
z
M 3950 5175 
Q 4125 4650 4662 3975 
Q 5200 3300 6175 2800 
Q 5975 2625 5775 2275 
Q 5325 2600 4987 2887 
Q 4650 3175 4425 3425 
Q 4200 3675 3925 4137 
Q 3650 4600 3475 5000 
Q 3750 5075 3950 5175 
z
M 2700 4825 
Q 2475 4425 2325 4125 
Q 2175 3825 2025 3587 
Q 1875 3350 1575 2950 
Q 1275 2550 850 2125 
Q 625 2350 400 2475 
Q 900 2925 1187 3300 
Q 1475 3675 1737 4112 
Q 2000 4550 2200 5075 
Q 2400 4925 2700 4825 
z
" transform="scale(0.015625)"/>
       <path id="SimHei-6570" d="M 4525 4925 
Q 4475 4800 4400 4587 
Q 4325 4375 4175 3825 
L 5325 3825 
Q 5575 3825 5925 3850 
L 5925 3400 
Q 5650 3425 5500 3425 
Q 5500 3025 5362 2162 
Q 5225 1300 4875 675 
Q 5125 375 5437 137 
Q 5750 -100 6025 -200 
Q 5725 -425 5625 -625 
Q 5325 -450 5075 -225 
Q 4825 0 4575 325 
Q 4300 25 3987 -187 
Q 3675 -400 3200 -650 
Q 3075 -425 2850 -300 
Q 3225 -150 3650 125 
Q 4075 400 4300 675 
Q 4125 1025 3962 1425 
Q 3800 1825 3675 2475 
Q 3600 2275 3425 1950 
Q 3250 2050 3000 2150 
Q 3400 2850 3650 3675 
Q 3900 4500 3975 5100 
Q 4275 4975 4525 4925 
z
M 2100 2250 
Q 2000 2150 1875 1925 
L 3250 1925 
Q 3100 1300 2725 675 
Q 3125 525 3350 400 
Q 3225 225 3125 25 
Q 2900 175 2450 325 
Q 1950 -225 725 -650 
Q 600 -375 400 -275 
Q 1575 0 2000 475 
Q 1300 650 850 775 
Q 1000 1000 1250 1525 
Q 1000 1525 425 1500 
L 425 1950 
Q 900 1925 1400 1925 
Q 1500 2150 1550 2425 
Q 1825 2325 2100 2250 
z
M 1775 3950 
Q 1775 4550 1750 5100 
L 2250 5100 
Q 2225 4575 2225 3950 
Q 3075 3950 3425 3975 
L 3425 3525 
Q 3075 3550 2225 3550 
Q 2225 2825 2250 2425 
L 1750 2425 
Q 1775 2775 1775 3300 
Q 1650 3100 1300 2787 
Q 950 2475 650 2300 
Q 525 2525 275 2625 
Q 500 2700 875 2975 
Q 1250 3250 1450 3550 
Q 950 3550 500 3525 
L 500 3975 
Q 925 3950 1775 3950 
z
M 3975 3175 
Q 4200 1700 4600 1125 
Q 4850 1700 4937 2287 
Q 5025 2875 5050 3425 
L 4075 3425 
L 3975 3175 
z
M 1450 1000 
Q 1750 925 2275 800 
Q 2475 1050 2650 1525 
L 1725 1525 
Q 1600 1275 1450 1000 
z
M 3325 4825 
Q 3200 4625 3125 4450 
Q 3050 4275 2925 4025 
Q 2725 4125 2525 4175 
Q 2725 4500 2900 5000 
Q 3150 4875 3325 4825 
z
M 2575 3375 
Q 2900 3050 3200 2725 
Q 3050 2600 2875 2425 
Q 2525 2850 2300 3100 
Q 2450 3225 2575 3375 
z
M 925 5000 
Q 1275 4650 1500 4300 
L 1125 4075 
Q 950 4425 600 4725 
Q 825 4875 925 5000 
z
" transform="scale(0.015625)"/>
      </defs>
      <use xlink:href="#SimHei-46"/>
      <use xlink:href="#SimHei-31" x="50"/>
      <use xlink:href="#SimHei-5206" x="100"/>
      <use xlink:href="#SimHei-6570" x="200"/>
     </g>
    </g>
   </g>
   <g id="line2d_27">
    <path d="M 67.665199 340.329375 
L 67.776006 267.919913 
L 68.235191 248.737515 
L 68.311686 248.094576 
L 68.402648 246.124994 
L 68.462865 245.285782 
L 68.647738 242.699827 
L 68.770395 241.097102 
L 68.941349 239.822876 
L 69.103899 238.14777 
L 69.135479 239.302863 
L 69.200938 238.739136 
L 70.28214 233.237825 
L 70.604162 232.827487 
L 70.664465 231.999505 
L 71.027257 231.161637 
L 71.33811 229.455525 
L 71.836007 228.148633 
L 72.290883 227.264009 
L 72.317464 227.041154 
L 72.528203 226.593384 
L 72.73159 226.142846 
L 72.998611 225.689514 
L 73.003776 225.461793 
L 73.684068 225.004221 
L 73.951334 224.312492 
L 74.204192 224.08047 
L 75.106639 221.719611 
L 75.700201 221.479384 
L 76.05618 220.510761 
L 76.820361 219.529619 
L 77.043536 218.785401 
L 77.072967 218.535715 
L 77.468904 218.285215 
L 77.518694 218.033899 
L 78.090798 217.781761 
L 78.318732 217.528797 
L 78.393344 217.275004 
L 78.648452 217.020378 
L 78.649033 216.764914 
L 78.837853 216.508609 
L 79.269615 216.251457 
L 80.697544 215.7346 
L 80.899174 215.474885 
L 81.984035 215.214308 
L 82.479021 214.952864 
L 82.55506 214.690548 
L 82.765608 214.427356 
L 83.202396 214.163284 
L 83.372374 213.898327 
L 83.514418 213.365742 
L 83.756236 213.098105 
L 84.916549 212.289758 
L 85.46917 211.746285 
L 85.487435 211.473163 
L 86.513032 210.924121 
L 86.590653 210.371319 
L 86.858451 210.093495 
L 87.507085 209.814717 
L 88.010642 208.12172 
L 90.104299 207.549523 
L 90.222072 207.261926 
L 90.768554 206.683711 
L 93.178403 206.393081 
L 93.740749 206.101431 
L 95.768758 205.808753 
L 96.240533 205.220295 
L 96.668263 204.924503 
L 97.791133 204.627663 
L 97.854361 204.329768 
L 98.982973 203.730793 
L 103.965183 203.429701 
L 105.137637 203.127531 
L 108.037493 202.824279 
L 110.779832 201.907965 
L 111.052427 201.600321 
L 114.301306 201.291565 
L 115.465714 200.981691 
L 117.562798 200.670691 
L 118.18016 200.358561 
L 118.492356 200.045293 
L 120.399439 199.730882 
L 121.112864 199.415322 
L 124.763672 198.780727 
L 127.938768 198.46168 
L 129.159142 198.141458 
L 129.203419 197.820054 
L 129.516707 197.497462 
L 133.19218 197.173675 
L 133.283673 198.62135 
L 133.295095 198.298449 
L 133.657055 197.974344 
L 134.744426 197.649031 
L 136.260192 197.322501 
L 136.292144 196.994748 
L 137.489906 196.335547 
L 138.709671 196.004084 
L 139.389992 195.67137 
L 141.363226 195.002161 
L 151.071764 194.327864 
L 156.644662 193.648419 
L 163.764319 193.306748 
L 166.959155 192.963768 
L 173.642282 192.619471 
L 180.054497 191.926897 
L 180.270252 191.578605 
L 181.789828 191.228965 
L 184.988353 190.87797 
L 190.023546 190.525612 
L 190.507848 190.171883 
L 192.165292 191.679281 
L 198.030752 191.326423 
L 199.981823 190.972184 
L 205.838545 190.616556 
L 207.165791 190.259531 
L 208.062646 189.9011 
L 209.515764 189.541256 
L 209.524124 189.179988 
L 216.102575 188.817291 
L 218.080103 188.087569 
L 218.170931 187.720527 
L 220.608542 187.35202 
L 223.572015 186.610576 
L 225.698091 186.23762 
L 241.689615 185.863164 
L 241.989297 185.487198 
L 250.304356 185.109713 
L 253.266136 184.730699 
L 261.710121 184.350148 
L 266.519701 183.96805 
L 277.938512 183.584395 
L 280.988353 183.199175 
L 284.716262 182.423998 
L 292.511538 182.034022 
L 296.548411 181.642441 
L 302.508887 181.249245 
L 337.369991 180.059868 
L 337.692637 179.660112 
L 341.527082 181.249245 
L 350.458469 180.850303 
L 354.346552 180.047401 
L 355.790735 179.64342 
L 359.563288 179.237738 
L 359.699319 178.830344 
L 366.609381 178.010378 
L 369.484655 177.597783 
L 378.860175 177.183433 
L 384.451321 176.767316 
L 384.998135 176.34942 
L 385.033058 175.929735 
L 385.291241 175.508248 
L 398.030163 175.084949 
L 398.030223 174.659825 
L 401.374002 174.232865 
L 402.435944 173.804057 
L 402.471834 173.373388 
L 411.852645 172.940846 
L 414.573596 172.50642 
L 415.099034 172.070097 
L 416.505846 171.631865 
L 427.668635 170.749621 
L 427.737149 172.410134 
L 428.931676 171.968782 
L 433.223709 171.525478 
L 433.362431 171.080207 
L 441.69143 170.632958 
L 450.063212 169.732469 
L 460.926787 168.823905 
L 469.830629 168.36656 
L 474.293374 167.907155 
L 475.419144 167.445676 
L 481.476254 166.982108 
L 484.289877 166.516439 
L 484.407464 166.048652 
L 484.739212 165.578735 
L 489.256744 164.632448 
L 495.359782 164.156049 
L 496.198614 163.67746 
L 496.728618 163.196665 
L 498.306594 162.71365 
L 505.292034 161.740894 
L 505.675908 161.251123 
L 512.484317 160.759069 
L 513.70276 159.768046 
L 515.743223 159.269046 
L 518.379695 158.767697 
L 518.895488 158.263983 
L 519.245589 160.016671 
L 519.354952 159.51353 
L 524.315408 159.007998 
L 525.356427 160.774978 
L 526.325969 160.270043 
L 532.425409 159.762693 
L 533.353104 159.25291 
L 540.329564 158.740675 
L 540.396234 158.225972 
L 541.315402 157.708783 
L 543.594124 157.189089 
L 549.661 156.666872 
L 549.746416 158.466849 
L 549.755306 157.945201 
L 551.050154 157.421002 
L 553.617235 156.894234 
L 554.254001 156.364877 
L 555.960601 155.832913 
L 556.383358 155.298322 
L 557.8774 154.22118 
L 558.946266 153.67859 
L 559.290864 152.585271 
L 561.325583 152.034501 
L 561.427175 151.480964 
L 562.597996 150.924638 
L 562.914202 150.365502 
L 562.915351 149.803535 
L 563.388935 148.671022 
L 563.838541 148.100431 
L 564.220783 146.950472 
L 565.410471 146.371059 
L 565.457427 145.203248 
L 565.751289 144.023305 
L 566.707436 143.428724 
L 566.894475 142.831038 
L 567.722785 144.731442 
L 568.780524 142.929772 
L 568.930343 142.32286 
L 569.088325 144.247121 
L 569.423065 143.030613 
L 569.589302 141.181324 
L 570.00571 140.558248 
L 570.041025 139.931805 
L 570.280251 139.301966 
L 570.782981 136.100861 
L 570.815334 135.450058 
L 570.981631 137.435067 
L 571.194279 136.784354 
L 571.24444 135.472053 
L 571.551515 134.810404 
L 571.567994 134.145049 
L 572.58295 132.803092 
L 572.712812 132.126427 
L 572.720674 130.761563 
L 572.779543 132.795424 
L 572.915937 130.730363 
L 572.934048 128.629389 
L 573.201514 127.208322 
L 573.567488 121.354374 
L 573.61006 123.463589 
L 573.841848 125.585471 
L 573.960765 124.842228 
L 574.046333 121.057821 
L 574.161682 119.511455 
L 574.211904 120.123172 
L 574.270985 117.751204 
L 574.33702 116.950603 
L 574.426971 119.159038 
L 574.460684 117.551525 
L 574.594387 114.862985 
L 574.603246 117.136556 
L 574.666015 111.181753 
L 574.692593 111.760823 
L 574.76147 109.994168 
L 574.935023 45.199223 
L 574.935386 37.929375 
L 574.937926 214.351997 
L 574.937926 214.351997 
" clip-path="url(#p430d60e907)" style="fill: none; stroke: #0000ff; stroke-width: 1.5; stroke-linecap: square"/>
   </g>
   <g id="line2d_28">
    <path d="M 574.935386 355.449375 
L 574.935386 22.809375 
" clip-path="url(#p430d60e907)" style="fill: none; stroke-dasharray: 5.55,2.4; stroke-dashoffset: 0; stroke: #ff0000; stroke-width: 1.5"/>
   </g>
   <g id="patch_3">
    <path d="M 42.301563 355.449375 
L 42.301563 22.809375 
" style="fill: none; stroke: #000000; stroke-width: 0.8; stroke-linejoin: miter; stroke-linecap: square"/>
   </g>
   <g id="patch_4">
    <path d="M 600.301563 355.449375 
L 600.301563 22.809375 
" style="fill: none; stroke: #000000; stroke-width: 0.8; stroke-linejoin: miter; stroke-linecap: square"/>
   </g>
   <g id="patch_5">
    <path d="M 42.301562 355.449375 
L 600.301562 355.449375 
" style="fill: none; stroke: #000000; stroke-width: 0.8; stroke-linejoin: miter; stroke-linecap: square"/>
   </g>
   <g id="patch_6">
    <path d="M 42.301562 22.809375 
L 600.301562 22.809375 
" style="fill: none; stroke: #000000; stroke-width: 0.8; stroke-linejoin: miter; stroke-linecap: square"/>
   </g>
   <g id="text_16">
    <!-- F1分数与阈值的关系 -->
    <g transform="translate(267.301562 16.809375) scale(0.12 -0.12)">
     <defs>
      <path id="SimHei-4e0e" d="M 5350 100 
Q 5275 -300 4925 -425 
Q 4575 -550 3900 -600 
Q 3875 -375 3650 -25 
Q 4375 -50 4575 0 
Q 4775 50 4837 225 
Q 4900 400 5100 2350 
L 1125 2350 
Q 1450 4350 1475 5200 
Q 1800 5150 2075 5125 
Q 1975 4825 1900 4275 
L 4900 4275 
Q 5400 4275 5800 4300 
L 5800 3825 
Q 5400 3850 4950 3850 
L 1850 3850 
L 1700 2750 
L 5675 2750 
Q 5625 2450 5575 2050 
L 5350 100 
z
M 3675 1350 
Q 4125 1350 4500 1375 
L 4500 875 
Q 4125 900 3850 900 
L 1450 900 
Q 1000 900 500 875 
L 500 1375 
Q 1000 1350 1450 1350 
L 3675 1350 
z
" transform="scale(0.015625)"/>
      <path id="SimHei-7684" d="M 2100 4975 
Q 1975 4750 1750 3950 
L 2875 3950 
Q 2850 3525 2850 2875 
L 2850 675 
Q 2850 300 2875 -400 
L 2375 -400 
L 2375 100 
L 1100 100 
L 1100 -450 
L 600 -450 
Q 625 350 625 550 
L 625 2850 
Q 625 3525 600 3950 
L 1325 3950 
Q 1450 4525 1525 5150 
Q 1875 5025 2100 4975 
z
M 5825 3075 
Q 5800 1550 5700 175 
Q 5650 -275 5225 -425 
Q 4800 -575 4275 -625 
Q 4250 -350 4050 -50 
Q 4550 -75 4837 -25 
Q 5125 25 5200 200 
Q 5275 375 5312 1225 
Q 5350 2075 5375 3600 
L 3925 3600 
Q 3725 3125 3350 2475 
Q 3175 2650 2925 2750 
Q 3150 3050 3350 3475 
Q 3550 3900 3700 4400 
Q 3850 4900 3875 5175 
Q 4225 5025 4475 4950 
Q 4350 4750 4262 4512 
Q 4175 4275 4075 4050 
L 5850 4050 
Q 5825 3525 5825 3075 
z
M 2375 525 
L 2375 1850 
L 1100 1850 
L 1100 525 
L 2375 525 
z
M 2375 2275 
L 2375 3525 
L 1100 3525 
L 1100 2275 
L 2375 2275 
z
M 4350 2050 
Q 4500 1750 4700 1275 
Q 4525 1200 4225 1025 
Q 4050 1500 3900 1837 
Q 3750 2175 3600 2400 
Q 3775 2500 4050 2650 
L 4350 2050 
z
" transform="scale(0.015625)"/>
      <path id="SimHei-5173" d="M 4675 4850 
Q 4525 4675 4362 4375 
Q 4200 4075 4075 3825 
L 4625 3825 
Q 5150 3825 5550 3850 
L 5550 3375 
Q 5225 3400 4700 3400 
L 3400 3400 
L 3400 2150 
L 4975 2150 
Q 5475 2150 5875 2175 
L 5875 1700 
Q 5475 1725 5025 1725 
L 3500 1725 
Q 4250 450 6000 75 
Q 5775 -175 5600 -525 
Q 4025 0 3225 1300 
Q 2800 200 875 -600 
Q 775 -350 500 -150 
Q 2425 375 2875 1725 
L 1550 1725 
Q 975 1725 600 1700 
L 600 2150 
Q 875 2125 1450 2125 
L 2925 2125 
L 2925 3400 
L 1750 3400 
Q 1275 3400 900 3375 
L 900 3850 
Q 1275 3825 1775 3825 
L 3575 3825 
Q 3925 4625 4075 5150 
Q 4325 5000 4675 4850 
z
M 2125 5125 
Q 2450 4725 2800 4175 
Q 2500 4025 2325 3875 
Q 2025 4450 1725 4825 
Q 1950 4975 2125 5125 
z
" transform="scale(0.015625)"/>
      <path id="SimHei-7cfb" d="M 5300 5200 
Q 5450 4950 5725 4675 
Q 4975 4650 4437 4587 
Q 3900 4525 3125 4450 
Q 3250 4325 3475 4225 
Q 3150 4025 2837 3762 
Q 2525 3500 2225 3275 
L 3475 3275 
Q 4100 3700 4525 4050 
Q 4775 3850 5125 3700 
Q 4775 3550 4450 3375 
Q 4125 3200 3387 2737 
Q 2650 2275 2125 1975 
Q 3600 2050 4875 2100 
Q 4750 2225 4225 2625 
Q 4475 2725 4650 2875 
Q 4950 2650 5337 2312 
Q 5725 1975 6075 1650 
Q 5775 1475 5600 1325 
Q 5400 1575 5225 1725 
Q 4550 1700 3625 1650 
L 3625 150 
Q 3625 -325 3387 -412 
Q 3150 -500 2525 -600 
Q 2475 -300 2300 -25 
Q 2875 -25 3012 12 
Q 3150 50 3150 300 
L 3150 1650 
Q 1625 1625 1075 1525 
Q 1000 1775 900 2050 
Q 1450 2100 1875 2300 
Q 2300 2500 2900 2900 
Q 2325 2900 2037 2875 
Q 1750 2850 1400 2800 
Q 1325 3075 1250 3325 
Q 1675 3325 2100 3662 
Q 2525 4000 2750 4400 
Q 1350 4350 925 4300 
Q 850 4550 750 4750 
Q 2150 4750 3250 4850 
Q 4350 4950 5300 5200 
z
M 4625 1250 
Q 4925 1025 5325 737 
Q 5725 450 6000 175 
Q 5800 0 5600 -225 
Q 5275 125 4925 400 
Q 4575 675 4275 875 
Q 4500 1050 4625 1250 
z
M 2200 875 
Q 1900 725 1537 375 
Q 1175 25 800 -300 
Q 575 -75 375 25 
Q 1075 450 1675 1225 
Q 1900 1050 2200 875 
z
" transform="scale(0.015625)"/>
     </defs>
     <use xlink:href="#SimHei-46"/>
     <use xlink:href="#SimHei-31" x="50"/>
     <use xlink:href="#SimHei-5206" x="100"/>
     <use xlink:href="#SimHei-6570" x="200"/>
     <use xlink:href="#SimHei-4e0e" x="300"/>
     <use xlink:href="#SimHei-9608" x="400"/>
     <use xlink:href="#SimHei-503c" x="500"/>
     <use xlink:href="#SimHei-7684" x="600"/>
     <use xlink:href="#SimHei-5173" x="700"/>
     <use xlink:href="#SimHei-7cfb" x="800"/>
    </g>
   </g>
   <g id="legend_1">
    <g id="patch_7">
     <path d="M 49.301563 54.528125 
L 166.301562 54.528125 
Q 168.301562 54.528125 168.301562 52.528125 
L 168.301562 29.809375 
Q 168.301562 27.809375 166.301562 27.809375 
L 49.301563 27.809375 
Q 47.301563 27.809375 47.301563 29.809375 
L 47.301563 52.528125 
Q 47.301563 54.528125 49.301563 54.528125 
z
" style="fill: #ffffff; opacity: 0.8; stroke: #cccccc; stroke-linejoin: miter"/>
    </g>
    <g id="line2d_29">
     <path d="M 51.301563 41.10625 
L 61.301563 41.10625 
L 71.301563 41.10625 
" style="fill: none; stroke-dasharray: 5.55,2.4; stroke-dashoffset: 0; stroke: #ff0000; stroke-width: 1.5"/>
    </g>
    <g id="text_17">
     <!-- 最佳阈值 = 1.0000 -->
     <g transform="translate(79.301563 39.778125) scale(0.1 -0.1)">
      <defs>
       <path id="SimHei-6700" d="M 475 275 
Q 675 300 1100 350 
L 1100 2450 
Q 775 2450 425 2425 
L 425 2850 
Q 775 2825 1125 2825 
L 5025 2825 
Q 5475 2825 5900 2850 
L 5900 2425 
Q 5475 2450 5025 2450 
L 3050 2450 
L 3050 675 
L 3400 775 
Q 3400 550 3425 400 
Q 3225 350 3050 325 
Q 3050 -125 3075 -550 
L 2600 -550 
Q 2625 -125 2625 250 
Q 2350 200 1812 87 
Q 1275 -25 650 -175 
Q 575 100 475 275 
z
M 5100 4925 
Q 5075 4600 5075 4325 
L 5075 3875 
Q 5075 3600 5100 3250 
L 1275 3250 
Q 1300 3600 1300 3875 
L 1300 4325 
Q 1300 4600 1275 4925 
L 5100 4925 
z
M 3300 2050 
Q 3750 2025 4125 2025 
L 5375 2025 
Q 5100 975 4725 400 
Q 5350 0 5925 -100 
Q 5700 -275 5650 -500 
Q 5025 -300 4475 150 
Q 4150 -200 3600 -575 
Q 3500 -425 3250 -275 
Q 3775 -100 4150 350 
Q 3725 775 3500 1675 
L 3300 1675 
L 3300 2050 
z
M 4600 4250 
L 4600 4600 
L 1750 4600 
L 1750 4250 
L 4600 4250 
z
M 4600 3575 
L 4600 3900 
L 1750 3900 
L 1750 3575 
L 4600 3575 
z
M 3900 1675 
Q 4000 1075 4400 625 
Q 4700 1050 4850 1675 
L 3900 1675 
z
M 2625 1250 
L 2625 1675 
L 1525 1675 
L 1525 1250 
L 2625 1250 
z
M 2625 575 
L 2625 925 
L 1525 925 
L 1525 425 
L 2625 575 
z
M 2625 2025 
L 2625 2450 
L 1525 2450 
L 1525 2025 
L 2625 2025 
z
" transform="scale(0.015625)"/>
       <path id="SimHei-4f73" d="M 3750 4250 
Q 3750 4825 3725 5050 
L 4275 5050 
Q 4250 4850 4250 4250 
L 4675 4250 
Q 5275 4250 5700 4275 
L 5700 3775 
Q 5250 3825 4725 3825 
L 4250 3825 
L 4250 2925 
L 5000 2925 
Q 5550 2925 5950 2975 
L 5950 2500 
Q 5575 2525 5000 2525 
L 3075 2525 
Q 2500 2525 2125 2500 
L 2125 2975 
Q 2450 2950 3075 2925 
L 3750 2925 
L 3750 3825 
L 3200 3825 
Q 2650 3825 2325 3775 
L 2325 4275 
Q 2650 4250 3175 4250 
L 3750 4250 
z
M 3775 1525 
Q 3775 1775 3750 2325 
L 4300 2325 
Q 4275 1875 4275 1525 
L 4750 1525 
Q 5300 1525 5700 1550 
L 5700 1100 
Q 5275 1125 4775 1125 
L 4275 1125 
L 4275 125 
L 5000 125 
Q 5700 125 6050 150 
L 6050 -300 
Q 5525 -275 5050 -275 
L 2950 -275 
Q 2400 -275 2050 -300 
L 2050 150 
Q 2300 125 2925 125 
L 3775 125 
L 3775 1125 
L 3300 1125 
Q 2800 1125 2375 1075 
L 2375 1550 
Q 2825 1525 3300 1525 
L 3775 1525 
z
M 2225 4950 
Q 2050 4775 1700 3950 
L 1700 625 
Q 1700 -150 1750 -550 
L 1175 -550 
Q 1225 -125 1225 600 
L 1225 3150 
Q 1000 2700 575 2175 
Q 400 2375 200 2550 
Q 550 2900 1050 3837 
Q 1550 4775 1600 5200 
Q 1925 5050 2225 4950 
z
" transform="scale(0.015625)"/>
       <path id="SimHei-20" transform="scale(0.015625)"/>
       <path id="SimHei-3d" d="M 2975 2900 
L 125 2900 
L 125 3300 
L 2975 3300 
L 2975 2900 
z
M 2975 1375 
L 125 1375 
L 125 1775 
L 2975 1775 
L 2975 1375 
z
" transform="scale(0.015625)"/>
      </defs>
      <use xlink:href="#SimHei-6700"/>
      <use xlink:href="#SimHei-4f73" x="100"/>
      <use xlink:href="#SimHei-9608" x="200"/>
      <use xlink:href="#SimHei-503c" x="300"/>
      <use xlink:href="#SimHei-20" x="400"/>
      <use xlink:href="#SimHei-3d" x="450"/>
      <use xlink:href="#SimHei-20" x="500"/>
      <use xlink:href="#SimHei-31" x="550"/>
      <use xlink:href="#SimHei-2e" x="600"/>
      <use xlink:href="#SimHei-30" x="650"/>
      <use xlink:href="#SimHei-30" x="700"/>
      <use xlink:href="#SimHei-30" x="750"/>
      <use xlink:href="#SimHei-30" x="800"/>
     </g>
     <!-- F1 = 0.7000 -->
     <g transform="translate(79.301563 49.278125) scale(0.1 -0.1)">
      <use xlink:href="#SimHei-46"/>
      <use xlink:href="#SimHei-31" x="50"/>
      <use xlink:href="#SimHei-20" x="100"/>
      <use xlink:href="#SimHei-3d" x="150"/>
      <use xlink:href="#SimHei-20" x="200"/>
      <use xlink:href="#SimHei-30" x="250"/>
      <use xlink:href="#SimHei-2e" x="300"/>
      <use xlink:href="#SimHei-37" x="350"/>
      <use xlink:href="#SimHei-30" x="400"/>
      <use xlink:href="#SimHei-30" x="450"/>
      <use xlink:href="#SimHei-30" x="500"/>
     </g>
    </g>
   </g>
  </g>
 </g>
 <defs>
  <clipPath id="p430d60e907">
   <rect x="42.301563" y="22.809375" width="558" height="332.64"/>
  </clipPath>
 </defs>
</svg>
