<?xml version="1.0" encoding="utf-8" standalone="no"?>
<!DOCTYPE svg PUBLIC "-//W3C//DTD SVG 1.1//EN"
  "http://www.w3.org/Graphics/SVG/1.1/DTD/svg11.dtd">
<svg xmlns:xlink="http://www.w3.org/1999/xlink" width="856.624062pt" height="424.229298pt" viewBox="0 0 856.624062 424.229298" xmlns="http://www.w3.org/2000/svg" version="1.1">
 <metadata>
  <rdf:RDF xmlns:dc="http://purl.org/dc/elements/1.1/" xmlns:cc="http://creativecommons.org/ns#" xmlns:rdf="http://www.w3.org/1999/02/22-rdf-syntax-ns#">
   <cc:Work>
    <dc:type rdf:resource="http://purl.org/dc/dcmitype/StillImage"/>
    <dc:date>2025-03-03T01:35:37.083284</dc:date>
    <dc:format>image/svg+xml</dc:format>
    <dc:creator>
     <cc:Agent>
      <dc:title>Matplotlib v3.9.2, https://matplotlib.org/</dc:title>
     </cc:Agent>
    </dc:creator>
   </cc:Work>
  </rdf:RDF>
 </metadata>
 <defs>
  <style type="text/css">*{stroke-linejoin: round; stroke-linecap: butt}</style>
 </defs>
 <g id="figure_1">
  <g id="patch_1">
   <path d="M 0 424.229298 
L 856.624062 424.229298 
L 856.624062 0 
L 0 0 
z
" style="fill: #ffffff"/>
  </g>
  <g id="axes_1">
   <g id="patch_2">
    <path d="M 42.301563 382.242211 
L 849.424062 382.242211 
L 849.424062 22.95 
L 42.301563 22.95 
z
" style="fill: #ffffff"/>
   </g>
   <g id="patch_3">
    <path d="M 78.988949 382.242211 
L 148.397518 382.242211 
L 148.397518 40.059153 
L 78.988949 40.059153 
z
" clip-path="url(#p60cdf8dd05)" style="fill: #1f77b4"/>
   </g>
   <g id="patch_4">
    <path d="M 277.299145 382.242211 
L 346.707714 382.242211 
L 346.707714 40.059153 
L 277.299145 40.059153 
z
" clip-path="url(#p60cdf8dd05)" style="fill: #1f77b4"/>
   </g>
   <g id="patch_5">
    <path d="M 475.609342 382.242211 
L 545.017911 382.242211 
L 545.017911 40.059153 
L 475.609342 40.059153 
z
" clip-path="url(#p60cdf8dd05)" style="fill: #1f77b4"/>
   </g>
   <g id="patch_6">
    <path d="M 673.919539 382.242211 
L 743.328107 382.242211 
L 743.328107 40.059153 
L 673.919539 40.059153 
z
" clip-path="url(#p60cdf8dd05)" style="fill: #1f77b4"/>
   </g>
   <g id="patch_7">
    <path d="M 148.397518 382.242211 
L 217.806086 382.242211 
L 217.806086 40.059153 
L 148.397518 40.059153 
z
" clip-path="url(#p60cdf8dd05)" style="fill: #ff7f0e"/>
   </g>
   <g id="patch_8">
    <path d="M 346.707714 382.242211 
L 416.116283 382.242211 
L 416.116283 40.059153 
L 346.707714 40.059153 
z
" clip-path="url(#p60cdf8dd05)" style="fill: #ff7f0e"/>
   </g>
   <g id="patch_9">
    <path d="M 545.017911 382.242211 
L 614.42648 382.242211 
L 614.42648 40.059153 
L 545.017911 40.059153 
z
" clip-path="url(#p60cdf8dd05)" style="fill: #ff7f0e"/>
   </g>
   <g id="patch_10">
    <path d="M 743.328107 382.242211 
L 812.736676 382.242211 
L 812.736676 40.059153 
L 743.328107 40.059153 
z
" clip-path="url(#p60cdf8dd05)" style="fill: #ff7f0e"/>
   </g>
   <g id="matplotlib.axis_1">
    <g id="xtick_1">
     <g id="line2d_1">
      <defs>
       <path id="m875c3c0737" d="M 0 0 
L 0 3.5 
" style="stroke: #000000; stroke-width: 0.8"/>
      </defs>
      <g>
       <use xlink:href="#m875c3c0737" x="148.397518" y="382.242211" style="stroke: #000000; stroke-width: 0.8"/>
      </g>
     </g>
     <g id="text_1">
      <!-- 无故障 -->
      <g transform="translate(126.300431 416.145414) rotate(-45) scale(0.1 -0.1)">
       <defs>
        <path id="SimHei-65e0" d="M 4350 4725 
Q 4875 4725 5300 4750 
L 5300 4275 
Q 4925 4300 4350 4300 
L 3175 4300 
Q 3175 3475 3125 2800 
L 5050 2800 
Q 5500 2800 5875 2825 
L 5875 2350 
Q 5500 2375 5075 2375 
L 3950 2375 
L 3950 425 
Q 3950 100 4325 100 
L 5175 100 
Q 5450 100 5475 850 
Q 5725 700 6025 625 
Q 5900 -350 5450 -350 
L 4075 -350 
Q 3500 -325 3500 300 
L 3500 2375 
L 3075 2375 
Q 2875 1425 2587 937 
Q 2300 450 1925 112 
Q 1550 -225 800 -650 
Q 675 -375 375 -225 
Q 975 50 1350 337 
Q 1725 625 2062 1050 
Q 2400 1475 2600 2375 
L 1500 2375 
Q 875 2375 600 2350 
L 600 2825 
Q 875 2800 1500 2800 
L 2650 2800 
Q 2675 3550 2675 4300 
L 2000 4300 
Q 1500 4300 1075 4275 
L 1075 4750 
Q 1500 4725 2000 4725 
L 4350 4725 
z
" transform="scale(0.015625)"/>
        <path id="SimHei-6545" d="M 4550 5000 
Q 4475 4875 4350 4612 
Q 4225 4350 4075 3975 
L 5250 3975 
Q 5800 3975 6175 4000 
L 6175 3550 
Q 5850 3575 5475 3575 
Q 5425 2950 5275 2225 
Q 5125 1500 4725 800 
Q 4975 500 5400 225 
Q 5825 -50 6150 -175 
Q 5950 -325 5775 -625 
Q 5000 -200 4450 450 
Q 4125 125 3687 -175 
Q 3250 -475 2925 -625 
Q 2800 -375 2575 -225 
Q 3575 200 4150 800 
Q 3875 1275 3712 1825 
Q 3550 2375 3450 2850 
Q 3275 2600 3150 2425 
Q 3000 2600 2775 2725 
Q 3075 3025 3450 3725 
Q 3825 4425 3975 5200 
Q 4225 5050 4550 5000 
z
M 1450 4300 
Q 1450 4625 1425 4950 
L 1950 4950 
Q 1900 4625 1900 4275 
L 1900 3725 
Q 2700 3725 3075 3750 
L 3075 3300 
Q 2700 3325 1900 3325 
L 1900 2250 
L 2750 2250 
Q 2725 1825 2725 1150 
Q 2725 475 2750 0 
L 2275 0 
L 2275 325 
L 1050 325 
L 1050 -200 
L 575 -200 
Q 600 275 600 1025 
Q 600 1800 575 2250 
L 1450 2250 
L 1450 3325 
Q 650 3325 300 3300 
L 300 3750 
Q 650 3725 1450 3725 
L 1450 4300 
z
M 3900 3075 
Q 3950 2500 4100 1987 
Q 4250 1475 4425 1175 
Q 4675 1575 4812 2237 
Q 4950 2900 4975 3575 
L 3875 3575 
Q 3700 3275 3525 3000 
L 3900 3075 
z
M 2275 725 
L 2275 1850 
L 1050 1850 
L 1050 725 
L 2275 725 
z
" transform="scale(0.015625)"/>
        <path id="SimHei-969c" d="M 5650 2800 
Q 5625 2425 5625 2200 
L 5625 1675 
Q 5625 1350 5650 1025 
L 4400 1025 
L 4400 550 
L 5325 550 
Q 5725 550 6175 575 
L 6175 175 
Q 5800 200 5325 200 
L 4400 200 
Q 4400 -300 4425 -625 
L 3900 -625 
Q 3925 -300 3925 200 
L 3225 200 
Q 2675 200 2175 175 
L 2175 575 
Q 2650 550 3225 550 
L 3925 550 
L 3925 1025 
L 2700 1025 
Q 2725 1275 2725 1700 
L 2725 2200 
Q 2725 2525 2700 2800 
L 5650 2800 
z
M 2350 4750 
Q 2225 4550 2037 3987 
Q 1850 3425 1675 2950 
Q 2150 2350 2250 2037 
Q 2350 1725 2337 1425 
Q 2325 1125 2025 962 
Q 1725 800 1325 725 
Q 1300 975 1150 1250 
Q 1650 1225 1787 1362 
Q 1925 1500 1850 1775 
Q 1775 2050 1600 2300 
Q 1425 2550 1175 2875 
Q 1300 3200 1450 3600 
Q 1600 4000 1675 4400 
L 900 4400 
L 900 -550 
L 400 -550 
Q 425 0 425 850 
L 425 3725 
Q 425 4275 400 4750 
L 2350 4750 
z
M 4500 3575 
Q 4575 3725 4600 3887 
Q 4625 4050 4650 4200 
L 3625 4200 
Q 3075 4200 2650 4175 
L 2650 4575 
Q 3075 4550 3600 4550 
L 4925 4550 
Q 5425 4550 5875 4575 
L 5875 4175 
Q 5425 4200 4925 4200 
L 4700 4200 
Q 4875 4125 5175 4025 
Q 5050 3800 4950 3575 
L 5325 3575 
Q 5775 3575 6175 3600 
L 6175 3200 
Q 5775 3225 5325 3225 
L 3225 3225 
Q 2775 3225 2325 3200 
L 2325 3600 
Q 2600 3575 2975 3575 
L 3275 3575 
Q 3225 3800 3150 4000 
Q 3350 4025 3600 4100 
Q 3675 3825 3800 3575 
L 4500 3575 
z
M 5150 1375 
L 5150 1725 
L 3200 1725 
L 3200 1375 
L 5150 1375 
z
M 5150 2100 
L 5150 2450 
L 3200 2450 
L 3200 2100 
L 5150 2100 
z
M 3975 4600 
Q 3900 4875 3750 5150 
L 4250 5300 
Q 4350 5050 4475 4750 
Q 4200 4675 3975 4600 
z
" transform="scale(0.015625)"/>
       </defs>
       <use xlink:href="#SimHei-65e0"/>
       <use xlink:href="#SimHei-6545" x="100"/>
       <use xlink:href="#SimHei-969c" x="200"/>
      </g>
     </g>
    </g>
    <g id="xtick_2">
     <g id="line2d_2">
      <g>
       <use xlink:href="#m875c3c0737" x="346.707714" y="382.242211" style="stroke: #000000; stroke-width: 0.8"/>
      </g>
     </g>
     <g id="text_2">
      <!-- HDF -->
      <g transform="translate(335.217229 404.710172) rotate(-45) scale(0.1 -0.1)">
       <defs>
        <path id="SimHei-48" d="M 2850 125 
L 2275 125 
L 2275 2125 
L 850 2125 
L 850 125 
L 275 125 
L 275 4400 
L 850 4400 
L 850 2600 
L 2275 2600 
L 2275 4400 
L 2850 4400 
L 2850 125 
z
" transform="scale(0.015625)"/>
        <path id="SimHei-44" d="M 2925 2250 
Q 2925 1100 2437 612 
Q 1950 125 1125 125 
L 275 125 
L 275 4400 
L 1125 4400 
Q 2050 4400 2487 3900 
Q 2925 3400 2925 2250 
z
M 2325 2250 
Q 2325 3175 2025 3550 
Q 1725 3925 1125 3925 
L 850 3925 
L 850 600 
L 1125 600 
Q 1725 600 2025 962 
Q 2325 1325 2325 2250 
z
" transform="scale(0.015625)"/>
        <path id="SimHei-46" d="M 2925 3925 
L 875 3925 
L 875 2525 
L 2425 2525 
L 2425 2050 
L 875 2050 
L 875 125 
L 300 125 
L 300 4400 
L 2925 4400 
L 2925 3925 
z
" transform="scale(0.015625)"/>
       </defs>
       <use xlink:href="#SimHei-48"/>
       <use xlink:href="#SimHei-44" x="50"/>
       <use xlink:href="#SimHei-46" x="100"/>
      </g>
     </g>
    </g>
    <g id="xtick_3">
     <g id="line2d_3">
      <g>
       <use xlink:href="#m875c3c0737" x="545.017911" y="382.242211" style="stroke: #000000; stroke-width: 0.8"/>
      </g>
     </g>
     <g id="text_3">
      <!-- PWF -->
      <g transform="translate(533.527426 404.710172) rotate(-45) scale(0.1 -0.1)">
       <defs>
        <path id="SimHei-50" d="M 2950 3100 
Q 2950 2500 2600 2150 
Q 2250 1800 1625 1800 
L 900 1800 
L 900 125 
L 325 125 
L 325 4400 
L 1625 4400 
Q 2250 4400 2600 4050 
Q 2950 3700 2950 3100 
z
M 2375 3100 
Q 2375 3575 2150 3750 
Q 1925 3925 1475 3925 
L 900 3925 
L 900 2275 
L 1475 2275 
Q 1925 2275 2150 2450 
Q 2375 2625 2375 3100 
z
" transform="scale(0.015625)"/>
        <path id="SimHei-57" d="M 3075 4400 
L 2525 75 
L 2025 75 
L 1575 3275 
L 1525 3275 
L 1075 75 
L 575 75 
L 25 4400 
L 575 4400 
L 850 1675 
L 900 1675 
L 1275 4400 
L 1825 4400 
L 2200 1675 
L 2250 1675 
L 2525 4400 
L 3075 4400 
z
" transform="scale(0.015625)"/>
       </defs>
       <use xlink:href="#SimHei-50"/>
       <use xlink:href="#SimHei-57" x="50"/>
       <use xlink:href="#SimHei-46" x="100"/>
      </g>
     </g>
    </g>
    <g id="xtick_4">
     <g id="line2d_4">
      <g>
       <use xlink:href="#m875c3c0737" x="743.328107" y="382.242211" style="stroke: #000000; stroke-width: 0.8"/>
      </g>
     </g>
     <g id="text_4">
      <!-- OSF -->
      <g transform="translate(731.837622 404.710172) rotate(-45) scale(0.1 -0.1)">
       <defs>
        <path id="SimHei-4f" d="M 2950 2275 
Q 2950 1100 2587 587 
Q 2225 75 1575 75 
Q 925 75 550 587 
Q 175 1100 175 2275 
Q 175 3450 550 3950 
Q 925 4450 1575 4450 
Q 2225 4450 2587 3950 
Q 2950 3450 2950 2275 
z
M 2350 2275 
Q 2350 3325 2125 3650 
Q 1900 3975 1575 3975 
Q 1250 3975 1012 3650 
Q 775 3325 775 2275 
Q 775 1225 1012 887 
Q 1250 550 1575 550 
Q 1900 550 2125 887 
Q 2350 1225 2350 2275 
z
" transform="scale(0.015625)"/>
        <path id="SimHei-53" d="M 2900 1325 
Q 2900 750 2537 412 
Q 2175 75 1550 75 
Q 925 75 575 425 
Q 225 775 225 1300 
L 225 1475 
L 800 1475 
L 800 1325 
Q 800 950 1025 750 
Q 1250 550 1550 550 
Q 1950 550 2137 762 
Q 2325 975 2325 1275 
Q 2325 1525 2100 1737 
Q 1875 1950 1450 2125 
Q 850 2350 587 2625 
Q 325 2900 325 3275 
Q 325 3800 687 4125 
Q 1050 4450 1550 4450 
Q 2200 4450 2487 4062 
Q 2775 3675 2775 3225 
L 2200 3225 
Q 2225 3500 2050 3725 
Q 1875 3950 1550 3950 
Q 1250 3950 1075 3787 
Q 900 3625 900 3350 
Q 900 3125 1037 2962 
Q 1175 2800 1750 2575 
Q 2300 2350 2600 2037 
Q 2900 1725 2900 1325 
z
" transform="scale(0.015625)"/>
       </defs>
       <use xlink:href="#SimHei-4f"/>
       <use xlink:href="#SimHei-53" x="50"/>
       <use xlink:href="#SimHei-46" x="100"/>
      </g>
     </g>
    </g>
   </g>
   <g id="matplotlib.axis_2">
    <g id="ytick_1">
     <g id="line2d_5">
      <defs>
       <path id="mce5594b320" d="M 0 0 
L -3.5 0 
" style="stroke: #000000; stroke-width: 0.8"/>
      </defs>
      <g>
       <use xlink:href="#mce5594b320" x="42.301563" y="382.242211" style="stroke: #000000; stroke-width: 0.8"/>
      </g>
     </g>
     <g id="text_5">
      <!-- 0.0 -->
      <g transform="translate(20.301563 385.679711) scale(0.1 -0.1)">
       <defs>
        <path id="SimHei-30" d="M 225 2537 
Q 250 3200 412 3587 
Q 575 3975 875 4225 
Q 1175 4475 1612 4475 
Q 2050 4475 2375 4112 
Q 2700 3750 2800 3200 
Q 2900 2650 2862 1937 
Q 2825 1225 2612 775 
Q 2400 325 1975 150 
Q 1550 -25 1125 187 
Q 700 400 525 750 
Q 350 1100 275 1487 
Q 200 1875 225 2537 
z
M 750 2687 
Q 675 2000 800 1462 
Q 925 925 1212 700 
Q 1500 475 1800 612 
Q 2100 750 2237 1162 
Q 2375 1575 2375 2062 
Q 2375 2550 2337 2950 
Q 2300 3350 2112 3675 
Q 1925 4000 1612 4012 
Q 1300 4025 1062 3700 
Q 825 3375 750 2687 
z
" transform="scale(0.015625)"/>
        <path id="SimHei-2e" d="M 1075 125 
L 500 125 
L 500 675 
L 1075 675 
L 1075 125 
z
" transform="scale(0.015625)"/>
       </defs>
       <use xlink:href="#SimHei-30"/>
       <use xlink:href="#SimHei-2e" x="50"/>
       <use xlink:href="#SimHei-30" x="100"/>
      </g>
     </g>
    </g>
    <g id="ytick_2">
     <g id="line2d_6">
      <g>
       <use xlink:href="#mce5594b320" x="42.301563" y="313.805599" style="stroke: #000000; stroke-width: 0.8"/>
      </g>
     </g>
     <g id="text_6">
      <!-- 0.2 -->
      <g transform="translate(20.301563 317.243099) scale(0.1 -0.1)">
       <defs>
        <path id="SimHei-32" d="M 300 250 
Q 325 625 650 925 
Q 975 1225 1475 1862 
Q 1975 2500 2125 2850 
Q 2275 3200 2237 3450 
Q 2200 3700 2000 3862 
Q 1800 4025 1537 4000 
Q 1275 3975 1037 3800 
Q 800 3625 675 3275 
L 200 3350 
Q 400 3925 712 4187 
Q 1025 4450 1450 4475 
Q 1700 4500 1900 4462 
Q 2100 4425 2312 4287 
Q 2525 4150 2662 3875 
Q 2800 3600 2762 3212 
Q 2725 2825 2375 2287 
Q 2025 1750 1025 600 
L 2825 600 
L 2825 150 
L 300 150 
L 300 250 
z
" transform="scale(0.015625)"/>
       </defs>
       <use xlink:href="#SimHei-30"/>
       <use xlink:href="#SimHei-2e" x="50"/>
       <use xlink:href="#SimHei-32" x="100"/>
      </g>
     </g>
    </g>
    <g id="ytick_3">
     <g id="line2d_7">
      <g>
       <use xlink:href="#mce5594b320" x="42.301563" y="245.368988" style="stroke: #000000; stroke-width: 0.8"/>
      </g>
     </g>
     <g id="text_7">
      <!-- 0.4 -->
      <g transform="translate(20.301563 248.806488) scale(0.1 -0.1)">
       <defs>
        <path id="SimHei-34" d="M 2000 1100 
L 75 1100 
L 75 1525 
L 2100 4450 
L 2475 4450 
L 2475 1525 
L 3075 1525 
L 3075 1100 
L 2475 1100 
L 2475 150 
L 2000 150 
L 2000 1100 
z
M 2000 1525 
L 2000 3500 
L 600 1525 
L 2000 1525 
z
" transform="scale(0.015625)"/>
       </defs>
       <use xlink:href="#SimHei-30"/>
       <use xlink:href="#SimHei-2e" x="50"/>
       <use xlink:href="#SimHei-34" x="100"/>
      </g>
     </g>
    </g>
    <g id="ytick_4">
     <g id="line2d_8">
      <g>
       <use xlink:href="#mce5594b320" x="42.301563" y="176.932376" style="stroke: #000000; stroke-width: 0.8"/>
      </g>
     </g>
     <g id="text_8">
      <!-- 0.6 -->
      <g transform="translate(20.301563 180.369876) scale(0.1 -0.1)">
       <defs>
        <path id="SimHei-36" d="M 250 1612 
Q 275 1975 387 2225 
Q 500 2475 725 2850 
L 1750 4450 
L 2325 4450 
L 1275 2800 
Q 1950 2975 2350 2750 
Q 2750 2525 2887 2237 
Q 3025 1950 3037 1612 
Q 3050 1275 2937 950 
Q 2825 625 2537 362 
Q 2250 100 1737 75 
Q 1225 50 862 262 
Q 500 475 362 862 
Q 225 1250 250 1612 
z
M 1025 787 
Q 1250 550 1625 525 
Q 2000 500 2250 775 
Q 2500 1050 2500 1575 
Q 2500 2100 2187 2300 
Q 1875 2500 1487 2450 
Q 1100 2400 925 2075 
Q 750 1750 775 1387 
Q 800 1025 1025 787 
z
" transform="scale(0.015625)"/>
       </defs>
       <use xlink:href="#SimHei-30"/>
       <use xlink:href="#SimHei-2e" x="50"/>
       <use xlink:href="#SimHei-36" x="100"/>
      </g>
     </g>
    </g>
    <g id="ytick_5">
     <g id="line2d_9">
      <g>
       <use xlink:href="#mce5594b320" x="42.301563" y="108.495765" style="stroke: #000000; stroke-width: 0.8"/>
      </g>
     </g>
     <g id="text_9">
      <!-- 0.8 -->
      <g transform="translate(20.301563 111.933265) scale(0.1 -0.1)">
       <defs>
        <path id="SimHei-38" d="M 175 1375 
Q 175 1675 325 1962 
Q 475 2250 825 2425 
Q 525 2600 425 2812 
Q 325 3025 312 3300 
Q 300 3575 387 3775 
Q 475 3975 650 4150 
Q 825 4325 1037 4387 
Q 1250 4450 1500 4450 
Q 1750 4450 1950 4400 
Q 2150 4350 2375 4187 
Q 2600 4025 2700 3725 
Q 2800 3425 2687 3025 
Q 2575 2625 2100 2400 
Q 2525 2275 2700 2012 
Q 2875 1750 2875 1375 
Q 2875 1000 2762 775 
Q 2650 550 2512 400 
Q 2375 250 2137 162 
Q 1900 75 1537 75 
Q 1175 75 912 162 
Q 650 250 475 425 
Q 300 600 237 837 
Q 175 1075 175 1375 
z
M 687 1400 
Q 675 1100 787 875 
Q 900 650 1200 587 
Q 1500 525 1825 600 
Q 2150 675 2275 950 
Q 2400 1225 2362 1500 
Q 2325 1775 2050 1962 
Q 1775 2150 1450 2125 
Q 1125 2100 912 1900 
Q 700 1700 687 1400 
z
M 775 3350 
Q 775 3100 950 2875 
Q 1125 2650 1500 2650 
Q 1875 2650 2062 2875 
Q 2250 3100 2237 3412 
Q 2225 3725 2012 3875 
Q 1800 4025 1437 4000 
Q 1075 3975 925 3787 
Q 775 3600 775 3350 
z
" transform="scale(0.015625)"/>
       </defs>
       <use xlink:href="#SimHei-30"/>
       <use xlink:href="#SimHei-2e" x="50"/>
       <use xlink:href="#SimHei-38" x="100"/>
      </g>
     </g>
    </g>
    <g id="ytick_6">
     <g id="line2d_10">
      <g>
       <use xlink:href="#mce5594b320" x="42.301563" y="40.059153" style="stroke: #000000; stroke-width: 0.8"/>
      </g>
     </g>
     <g id="text_10">
      <!-- 1.0 -->
      <g transform="translate(20.301563 43.496653) scale(0.1 -0.1)">
       <defs>
        <path id="SimHei-31" d="M 1400 3600 
Q 1075 3275 575 2975 
L 575 3450 
Q 1200 3875 1600 4450 
L 1900 4450 
L 1900 150 
L 1400 150 
L 1400 3600 
z
" transform="scale(0.015625)"/>
       </defs>
       <use xlink:href="#SimHei-31"/>
       <use xlink:href="#SimHei-2e" x="50"/>
       <use xlink:href="#SimHei-30" x="100"/>
      </g>
     </g>
    </g>
    <g id="text_11">
     <!-- 分数 -->
     <g transform="translate(15.051563 212.596106) rotate(-90) scale(0.1 -0.1)">
      <defs>
       <path id="SimHei-5206" d="M 1000 -650 
Q 825 -375 575 -225 
Q 975 -75 1300 137 
Q 1625 350 1875 662 
Q 2125 975 2250 1350 
Q 2375 1725 2425 2275 
Q 1850 2275 1500 2250 
L 1500 2775 
Q 1900 2750 2525 2750 
L 5025 2750 
Q 4975 2375 4950 2100 
L 4750 250 
Q 4700 -200 4350 -350 
Q 4000 -500 3575 -525 
Q 3550 -275 3325 50 
Q 3850 25 4037 87 
Q 4225 150 4275 525 
L 4450 2275 
L 2950 2275 
Q 2875 1625 2737 1187 
Q 2600 750 2350 425 
Q 2100 100 1750 -175 
Q 1400 -450 1000 -650 
z
M 3950 5175 
Q 4125 4650 4662 3975 
Q 5200 3300 6175 2800 
Q 5975 2625 5775 2275 
Q 5325 2600 4987 2887 
Q 4650 3175 4425 3425 
Q 4200 3675 3925 4137 
Q 3650 4600 3475 5000 
Q 3750 5075 3950 5175 
z
M 2700 4825 
Q 2475 4425 2325 4125 
Q 2175 3825 2025 3587 
Q 1875 3350 1575 2950 
Q 1275 2550 850 2125 
Q 625 2350 400 2475 
Q 900 2925 1187 3300 
Q 1475 3675 1737 4112 
Q 2000 4550 2200 5075 
Q 2400 4925 2700 4825 
z
" transform="scale(0.015625)"/>
       <path id="SimHei-6570" d="M 4525 4925 
Q 4475 4800 4400 4587 
Q 4325 4375 4175 3825 
L 5325 3825 
Q 5575 3825 5925 3850 
L 5925 3400 
Q 5650 3425 5500 3425 
Q 5500 3025 5362 2162 
Q 5225 1300 4875 675 
Q 5125 375 5437 137 
Q 5750 -100 6025 -200 
Q 5725 -425 5625 -625 
Q 5325 -450 5075 -225 
Q 4825 0 4575 325 
Q 4300 25 3987 -187 
Q 3675 -400 3200 -650 
Q 3075 -425 2850 -300 
Q 3225 -150 3650 125 
Q 4075 400 4300 675 
Q 4125 1025 3962 1425 
Q 3800 1825 3675 2475 
Q 3600 2275 3425 1950 
Q 3250 2050 3000 2150 
Q 3400 2850 3650 3675 
Q 3900 4500 3975 5100 
Q 4275 4975 4525 4925 
z
M 2100 2250 
Q 2000 2150 1875 1925 
L 3250 1925 
Q 3100 1300 2725 675 
Q 3125 525 3350 400 
Q 3225 225 3125 25 
Q 2900 175 2450 325 
Q 1950 -225 725 -650 
Q 600 -375 400 -275 
Q 1575 0 2000 475 
Q 1300 650 850 775 
Q 1000 1000 1250 1525 
Q 1000 1525 425 1500 
L 425 1950 
Q 900 1925 1400 1925 
Q 1500 2150 1550 2425 
Q 1825 2325 2100 2250 
z
M 1775 3950 
Q 1775 4550 1750 5100 
L 2250 5100 
Q 2225 4575 2225 3950 
Q 3075 3950 3425 3975 
L 3425 3525 
Q 3075 3550 2225 3550 
Q 2225 2825 2250 2425 
L 1750 2425 
Q 1775 2775 1775 3300 
Q 1650 3100 1300 2787 
Q 950 2475 650 2300 
Q 525 2525 275 2625 
Q 500 2700 875 2975 
Q 1250 3250 1450 3550 
Q 950 3550 500 3525 
L 500 3975 
Q 925 3950 1775 3950 
z
M 3975 3175 
Q 4200 1700 4600 1125 
Q 4850 1700 4937 2287 
Q 5025 2875 5050 3425 
L 4075 3425 
L 3975 3175 
z
M 1450 1000 
Q 1750 925 2275 800 
Q 2475 1050 2650 1525 
L 1725 1525 
Q 1600 1275 1450 1000 
z
M 3325 4825 
Q 3200 4625 3125 4450 
Q 3050 4275 2925 4025 
Q 2725 4125 2525 4175 
Q 2725 4500 2900 5000 
Q 3150 4875 3325 4825 
z
M 2575 3375 
Q 2900 3050 3200 2725 
Q 3050 2600 2875 2425 
Q 2525 2850 2300 3100 
Q 2450 3225 2575 3375 
z
M 925 5000 
Q 1275 4650 1500 4300 
L 1125 4075 
Q 950 4425 600 4725 
Q 825 4875 925 5000 
z
" transform="scale(0.015625)"/>
      </defs>
      <use xlink:href="#SimHei-5206"/>
      <use xlink:href="#SimHei-6570" x="100"/>
     </g>
    </g>
   </g>
   <g id="patch_11">
    <path d="M 42.301563 382.242211 
L 42.301563 22.95 
" style="fill: none; stroke: #000000; stroke-width: 0.8; stroke-linejoin: miter; stroke-linecap: square"/>
   </g>
   <g id="patch_12">
    <path d="M 849.424062 382.242211 
L 849.424062 22.95 
" style="fill: none; stroke: #000000; stroke-width: 0.8; stroke-linejoin: miter; stroke-linecap: square"/>
   </g>
   <g id="patch_13">
    <path d="M 42.301563 382.242211 
L 849.424062 382.242211 
" style="fill: none; stroke: #000000; stroke-width: 0.8; stroke-linejoin: miter; stroke-linecap: square"/>
   </g>
   <g id="patch_14">
    <path d="M 42.301563 22.95 
L 849.424062 22.95 
" style="fill: none; stroke: #000000; stroke-width: 0.8; stroke-linejoin: miter; stroke-linecap: square"/>
   </g>
   <g id="text_12">
    <!-- 各故障类型的精确率和召回率 -->
    <g transform="translate(367.862812 16.95) scale(0.12 -0.12)">
     <defs>
      <path id="SimHei-5404" d="M 5100 4425 
Q 4850 4000 4525 3600 
Q 4200 3200 3675 2750 
Q 4050 2500 4750 2325 
Q 5450 2150 6050 2125 
Q 5825 1825 5775 1600 
Q 5050 1750 4412 1962 
Q 3775 2175 3300 2475 
Q 2750 2150 2000 1875 
Q 1250 1600 550 1425 
Q 475 1625 275 1850 
Q 900 1950 1662 2200 
Q 2425 2450 2950 2750 
Q 2525 3150 2100 3900 
Q 1900 3575 1675 3300 
Q 1450 3025 1250 2800 
Q 1050 3000 850 3100 
Q 1200 3400 1587 3950 
Q 1975 4500 2175 5225 
Q 2450 5075 2725 5000 
Q 2600 4850 2375 4425 
L 5100 4425 
z
M 4975 1675 
Q 4950 1125 4950 400 
Q 4950 -325 4975 -575 
L 4475 -575 
L 4475 -225 
L 2050 -225 
L 2050 -625 
L 1550 -625 
Q 1575 -275 1575 400 
Q 1575 1075 1550 1675 
L 4975 1675 
z
M 4475 200 
L 4475 1250 
L 2050 1250 
L 2050 200 
L 4475 200 
z
M 3325 3000 
Q 3875 3450 4300 4025 
L 2500 4025 
Q 2975 3275 3325 3000 
z
" transform="scale(0.015625)"/>
      <path id="SimHei-7c7b" d="M 2125 3875 
Q 1750 4375 1325 4725 
Q 1525 4875 1675 5050 
L 2525 4225 
Q 2400 4125 2200 3875 
L 3025 3875 
L 3025 4550 
Q 3025 4900 3000 5125 
L 3525 5125 
Q 3500 4850 3500 4550 
L 3500 3875 
L 4325 3875 
Q 4125 4050 4000 4150 
Q 4450 4575 4800 5175 
Q 5000 5000 5275 4825 
Q 5100 4675 4912 4475 
Q 4725 4275 4400 3875 
L 5025 3875 
Q 5425 3875 5900 3900 
L 5900 3450 
Q 5425 3475 5025 3475 
L 3500 3475 
L 3500 3050 
Q 3500 2650 3525 2175 
L 3175 2175 
Q 3475 2075 3675 2000 
Q 3575 1875 3525 1575 
L 5025 1575 
Q 5525 1575 6025 1600 
L 6025 1150 
Q 5550 1175 5050 1175 
L 3675 1175 
Q 4050 600 4712 275 
Q 5375 -50 6050 -175 
Q 5850 -350 5725 -675 
Q 4975 -450 4350 -37 
Q 3725 375 3300 950 
Q 3050 350 2425 -50 
Q 1800 -450 775 -700 
Q 650 -425 475 -225 
Q 1375 -100 2012 225 
Q 2650 550 2900 1175 
L 1625 1175 
Q 1025 1175 525 1150 
L 525 1600 
Q 950 1575 1600 1575 
L 3025 1575 
Q 3075 1825 3100 2175 
L 3000 2175 
Q 3025 2675 3025 3050 
L 3025 3325 
Q 2725 2900 2237 2550 
Q 1750 2200 925 1825 
Q 850 2025 625 2275 
Q 1175 2400 1725 2737 
Q 2275 3075 2600 3475 
L 1550 3475 
Q 1050 3475 600 3425 
L 600 3900 
Q 1075 3875 1550 3875 
L 2125 3875 
z
M 4100 3450 
Q 4850 3000 5800 2350 
Q 5575 2125 5425 1925 
Q 4700 2550 3825 3075 
Q 3975 3250 4100 3450 
z
" transform="scale(0.015625)"/>
      <path id="SimHei-578b" d="M 2625 1775 
Q 2650 2325 2650 2700 
L 2650 3000 
L 1825 3000 
Q 1725 2375 1425 2000 
Q 1125 1625 775 1425 
Q 650 1650 375 1900 
Q 850 2075 1062 2362 
Q 1275 2650 1350 3000 
Q 900 3000 375 2975 
L 375 3450 
Q 925 3425 1400 3425 
Q 1425 3950 1425 4475 
Q 1075 4475 700 4450 
L 700 4900 
Q 1050 4875 1525 4875 
L 3000 4875 
Q 3275 4875 3650 4900 
L 3650 4450 
Q 3325 4475 3125 4475 
L 3125 3425 
Q 3450 3425 3825 3450 
L 3825 2975 
Q 3450 3000 3125 3000 
L 3125 2675 
Q 3125 2225 3150 1775 
L 2625 1775 
z
M 3000 1175 
Q 3000 1375 2975 1725 
L 3500 1725 
Q 3475 1375 3475 1175 
L 4550 1175 
Q 5050 1175 5450 1200 
L 5450 725 
Q 4975 750 4550 750 
L 3475 750 
L 3475 -50 
L 5275 -50 
Q 5700 -50 6100 -25 
L 6100 -500 
Q 5725 -475 5300 -475 
L 1250 -475 
Q 775 -475 400 -500 
L 400 -25 
Q 775 -50 1250 -50 
L 3000 -50 
L 3000 750 
L 2025 750 
Q 1500 750 975 725 
L 1050 1200 
Q 1500 1175 2025 1175 
L 3000 1175 
z
M 5775 5200 
Q 5750 4775 5750 4325 
L 5750 2400 
Q 5775 1950 5612 1775 
Q 5450 1600 4900 1525 
Q 4825 1775 4675 2100 
Q 5175 2075 5237 2150 
Q 5300 2225 5300 2525 
L 5300 4325 
Q 5300 4775 5275 5200 
L 5775 5200 
z
M 4600 4750 
Q 4575 4450 4575 3975 
L 4575 3200 
Q 4575 2825 4600 2425 
L 4100 2425 
Q 4125 2825 4125 3200 
L 4125 3975 
Q 4125 4450 4100 4750 
L 4600 4750 
z
M 2650 3425 
L 2650 4475 
L 1875 4475 
Q 1850 3750 1850 3425 
L 2650 3425 
z
" transform="scale(0.015625)"/>
      <path id="SimHei-7684" d="M 2100 4975 
Q 1975 4750 1750 3950 
L 2875 3950 
Q 2850 3525 2850 2875 
L 2850 675 
Q 2850 300 2875 -400 
L 2375 -400 
L 2375 100 
L 1100 100 
L 1100 -450 
L 600 -450 
Q 625 350 625 550 
L 625 2850 
Q 625 3525 600 3950 
L 1325 3950 
Q 1450 4525 1525 5150 
Q 1875 5025 2100 4975 
z
M 5825 3075 
Q 5800 1550 5700 175 
Q 5650 -275 5225 -425 
Q 4800 -575 4275 -625 
Q 4250 -350 4050 -50 
Q 4550 -75 4837 -25 
Q 5125 25 5200 200 
Q 5275 375 5312 1225 
Q 5350 2075 5375 3600 
L 3925 3600 
Q 3725 3125 3350 2475 
Q 3175 2650 2925 2750 
Q 3150 3050 3350 3475 
Q 3550 3900 3700 4400 
Q 3850 4900 3875 5175 
Q 4225 5025 4475 4950 
Q 4350 4750 4262 4512 
Q 4175 4275 4075 4050 
L 5850 4050 
Q 5825 3525 5825 3075 
z
M 2375 525 
L 2375 1850 
L 1100 1850 
L 1100 525 
L 2375 525 
z
M 2375 2275 
L 2375 3525 
L 1100 3525 
L 1100 2275 
L 2375 2275 
z
M 4350 2050 
Q 4500 1750 4700 1275 
Q 4525 1200 4225 1025 
Q 4050 1500 3900 1837 
Q 3750 2175 3600 2400 
Q 3775 2500 4050 2650 
L 4350 2050 
z
" transform="scale(0.015625)"/>
      <path id="SimHei-7cbe" d="M 5600 2300 
Q 5575 1825 5575 1400 
L 5575 -100 
Q 5575 -475 5337 -550 
Q 5100 -625 4775 -675 
Q 4700 -375 4550 -175 
Q 4900 -175 5012 -137 
Q 5125 -100 5125 75 
L 5125 325 
L 3425 325 
L 3425 -625 
L 2975 -625 
Q 3000 75 3000 925 
Q 3000 1775 2975 2300 
L 5600 2300 
z
M 1275 4450 
Q 1275 4875 1250 5125 
L 1750 5125 
Q 1725 4675 1725 4425 
L 1725 3175 
Q 2125 3175 2450 3200 
L 2450 2750 
Q 2125 2775 1725 2775 
L 1725 325 
Q 1725 -75 1750 -650 
L 1250 -650 
Q 1275 -75 1275 325 
L 1275 1925 
Q 1050 1350 575 675 
Q 400 825 200 1000 
Q 450 1275 712 1737 
Q 975 2200 1150 2775 
Q 700 2775 350 2750 
L 350 3200 
Q 700 3175 1275 3175 
L 1275 4450 
z
M 4050 4550 
Q 4050 4850 4025 5125 
L 4525 5125 
Q 4500 4800 4500 4550 
L 5050 4550 
Q 5475 4550 5800 4575 
L 5800 4175 
Q 5450 4200 5050 4200 
L 4500 4200 
L 4500 3725 
L 4850 3725 
Q 5250 3725 5625 3750 
L 5625 3350 
Q 5250 3375 4825 3375 
L 4500 3375 
L 4500 2950 
L 5100 2950 
Q 5550 2950 6075 2975 
L 6075 2575 
Q 5575 2600 5100 2600 
L 3600 2600 
Q 3200 2600 2625 2575 
L 2625 2975 
Q 3150 2950 3575 2950 
L 4050 2950 
L 4050 3375 
L 3675 3375 
Q 3300 3375 2975 3350 
L 2975 3750 
Q 3325 3725 3575 3725 
L 4050 3725 
L 4050 4200 
L 3650 4200 
Q 3250 4200 2800 4175 
L 2800 4575 
Q 3250 4550 3650 4550 
L 4050 4550 
z
M 5125 675 
L 5125 1175 
L 3425 1175 
L 3425 675 
L 5125 675 
z
M 5125 1525 
L 5125 1950 
L 3425 1950 
L 3425 1525 
L 5125 1525 
z
M 2650 4375 
Q 2300 3650 2175 3375 
Q 1975 3475 1775 3525 
Q 2025 4050 2200 4550 
Q 2475 4450 2650 4375 
z
M 2125 2350 
Q 2475 1900 2775 1475 
Q 2600 1350 2400 1200 
Q 2125 1700 1775 2075 
Q 1975 2200 2125 2350 
z
M 650 4525 
Q 900 4150 1175 3625 
Q 1025 3550 800 3400 
Q 600 3800 275 4300 
Q 500 4425 650 4525 
z
" transform="scale(0.015625)"/>
      <path id="SimHei-786e" d="M 4975 -200 
Q 5250 -175 5362 -125 
Q 5475 -75 5475 125 
L 5475 975 
L 4625 975 
L 4625 -400 
L 4200 -400 
L 4200 975 
L 3500 975 
Q 3475 625 3325 237 
Q 3175 -150 2800 -600 
Q 2625 -350 2325 -325 
Q 2650 -50 2812 262 
Q 2975 575 3025 1000 
Q 3075 1425 3087 2187 
Q 3100 2950 3075 3425 
L 4250 3425 
Q 4475 3825 4650 4225 
L 3625 4225 
Q 3325 3875 2850 3250 
Q 2650 3425 2425 3500 
Q 2875 3975 3175 4425 
Q 3475 4875 3625 5300 
Q 3900 5175 4200 5100 
Q 4075 5025 3825 4575 
L 5350 4575 
Q 4900 3775 4750 3425 
L 5950 3425 
Q 5925 2975 5925 2450 
L 5925 -50 
Q 5950 -350 5775 -462 
Q 5600 -575 5175 -675 
Q 5150 -425 4975 -200 
z
M 200 1975 
Q 550 2300 850 2837 
Q 1150 3375 1300 4225 
Q 825 4225 525 4200 
L 525 4650 
Q 875 4625 1200 4625 
L 1900 4625 
Q 2325 4625 2625 4650 
L 2625 4200 
Q 2325 4225 1800 4225 
Q 1650 3525 1400 2925 
L 2525 2925 
Q 2500 2500 2500 2125 
L 2500 1075 
Q 2500 650 2525 125 
L 2075 125 
L 2075 600 
L 1350 600 
L 1350 -300 
L 900 -300 
Q 925 225 925 600 
L 925 2100 
Q 800 1900 625 1625 
Q 475 1825 200 1975 
z
M 2075 975 
L 2075 2575 
L 1350 2575 
L 1350 975 
L 2075 975 
z
M 5475 2350 
L 5475 3075 
L 4625 3075 
L 4625 2350 
L 5475 2350 
z
M 5475 1325 
L 5475 2000 
L 4625 2000 
L 4625 1325 
L 5475 1325 
z
M 4200 2350 
L 4200 3075 
L 3500 3075 
L 3500 2350 
L 4200 2350 
z
M 4200 1325 
L 4200 2000 
L 3500 2000 
L 3500 1325 
L 4200 1325 
z
" transform="scale(0.015625)"/>
      <path id="SimHei-7387" d="M 3325 5150 
Q 3425 4900 3550 4525 
L 4800 4525 
Q 5250 4525 5800 4550 
L 5800 4125 
Q 5250 4175 4775 4175 
L 2800 4175 
Q 2975 4050 3300 3900 
Q 3075 3750 2875 3537 
Q 2675 3325 2475 3125 
L 3275 3125 
Q 3575 3425 3775 3775 
Q 4000 3600 4275 3425 
Q 3950 3250 3600 2875 
Q 3250 2500 2625 2000 
L 3850 2100 
Q 3725 2250 3600 2425 
Q 3750 2475 4000 2650 
Q 4250 2350 4700 1700 
Q 4475 1625 4225 1450 
Q 4175 1600 4025 1775 
Q 3700 1750 3425 1750 
L 3425 1050 
L 5150 1050 
Q 5675 1050 6100 1075 
L 6100 650 
Q 5700 675 5125 675 
L 3425 675 
L 3425 175 
Q 3425 -300 3450 -625 
L 2900 -625 
Q 2925 -300 2925 175 
L 2925 675 
L 1325 675 
Q 825 675 325 650 
L 325 1075 
Q 825 1050 1350 1050 
L 2925 1050 
L 2925 1700 
Q 2700 1675 2475 1637 
Q 2250 1600 2025 1525 
Q 1950 1775 1850 2000 
Q 2075 2025 2325 2200 
Q 2575 2375 2975 2800 
Q 2300 2725 2025 2625 
Q 1975 2875 1850 3175 
Q 2075 3175 2325 3487 
Q 2575 3800 2750 4175 
L 1700 4175 
Q 1150 4175 650 4125 
L 650 4550 
Q 1150 4525 1550 4525 
L 2975 4525 
Q 2900 4825 2800 5025 
Q 3025 5075 3325 5150 
z
M 1625 2575 
Q 1725 2400 1825 2200 
Q 1575 2050 1325 1862 
Q 1075 1675 800 1425 
Q 625 1675 475 1875 
Q 800 2025 1100 2212 
Q 1400 2400 1625 2575 
z
M 4850 2650 
Q 5125 2475 5337 2337 
Q 5550 2200 5875 1950 
Q 5675 1800 5500 1600 
Q 5300 1775 5062 1975 
Q 4825 2175 4575 2325 
Q 4725 2475 4850 2650 
z
M 5725 3525 
Q 5550 3450 5300 3262 
Q 5050 3075 4800 2825 
Q 4625 3050 4475 3175 
Q 4700 3325 4875 3487 
Q 5050 3650 5300 3925 
Q 5525 3700 5725 3525 
z
M 1050 3850 
Q 1425 3600 1775 3275 
Q 1575 3100 1425 2925 
Q 1075 3300 675 3525 
Q 875 3700 1050 3850 
z
" transform="scale(0.015625)"/>
      <path id="SimHei-548c" d="M 5875 4200 
Q 5850 3700 5850 3275 
L 5850 700 
Q 5850 250 5875 -25 
L 5375 -25 
L 5375 575 
L 4175 575 
L 4175 -75 
L 3700 -75 
Q 3725 500 3725 625 
L 3725 3275 
Q 3725 3700 3700 4200 
L 5875 4200 
z
M 3275 4450 
Q 3050 4450 2250 4325 
L 2250 3200 
L 2625 3200 
Q 3000 3200 3425 3225 
L 3425 2775 
Q 3000 2800 2650 2800 
L 2250 2800 
L 2250 225 
Q 2250 -200 2275 -550 
L 1775 -550 
Q 1800 -150 1800 225 
L 1800 1850 
Q 1425 1150 675 250 
Q 550 425 275 600 
Q 825 1125 1237 1812 
Q 1650 2500 1700 2800 
L 1250 2800 
Q 700 2800 450 2775 
L 450 3225 
Q 725 3200 1250 3200 
L 1800 3200 
L 1800 4250 
Q 1475 4200 775 4125 
Q 725 4375 625 4575 
Q 1100 4600 1825 4700 
Q 2550 4800 3050 5000 
Q 3100 4725 3275 4450 
z
M 5375 975 
L 5375 3775 
L 4175 3775 
L 4175 975 
L 5375 975 
z
M 3075 1000 
Q 2750 1625 2325 2100 
Q 2475 2200 2700 2400 
Q 3175 1875 3500 1325 
Q 3250 1175 3075 1000 
z
" transform="scale(0.015625)"/>
      <path id="SimHei-53ec" d="M 5350 2000 
Q 5325 1600 5325 1250 
L 5325 300 
Q 5325 -125 5350 -575 
L 4825 -575 
L 4825 -100 
L 1850 -100 
L 1850 -575 
L 1300 -550 
Q 1325 -300 1325 100 
L 1325 1250 
Q 1325 1625 1300 2000 
L 5350 2000 
z
M 325 2375 
Q 800 2475 1237 2687 
Q 1675 2900 2000 3250 
Q 2325 3600 2475 4400 
L 1750 4400 
Q 1250 4400 800 4375 
L 800 4850 
Q 1375 4825 1725 4825 
L 5475 4825 
Q 5425 4550 5400 4100 
L 5275 3175 
Q 5175 2600 4887 2500 
Q 4600 2400 4050 2350 
Q 4025 2550 3875 2925 
Q 4375 2875 4562 2962 
Q 4750 3050 4775 3275 
L 4900 4400 
L 3025 4400 
Q 2900 3775 2712 3412 
Q 2525 3050 2287 2800 
Q 2050 2550 1625 2337 
Q 1200 2125 650 1925 
Q 525 2175 325 2375 
z
M 4825 325 
L 4825 1550 
L 1850 1550 
L 1850 325 
L 4825 325 
z
" transform="scale(0.015625)"/>
      <path id="SimHei-56de" d="M 5650 4850 
Q 5625 4125 5625 3450 
L 5625 950 
Q 5625 300 5650 -375 
L 5150 -375 
L 5150 100 
L 1175 100 
L 1175 -375 
L 700 -375 
Q 725 250 725 950 
L 725 3450 
Q 725 4100 700 4850 
L 5650 4850 
z
M 5150 500 
L 5150 4425 
L 1200 4425 
L 1200 500 
L 5150 500 
z
M 4325 3500 
Q 4300 3125 4300 2750 
L 4300 2175 
Q 4300 1850 4325 1400 
L 2025 1400 
Q 2050 1850 2050 2175 
L 2050 2800 
Q 2050 3150 2025 3500 
L 4325 3500 
z
M 3825 1825 
L 3825 3100 
L 2500 3100 
L 2500 1825 
L 3825 1825 
z
" transform="scale(0.015625)"/>
     </defs>
     <use xlink:href="#SimHei-5404"/>
     <use xlink:href="#SimHei-6545" x="100"/>
     <use xlink:href="#SimHei-969c" x="200"/>
     <use xlink:href="#SimHei-7c7b" x="300"/>
     <use xlink:href="#SimHei-578b" x="400"/>
     <use xlink:href="#SimHei-7684" x="500"/>
     <use xlink:href="#SimHei-7cbe" x="600"/>
     <use xlink:href="#SimHei-786e" x="700"/>
     <use xlink:href="#SimHei-7387" x="800"/>
     <use xlink:href="#SimHei-548c" x="900"/>
     <use xlink:href="#SimHei-53ec" x="1000"/>
     <use xlink:href="#SimHei-56de" x="1100"/>
     <use xlink:href="#SimHei-7387" x="1200"/>
    </g>
   </g>
   <g id="legend_1">
    <g id="patch_15">
     <path d="M 780.424062 59.309375 
L 842.424062 59.309375 
Q 844.424062 59.309375 844.424062 57.309375 
L 844.424062 29.95 
Q 844.424062 27.95 842.424062 27.95 
L 780.424062 27.95 
Q 778.424062 27.95 778.424062 29.95 
L 778.424062 57.309375 
Q 778.424062 59.309375 780.424062 59.309375 
z
" style="fill: #ffffff; opacity: 0.8; stroke: #cccccc; stroke-linejoin: miter"/>
    </g>
    <g id="patch_16">
     <path d="M 782.424062 40.035937 
L 802.424062 40.035937 
L 802.424062 33.035937 
L 782.424062 33.035937 
z
" style="fill: #1f77b4"/>
    </g>
    <g id="text_13">
     <!-- 精确率 -->
     <g transform="translate(810.424062 40.035937) scale(0.1 -0.1)">
      <use xlink:href="#SimHei-7cbe"/>
      <use xlink:href="#SimHei-786e" x="100"/>
      <use xlink:href="#SimHei-7387" x="200"/>
     </g>
    </g>
    <g id="patch_17">
     <path d="M 782.424062 54.059375 
L 802.424062 54.059375 
L 802.424062 47.059375 
L 782.424062 47.059375 
z
" style="fill: #ff7f0e"/>
    </g>
    <g id="text_14">
     <!-- 召回率 -->
     <g transform="translate(810.424062 54.059375) scale(0.1 -0.1)">
      <use xlink:href="#SimHei-53ec"/>
      <use xlink:href="#SimHei-56de" x="100"/>
      <use xlink:href="#SimHei-7387" x="200"/>
     </g>
    </g>
   </g>
  </g>
 </g>
 <defs>
  <clipPath id="p60cdf8dd05">
   <rect x="42.301563" y="22.95" width="807.1225" height="359.292211"/>
  </clipPath>
 </defs>
</svg>
