<?xml version="1.0" encoding="utf-8" standalone="no"?>
<!DOCTYPE svg PUBLIC "-//W3C//DTD SVG 1.1//EN"
  "http://www.w3.org/Graphics/SVG/1.1/DTD/svg11.dtd">
<svg xmlns:xlink="http://www.w3.org/1999/xlink" width="607.501562pt" height="390.993125pt" viewBox="0 0 607.501562 390.993125" xmlns="http://www.w3.org/2000/svg" version="1.1">
 <metadata>
  <rdf:RDF xmlns:dc="http://purl.org/dc/elements/1.1/" xmlns:cc="http://creativecommons.org/ns#" xmlns:rdf="http://www.w3.org/1999/02/22-rdf-syntax-ns#">
   <cc:Work>
    <dc:type rdf:resource="http://purl.org/dc/dcmitype/StillImage"/>
    <dc:date>2025-03-07T00:30:48.383924</dc:date>
    <dc:format>image/svg+xml</dc:format>
    <dc:creator>
     <cc:Agent>
      <dc:title>Matplotlib v3.9.2, https://matplotlib.org/</dc:title>
     </cc:Agent>
    </dc:creator>
   </cc:Work>
  </rdf:RDF>
 </metadata>
 <defs>
  <style type="text/css">*{stroke-linejoin: round; stroke-linecap: butt}</style>
 </defs>
 <g id="figure_1">
  <g id="patch_1">
   <path d="M 0 390.993125 
L 607.501562 390.993125 
L 607.501562 0 
L 0 0 
z
" style="fill: #ffffff"/>
  </g>
  <g id="axes_1">
   <g id="patch_2">
    <path d="M 42.301563 355.449375 
L 600.301563 355.449375 
L 600.301563 22.809375 
L 42.301563 22.809375 
z
" style="fill: #ffffff"/>
   </g>
   <g id="matplotlib.axis_1">
    <g id="xtick_1">
     <g id="line2d_1">
      <path d="M 67.618836 355.449375 
L 67.618836 22.809375 
" clip-path="url(#p89525980f5)" style="fill: none; stroke: #b0b0b0; stroke-width: 0.8; stroke-linecap: square"/>
     </g>
     <g id="line2d_2">
      <defs>
       <path id="m8a4a263277" d="M 0 0 
L 0 3.5 
" style="stroke: #000000; stroke-width: 0.8"/>
      </defs>
      <g>
       <use xlink:href="#m8a4a263277" x="67.618836" y="355.449375" style="stroke: #000000; stroke-width: 0.8"/>
      </g>
     </g>
     <g id="text_1">
      <!-- 0.0 -->
      <g transform="translate(60.118836 369.324375) scale(0.1 -0.1)">
       <defs>
        <path id="SimHei-30" d="M 225 2537 
Q 250 3200 412 3587 
Q 575 3975 875 4225 
Q 1175 4475 1612 4475 
Q 2050 4475 2375 4112 
Q 2700 3750 2800 3200 
Q 2900 2650 2862 1937 
Q 2825 1225 2612 775 
Q 2400 325 1975 150 
Q 1550 -25 1125 187 
Q 700 400 525 750 
Q 350 1100 275 1487 
Q 200 1875 225 2537 
z
M 750 2687 
Q 675 2000 800 1462 
Q 925 925 1212 700 
Q 1500 475 1800 612 
Q 2100 750 2237 1162 
Q 2375 1575 2375 2062 
Q 2375 2550 2337 2950 
Q 2300 3350 2112 3675 
Q 1925 4000 1612 4012 
Q 1300 4025 1062 3700 
Q 825 3375 750 2687 
z
" transform="scale(0.015625)"/>
        <path id="SimHei-2e" d="M 1075 125 
L 500 125 
L 500 675 
L 1075 675 
L 1075 125 
z
" transform="scale(0.015625)"/>
       </defs>
       <use xlink:href="#SimHei-30"/>
       <use xlink:href="#SimHei-2e" x="50"/>
       <use xlink:href="#SimHei-30" x="100"/>
      </g>
     </g>
    </g>
    <g id="xtick_2">
     <g id="line2d_3">
      <path d="M 169.082914 355.449375 
L 169.082914 22.809375 
" clip-path="url(#p89525980f5)" style="fill: none; stroke: #b0b0b0; stroke-width: 0.8; stroke-linecap: square"/>
     </g>
     <g id="line2d_4">
      <g>
       <use xlink:href="#m8a4a263277" x="169.082914" y="355.449375" style="stroke: #000000; stroke-width: 0.8"/>
      </g>
     </g>
     <g id="text_2">
      <!-- 0.2 -->
      <g transform="translate(161.582914 369.324375) scale(0.1 -0.1)">
       <defs>
        <path id="SimHei-32" d="M 300 250 
Q 325 625 650 925 
Q 975 1225 1475 1862 
Q 1975 2500 2125 2850 
Q 2275 3200 2237 3450 
Q 2200 3700 2000 3862 
Q 1800 4025 1537 4000 
Q 1275 3975 1037 3800 
Q 800 3625 675 3275 
L 200 3350 
Q 400 3925 712 4187 
Q 1025 4450 1450 4475 
Q 1700 4500 1900 4462 
Q 2100 4425 2312 4287 
Q 2525 4150 2662 3875 
Q 2800 3600 2762 3212 
Q 2725 2825 2375 2287 
Q 2025 1750 1025 600 
L 2825 600 
L 2825 150 
L 300 150 
L 300 250 
z
" transform="scale(0.015625)"/>
       </defs>
       <use xlink:href="#SimHei-30"/>
       <use xlink:href="#SimHei-2e" x="50"/>
       <use xlink:href="#SimHei-32" x="100"/>
      </g>
     </g>
    </g>
    <g id="xtick_3">
     <g id="line2d_5">
      <path d="M 270.546992 355.449375 
L 270.546992 22.809375 
" clip-path="url(#p89525980f5)" style="fill: none; stroke: #b0b0b0; stroke-width: 0.8; stroke-linecap: square"/>
     </g>
     <g id="line2d_6">
      <g>
       <use xlink:href="#m8a4a263277" x="270.546992" y="355.449375" style="stroke: #000000; stroke-width: 0.8"/>
      </g>
     </g>
     <g id="text_3">
      <!-- 0.4 -->
      <g transform="translate(263.046992 369.324375) scale(0.1 -0.1)">
       <defs>
        <path id="SimHei-34" d="M 2000 1100 
L 75 1100 
L 75 1525 
L 2100 4450 
L 2475 4450 
L 2475 1525 
L 3075 1525 
L 3075 1100 
L 2475 1100 
L 2475 150 
L 2000 150 
L 2000 1100 
z
M 2000 1525 
L 2000 3500 
L 600 1525 
L 2000 1525 
z
" transform="scale(0.015625)"/>
       </defs>
       <use xlink:href="#SimHei-30"/>
       <use xlink:href="#SimHei-2e" x="50"/>
       <use xlink:href="#SimHei-34" x="100"/>
      </g>
     </g>
    </g>
    <g id="xtick_4">
     <g id="line2d_7">
      <path d="M 372.01107 355.449375 
L 372.01107 22.809375 
" clip-path="url(#p89525980f5)" style="fill: none; stroke: #b0b0b0; stroke-width: 0.8; stroke-linecap: square"/>
     </g>
     <g id="line2d_8">
      <g>
       <use xlink:href="#m8a4a263277" x="372.01107" y="355.449375" style="stroke: #000000; stroke-width: 0.8"/>
      </g>
     </g>
     <g id="text_4">
      <!-- 0.6 -->
      <g transform="translate(364.51107 369.324375) scale(0.1 -0.1)">
       <defs>
        <path id="SimHei-36" d="M 250 1612 
Q 275 1975 387 2225 
Q 500 2475 725 2850 
L 1750 4450 
L 2325 4450 
L 1275 2800 
Q 1950 2975 2350 2750 
Q 2750 2525 2887 2237 
Q 3025 1950 3037 1612 
Q 3050 1275 2937 950 
Q 2825 625 2537 362 
Q 2250 100 1737 75 
Q 1225 50 862 262 
Q 500 475 362 862 
Q 225 1250 250 1612 
z
M 1025 787 
Q 1250 550 1625 525 
Q 2000 500 2250 775 
Q 2500 1050 2500 1575 
Q 2500 2100 2187 2300 
Q 1875 2500 1487 2450 
Q 1100 2400 925 2075 
Q 750 1750 775 1387 
Q 800 1025 1025 787 
z
" transform="scale(0.015625)"/>
       </defs>
       <use xlink:href="#SimHei-30"/>
       <use xlink:href="#SimHei-2e" x="50"/>
       <use xlink:href="#SimHei-36" x="100"/>
      </g>
     </g>
    </g>
    <g id="xtick_5">
     <g id="line2d_9">
      <path d="M 473.475148 355.449375 
L 473.475148 22.809375 
" clip-path="url(#p89525980f5)" style="fill: none; stroke: #b0b0b0; stroke-width: 0.8; stroke-linecap: square"/>
     </g>
     <g id="line2d_10">
      <g>
       <use xlink:href="#m8a4a263277" x="473.475148" y="355.449375" style="stroke: #000000; stroke-width: 0.8"/>
      </g>
     </g>
     <g id="text_5">
      <!-- 0.8 -->
      <g transform="translate(465.975148 369.324375) scale(0.1 -0.1)">
       <defs>
        <path id="SimHei-38" d="M 175 1375 
Q 175 1675 325 1962 
Q 475 2250 825 2425 
Q 525 2600 425 2812 
Q 325 3025 312 3300 
Q 300 3575 387 3775 
Q 475 3975 650 4150 
Q 825 4325 1037 4387 
Q 1250 4450 1500 4450 
Q 1750 4450 1950 4400 
Q 2150 4350 2375 4187 
Q 2600 4025 2700 3725 
Q 2800 3425 2687 3025 
Q 2575 2625 2100 2400 
Q 2525 2275 2700 2012 
Q 2875 1750 2875 1375 
Q 2875 1000 2762 775 
Q 2650 550 2512 400 
Q 2375 250 2137 162 
Q 1900 75 1537 75 
Q 1175 75 912 162 
Q 650 250 475 425 
Q 300 600 237 837 
Q 175 1075 175 1375 
z
M 687 1400 
Q 675 1100 787 875 
Q 900 650 1200 587 
Q 1500 525 1825 600 
Q 2150 675 2275 950 
Q 2400 1225 2362 1500 
Q 2325 1775 2050 1962 
Q 1775 2150 1450 2125 
Q 1125 2100 912 1900 
Q 700 1700 687 1400 
z
M 775 3350 
Q 775 3100 950 2875 
Q 1125 2650 1500 2650 
Q 1875 2650 2062 2875 
Q 2250 3100 2237 3412 
Q 2225 3725 2012 3875 
Q 1800 4025 1437 4000 
Q 1075 3975 925 3787 
Q 775 3600 775 3350 
z
" transform="scale(0.015625)"/>
       </defs>
       <use xlink:href="#SimHei-30"/>
       <use xlink:href="#SimHei-2e" x="50"/>
       <use xlink:href="#SimHei-38" x="100"/>
      </g>
     </g>
    </g>
    <g id="xtick_6">
     <g id="line2d_11">
      <path d="M 574.939226 355.449375 
L 574.939226 22.809375 
" clip-path="url(#p89525980f5)" style="fill: none; stroke: #b0b0b0; stroke-width: 0.8; stroke-linecap: square"/>
     </g>
     <g id="line2d_12">
      <g>
       <use xlink:href="#m8a4a263277" x="574.939226" y="355.449375" style="stroke: #000000; stroke-width: 0.8"/>
      </g>
     </g>
     <g id="text_6">
      <!-- 1.0 -->
      <g transform="translate(567.439226 369.324375) scale(0.1 -0.1)">
       <defs>
        <path id="SimHei-31" d="M 1400 3600 
Q 1075 3275 575 2975 
L 575 3450 
Q 1200 3875 1600 4450 
L 1900 4450 
L 1900 150 
L 1400 150 
L 1400 3600 
z
" transform="scale(0.015625)"/>
       </defs>
       <use xlink:href="#SimHei-31"/>
       <use xlink:href="#SimHei-2e" x="50"/>
       <use xlink:href="#SimHei-30" x="100"/>
      </g>
     </g>
    </g>
    <g id="text_7">
     <!-- 阈值 -->
     <g transform="translate(311.301562 382.543125) scale(0.1 -0.1)">
      <defs>
       <path id="SimHei-9608" d="M 5225 825 
Q 4925 75 4612 150 
Q 4300 225 3975 800 
Q 3850 600 3687 362 
Q 3525 125 3325 -100 
Q 3150 50 2875 175 
Q 3150 425 3337 687 
Q 3525 950 3700 1250 
Q 3525 1750 3437 2087 
Q 3350 2425 3300 3175 
L 1900 3175 
Q 1675 3175 1350 3150 
L 1350 3550 
Q 1675 3525 1900 3525 
L 3300 3525 
Q 3250 4025 3225 4300 
Q 3425 4275 3775 4275 
Q 3750 3850 3750 3525 
L 4425 3525 
Q 4675 3525 5075 3550 
L 5075 3150 
Q 4675 3175 4425 3175 
L 3750 3175 
Q 3750 2900 3812 2475 
Q 3875 2050 4000 1775 
Q 4075 1975 4137 2237 
Q 4200 2500 4250 2925 
Q 4675 2800 4850 2725 
Q 4700 2550 4562 2112 
Q 4425 1675 4225 1200 
Q 4350 950 4537 787 
Q 4725 625 4850 1100 
Q 5075 925 5225 825 
z
M 5900 4875 
Q 5875 4400 5875 3825 
L 5875 100 
Q 5875 -400 5550 -475 
Q 5225 -550 4850 -625 
Q 4750 -350 4575 -50 
Q 5150 -75 5300 -50 
Q 5450 -25 5450 300 
L 5450 4500 
L 3600 4500 
Q 3050 4500 2400 4475 
L 2400 4900 
Q 3050 4875 3550 4875 
L 5900 4875 
z
M 3050 2725 
Q 2975 2450 2975 2200 
L 2975 1300 
L 1450 1300 
Q 1475 1550 1475 1725 
L 1475 2200 
Q 1475 2425 1450 2725 
L 3050 2725 
z
M 1075 3850 
Q 1050 3475 1050 3100 
L 1050 -575 
L 550 -575 
Q 600 100 600 625 
L 600 2975 
Q 600 3500 550 3850 
L 1075 3850 
z
M 3100 1050 
Q 3075 775 3100 650 
Q 2775 575 2200 450 
Q 1625 325 1325 200 
Q 1200 475 1125 725 
Q 1425 750 1987 850 
Q 2550 950 3100 1050 
z
M 1375 5275 
Q 1650 4900 1975 4375 
Q 1725 4225 1475 4100 
Q 1200 4625 900 5000 
Q 1150 5200 1375 5275 
z
M 2550 1675 
L 2550 2350 
L 1900 2350 
L 1900 1675 
L 2550 1675 
z
M 4500 4400 
Q 4625 4150 4800 3875 
Q 4625 3800 4350 3650 
Q 4225 3925 4075 4175 
Q 4325 4350 4500 4400 
z
" transform="scale(0.015625)"/>
       <path id="SimHei-503c" d="M 3675 4450 
L 3675 5100 
Q 3975 5075 4350 5050 
Q 4225 4875 4200 4450 
L 5125 4450 
Q 5550 4450 5875 4475 
L 5875 4025 
Q 5525 4050 5125 4050 
L 4175 4050 
L 4125 3500 
L 5400 3500 
Q 5375 3200 5375 2700 
L 5375 150 
Q 5875 150 6100 175 
L 6100 -275 
Q 5775 -250 5200 -250 
L 2850 -250 
Q 2275 -250 1900 -275 
L 1900 175 
Q 2125 150 2600 150 
L 2600 2700 
Q 2600 3175 2575 3500 
L 3600 3500 
L 3650 4050 
L 3200 4050 
Q 2575 4050 2225 4025 
L 2225 4475 
Q 2550 4450 3200 4450 
L 3675 4450 
z
M 2225 4900 
Q 2025 4675 1650 3750 
L 1650 450 
Q 1650 -75 1675 -550 
L 1150 -550 
Q 1175 -125 1175 375 
L 1175 2950 
Q 875 2450 625 2150 
Q 425 2425 250 2575 
Q 500 2825 937 3537 
Q 1375 4250 1625 5150 
Q 1975 4975 2225 4900 
z
M 4925 2650 
L 4925 3150 
L 3075 3150 
L 3075 2650 
L 4925 2650 
z
M 4925 150 
L 4925 625 
L 3075 625 
L 3075 150 
L 4925 150 
z
M 4925 1000 
L 4925 1450 
L 3075 1450 
L 3075 1000 
L 4925 1000 
z
M 4925 1825 
L 4925 2275 
L 3075 2275 
L 3075 1825 
L 4925 1825 
z
" transform="scale(0.015625)"/>
      </defs>
      <use xlink:href="#SimHei-9608"/>
      <use xlink:href="#SimHei-503c" x="100"/>
     </g>
    </g>
   </g>
   <g id="matplotlib.axis_2">
    <g id="ytick_1">
     <g id="line2d_13">
      <path d="M 42.301563 347.926772 
L 600.301563 347.926772 
" clip-path="url(#p89525980f5)" style="fill: none; stroke: #b0b0b0; stroke-width: 0.8; stroke-linecap: square"/>
     </g>
     <g id="line2d_14">
      <defs>
       <path id="me90ae4a6eb" d="M 0 0 
L -3.5 0 
" style="stroke: #000000; stroke-width: 0.8"/>
      </defs>
      <g>
       <use xlink:href="#me90ae4a6eb" x="42.301563" y="347.926772" style="stroke: #000000; stroke-width: 0.8"/>
      </g>
     </g>
     <g id="text_8">
      <!-- 0.0 -->
      <g transform="translate(20.301563 351.364272) scale(0.1 -0.1)">
       <use xlink:href="#SimHei-30"/>
       <use xlink:href="#SimHei-2e" x="50"/>
       <use xlink:href="#SimHei-30" x="100"/>
      </g>
     </g>
    </g>
    <g id="ytick_2">
     <g id="line2d_15">
      <path d="M 42.301563 308.04044 
L 600.301563 308.04044 
" clip-path="url(#p89525980f5)" style="fill: none; stroke: #b0b0b0; stroke-width: 0.8; stroke-linecap: square"/>
     </g>
     <g id="line2d_16">
      <g>
       <use xlink:href="#me90ae4a6eb" x="42.301563" y="308.04044" style="stroke: #000000; stroke-width: 0.8"/>
      </g>
     </g>
     <g id="text_9">
      <!-- 0.1 -->
      <g transform="translate(20.301563 311.47794) scale(0.1 -0.1)">
       <use xlink:href="#SimHei-30"/>
       <use xlink:href="#SimHei-2e" x="50"/>
       <use xlink:href="#SimHei-31" x="100"/>
      </g>
     </g>
    </g>
    <g id="ytick_3">
     <g id="line2d_17">
      <path d="M 42.301563 268.154108 
L 600.301563 268.154108 
" clip-path="url(#p89525980f5)" style="fill: none; stroke: #b0b0b0; stroke-width: 0.8; stroke-linecap: square"/>
     </g>
     <g id="line2d_18">
      <g>
       <use xlink:href="#me90ae4a6eb" x="42.301563" y="268.154108" style="stroke: #000000; stroke-width: 0.8"/>
      </g>
     </g>
     <g id="text_10">
      <!-- 0.2 -->
      <g transform="translate(20.301563 271.591608) scale(0.1 -0.1)">
       <use xlink:href="#SimHei-30"/>
       <use xlink:href="#SimHei-2e" x="50"/>
       <use xlink:href="#SimHei-32" x="100"/>
      </g>
     </g>
    </g>
    <g id="ytick_4">
     <g id="line2d_19">
      <path d="M 42.301563 228.267776 
L 600.301563 228.267776 
" clip-path="url(#p89525980f5)" style="fill: none; stroke: #b0b0b0; stroke-width: 0.8; stroke-linecap: square"/>
     </g>
     <g id="line2d_20">
      <g>
       <use xlink:href="#me90ae4a6eb" x="42.301563" y="228.267776" style="stroke: #000000; stroke-width: 0.8"/>
      </g>
     </g>
     <g id="text_11">
      <!-- 0.3 -->
      <g transform="translate(20.301563 231.705276) scale(0.1 -0.1)">
       <defs>
        <path id="SimHei-33" d="M 250 1225 
L 700 1300 
Q 800 975 1025 762 
Q 1250 550 1587 562 
Q 1925 575 2125 837 
Q 2325 1100 2300 1437 
Q 2275 1775 2037 1962 
Q 1800 2150 1275 2225 
L 1275 2550 
Q 1800 2600 2037 2825 
Q 2275 3050 2250 3412 
Q 2225 3775 1925 3937 
Q 1625 4100 1287 3975 
Q 950 3850 750 3275 
L 300 3350 
Q 450 3800 712 4100 
Q 975 4400 1425 4450 
Q 1875 4500 2212 4337 
Q 2550 4175 2687 3837 
Q 2825 3500 2725 3100 
Q 2625 2700 2150 2400 
Q 2500 2250 2687 1950 
Q 2875 1650 2812 1162 
Q 2750 675 2375 375 
Q 2000 75 1525 87 
Q 1050 100 700 387 
Q 350 675 250 1225 
z
" transform="scale(0.015625)"/>
       </defs>
       <use xlink:href="#SimHei-30"/>
       <use xlink:href="#SimHei-2e" x="50"/>
       <use xlink:href="#SimHei-33" x="100"/>
      </g>
     </g>
    </g>
    <g id="ytick_5">
     <g id="line2d_21">
      <path d="M 42.301563 188.381445 
L 600.301563 188.381445 
" clip-path="url(#p89525980f5)" style="fill: none; stroke: #b0b0b0; stroke-width: 0.8; stroke-linecap: square"/>
     </g>
     <g id="line2d_22">
      <g>
       <use xlink:href="#me90ae4a6eb" x="42.301563" y="188.381445" style="stroke: #000000; stroke-width: 0.8"/>
      </g>
     </g>
     <g id="text_12">
      <!-- 0.4 -->
      <g transform="translate(20.301563 191.818945) scale(0.1 -0.1)">
       <use xlink:href="#SimHei-30"/>
       <use xlink:href="#SimHei-2e" x="50"/>
       <use xlink:href="#SimHei-34" x="100"/>
      </g>
     </g>
    </g>
    <g id="ytick_6">
     <g id="line2d_23">
      <path d="M 42.301563 148.495113 
L 600.301563 148.495113 
" clip-path="url(#p89525980f5)" style="fill: none; stroke: #b0b0b0; stroke-width: 0.8; stroke-linecap: square"/>
     </g>
     <g id="line2d_24">
      <g>
       <use xlink:href="#me90ae4a6eb" x="42.301563" y="148.495113" style="stroke: #000000; stroke-width: 0.8"/>
      </g>
     </g>
     <g id="text_13">
      <!-- 0.5 -->
      <g transform="translate(20.301563 151.932613) scale(0.1 -0.1)">
       <defs>
        <path id="SimHei-35" d="M 550 1325 
Q 725 650 1150 575 
Q 1575 500 1837 662 
Q 2100 825 2212 1087 
Q 2325 1350 2312 1675 
Q 2300 2000 2137 2225 
Q 1975 2450 1725 2525 
Q 1475 2600 1162 2525 
Q 850 2450 650 2175 
L 225 2225 
Q 275 2375 700 4375 
L 2675 4375 
L 2675 3925 
L 1075 3925 
Q 950 3250 825 2850 
Q 1200 3025 1525 3012 
Q 1850 3000 2150 2862 
Q 2450 2725 2587 2487 
Q 2725 2250 2787 2012 
Q 2850 1775 2837 1500 
Q 2825 1225 2725 937 
Q 2625 650 2425 462 
Q 2225 275 1937 162 
Q 1650 50 1275 75 
Q 900 100 562 350 
Q 225 600 100 1200 
L 550 1325 
z
" transform="scale(0.015625)"/>
       </defs>
       <use xlink:href="#SimHei-30"/>
       <use xlink:href="#SimHei-2e" x="50"/>
       <use xlink:href="#SimHei-35" x="100"/>
      </g>
     </g>
    </g>
    <g id="ytick_7">
     <g id="line2d_25">
      <path d="M 42.301563 108.608781 
L 600.301563 108.608781 
" clip-path="url(#p89525980f5)" style="fill: none; stroke: #b0b0b0; stroke-width: 0.8; stroke-linecap: square"/>
     </g>
     <g id="line2d_26">
      <g>
       <use xlink:href="#me90ae4a6eb" x="42.301563" y="108.608781" style="stroke: #000000; stroke-width: 0.8"/>
      </g>
     </g>
     <g id="text_14">
      <!-- 0.6 -->
      <g transform="translate(20.301563 112.046281) scale(0.1 -0.1)">
       <use xlink:href="#SimHei-30"/>
       <use xlink:href="#SimHei-2e" x="50"/>
       <use xlink:href="#SimHei-36" x="100"/>
      </g>
     </g>
    </g>
    <g id="ytick_8">
     <g id="line2d_27">
      <path d="M 42.301563 68.72245 
L 600.301563 68.72245 
" clip-path="url(#p89525980f5)" style="fill: none; stroke: #b0b0b0; stroke-width: 0.8; stroke-linecap: square"/>
     </g>
     <g id="line2d_28">
      <g>
       <use xlink:href="#me90ae4a6eb" x="42.301563" y="68.72245" style="stroke: #000000; stroke-width: 0.8"/>
      </g>
     </g>
     <g id="text_15">
      <!-- 0.7 -->
      <g transform="translate(20.301563 72.15995) scale(0.1 -0.1)">
       <defs>
        <path id="SimHei-37" d="M 850 150 
Q 1300 2050 2425 3925 
L 275 3925 
L 275 4375 
L 2950 4375 
L 2950 3950 
Q 1775 2050 1400 150 
L 850 150 
z
" transform="scale(0.015625)"/>
       </defs>
       <use xlink:href="#SimHei-30"/>
       <use xlink:href="#SimHei-2e" x="50"/>
       <use xlink:href="#SimHei-37" x="100"/>
      </g>
     </g>
    </g>
    <g id="ytick_9">
     <g id="line2d_29">
      <path d="M 42.301563 28.836118 
L 600.301563 28.836118 
" clip-path="url(#p89525980f5)" style="fill: none; stroke: #b0b0b0; stroke-width: 0.8; stroke-linecap: square"/>
     </g>
     <g id="line2d_30">
      <g>
       <use xlink:href="#me90ae4a6eb" x="42.301563" y="28.836118" style="stroke: #000000; stroke-width: 0.8"/>
      </g>
     </g>
     <g id="text_16">
      <!-- 0.8 -->
      <g transform="translate(20.301563 32.273618) scale(0.1 -0.1)">
       <use xlink:href="#SimHei-30"/>
       <use xlink:href="#SimHei-2e" x="50"/>
       <use xlink:href="#SimHei-38" x="100"/>
      </g>
     </g>
    </g>
    <g id="text_17">
     <!-- F1分数 -->
     <g transform="translate(15.051563 204.129375) rotate(-90) scale(0.1 -0.1)">
      <defs>
       <path id="SimHei-46" d="M 2925 3925 
L 875 3925 
L 875 2525 
L 2425 2525 
L 2425 2050 
L 875 2050 
L 875 125 
L 300 125 
L 300 4400 
L 2925 4400 
L 2925 3925 
z
" transform="scale(0.015625)"/>
       <path id="SimHei-5206" d="M 1000 -650 
Q 825 -375 575 -225 
Q 975 -75 1300 137 
Q 1625 350 1875 662 
Q 2125 975 2250 1350 
Q 2375 1725 2425 2275 
Q 1850 2275 1500 2250 
L 1500 2775 
Q 1900 2750 2525 2750 
L 5025 2750 
Q 4975 2375 4950 2100 
L 4750 250 
Q 4700 -200 4350 -350 
Q 4000 -500 3575 -525 
Q 3550 -275 3325 50 
Q 3850 25 4037 87 
Q 4225 150 4275 525 
L 4450 2275 
L 2950 2275 
Q 2875 1625 2737 1187 
Q 2600 750 2350 425 
Q 2100 100 1750 -175 
Q 1400 -450 1000 -650 
z
M 3950 5175 
Q 4125 4650 4662 3975 
Q 5200 3300 6175 2800 
Q 5975 2625 5775 2275 
Q 5325 2600 4987 2887 
Q 4650 3175 4425 3425 
Q 4200 3675 3925 4137 
Q 3650 4600 3475 5000 
Q 3750 5075 3950 5175 
z
M 2700 4825 
Q 2475 4425 2325 4125 
Q 2175 3825 2025 3587 
Q 1875 3350 1575 2950 
Q 1275 2550 850 2125 
Q 625 2350 400 2475 
Q 900 2925 1187 3300 
Q 1475 3675 1737 4112 
Q 2000 4550 2200 5075 
Q 2400 4925 2700 4825 
z
" transform="scale(0.015625)"/>
       <path id="SimHei-6570" d="M 4525 4925 
Q 4475 4800 4400 4587 
Q 4325 4375 4175 3825 
L 5325 3825 
Q 5575 3825 5925 3850 
L 5925 3400 
Q 5650 3425 5500 3425 
Q 5500 3025 5362 2162 
Q 5225 1300 4875 675 
Q 5125 375 5437 137 
Q 5750 -100 6025 -200 
Q 5725 -425 5625 -625 
Q 5325 -450 5075 -225 
Q 4825 0 4575 325 
Q 4300 25 3987 -187 
Q 3675 -400 3200 -650 
Q 3075 -425 2850 -300 
Q 3225 -150 3650 125 
Q 4075 400 4300 675 
Q 4125 1025 3962 1425 
Q 3800 1825 3675 2475 
Q 3600 2275 3425 1950 
Q 3250 2050 3000 2150 
Q 3400 2850 3650 3675 
Q 3900 4500 3975 5100 
Q 4275 4975 4525 4925 
z
M 2100 2250 
Q 2000 2150 1875 1925 
L 3250 1925 
Q 3100 1300 2725 675 
Q 3125 525 3350 400 
Q 3225 225 3125 25 
Q 2900 175 2450 325 
Q 1950 -225 725 -650 
Q 600 -375 400 -275 
Q 1575 0 2000 475 
Q 1300 650 850 775 
Q 1000 1000 1250 1525 
Q 1000 1525 425 1500 
L 425 1950 
Q 900 1925 1400 1925 
Q 1500 2150 1550 2425 
Q 1825 2325 2100 2250 
z
M 1775 3950 
Q 1775 4550 1750 5100 
L 2250 5100 
Q 2225 4575 2225 3950 
Q 3075 3950 3425 3975 
L 3425 3525 
Q 3075 3550 2225 3550 
Q 2225 2825 2250 2425 
L 1750 2425 
Q 1775 2775 1775 3300 
Q 1650 3100 1300 2787 
Q 950 2475 650 2300 
Q 525 2525 275 2625 
Q 500 2700 875 2975 
Q 1250 3250 1450 3550 
Q 950 3550 500 3525 
L 500 3975 
Q 925 3950 1775 3950 
z
M 3975 3175 
Q 4200 1700 4600 1125 
Q 4850 1700 4937 2287 
Q 5025 2875 5050 3425 
L 4075 3425 
L 3975 3175 
z
M 1450 1000 
Q 1750 925 2275 800 
Q 2475 1050 2650 1525 
L 1725 1525 
Q 1600 1275 1450 1000 
z
M 3325 4825 
Q 3200 4625 3125 4450 
Q 3050 4275 2925 4025 
Q 2725 4125 2525 4175 
Q 2725 4500 2900 5000 
Q 3150 4875 3325 4825 
z
M 2575 3375 
Q 2900 3050 3200 2725 
Q 3050 2600 2875 2425 
Q 2525 2850 2300 3100 
Q 2450 3225 2575 3375 
z
M 925 5000 
Q 1275 4650 1500 4300 
L 1125 4075 
Q 950 4425 600 4725 
Q 825 4875 925 5000 
z
" transform="scale(0.015625)"/>
      </defs>
      <use xlink:href="#SimHei-46"/>
      <use xlink:href="#SimHei-31" x="50"/>
      <use xlink:href="#SimHei-5206" x="100"/>
      <use xlink:href="#SimHei-6570" x="200"/>
     </g>
    </g>
   </g>
   <g id="line2d_31">
    <path d="M 67.665199 321.198817 
L 67.755959 321.069028 
L 68.040035 315.695392 
L 68.622984 295.923073 
L 68.67555 294.36364 
L 69.279721 278.294701 
L 69.349114 276.602255 
L 69.475896 272.889472 
L 69.661717 267.134399 
L 69.769806 265.01472 
L 69.826344 264.084074 
L 69.951908 261.345272 
L 70.003465 260.794382 
L 70.16911 257.135784 
L 70.234385 256.018669 
L 70.390442 253.532205 
L 70.396742 254.131207 
L 70.51857 251.435286 
L 70.781897 246.305544 
L 70.872997 244.32591 
L 70.952317 243.238237 
L 71.774301 229.345785 
L 71.836397 228.80922 
L 73.210474 210.579055 
L 73.338885 210.099657 
L 73.429902 211.455019 
L 73.578316 210.240858 
L 74.577811 196.794968 
L 74.651232 195.904211 
L 74.740107 195.002891 
L 74.914721 194.700072 
L 75.15259 192.546283 
L 75.285294 191.919748 
L 75.531967 189.362256 
L 75.598548 188.709727 
L 75.7327 187.720802 
L 76.235365 183.639121 
L 76.320652 182.231946 
L 76.529985 181.51928 
L 76.667291 179.710503 
L 76.88633 178.234922 
L 77.008755 177.111135 
L 77.015205 178.498106 
L 77.052472 178.122433 
L 77.144173 177.366066 
L 77.325865 175.055989 
L 77.806005 171.471111 
L 77.846465 172.905917 
L 77.897611 172.500776 
L 78.125516 171.27402 
L 78.365388 167.488604 
L 78.481134 165.314651 
L 78.663262 163.537404 
L 78.90659 163.087673 
L 78.931175 162.635744 
L 79.037101 164.136812 
L 79.054191 163.685239 
L 79.198866 161.393678 
L 79.482171 160.928508 
L 79.585478 159.518974 
L 80.025951 158.088028 
L 80.072813 159.630891 
L 80.094797 159.151767 
L 80.249225 158.670198 
L 80.335866 157.699651 
L 80.599169 156.719099 
L 80.688136 155.728386 
L 81.048517 154.222915 
L 81.056653 153.715837 
L 81.528808 152.693674 
L 81.529398 152.178547 
L 81.674246 151.660695 
L 81.719971 150.616726 
L 81.741103 152.217837 
L 82.407802 149.035578 
L 82.62439 148.495113 
L 82.825768 147.405323 
L 83.487245 146.303556 
L 83.972006 144.063298 
L 84.055679 142.924396 
L 84.105538 144.584688 
L 84.391726 144.013503 
L 84.496626 142.280529 
L 85.043003 141.696307 
L 85.187226 141.108755 
L 85.188059 140.517847 
L 85.354519 139.923552 
L 85.691694 139.325841 
L 85.698923 138.724686 
L 86.779083 133.787764 
L 87.203265 129.929403 
L 87.641866 129.272785 
L 87.866531 127.947609 
L 88.070415 127.278979 
L 88.439268 126.606273 
L 88.535567 125.248478 
L 89.542248 124.563314 
L 90.016673 123.873921 
L 90.112556 123.180259 
L 90.218635 124.9597 
L 90.561031 124.265099 
L 90.724619 122.862831 
L 90.978663 124.663657 
L 91.10421 123.250599 
L 92.400845 121.819541 
L 92.863998 121.097154 
L 92.927004 120.370136 
L 92.978802 122.20348 
L 93.029804 121.47534 
L 93.213851 120.742487 
L 93.400607 117.763021 
L 93.579652 117.005904 
L 93.885355 116.243789 
L 93.982021 115.476627 
L 94.411965 114.704367 
L 94.599876 113.926959 
L 94.750901 112.35649 
L 95.12819 110.764799 
L 95.689784 109.96086 
L 95.75521 109.151453 
L 95.998357 108.33652 
L 96.091768 107.516005 
L 97.177817 106.689851 
L 98.479909 105.020392 
L 98.76924 103.327664 
L 99.175375 105.261677 
L 99.967696 103.552768 
L 101.700518 102.689255 
L 103.098216 101.819619 
L 103.650964 100.943792 
L 104.058093 99.173305 
L 104.751363 98.278508 
L 105.091114 96.469463 
L 106.994168 95.555073 
L 107.000008 94.634008 
L 107.294714 93.706196 
L 108.106213 92.771561 
L 110.409446 91.830029 
L 111.367739 90.881523 
L 112.680293 89.925964 
L 116.526049 88.963275 
L 116.840916 87.993374 
L 122.984805 87.016181 
L 123.243928 86.031613 
L 125.503375 85.039585 
L 126.036785 84.040014 
L 127.457151 83.032813 
L 131.054387 82.017894 
L 138.670966 80.995167 
L 139.993847 79.964543 
L 140.384122 82.017894 
L 144.591029 80.983229 
L 147.751852 79.940481 
L 152.959583 78.889554 
L 168.541508 77.830352 
L 170.913488 76.762777 
L 171.53459 75.68673 
L 171.652483 74.602108 
L 188.907141 73.50881 
L 189.480201 72.406729 
L 196.720763 71.295761 
L 205.620316 73.40546 
L 210.885168 72.28952 
L 234.636842 70.030198 
L 241.932356 68.886591 
L 242.621283 67.733532 
L 245.14621 66.570905 
L 252.572128 65.398589 
L 254.803906 64.216462 
L 259.428696 66.376195 
L 272.362433 65.188218 
L 275.610911 63.990173 
L 278.99064 61.563365 
L 279.797709 60.334337 
L 281.255711 59.094714 
L 283.497892 57.844359 
L 284.488541 56.583131 
L 310.34354 55.310888 
L 317.390839 54.027485 
L 317.59808 56.246989 
L 318.113604 54.956371 
L 325.096691 57.199732 
L 330.923437 55.901843 
L 331.71817 54.592314 
L 334.869944 53.270988 
L 335.658992 51.937704 
L 342.019632 54.218329 
L 342.339889 52.877195 
L 346.189088 50.157844 
L 354.666706 48.779284 
L 364.685527 51.098257 
L 369.020933 48.311134 
L 374.793431 46.897853 
L 388.152958 49.251871 
L 390.189834 47.829609 
L 394.725632 46.393738 
L 396.267259 44.94406 
L 403.924441 47.334127 
L 405.514934 45.874939 
L 412.152409 44.401516 
L 421.189592 42.913647 
L 425.660559 41.411119 
L 432.856965 39.893715 
L 435.607049 42.330001 
L 435.700003 44.790651 
L 438.082687 43.267354 
L 439.568222 41.72867 
L 439.69728 44.223738 
L 444.38663 42.674233 
L 449.722482 39.5273 
L 452.912418 37.929375 
L 461.415073 40.469631 
L 463.413848 38.859908 
L 467.728178 41.431802 
L 478.322652 44.030911 
L 486.255127 42.414444 
L 496.867775 45.046606 
L 498.468398 43.418218 
L 499.012573 46.084261 
L 518.326665 44.443813 
L 520.389183 42.785436 
L 521.359541 41.108835 
L 523.795597 43.821038 
L 523.836177 46.563377 
L 535.434061 44.879782 
L 540.999213 43.177271 
L 545.119471 45.962453 
L 547.2506 44.246746 
L 550.81985 47.06987 
L 551.80061 49.925443 
L 553.508368 52.814028 
L 554.427502 51.098257 
L 556.951674 54.027485 
L 557.370993 56.991176 
L 559.532089 63.024402 
L 560.032509 66.095206 
L 562.835329 64.397426 
L 564.524914 67.513773 
L 566.221998 73.86118 
L 566.895624 77.093655 
L 567.697372 80.366286 
L 568.731685 87.035042 
L 568.99461 90.432732 
L 569.124576 93.873703 
L 569.458894 97.35879 
L 570.095962 100.888846 
L 571.635291 104.464747 
L 571.662596 108.087391 
L 572.316205 123.06423 
L 572.397728 126.934934 
L 572.751551 134.83541 
L 572.871659 133.365815 
L 573.006674 137.415577 
L 573.711053 141.521978 
L 573.885772 145.686216 
L 573.979966 158.538434 
L 574.23778 162.946683 
L 574.809412 266.108655 
L 574.937926 340.329375 
L 574.937926 340.329375 
" clip-path="url(#p89525980f5)" style="fill: none; stroke: #0000ff; stroke-width: 1.5; stroke-linecap: square"/>
   </g>
   <g id="line2d_32">
    <path d="M 452.912418 355.449375 
L 452.912418 22.809375 
" clip-path="url(#p89525980f5)" style="fill: none; stroke-dasharray: 5.55,2.4; stroke-dashoffset: 0; stroke: #ff0000; stroke-width: 1.5"/>
   </g>
   <g id="patch_3">
    <path d="M 42.301563 355.449375 
L 42.301563 22.809375 
" style="fill: none; stroke: #000000; stroke-width: 0.8; stroke-linejoin: miter; stroke-linecap: square"/>
   </g>
   <g id="patch_4">
    <path d="M 600.301563 355.449375 
L 600.301563 22.809375 
" style="fill: none; stroke: #000000; stroke-width: 0.8; stroke-linejoin: miter; stroke-linecap: square"/>
   </g>
   <g id="patch_5">
    <path d="M 42.301563 355.449375 
L 600.301563 355.449375 
" style="fill: none; stroke: #000000; stroke-width: 0.8; stroke-linejoin: miter; stroke-linecap: square"/>
   </g>
   <g id="patch_6">
    <path d="M 42.301563 22.809375 
L 600.301563 22.809375 
" style="fill: none; stroke: #000000; stroke-width: 0.8; stroke-linejoin: miter; stroke-linecap: square"/>
   </g>
   <g id="text_18">
    <!-- F1分数与阈值的关系 -->
    <g transform="translate(267.301562 16.809375) scale(0.12 -0.12)">
     <defs>
      <path id="SimHei-4e0e" d="M 5350 100 
Q 5275 -300 4925 -425 
Q 4575 -550 3900 -600 
Q 3875 -375 3650 -25 
Q 4375 -50 4575 0 
Q 4775 50 4837 225 
Q 4900 400 5100 2350 
L 1125 2350 
Q 1450 4350 1475 5200 
Q 1800 5150 2075 5125 
Q 1975 4825 1900 4275 
L 4900 4275 
Q 5400 4275 5800 4300 
L 5800 3825 
Q 5400 3850 4950 3850 
L 1850 3850 
L 1700 2750 
L 5675 2750 
Q 5625 2450 5575 2050 
L 5350 100 
z
M 3675 1350 
Q 4125 1350 4500 1375 
L 4500 875 
Q 4125 900 3850 900 
L 1450 900 
Q 1000 900 500 875 
L 500 1375 
Q 1000 1350 1450 1350 
L 3675 1350 
z
" transform="scale(0.015625)"/>
      <path id="SimHei-7684" d="M 2100 4975 
Q 1975 4750 1750 3950 
L 2875 3950 
Q 2850 3525 2850 2875 
L 2850 675 
Q 2850 300 2875 -400 
L 2375 -400 
L 2375 100 
L 1100 100 
L 1100 -450 
L 600 -450 
Q 625 350 625 550 
L 625 2850 
Q 625 3525 600 3950 
L 1325 3950 
Q 1450 4525 1525 5150 
Q 1875 5025 2100 4975 
z
M 5825 3075 
Q 5800 1550 5700 175 
Q 5650 -275 5225 -425 
Q 4800 -575 4275 -625 
Q 4250 -350 4050 -50 
Q 4550 -75 4837 -25 
Q 5125 25 5200 200 
Q 5275 375 5312 1225 
Q 5350 2075 5375 3600 
L 3925 3600 
Q 3725 3125 3350 2475 
Q 3175 2650 2925 2750 
Q 3150 3050 3350 3475 
Q 3550 3900 3700 4400 
Q 3850 4900 3875 5175 
Q 4225 5025 4475 4950 
Q 4350 4750 4262 4512 
Q 4175 4275 4075 4050 
L 5850 4050 
Q 5825 3525 5825 3075 
z
M 2375 525 
L 2375 1850 
L 1100 1850 
L 1100 525 
L 2375 525 
z
M 2375 2275 
L 2375 3525 
L 1100 3525 
L 1100 2275 
L 2375 2275 
z
M 4350 2050 
Q 4500 1750 4700 1275 
Q 4525 1200 4225 1025 
Q 4050 1500 3900 1837 
Q 3750 2175 3600 2400 
Q 3775 2500 4050 2650 
L 4350 2050 
z
" transform="scale(0.015625)"/>
      <path id="SimHei-5173" d="M 4675 4850 
Q 4525 4675 4362 4375 
Q 4200 4075 4075 3825 
L 4625 3825 
Q 5150 3825 5550 3850 
L 5550 3375 
Q 5225 3400 4700 3400 
L 3400 3400 
L 3400 2150 
L 4975 2150 
Q 5475 2150 5875 2175 
L 5875 1700 
Q 5475 1725 5025 1725 
L 3500 1725 
Q 4250 450 6000 75 
Q 5775 -175 5600 -525 
Q 4025 0 3225 1300 
Q 2800 200 875 -600 
Q 775 -350 500 -150 
Q 2425 375 2875 1725 
L 1550 1725 
Q 975 1725 600 1700 
L 600 2150 
Q 875 2125 1450 2125 
L 2925 2125 
L 2925 3400 
L 1750 3400 
Q 1275 3400 900 3375 
L 900 3850 
Q 1275 3825 1775 3825 
L 3575 3825 
Q 3925 4625 4075 5150 
Q 4325 5000 4675 4850 
z
M 2125 5125 
Q 2450 4725 2800 4175 
Q 2500 4025 2325 3875 
Q 2025 4450 1725 4825 
Q 1950 4975 2125 5125 
z
" transform="scale(0.015625)"/>
      <path id="SimHei-7cfb" d="M 5300 5200 
Q 5450 4950 5725 4675 
Q 4975 4650 4437 4587 
Q 3900 4525 3125 4450 
Q 3250 4325 3475 4225 
Q 3150 4025 2837 3762 
Q 2525 3500 2225 3275 
L 3475 3275 
Q 4100 3700 4525 4050 
Q 4775 3850 5125 3700 
Q 4775 3550 4450 3375 
Q 4125 3200 3387 2737 
Q 2650 2275 2125 1975 
Q 3600 2050 4875 2100 
Q 4750 2225 4225 2625 
Q 4475 2725 4650 2875 
Q 4950 2650 5337 2312 
Q 5725 1975 6075 1650 
Q 5775 1475 5600 1325 
Q 5400 1575 5225 1725 
Q 4550 1700 3625 1650 
L 3625 150 
Q 3625 -325 3387 -412 
Q 3150 -500 2525 -600 
Q 2475 -300 2300 -25 
Q 2875 -25 3012 12 
Q 3150 50 3150 300 
L 3150 1650 
Q 1625 1625 1075 1525 
Q 1000 1775 900 2050 
Q 1450 2100 1875 2300 
Q 2300 2500 2900 2900 
Q 2325 2900 2037 2875 
Q 1750 2850 1400 2800 
Q 1325 3075 1250 3325 
Q 1675 3325 2100 3662 
Q 2525 4000 2750 4400 
Q 1350 4350 925 4300 
Q 850 4550 750 4750 
Q 2150 4750 3250 4850 
Q 4350 4950 5300 5200 
z
M 4625 1250 
Q 4925 1025 5325 737 
Q 5725 450 6000 175 
Q 5800 0 5600 -225 
Q 5275 125 4925 400 
Q 4575 675 4275 875 
Q 4500 1050 4625 1250 
z
M 2200 875 
Q 1900 725 1537 375 
Q 1175 25 800 -300 
Q 575 -75 375 25 
Q 1075 450 1675 1225 
Q 1900 1050 2200 875 
z
" transform="scale(0.015625)"/>
     </defs>
     <use xlink:href="#SimHei-46"/>
     <use xlink:href="#SimHei-31" x="50"/>
     <use xlink:href="#SimHei-5206" x="100"/>
     <use xlink:href="#SimHei-6570" x="200"/>
     <use xlink:href="#SimHei-4e0e" x="300"/>
     <use xlink:href="#SimHei-9608" x="400"/>
     <use xlink:href="#SimHei-503c" x="500"/>
     <use xlink:href="#SimHei-7684" x="600"/>
     <use xlink:href="#SimHei-5173" x="700"/>
     <use xlink:href="#SimHei-7cfb" x="800"/>
    </g>
   </g>
   <g id="legend_1">
    <g id="patch_7">
     <path d="M 49.301563 54.528125 
L 166.301562 54.528125 
Q 168.301562 54.528125 168.301562 52.528125 
L 168.301562 29.809375 
Q 168.301562 27.809375 166.301562 27.809375 
L 49.301563 27.809375 
Q 47.301563 27.809375 47.301563 29.809375 
L 47.301563 52.528125 
Q 47.301563 54.528125 49.301563 54.528125 
z
" style="fill: #ffffff; opacity: 0.8; stroke: #cccccc; stroke-linejoin: miter"/>
    </g>
    <g id="line2d_33">
     <path d="M 51.301563 41.10625 
L 61.301563 41.10625 
L 71.301563 41.10625 
" style="fill: none; stroke-dasharray: 5.55,2.4; stroke-dashoffset: 0; stroke: #ff0000; stroke-width: 1.5"/>
    </g>
    <g id="text_19">
     <!-- 最佳阈值 = 0.7595 -->
     <g transform="translate(79.301563 39.778125) scale(0.1 -0.1)">
      <defs>
       <path id="SimHei-6700" d="M 475 275 
Q 675 300 1100 350 
L 1100 2450 
Q 775 2450 425 2425 
L 425 2850 
Q 775 2825 1125 2825 
L 5025 2825 
Q 5475 2825 5900 2850 
L 5900 2425 
Q 5475 2450 5025 2450 
L 3050 2450 
L 3050 675 
L 3400 775 
Q 3400 550 3425 400 
Q 3225 350 3050 325 
Q 3050 -125 3075 -550 
L 2600 -550 
Q 2625 -125 2625 250 
Q 2350 200 1812 87 
Q 1275 -25 650 -175 
Q 575 100 475 275 
z
M 5100 4925 
Q 5075 4600 5075 4325 
L 5075 3875 
Q 5075 3600 5100 3250 
L 1275 3250 
Q 1300 3600 1300 3875 
L 1300 4325 
Q 1300 4600 1275 4925 
L 5100 4925 
z
M 3300 2050 
Q 3750 2025 4125 2025 
L 5375 2025 
Q 5100 975 4725 400 
Q 5350 0 5925 -100 
Q 5700 -275 5650 -500 
Q 5025 -300 4475 150 
Q 4150 -200 3600 -575 
Q 3500 -425 3250 -275 
Q 3775 -100 4150 350 
Q 3725 775 3500 1675 
L 3300 1675 
L 3300 2050 
z
M 4600 4250 
L 4600 4600 
L 1750 4600 
L 1750 4250 
L 4600 4250 
z
M 4600 3575 
L 4600 3900 
L 1750 3900 
L 1750 3575 
L 4600 3575 
z
M 3900 1675 
Q 4000 1075 4400 625 
Q 4700 1050 4850 1675 
L 3900 1675 
z
M 2625 1250 
L 2625 1675 
L 1525 1675 
L 1525 1250 
L 2625 1250 
z
M 2625 575 
L 2625 925 
L 1525 925 
L 1525 425 
L 2625 575 
z
M 2625 2025 
L 2625 2450 
L 1525 2450 
L 1525 2025 
L 2625 2025 
z
" transform="scale(0.015625)"/>
       <path id="SimHei-4f73" d="M 3750 4250 
Q 3750 4825 3725 5050 
L 4275 5050 
Q 4250 4850 4250 4250 
L 4675 4250 
Q 5275 4250 5700 4275 
L 5700 3775 
Q 5250 3825 4725 3825 
L 4250 3825 
L 4250 2925 
L 5000 2925 
Q 5550 2925 5950 2975 
L 5950 2500 
Q 5575 2525 5000 2525 
L 3075 2525 
Q 2500 2525 2125 2500 
L 2125 2975 
Q 2450 2950 3075 2925 
L 3750 2925 
L 3750 3825 
L 3200 3825 
Q 2650 3825 2325 3775 
L 2325 4275 
Q 2650 4250 3175 4250 
L 3750 4250 
z
M 3775 1525 
Q 3775 1775 3750 2325 
L 4300 2325 
Q 4275 1875 4275 1525 
L 4750 1525 
Q 5300 1525 5700 1550 
L 5700 1100 
Q 5275 1125 4775 1125 
L 4275 1125 
L 4275 125 
L 5000 125 
Q 5700 125 6050 150 
L 6050 -300 
Q 5525 -275 5050 -275 
L 2950 -275 
Q 2400 -275 2050 -300 
L 2050 150 
Q 2300 125 2925 125 
L 3775 125 
L 3775 1125 
L 3300 1125 
Q 2800 1125 2375 1075 
L 2375 1550 
Q 2825 1525 3300 1525 
L 3775 1525 
z
M 2225 4950 
Q 2050 4775 1700 3950 
L 1700 625 
Q 1700 -150 1750 -550 
L 1175 -550 
Q 1225 -125 1225 600 
L 1225 3150 
Q 1000 2700 575 2175 
Q 400 2375 200 2550 
Q 550 2900 1050 3837 
Q 1550 4775 1600 5200 
Q 1925 5050 2225 4950 
z
" transform="scale(0.015625)"/>
       <path id="SimHei-20" transform="scale(0.015625)"/>
       <path id="SimHei-3d" d="M 2975 2900 
L 125 2900 
L 125 3300 
L 2975 3300 
L 2975 2900 
z
M 2975 1375 
L 125 1375 
L 125 1775 
L 2975 1775 
L 2975 1375 
z
" transform="scale(0.015625)"/>
       <path id="SimHei-39" d="M 800 75 
Q 1350 1000 1700 1750 
Q 1075 1650 662 1912 
Q 250 2175 162 2625 
Q 75 3075 175 3437 
Q 275 3800 487 4037 
Q 700 4275 1000 4375 
Q 1300 4475 1537 4475 
Q 1775 4475 2025 4375 
Q 2275 4275 2475 4075 
Q 2675 3875 2750 3662 
Q 2825 3450 2825 3112 
Q 2825 2775 2575 2250 
Q 2325 1725 1350 75 
L 800 75 
z
M 662 2875 
Q 700 2550 937 2337 
Q 1175 2125 1450 2150 
Q 1725 2175 1887 2300 
Q 2050 2425 2200 2725 
Q 2300 3100 2250 3362 
Q 2200 3625 1987 3800 
Q 1775 3975 1525 3975 
Q 1375 4000 1137 3900 
Q 900 3800 762 3500 
Q 625 3200 662 2875 
z
" transform="scale(0.015625)"/>
      </defs>
      <use xlink:href="#SimHei-6700"/>
      <use xlink:href="#SimHei-4f73" x="100"/>
      <use xlink:href="#SimHei-9608" x="200"/>
      <use xlink:href="#SimHei-503c" x="300"/>
      <use xlink:href="#SimHei-20" x="400"/>
      <use xlink:href="#SimHei-3d" x="450"/>
      <use xlink:href="#SimHei-20" x="500"/>
      <use xlink:href="#SimHei-30" x="550"/>
      <use xlink:href="#SimHei-2e" x="600"/>
      <use xlink:href="#SimHei-37" x="650"/>
      <use xlink:href="#SimHei-35" x="700"/>
      <use xlink:href="#SimHei-39" x="750"/>
      <use xlink:href="#SimHei-35" x="800"/>
     </g>
     <!-- F1 = 0.7772 -->
     <g transform="translate(79.301563 49.278125) scale(0.1 -0.1)">
      <use xlink:href="#SimHei-46"/>
      <use xlink:href="#SimHei-31" x="50"/>
      <use xlink:href="#SimHei-20" x="100"/>
      <use xlink:href="#SimHei-3d" x="150"/>
      <use xlink:href="#SimHei-20" x="200"/>
      <use xlink:href="#SimHei-30" x="250"/>
      <use xlink:href="#SimHei-2e" x="300"/>
      <use xlink:href="#SimHei-37" x="350"/>
      <use xlink:href="#SimHei-37" x="400"/>
      <use xlink:href="#SimHei-37" x="450"/>
      <use xlink:href="#SimHei-32" x="500"/>
     </g>
    </g>
   </g>
  </g>
 </g>
 <defs>
  <clipPath id="p89525980f5">
   <rect x="42.301563" y="22.809375" width="558" height="332.64"/>
  </clipPath>
 </defs>
</svg>
