<?xml version="1.0" encoding="utf-8" standalone="no"?>
<!DOCTYPE svg PUBLIC "-//W3C//DTD SVG 1.1//EN"
  "http://www.w3.org/Graphics/SVG/1.1/DTD/svg11.dtd">
<svg xmlns:xlink="http://www.w3.org/1999/xlink" width="615.001562pt" height="501.834062pt" viewBox="0 0 615.001562 501.834062" xmlns="http://www.w3.org/2000/svg" version="1.1">
 <metadata>
  <rdf:RDF xmlns:dc="http://purl.org/dc/elements/1.1/" xmlns:cc="http://creativecommons.org/ns#" xmlns:rdf="http://www.w3.org/1999/02/22-rdf-syntax-ns#">
   <cc:Work>
    <dc:type rdf:resource="http://purl.org/dc/dcmitype/StillImage"/>
    <dc:date>2025-03-06T14:16:04.127414</dc:date>
    <dc:format>image/svg+xml</dc:format>
    <dc:creator>
     <cc:Agent>
      <dc:title>Matplotlib v3.9.2, https://matplotlib.org/</dc:title>
     </cc:Agent>
    </dc:creator>
   </cc:Work>
  </rdf:RDF>
 </metadata>
 <defs>
  <style type="text/css">*{stroke-linejoin: round; stroke-linecap: butt}</style>
 </defs>
 <g id="figure_1">
  <g id="patch_1">
   <path d="M 0 501.834062 
L 615.001562 501.834062 
L 615.001562 0 
L 0 0 
z
" style="fill: #ffffff"/>
  </g>
  <g id="axes_1">
   <g id="patch_2">
    <path d="M 42.301563 466.329375 
L 600.301563 466.329375 
L 600.301563 22.809375 
L 42.301563 22.809375 
z
" style="fill: #ffffff"/>
   </g>
   <g id="matplotlib.axis_1">
    <g id="xtick_1">
     <g id="line2d_1">
      <defs>
       <path id="medb7720f09" d="M 0 0 
L 0 3.5 
" style="stroke: #000000; stroke-width: 0.8"/>
      </defs>
      <g>
       <use xlink:href="#medb7720f09" x="42.301563" y="466.329375" style="stroke: #000000; stroke-width: 0.8"/>
      </g>
     </g>
     <g id="text_1">
      <!-- 0.0 -->
      <g transform="translate(34.801563 480.204375) scale(0.1 -0.1)">
       <defs>
        <path id="SimHei-30" d="M 225 2537 
Q 250 3200 412 3587 
Q 575 3975 875 4225 
Q 1175 4475 1612 4475 
Q 2050 4475 2375 4112 
Q 2700 3750 2800 3200 
Q 2900 2650 2862 1937 
Q 2825 1225 2612 775 
Q 2400 325 1975 150 
Q 1550 -25 1125 187 
Q 700 400 525 750 
Q 350 1100 275 1487 
Q 200 1875 225 2537 
z
M 750 2687 
Q 675 2000 800 1462 
Q 925 925 1212 700 
Q 1500 475 1800 612 
Q 2100 750 2237 1162 
Q 2375 1575 2375 2062 
Q 2375 2550 2337 2950 
Q 2300 3350 2112 3675 
Q 1925 4000 1612 4012 
Q 1300 4025 1062 3700 
Q 825 3375 750 2687 
z
" transform="scale(0.015625)"/>
        <path id="SimHei-2e" d="M 1075 125 
L 500 125 
L 500 675 
L 1075 675 
L 1075 125 
z
" transform="scale(0.015625)"/>
       </defs>
       <use xlink:href="#SimHei-30"/>
       <use xlink:href="#SimHei-2e" x="50"/>
       <use xlink:href="#SimHei-30" x="100"/>
      </g>
     </g>
    </g>
    <g id="xtick_2">
     <g id="line2d_2">
      <g>
       <use xlink:href="#medb7720f09" x="153.901563" y="466.329375" style="stroke: #000000; stroke-width: 0.8"/>
      </g>
     </g>
     <g id="text_2">
      <!-- 0.2 -->
      <g transform="translate(146.401563 480.204375) scale(0.1 -0.1)">
       <defs>
        <path id="SimHei-32" d="M 300 250 
Q 325 625 650 925 
Q 975 1225 1475 1862 
Q 1975 2500 2125 2850 
Q 2275 3200 2237 3450 
Q 2200 3700 2000 3862 
Q 1800 4025 1537 4000 
Q 1275 3975 1037 3800 
Q 800 3625 675 3275 
L 200 3350 
Q 400 3925 712 4187 
Q 1025 4450 1450 4475 
Q 1700 4500 1900 4462 
Q 2100 4425 2312 4287 
Q 2525 4150 2662 3875 
Q 2800 3600 2762 3212 
Q 2725 2825 2375 2287 
Q 2025 1750 1025 600 
L 2825 600 
L 2825 150 
L 300 150 
L 300 250 
z
" transform="scale(0.015625)"/>
       </defs>
       <use xlink:href="#SimHei-30"/>
       <use xlink:href="#SimHei-2e" x="50"/>
       <use xlink:href="#SimHei-32" x="100"/>
      </g>
     </g>
    </g>
    <g id="xtick_3">
     <g id="line2d_3">
      <g>
       <use xlink:href="#medb7720f09" x="265.501563" y="466.329375" style="stroke: #000000; stroke-width: 0.8"/>
      </g>
     </g>
     <g id="text_3">
      <!-- 0.4 -->
      <g transform="translate(258.001563 480.204375) scale(0.1 -0.1)">
       <defs>
        <path id="SimHei-34" d="M 2000 1100 
L 75 1100 
L 75 1525 
L 2100 4450 
L 2475 4450 
L 2475 1525 
L 3075 1525 
L 3075 1100 
L 2475 1100 
L 2475 150 
L 2000 150 
L 2000 1100 
z
M 2000 1525 
L 2000 3500 
L 600 1525 
L 2000 1525 
z
" transform="scale(0.015625)"/>
       </defs>
       <use xlink:href="#SimHei-30"/>
       <use xlink:href="#SimHei-2e" x="50"/>
       <use xlink:href="#SimHei-34" x="100"/>
      </g>
     </g>
    </g>
    <g id="xtick_4">
     <g id="line2d_4">
      <g>
       <use xlink:href="#medb7720f09" x="377.101563" y="466.329375" style="stroke: #000000; stroke-width: 0.8"/>
      </g>
     </g>
     <g id="text_4">
      <!-- 0.6 -->
      <g transform="translate(369.601563 480.204375) scale(0.1 -0.1)">
       <defs>
        <path id="SimHei-36" d="M 250 1612 
Q 275 1975 387 2225 
Q 500 2475 725 2850 
L 1750 4450 
L 2325 4450 
L 1275 2800 
Q 1950 2975 2350 2750 
Q 2750 2525 2887 2237 
Q 3025 1950 3037 1612 
Q 3050 1275 2937 950 
Q 2825 625 2537 362 
Q 2250 100 1737 75 
Q 1225 50 862 262 
Q 500 475 362 862 
Q 225 1250 250 1612 
z
M 1025 787 
Q 1250 550 1625 525 
Q 2000 500 2250 775 
Q 2500 1050 2500 1575 
Q 2500 2100 2187 2300 
Q 1875 2500 1487 2450 
Q 1100 2400 925 2075 
Q 750 1750 775 1387 
Q 800 1025 1025 787 
z
" transform="scale(0.015625)"/>
       </defs>
       <use xlink:href="#SimHei-30"/>
       <use xlink:href="#SimHei-2e" x="50"/>
       <use xlink:href="#SimHei-36" x="100"/>
      </g>
     </g>
    </g>
    <g id="xtick_5">
     <g id="line2d_5">
      <g>
       <use xlink:href="#medb7720f09" x="488.701563" y="466.329375" style="stroke: #000000; stroke-width: 0.8"/>
      </g>
     </g>
     <g id="text_5">
      <!-- 0.8 -->
      <g transform="translate(481.201563 480.204375) scale(0.1 -0.1)">
       <defs>
        <path id="SimHei-38" d="M 175 1375 
Q 175 1675 325 1962 
Q 475 2250 825 2425 
Q 525 2600 425 2812 
Q 325 3025 312 3300 
Q 300 3575 387 3775 
Q 475 3975 650 4150 
Q 825 4325 1037 4387 
Q 1250 4450 1500 4450 
Q 1750 4450 1950 4400 
Q 2150 4350 2375 4187 
Q 2600 4025 2700 3725 
Q 2800 3425 2687 3025 
Q 2575 2625 2100 2400 
Q 2525 2275 2700 2012 
Q 2875 1750 2875 1375 
Q 2875 1000 2762 775 
Q 2650 550 2512 400 
Q 2375 250 2137 162 
Q 1900 75 1537 75 
Q 1175 75 912 162 
Q 650 250 475 425 
Q 300 600 237 837 
Q 175 1075 175 1375 
z
M 687 1400 
Q 675 1100 787 875 
Q 900 650 1200 587 
Q 1500 525 1825 600 
Q 2150 675 2275 950 
Q 2400 1225 2362 1500 
Q 2325 1775 2050 1962 
Q 1775 2150 1450 2125 
Q 1125 2100 912 1900 
Q 700 1700 687 1400 
z
M 775 3350 
Q 775 3100 950 2875 
Q 1125 2650 1500 2650 
Q 1875 2650 2062 2875 
Q 2250 3100 2237 3412 
Q 2225 3725 2012 3875 
Q 1800 4025 1437 4000 
Q 1075 3975 925 3787 
Q 775 3600 775 3350 
z
" transform="scale(0.015625)"/>
       </defs>
       <use xlink:href="#SimHei-30"/>
       <use xlink:href="#SimHei-2e" x="50"/>
       <use xlink:href="#SimHei-38" x="100"/>
      </g>
     </g>
    </g>
    <g id="xtick_6">
     <g id="line2d_6">
      <g>
       <use xlink:href="#medb7720f09" x="600.301563" y="466.329375" style="stroke: #000000; stroke-width: 0.8"/>
      </g>
     </g>
     <g id="text_6">
      <!-- 1.0 -->
      <g transform="translate(592.801563 480.204375) scale(0.1 -0.1)">
       <defs>
        <path id="SimHei-31" d="M 1400 3600 
Q 1075 3275 575 2975 
L 575 3450 
Q 1200 3875 1600 4450 
L 1900 4450 
L 1900 150 
L 1400 150 
L 1400 3600 
z
" transform="scale(0.015625)"/>
       </defs>
       <use xlink:href="#SimHei-31"/>
       <use xlink:href="#SimHei-2e" x="50"/>
       <use xlink:href="#SimHei-30" x="100"/>
      </g>
     </g>
    </g>
    <g id="text_7">
     <!-- 假正例率 -->
     <g transform="translate(301.301562 493.384062) scale(0.1 -0.1)">
      <defs>
       <path id="SimHei-5047" d="M 3800 4800 
Q 3775 4525 3775 3975 
Q 3775 3425 3800 3075 
L 2500 3075 
L 2500 2400 
L 3025 2400 
Q 3250 2400 3625 2425 
L 3625 1975 
Q 3250 2000 3025 2000 
L 2500 2000 
L 2500 1250 
L 2975 1250 
Q 3350 1250 3650 1275 
L 3650 825 
Q 3375 850 2975 850 
L 2500 850 
L 2500 -575 
L 2075 -575 
Q 2100 -175 2100 250 
L 2100 4050 
Q 2100 4575 2075 4800 
L 3800 4800 
z
M 5800 2525 
Q 5675 1375 5150 450 
Q 5600 -25 6150 -275 
Q 5950 -450 5800 -675 
Q 5400 -425 4875 125 
Q 4350 -375 3700 -675 
Q 3575 -450 3375 -275 
Q 4125 -50 4625 475 
Q 4250 1100 4050 2125 
L 3925 2100 
L 3925 2550 
Q 4225 2525 4800 2525 
L 5800 2525 
z
M 1075 2925 
Q 900 2550 650 2100 
Q 500 2250 250 2450 
Q 550 2700 912 3575 
Q 1275 4450 1400 5100 
Q 1650 4950 1975 4875 
Q 1875 4800 1762 4512 
Q 1650 4225 1500 3750 
L 1500 475 
Q 1500 -175 1525 -575 
L 1050 -575 
Q 1075 -125 1075 500 
L 1075 2925 
z
M 5775 4850 
Q 5750 4575 5737 3975 
Q 5725 3375 5775 3075 
L 5050 3075 
Q 4525 3075 4100 3050 
L 4100 3475 
Q 4500 3450 5025 3450 
L 5300 3450 
L 5300 4475 
L 5050 4475 
Q 4475 4475 4150 4450 
L 4150 4875 
Q 4500 4850 4950 4850 
L 5775 4850 
z
M 3350 3475 
L 3350 4400 
L 2500 4400 
L 2500 3475 
L 3350 3475 
z
M 4450 2125 
Q 4650 1200 4900 850 
Q 5225 1400 5300 2125 
L 4450 2125 
z
" transform="scale(0.015625)"/>
       <path id="SimHei-6b63" d="M 4825 4625 
Q 5300 4625 5675 4650 
L 5675 4150 
Q 5300 4175 4775 4175 
L 3575 4175 
L 3575 2600 
L 4850 2600 
Q 5250 2600 5550 2625 
L 5550 2150 
Q 5250 2175 4850 2175 
L 3575 2175 
L 3575 150 
L 4850 150 
Q 5375 150 5900 175 
L 5900 -325 
Q 5375 -300 4975 -300 
L 1175 -300 
Q 700 -300 375 -325 
L 375 175 
Q 700 150 1175 150 
L 1325 150 
L 1325 2350 
Q 1325 2800 1300 3125 
L 1875 3125 
Q 1850 2825 1850 2350 
L 1850 150 
L 3075 150 
L 3075 4175 
L 1625 4175 
Q 1150 4175 800 4150 
L 800 4650 
Q 1150 4625 1625 4625 
L 4825 4625 
z
" transform="scale(0.015625)"/>
       <path id="SimHei-4f8b" d="M 3450 4725 
Q 3825 4725 4100 4750 
L 4100 4300 
Q 3825 4325 3500 4325 
L 3150 4325 
Q 3125 4025 3025 3350 
L 4050 3350 
Q 4000 2050 3612 1050 
Q 3225 50 2300 -600 
Q 2200 -400 1900 -150 
Q 2750 250 3200 1325 
Q 2975 1525 2550 1800 
Q 2700 2000 2825 2175 
Q 3200 1875 3350 1775 
Q 3500 2250 3575 2950 
L 2925 2950 
Q 2800 2425 2225 1575 
Q 2025 1775 1775 1925 
Q 2125 2275 2375 2837 
Q 2625 3400 2675 4325 
Q 2300 4325 2150 4300 
L 2150 4750 
Q 2400 4725 2800 4725 
L 3450 4725 
z
M 2050 4975 
Q 1875 4775 1550 3850 
L 1550 475 
Q 1550 -25 1575 -600 
L 1075 -600 
Q 1100 -75 1100 425 
L 1100 3000 
Q 950 2700 650 2250 
Q 550 2375 200 2625 
Q 525 2925 937 3762 
Q 1350 4600 1450 5200 
Q 1650 5075 2050 4975 
z
M 5950 5075 
Q 5900 4775 5900 4300 
L 5900 250 
Q 5900 -275 5700 -400 
Q 5500 -525 4850 -575 
Q 4825 -300 4650 50 
Q 5175 0 5300 25 
Q 5425 50 5450 300 
L 5450 4275 
Q 5450 4750 5400 5075 
L 5950 5075 
z
M 4925 4225 
Q 4875 3875 4875 3250 
L 4875 1800 
Q 4875 1200 4900 925 
L 4375 925 
Q 4425 1200 4425 1775 
L 4425 3275 
Q 4400 3850 4375 4225 
L 4925 4225 
z
" transform="scale(0.015625)"/>
       <path id="SimHei-7387" d="M 3325 5150 
Q 3425 4900 3550 4525 
L 4800 4525 
Q 5250 4525 5800 4550 
L 5800 4125 
Q 5250 4175 4775 4175 
L 2800 4175 
Q 2975 4050 3300 3900 
Q 3075 3750 2875 3537 
Q 2675 3325 2475 3125 
L 3275 3125 
Q 3575 3425 3775 3775 
Q 4000 3600 4275 3425 
Q 3950 3250 3600 2875 
Q 3250 2500 2625 2000 
L 3850 2100 
Q 3725 2250 3600 2425 
Q 3750 2475 4000 2650 
Q 4250 2350 4700 1700 
Q 4475 1625 4225 1450 
Q 4175 1600 4025 1775 
Q 3700 1750 3425 1750 
L 3425 1050 
L 5150 1050 
Q 5675 1050 6100 1075 
L 6100 650 
Q 5700 675 5125 675 
L 3425 675 
L 3425 175 
Q 3425 -300 3450 -625 
L 2900 -625 
Q 2925 -300 2925 175 
L 2925 675 
L 1325 675 
Q 825 675 325 650 
L 325 1075 
Q 825 1050 1350 1050 
L 2925 1050 
L 2925 1700 
Q 2700 1675 2475 1637 
Q 2250 1600 2025 1525 
Q 1950 1775 1850 2000 
Q 2075 2025 2325 2200 
Q 2575 2375 2975 2800 
Q 2300 2725 2025 2625 
Q 1975 2875 1850 3175 
Q 2075 3175 2325 3487 
Q 2575 3800 2750 4175 
L 1700 4175 
Q 1150 4175 650 4125 
L 650 4550 
Q 1150 4525 1550 4525 
L 2975 4525 
Q 2900 4825 2800 5025 
Q 3025 5075 3325 5150 
z
M 1625 2575 
Q 1725 2400 1825 2200 
Q 1575 2050 1325 1862 
Q 1075 1675 800 1425 
Q 625 1675 475 1875 
Q 800 2025 1100 2212 
Q 1400 2400 1625 2575 
z
M 4850 2650 
Q 5125 2475 5337 2337 
Q 5550 2200 5875 1950 
Q 5675 1800 5500 1600 
Q 5300 1775 5062 1975 
Q 4825 2175 4575 2325 
Q 4725 2475 4850 2650 
z
M 5725 3525 
Q 5550 3450 5300 3262 
Q 5050 3075 4800 2825 
Q 4625 3050 4475 3175 
Q 4700 3325 4875 3487 
Q 5050 3650 5300 3925 
Q 5525 3700 5725 3525 
z
M 1050 3850 
Q 1425 3600 1775 3275 
Q 1575 3100 1425 2925 
Q 1075 3300 675 3525 
Q 875 3700 1050 3850 
z
" transform="scale(0.015625)"/>
      </defs>
      <use xlink:href="#SimHei-5047"/>
      <use xlink:href="#SimHei-6b63" x="100"/>
      <use xlink:href="#SimHei-4f8b" x="200"/>
      <use xlink:href="#SimHei-7387" x="300"/>
     </g>
    </g>
   </g>
   <g id="matplotlib.axis_2">
    <g id="ytick_1">
     <g id="line2d_7">
      <defs>
       <path id="md8e8669e63" d="M 0 0 
L -3.5 0 
" style="stroke: #000000; stroke-width: 0.8"/>
      </defs>
      <g>
       <use xlink:href="#md8e8669e63" x="42.301563" y="466.329375" style="stroke: #000000; stroke-width: 0.8"/>
      </g>
     </g>
     <g id="text_8">
      <!-- 0.0 -->
      <g transform="translate(20.301563 469.766875) scale(0.1 -0.1)">
       <use xlink:href="#SimHei-30"/>
       <use xlink:href="#SimHei-2e" x="50"/>
       <use xlink:href="#SimHei-30" x="100"/>
      </g>
     </g>
    </g>
    <g id="ytick_2">
     <g id="line2d_8">
      <g>
       <use xlink:href="#md8e8669e63" x="42.301563" y="381.849375" style="stroke: #000000; stroke-width: 0.8"/>
      </g>
     </g>
     <g id="text_9">
      <!-- 0.2 -->
      <g transform="translate(20.301563 385.286875) scale(0.1 -0.1)">
       <use xlink:href="#SimHei-30"/>
       <use xlink:href="#SimHei-2e" x="50"/>
       <use xlink:href="#SimHei-32" x="100"/>
      </g>
     </g>
    </g>
    <g id="ytick_3">
     <g id="line2d_9">
      <g>
       <use xlink:href="#md8e8669e63" x="42.301563" y="297.369375" style="stroke: #000000; stroke-width: 0.8"/>
      </g>
     </g>
     <g id="text_10">
      <!-- 0.4 -->
      <g transform="translate(20.301563 300.806875) scale(0.1 -0.1)">
       <use xlink:href="#SimHei-30"/>
       <use xlink:href="#SimHei-2e" x="50"/>
       <use xlink:href="#SimHei-34" x="100"/>
      </g>
     </g>
    </g>
    <g id="ytick_4">
     <g id="line2d_10">
      <g>
       <use xlink:href="#md8e8669e63" x="42.301563" y="212.889375" style="stroke: #000000; stroke-width: 0.8"/>
      </g>
     </g>
     <g id="text_11">
      <!-- 0.6 -->
      <g transform="translate(20.301563 216.326875) scale(0.1 -0.1)">
       <use xlink:href="#SimHei-30"/>
       <use xlink:href="#SimHei-2e" x="50"/>
       <use xlink:href="#SimHei-36" x="100"/>
      </g>
     </g>
    </g>
    <g id="ytick_5">
     <g id="line2d_11">
      <g>
       <use xlink:href="#md8e8669e63" x="42.301563" y="128.409375" style="stroke: #000000; stroke-width: 0.8"/>
      </g>
     </g>
     <g id="text_12">
      <!-- 0.8 -->
      <g transform="translate(20.301563 131.846875) scale(0.1 -0.1)">
       <use xlink:href="#SimHei-30"/>
       <use xlink:href="#SimHei-2e" x="50"/>
       <use xlink:href="#SimHei-38" x="100"/>
      </g>
     </g>
    </g>
    <g id="ytick_6">
     <g id="line2d_12">
      <g>
       <use xlink:href="#md8e8669e63" x="42.301563" y="43.929375" style="stroke: #000000; stroke-width: 0.8"/>
      </g>
     </g>
     <g id="text_13">
      <!-- 1.0 -->
      <g transform="translate(20.301563 47.366875) scale(0.1 -0.1)">
       <use xlink:href="#SimHei-31"/>
       <use xlink:href="#SimHei-2e" x="50"/>
       <use xlink:href="#SimHei-30" x="100"/>
      </g>
     </g>
    </g>
    <g id="text_14">
     <!-- 真正例率 -->
     <g transform="translate(15.051563 264.569375) rotate(-90) scale(0.1 -0.1)">
      <defs>
       <path id="SimHei-771f" d="M 3550 5100 
Q 3450 4925 3400 4625 
L 4850 4625 
Q 5175 4625 5725 4650 
L 5725 4250 
Q 5200 4275 4850 4275 
L 3350 4275 
L 3300 3850 
L 5050 3850 
Q 5025 3550 5025 3150 
L 5025 1075 
L 5400 1075 
Q 5800 1075 6075 1100 
L 6075 625 
Q 5575 650 4900 650 
L 1450 650 
Q 775 650 350 625 
L 350 1100 
Q 725 1075 1100 1075 
L 1425 1075 
L 1425 3075 
Q 1425 3450 1400 3850 
L 2825 3850 
L 2850 4275 
L 1400 4275 
Q 1050 4275 625 4250 
L 625 4650 
Q 1175 4625 1375 4625 
L 2925 4625 
Q 2950 4875 2950 5125 
Q 3300 5100 3550 5100 
z
M 4075 525 
Q 4500 425 4925 250 
Q 5350 75 5825 -150 
Q 5550 -425 5450 -575 
Q 5025 -300 4550 -100 
Q 4075 100 3800 175 
Q 3925 350 4075 525 
z
M 4525 3150 
L 4525 3475 
L 1925 3475 
L 1925 3150 
L 4525 3150 
z
M 4525 1075 
L 4525 1400 
L 1925 1400 
L 1925 1075 
L 4525 1075 
z
M 2775 200 
Q 2375 -25 1875 -225 
Q 1375 -425 950 -575 
Q 775 -400 600 -250 
Q 1225 -50 1625 137 
Q 2025 325 2350 525 
Q 2550 350 2775 200 
z
M 4525 1775 
L 4525 2075 
L 1925 2075 
L 1925 1775 
L 4525 1775 
z
M 4525 2475 
L 4525 2775 
L 1925 2775 
L 1925 2475 
L 4525 2475 
z
" transform="scale(0.015625)"/>
      </defs>
      <use xlink:href="#SimHei-771f"/>
      <use xlink:href="#SimHei-6b63" x="100"/>
      <use xlink:href="#SimHei-4f8b" x="200"/>
      <use xlink:href="#SimHei-7387" x="300"/>
     </g>
    </g>
   </g>
   <g id="line2d_13">
    <path d="M 42.301563 466.329375 
L 42.301563 68.28188 
L 48.789935 68.28188 
L 48.789935 55.235895 
L 55.278307 55.235895 
L 55.278307 50.597323 
L 61.766679 50.597323 
L 61.766679 49.872546 
L 68.255051 49.872546 
L 68.255051 49.43768 
L 74.743423 49.43768 
L 74.743423 49.002814 
L 81.231795 49.002814 
L 81.231795 48.567947 
L 87.720167 48.567947 
L 87.720167 48.422992 
L 94.208539 48.422992 
L 94.208539 47.408304 
L 100.696911 47.408304 
L 100.696911 46.103706 
L 107.185283 46.103706 
L 107.185283 45.813795 
L 113.673656 45.813795 
L 113.673656 45.66884 
L 126.6504 45.66884 
L 126.6504 45.378929 
L 139.627144 45.378929 
L 139.627144 45.089018 
L 172.069004 45.089018 
L 172.069004 44.799107 
L 185.045749 44.799107 
L 185.045749 44.654152 
L 275.882958 44.654152 
L 275.882958 44.364241 
L 288.859702 44.364241 
L 288.859702 44.219286 
L 308.324818 44.219286 
L 308.324818 44.07433 
L 373.208539 44.07433 
L 373.208539 43.929375 
L 600.301563 43.929375 
L 600.301563 43.929375 
" clip-path="url(#pa2fd617478)" style="fill: none; stroke: #1f77b4; stroke-width: 2; stroke-linecap: square"/>
   </g>
   <g id="line2d_14">
    <path d="M 42.301563 466.329375 
L 42.301563 453.129375 
L 42.301563 281.529375 
L 42.489568 281.529375 
L 42.489568 149.529375 
L 42.677573 149.529375 
L 42.677573 123.129375 
L 42.865579 123.129375 
L 42.865579 109.929375 
L 43.241589 109.929375 
L 43.241589 96.729375 
L 44.745633 96.729375 
L 44.745633 70.329375 
L 45.121643 70.329375 
L 45.121643 57.129375 
L 45.309649 57.129375 
L 45.309649 43.929375 
L 600.301563 43.929375 
" clip-path="url(#pa2fd617478)" style="fill: none; stroke: #ff7f0e; stroke-width: 2; stroke-linecap: square"/>
   </g>
   <g id="line2d_15">
    <path d="M 42.301563 466.329375 
L 42.301563 449.433375 
L 42.301563 364.953375 
L 42.489126 364.953375 
L 42.489126 348.057375 
L 42.864252 348.057375 
L 42.864252 229.785375 
L 43.051815 229.785375 
L 43.051815 195.993375 
L 43.239378 195.993375 
L 43.239378 128.409375 
L 43.426941 128.409375 
L 43.426941 111.513375 
L 43.614504 111.513375 
L 43.614504 94.617375 
L 43.98963 94.617375 
L 43.98963 77.721375 
L 45.115008 77.721375 
L 45.115008 60.825375 
L 48.116016 60.825375 
L 48.116016 43.929375 
L 405.048453 43.929375 
L 405.423579 43.929375 
L 600.301563 43.929375 
" clip-path="url(#pa2fd617478)" style="fill: none; stroke: #2ca02c; stroke-width: 2; stroke-linecap: square"/>
   </g>
   <g id="line2d_16">
    <path d="M 42.301563 466.329375 
L 42.301563 451.763858 
L 42.301563 160.453513 
L 42.489378 160.453513 
L 42.489378 87.625927 
L 42.677194 87.625927 
L 42.677194 73.060409 
L 42.865009 73.060409 
L 42.865009 58.494892 
L 49.062922 58.494892 
L 49.062922 43.929375 
L 600.301563 43.929375 
" clip-path="url(#pa2fd617478)" style="fill: none; stroke: #d62728; stroke-width: 2; stroke-linecap: square"/>
   </g>
   <g id="line2d_17">
    <path d="M 42.301563 466.329375 
L 42.301563 461.417747 
L 42.301563 294.422398 
L 42.493052 294.422398 
L 42.493052 245.306119 
L 42.684541 245.306119 
L 42.684541 230.571235 
L 42.876031 230.571235 
L 42.876031 220.74798 
L 43.259009 220.74798 
L 43.259009 151.985189 
L 43.450499 151.985189 
L 43.450499 142.161933 
L 43.833477 142.161933 
L 43.833477 117.603794 
L 44.216456 117.603794 
L 44.216456 107.780538 
L 44.599435 107.780538 
L 44.599435 97.957282 
L 44.790924 97.957282 
L 44.790924 93.045654 
L 45.173903 93.045654 
L 45.173903 88.134026 
L 46.897307 88.134026 
L 46.897307 83.222398 
L 48.237733 83.222398 
L 48.237733 78.31077 
L 48.429222 78.31077 
L 48.429222 73.399142 
L 49.00369 73.399142 
L 49.00369 68.487515 
L 49.578158 68.487515 
L 49.578158 63.575887 
L 50.152626 63.575887 
L 50.152626 58.664259 
L 51.110073 58.664259 
L 51.110073 53.752631 
L 57.237733 53.752631 
L 57.237733 48.841003 
L 74.471775 48.841003 
L 74.471775 43.929375 
L 600.301563 43.929375 
" clip-path="url(#pa2fd617478)" style="fill: none; stroke-dasharray: 11.1,4.8; stroke-dashoffset: 0; stroke: #9467bd; stroke-width: 3"/>
   </g>
   <g id="line2d_18">
    <path d="M 42.301563 466.329375 
L 600.301563 43.929375 
" clip-path="url(#pa2fd617478)" style="fill: none; stroke-dasharray: 7.4,3.2; stroke-dashoffset: 0; stroke: #000000; stroke-width: 2"/>
   </g>
   <g id="patch_3">
    <path d="M 42.301563 466.329375 
L 42.301563 22.809375 
" style="fill: none; stroke: #000000; stroke-width: 0.8; stroke-linejoin: miter; stroke-linecap: square"/>
   </g>
   <g id="patch_4">
    <path d="M 600.301563 466.329375 
L 600.301563 22.809375 
" style="fill: none; stroke: #000000; stroke-width: 0.8; stroke-linejoin: miter; stroke-linecap: square"/>
   </g>
   <g id="patch_5">
    <path d="M 42.301563 466.329375 
L 600.301563 466.329375 
" style="fill: none; stroke: #000000; stroke-width: 0.8; stroke-linejoin: miter; stroke-linecap: square"/>
   </g>
   <g id="patch_6">
    <path d="M 42.301563 22.809375 
L 600.301563 22.809375 
" style="fill: none; stroke: #000000; stroke-width: 0.8; stroke-linejoin: miter; stroke-linecap: square"/>
   </g>
   <g id="text_15">
    <!-- ROC曲线 -->
    <g transform="translate(300.301562 16.809375) scale(0.12 -0.12)">
     <defs>
      <path id="SimHei-52" d="M 3000 125 
L 2400 125 
L 1500 1975 
L 850 1975 
L 850 125 
L 275 125 
L 275 4400 
L 1525 4400 
Q 2125 4400 2500 4112 
Q 2875 3825 2875 3175 
Q 2875 2675 2625 2400 
Q 2375 2125 2050 2050 
L 3000 125 
z
M 2300 3175 
Q 2300 3525 2087 3725 
Q 1875 3925 1400 3925 
L 850 3925 
L 850 2450 
L 1550 2450 
Q 1850 2450 2075 2612 
Q 2300 2775 2300 3175 
z
" transform="scale(0.015625)"/>
      <path id="SimHei-4f" d="M 2950 2275 
Q 2950 1100 2587 587 
Q 2225 75 1575 75 
Q 925 75 550 587 
Q 175 1100 175 2275 
Q 175 3450 550 3950 
Q 925 4450 1575 4450 
Q 2225 4450 2587 3950 
Q 2950 3450 2950 2275 
z
M 2350 2275 
Q 2350 3325 2125 3650 
Q 1900 3975 1575 3975 
Q 1250 3975 1012 3650 
Q 775 3325 775 2275 
Q 775 1225 1012 887 
Q 1250 550 1575 550 
Q 1900 550 2125 887 
Q 2350 1225 2350 2275 
z
" transform="scale(0.015625)"/>
      <path id="SimHei-43" d="M 2975 1825 
Q 2950 875 2575 475 
Q 2200 75 1675 75 
Q 1075 75 650 562 
Q 225 1050 225 2125 
Q 225 3300 637 3875 
Q 1050 4450 1700 4450 
Q 2250 4450 2612 4037 
Q 2975 3625 2950 2875 
L 2400 2875 
Q 2400 3425 2225 3700 
Q 2050 3975 1700 3975 
Q 1300 3975 1062 3562 
Q 825 3150 825 2175 
Q 825 1275 1062 912 
Q 1300 550 1675 550 
Q 1950 550 2175 812 
Q 2400 1075 2400 1825 
L 2975 1825 
z
" transform="scale(0.015625)"/>
      <path id="SimHei-66f2" d="M 5825 500 
Q 5825 -200 5850 -550 
L 5275 -550 
L 5275 -50 
L 1150 -50 
L 1150 -550 
L 575 -550 
Q 600 125 600 550 
L 600 2775 
Q 600 3425 575 3900 
L 2150 3900 
L 2150 4450 
Q 2125 4850 2125 5150 
L 2700 5150 
Q 2650 4825 2650 4475 
L 2650 3900 
L 3700 3900 
L 3700 4525 
Q 3700 4850 3675 5175 
L 4250 5175 
Q 4225 4875 4225 4550 
L 4225 3900 
L 5850 3900 
Q 5825 3525 5825 2750 
L 5825 500 
z
M 3700 325 
L 3700 1875 
L 2650 1875 
L 2650 325 
L 3700 325 
z
M 5275 325 
L 5275 1875 
L 4225 1875 
L 4225 325 
L 5275 325 
z
M 2150 325 
L 2150 1875 
L 1150 1875 
L 1150 325 
L 2150 325 
z
M 3700 2250 
L 3700 3525 
L 2650 3525 
L 2650 2250 
L 3700 2250 
z
M 5275 2250 
L 5275 3525 
L 4225 3525 
L 4225 2250 
L 5275 2250 
z
M 2150 2250 
L 2150 3525 
L 1150 3525 
L 1150 2250 
L 2150 2250 
z
" transform="scale(0.015625)"/>
      <path id="SimHei-7ebf" d="M 3450 4300 
Q 3450 4675 3375 5125 
Q 3700 5100 4050 5050 
Q 3975 4900 3950 4562 
Q 3925 4225 3950 3600 
L 4800 3750 
Q 5225 3850 5650 3975 
L 5750 3500 
Q 5325 3450 4875 3375 
L 3975 3200 
Q 3975 2800 4025 2500 
L 5000 2675 
Q 5500 2775 5950 2925 
L 6025 2450 
Q 5575 2375 5075 2275 
L 4100 2100 
Q 4150 1600 4350 1175 
Q 4575 1350 4787 1575 
Q 5000 1800 5175 2075 
Q 5550 1775 5750 1675 
Q 5425 1525 5237 1337 
Q 5050 1150 4625 750 
Q 4925 250 5162 112 
Q 5400 -25 5500 100 
Q 5600 225 5675 625 
Q 5900 450 6200 350 
Q 5775 -750 5275 -537 
Q 4775 -325 4225 450 
Q 3875 175 3537 -62 
Q 3200 -300 2700 -550 
Q 2575 -300 2325 -100 
Q 2825 75 3175 275 
Q 3525 475 3975 850 
Q 3750 1350 3650 2025 
Q 2900 1900 2600 1800 
L 2525 2275 
Q 2825 2275 3550 2425 
Q 3500 2825 3500 3100 
Q 2825 2950 2575 2875 
L 2475 3350 
Q 2725 3350 3450 3500 
L 3450 4300 
z
M 1950 4875 
Q 1700 4650 1462 4237 
Q 1225 3825 825 3225 
Q 1425 3250 1650 3250 
Q 1875 3625 2050 4075 
Q 2300 3900 2600 3800 
Q 2350 3550 2087 3125 
Q 1825 2700 1175 1675 
Q 1850 1725 2375 1775 
Q 2300 1525 2300 1350 
Q 2125 1350 1525 1287 
Q 925 1225 550 1125 
Q 525 1375 400 1650 
Q 700 1725 950 2050 
Q 1200 2375 1475 2875 
Q 650 2825 425 2675 
Q 350 2950 200 3225 
Q 525 3450 825 3962 
Q 1125 4475 1375 5150 
Q 1625 4975 1950 4875 
z
M 2575 875 
Q 2550 600 2575 450 
Q 1950 325 1450 200 
Q 950 75 525 -75 
Q 450 200 250 475 
Q 950 550 1325 612 
Q 1700 675 2575 875 
z
M 4850 4025 
Q 4675 4300 4375 4675 
L 4775 4875 
Q 4875 4750 5275 4275 
Q 5025 4175 4850 4025 
z
" transform="scale(0.015625)"/>
     </defs>
     <use xlink:href="#SimHei-52"/>
     <use xlink:href="#SimHei-4f" x="50"/>
     <use xlink:href="#SimHei-43" x="100"/>
     <use xlink:href="#SimHei-66f2" x="150"/>
     <use xlink:href="#SimHei-7ebf" x="250"/>
    </g>
   </g>
   <g id="legend_1">
    <g id="patch_7">
     <path d="M 416.301562 461.329375 
L 593.301563 461.329375 
Q 595.301563 461.329375 595.301563 459.329375 
L 595.301563 389.430937 
Q 595.301563 387.430937 593.301563 387.430937 
L 416.301562 387.430937 
Q 414.301562 387.430937 414.301562 389.430937 
L 414.301562 459.329375 
Q 414.301562 461.329375 416.301562 461.329375 
z
" style="fill: #ffffff; opacity: 0.8; stroke: #cccccc; stroke-linejoin: miter"/>
    </g>
    <g id="line2d_19">
     <path d="M 418.301562 395.977812 
L 428.301562 395.977812 
L 438.301562 395.977812 
" style="fill: none; stroke: #1f77b4; stroke-width: 2; stroke-linecap: square"/>
    </g>
    <g id="text_16">
     <!-- 无故障 vs 其他 (AUC = 1.00) -->
     <g transform="translate(446.301562 399.477812) scale(0.1 -0.1)">
      <defs>
       <path id="SimHei-65e0" d="M 4350 4725 
Q 4875 4725 5300 4750 
L 5300 4275 
Q 4925 4300 4350 4300 
L 3175 4300 
Q 3175 3475 3125 2800 
L 5050 2800 
Q 5500 2800 5875 2825 
L 5875 2350 
Q 5500 2375 5075 2375 
L 3950 2375 
L 3950 425 
Q 3950 100 4325 100 
L 5175 100 
Q 5450 100 5475 850 
Q 5725 700 6025 625 
Q 5900 -350 5450 -350 
L 4075 -350 
Q 3500 -325 3500 300 
L 3500 2375 
L 3075 2375 
Q 2875 1425 2587 937 
Q 2300 450 1925 112 
Q 1550 -225 800 -650 
Q 675 -375 375 -225 
Q 975 50 1350 337 
Q 1725 625 2062 1050 
Q 2400 1475 2600 2375 
L 1500 2375 
Q 875 2375 600 2350 
L 600 2825 
Q 875 2800 1500 2800 
L 2650 2800 
Q 2675 3550 2675 4300 
L 2000 4300 
Q 1500 4300 1075 4275 
L 1075 4750 
Q 1500 4725 2000 4725 
L 4350 4725 
z
" transform="scale(0.015625)"/>
       <path id="SimHei-6545" d="M 4550 5000 
Q 4475 4875 4350 4612 
Q 4225 4350 4075 3975 
L 5250 3975 
Q 5800 3975 6175 4000 
L 6175 3550 
Q 5850 3575 5475 3575 
Q 5425 2950 5275 2225 
Q 5125 1500 4725 800 
Q 4975 500 5400 225 
Q 5825 -50 6150 -175 
Q 5950 -325 5775 -625 
Q 5000 -200 4450 450 
Q 4125 125 3687 -175 
Q 3250 -475 2925 -625 
Q 2800 -375 2575 -225 
Q 3575 200 4150 800 
Q 3875 1275 3712 1825 
Q 3550 2375 3450 2850 
Q 3275 2600 3150 2425 
Q 3000 2600 2775 2725 
Q 3075 3025 3450 3725 
Q 3825 4425 3975 5200 
Q 4225 5050 4550 5000 
z
M 1450 4300 
Q 1450 4625 1425 4950 
L 1950 4950 
Q 1900 4625 1900 4275 
L 1900 3725 
Q 2700 3725 3075 3750 
L 3075 3300 
Q 2700 3325 1900 3325 
L 1900 2250 
L 2750 2250 
Q 2725 1825 2725 1150 
Q 2725 475 2750 0 
L 2275 0 
L 2275 325 
L 1050 325 
L 1050 -200 
L 575 -200 
Q 600 275 600 1025 
Q 600 1800 575 2250 
L 1450 2250 
L 1450 3325 
Q 650 3325 300 3300 
L 300 3750 
Q 650 3725 1450 3725 
L 1450 4300 
z
M 3900 3075 
Q 3950 2500 4100 1987 
Q 4250 1475 4425 1175 
Q 4675 1575 4812 2237 
Q 4950 2900 4975 3575 
L 3875 3575 
Q 3700 3275 3525 3000 
L 3900 3075 
z
M 2275 725 
L 2275 1850 
L 1050 1850 
L 1050 725 
L 2275 725 
z
" transform="scale(0.015625)"/>
       <path id="SimHei-969c" d="M 5650 2800 
Q 5625 2425 5625 2200 
L 5625 1675 
Q 5625 1350 5650 1025 
L 4400 1025 
L 4400 550 
L 5325 550 
Q 5725 550 6175 575 
L 6175 175 
Q 5800 200 5325 200 
L 4400 200 
Q 4400 -300 4425 -625 
L 3900 -625 
Q 3925 -300 3925 200 
L 3225 200 
Q 2675 200 2175 175 
L 2175 575 
Q 2650 550 3225 550 
L 3925 550 
L 3925 1025 
L 2700 1025 
Q 2725 1275 2725 1700 
L 2725 2200 
Q 2725 2525 2700 2800 
L 5650 2800 
z
M 2350 4750 
Q 2225 4550 2037 3987 
Q 1850 3425 1675 2950 
Q 2150 2350 2250 2037 
Q 2350 1725 2337 1425 
Q 2325 1125 2025 962 
Q 1725 800 1325 725 
Q 1300 975 1150 1250 
Q 1650 1225 1787 1362 
Q 1925 1500 1850 1775 
Q 1775 2050 1600 2300 
Q 1425 2550 1175 2875 
Q 1300 3200 1450 3600 
Q 1600 4000 1675 4400 
L 900 4400 
L 900 -550 
L 400 -550 
Q 425 0 425 850 
L 425 3725 
Q 425 4275 400 4750 
L 2350 4750 
z
M 4500 3575 
Q 4575 3725 4600 3887 
Q 4625 4050 4650 4200 
L 3625 4200 
Q 3075 4200 2650 4175 
L 2650 4575 
Q 3075 4550 3600 4550 
L 4925 4550 
Q 5425 4550 5875 4575 
L 5875 4175 
Q 5425 4200 4925 4200 
L 4700 4200 
Q 4875 4125 5175 4025 
Q 5050 3800 4950 3575 
L 5325 3575 
Q 5775 3575 6175 3600 
L 6175 3200 
Q 5775 3225 5325 3225 
L 3225 3225 
Q 2775 3225 2325 3200 
L 2325 3600 
Q 2600 3575 2975 3575 
L 3275 3575 
Q 3225 3800 3150 4000 
Q 3350 4025 3600 4100 
Q 3675 3825 3800 3575 
L 4500 3575 
z
M 5150 1375 
L 5150 1725 
L 3200 1725 
L 3200 1375 
L 5150 1375 
z
M 5150 2100 
L 5150 2450 
L 3200 2450 
L 3200 2100 
L 5150 2100 
z
M 3975 4600 
Q 3900 4875 3750 5150 
L 4250 5300 
Q 4350 5050 4475 4750 
Q 4200 4675 3975 4600 
z
" transform="scale(0.015625)"/>
       <path id="SimHei-20" transform="scale(0.015625)"/>
       <path id="SimHei-76" d="M 2875 2925 
L 1825 75 
L 1275 75 
L 225 2925 
L 750 2925 
L 1525 750 
L 1575 750 
L 2350 2925 
L 2875 2925 
z
" transform="scale(0.015625)"/>
       <path id="SimHei-73" d="M 2750 900 
Q 2750 500 2437 287 
Q 2125 75 1650 75 
Q 1050 75 725 312 
Q 400 550 400 1000 
L 900 1000 
Q 900 700 1112 600 
Q 1325 500 1625 500 
Q 1925 500 2075 612 
Q 2225 725 2225 900 
Q 2225 1025 2100 1150 
Q 1975 1275 1475 1350 
Q 900 1425 687 1637 
Q 475 1850 475 2200 
Q 475 2500 762 2737 
Q 1050 2975 1600 2975 
Q 2100 2975 2387 2750 
Q 2675 2525 2675 2150 
L 2175 2150 
Q 2175 2375 2012 2462 
Q 1850 2550 1600 2550 
Q 1275 2550 1137 2437 
Q 1000 2325 1000 2175 
Q 1000 2000 1125 1900 
Q 1250 1800 1650 1750 
Q 2300 1650 2525 1437 
Q 2750 1225 2750 900 
z
" transform="scale(0.015625)"/>
       <path id="SimHei-5176" d="M 4725 1375 
Q 5550 1375 6025 1400 
L 6025 1000 
Q 5575 1025 5250 1025 
L 1225 1025 
Q 675 1025 325 1000 
L 325 1400 
Q 525 1375 1650 1375 
L 1650 3950 
Q 1050 3950 675 3925 
L 675 4350 
Q 875 4325 1650 4325 
Q 1650 4875 1625 5125 
L 2225 5125 
Q 2175 4850 2175 4325 
L 4200 4325 
Q 4200 4775 4175 5100 
L 4750 5100 
Q 4725 4775 4725 4325 
Q 5275 4325 5675 4350 
L 5675 3925 
Q 5250 3950 4725 3950 
L 4725 1375 
z
M 4200 1375 
L 4200 2000 
L 2175 2000 
L 2175 1375 
L 4200 1375 
z
M 4200 2375 
L 4200 3000 
L 2175 3000 
L 2175 2375 
L 4200 2375 
z
M 4200 3350 
L 4200 3950 
L 2175 3950 
L 2175 3350 
L 4200 3350 
z
M 4175 875 
Q 5200 225 5750 -225 
Q 5500 -400 5325 -625 
Q 5025 -250 3825 500 
Q 4075 700 4175 875 
z
M 525 -275 
Q 800 -125 1275 212 
Q 1750 550 2075 875 
Q 2275 675 2475 500 
Q 2200 300 900 -650 
Q 750 -425 525 -275 
z
" transform="scale(0.015625)"/>
       <path id="SimHei-4ed6" d="M 2500 2875 
Q 2500 3850 2475 4225 
L 3000 4225 
Q 2975 3900 2975 3025 
L 3775 3275 
L 3775 4300 
Q 3775 4800 3725 5150 
L 4250 5150 
Q 4225 4800 4225 4275 
L 4225 3450 
L 5575 3925 
Q 5550 2600 5550 2075 
Q 5550 1550 5275 1425 
Q 5000 1300 4575 1225 
Q 4525 1475 4375 1750 
Q 4850 1750 4950 1787 
Q 5050 1825 5050 2025 
L 5075 3275 
L 4225 2975 
L 4225 1375 
Q 4225 950 4250 650 
L 3750 650 
Q 3775 950 3775 1375 
L 3775 2850 
L 2975 2575 
L 2975 425 
Q 2975 75 3325 100 
L 5100 100 
Q 5300 100 5400 212 
Q 5500 325 5550 925 
Q 5850 700 6125 650 
Q 5950 0 5750 -175 
Q 5550 -350 5175 -325 
L 3225 -325 
Q 2550 -350 2500 275 
L 2500 2425 
Q 2125 2300 1900 2175 
L 1700 2650 
Q 2025 2700 2500 2875 
z
M 2250 4925 
Q 2025 4625 1650 3775 
L 1650 475 
Q 1650 -150 1700 -575 
L 1175 -575 
Q 1200 -150 1200 475 
L 1200 2925 
Q 875 2325 700 2050 
Q 525 2275 300 2400 
Q 625 2750 1062 3637 
Q 1500 4525 1650 5175 
Q 2050 5000 2250 4925 
z
" transform="scale(0.015625)"/>
       <path id="SimHei-28" d="M 2975 -200 
L 2700 -475 
Q 2075 125 1762 775 
Q 1450 1425 1450 2250 
Q 1450 3075 1762 3725 
Q 2075 4375 2700 5000 
L 2975 4725 
Q 2400 4175 2112 3587 
Q 1825 3000 1825 2250 
Q 1825 1500 2112 912 
Q 2400 325 2975 -200 
z
" transform="scale(0.015625)"/>
       <path id="SimHei-41" d="M 3075 125 
L 2475 125 
L 2125 1450 
L 1025 1450 
L 675 125 
L 75 125 
L 1325 4450 
L 1825 4450 
L 3075 125 
z
M 2000 1925 
L 1600 3450 
L 1550 3450 
L 1150 1925 
L 2000 1925 
z
" transform="scale(0.015625)"/>
       <path id="SimHei-55" d="M 2875 1375 
Q 2875 775 2562 425 
Q 2250 75 1575 75 
Q 900 75 587 425 
Q 275 775 275 1375 
L 275 4400 
L 850 4400 
L 850 1375 
Q 850 950 1050 750 
Q 1250 550 1575 550 
Q 1900 550 2100 750 
Q 2300 950 2300 1375 
L 2300 4400 
L 2875 4400 
L 2875 1375 
z
" transform="scale(0.015625)"/>
       <path id="SimHei-3d" d="M 2975 2900 
L 125 2900 
L 125 3300 
L 2975 3300 
L 2975 2900 
z
M 2975 1375 
L 125 1375 
L 125 1775 
L 2975 1775 
L 2975 1375 
z
" transform="scale(0.015625)"/>
       <path id="SimHei-29" d="M 1675 2250 
Q 1675 1425 1362 775 
Q 1050 125 425 -475 
L 150 -200 
Q 725 325 1012 912 
Q 1300 1500 1300 2250 
Q 1300 3000 1012 3587 
Q 725 4175 150 4725 
L 425 5000 
Q 1050 4375 1362 3725 
Q 1675 3075 1675 2250 
z
" transform="scale(0.015625)"/>
      </defs>
      <use xlink:href="#SimHei-65e0"/>
      <use xlink:href="#SimHei-6545" x="100"/>
      <use xlink:href="#SimHei-969c" x="200"/>
      <use xlink:href="#SimHei-20" x="300"/>
      <use xlink:href="#SimHei-76" x="350"/>
      <use xlink:href="#SimHei-73" x="400"/>
      <use xlink:href="#SimHei-20" x="450"/>
      <use xlink:href="#SimHei-5176" x="500"/>
      <use xlink:href="#SimHei-4ed6" x="600"/>
      <use xlink:href="#SimHei-20" x="700"/>
      <use xlink:href="#SimHei-28" x="750"/>
      <use xlink:href="#SimHei-41" x="800"/>
      <use xlink:href="#SimHei-55" x="850"/>
      <use xlink:href="#SimHei-43" x="900"/>
      <use xlink:href="#SimHei-20" x="950"/>
      <use xlink:href="#SimHei-3d" x="1000"/>
      <use xlink:href="#SimHei-20" x="1050"/>
      <use xlink:href="#SimHei-31" x="1100"/>
      <use xlink:href="#SimHei-2e" x="1150"/>
      <use xlink:href="#SimHei-30" x="1200"/>
      <use xlink:href="#SimHei-30" x="1250"/>
      <use xlink:href="#SimHei-29" x="1300"/>
     </g>
    </g>
    <g id="line2d_20">
     <path d="M 418.301562 410.079375 
L 428.301562 410.079375 
L 438.301562 410.079375 
" style="fill: none; stroke: #ff7f0e; stroke-width: 2; stroke-linecap: square"/>
    </g>
    <g id="text_17">
     <!-- HDF vs 其他 (AUC = 1.00) -->
     <g transform="translate(446.301562 413.579375) scale(0.1 -0.1)">
      <defs>
       <path id="SimHei-48" d="M 2850 125 
L 2275 125 
L 2275 2125 
L 850 2125 
L 850 125 
L 275 125 
L 275 4400 
L 850 4400 
L 850 2600 
L 2275 2600 
L 2275 4400 
L 2850 4400 
L 2850 125 
z
" transform="scale(0.015625)"/>
       <path id="SimHei-44" d="M 2925 2250 
Q 2925 1100 2437 612 
Q 1950 125 1125 125 
L 275 125 
L 275 4400 
L 1125 4400 
Q 2050 4400 2487 3900 
Q 2925 3400 2925 2250 
z
M 2325 2250 
Q 2325 3175 2025 3550 
Q 1725 3925 1125 3925 
L 850 3925 
L 850 600 
L 1125 600 
Q 1725 600 2025 962 
Q 2325 1325 2325 2250 
z
" transform="scale(0.015625)"/>
       <path id="SimHei-46" d="M 2925 3925 
L 875 3925 
L 875 2525 
L 2425 2525 
L 2425 2050 
L 875 2050 
L 875 125 
L 300 125 
L 300 4400 
L 2925 4400 
L 2925 3925 
z
" transform="scale(0.015625)"/>
      </defs>
      <use xlink:href="#SimHei-48"/>
      <use xlink:href="#SimHei-44" x="50"/>
      <use xlink:href="#SimHei-46" x="100"/>
      <use xlink:href="#SimHei-20" x="150"/>
      <use xlink:href="#SimHei-76" x="200"/>
      <use xlink:href="#SimHei-73" x="250"/>
      <use xlink:href="#SimHei-20" x="300"/>
      <use xlink:href="#SimHei-5176" x="350"/>
      <use xlink:href="#SimHei-4ed6" x="450"/>
      <use xlink:href="#SimHei-20" x="550"/>
      <use xlink:href="#SimHei-28" x="600"/>
      <use xlink:href="#SimHei-41" x="650"/>
      <use xlink:href="#SimHei-55" x="700"/>
      <use xlink:href="#SimHei-43" x="750"/>
      <use xlink:href="#SimHei-20" x="800"/>
      <use xlink:href="#SimHei-3d" x="850"/>
      <use xlink:href="#SimHei-20" x="900"/>
      <use xlink:href="#SimHei-31" x="950"/>
      <use xlink:href="#SimHei-2e" x="1000"/>
      <use xlink:href="#SimHei-30" x="1050"/>
      <use xlink:href="#SimHei-30" x="1100"/>
      <use xlink:href="#SimHei-29" x="1150"/>
     </g>
    </g>
    <g id="line2d_21">
     <path d="M 418.301562 424.180937 
L 428.301562 424.180937 
L 438.301562 424.180937 
" style="fill: none; stroke: #2ca02c; stroke-width: 2; stroke-linecap: square"/>
    </g>
    <g id="text_18">
     <!-- PWF vs 其他 (AUC = 1.00) -->
     <g transform="translate(446.301562 427.680937) scale(0.1 -0.1)">
      <defs>
       <path id="SimHei-50" d="M 2950 3100 
Q 2950 2500 2600 2150 
Q 2250 1800 1625 1800 
L 900 1800 
L 900 125 
L 325 125 
L 325 4400 
L 1625 4400 
Q 2250 4400 2600 4050 
Q 2950 3700 2950 3100 
z
M 2375 3100 
Q 2375 3575 2150 3750 
Q 1925 3925 1475 3925 
L 900 3925 
L 900 2275 
L 1475 2275 
Q 1925 2275 2150 2450 
Q 2375 2625 2375 3100 
z
" transform="scale(0.015625)"/>
       <path id="SimHei-57" d="M 3075 4400 
L 2525 75 
L 2025 75 
L 1575 3275 
L 1525 3275 
L 1075 75 
L 575 75 
L 25 4400 
L 575 4400 
L 850 1675 
L 900 1675 
L 1275 4400 
L 1825 4400 
L 2200 1675 
L 2250 1675 
L 2525 4400 
L 3075 4400 
z
" transform="scale(0.015625)"/>
      </defs>
      <use xlink:href="#SimHei-50"/>
      <use xlink:href="#SimHei-57" x="50"/>
      <use xlink:href="#SimHei-46" x="100"/>
      <use xlink:href="#SimHei-20" x="150"/>
      <use xlink:href="#SimHei-76" x="200"/>
      <use xlink:href="#SimHei-73" x="250"/>
      <use xlink:href="#SimHei-20" x="300"/>
      <use xlink:href="#SimHei-5176" x="350"/>
      <use xlink:href="#SimHei-4ed6" x="450"/>
      <use xlink:href="#SimHei-20" x="550"/>
      <use xlink:href="#SimHei-28" x="600"/>
      <use xlink:href="#SimHei-41" x="650"/>
      <use xlink:href="#SimHei-55" x="700"/>
      <use xlink:href="#SimHei-43" x="750"/>
      <use xlink:href="#SimHei-20" x="800"/>
      <use xlink:href="#SimHei-3d" x="850"/>
      <use xlink:href="#SimHei-20" x="900"/>
      <use xlink:href="#SimHei-31" x="950"/>
      <use xlink:href="#SimHei-2e" x="1000"/>
      <use xlink:href="#SimHei-30" x="1050"/>
      <use xlink:href="#SimHei-30" x="1100"/>
      <use xlink:href="#SimHei-29" x="1150"/>
     </g>
    </g>
    <g id="line2d_22">
     <path d="M 418.301562 438.2825 
L 428.301562 438.2825 
L 438.301562 438.2825 
" style="fill: none; stroke: #d62728; stroke-width: 2; stroke-linecap: square"/>
    </g>
    <g id="text_19">
     <!-- OSF vs 其他 (AUC = 1.00) -->
     <g transform="translate(446.301562 441.7825) scale(0.1 -0.1)">
      <defs>
       <path id="SimHei-53" d="M 2900 1325 
Q 2900 750 2537 412 
Q 2175 75 1550 75 
Q 925 75 575 425 
Q 225 775 225 1300 
L 225 1475 
L 800 1475 
L 800 1325 
Q 800 950 1025 750 
Q 1250 550 1550 550 
Q 1950 550 2137 762 
Q 2325 975 2325 1275 
Q 2325 1525 2100 1737 
Q 1875 1950 1450 2125 
Q 850 2350 587 2625 
Q 325 2900 325 3275 
Q 325 3800 687 4125 
Q 1050 4450 1550 4450 
Q 2200 4450 2487 4062 
Q 2775 3675 2775 3225 
L 2200 3225 
Q 2225 3500 2050 3725 
Q 1875 3950 1550 3950 
Q 1250 3950 1075 3787 
Q 900 3625 900 3350 
Q 900 3125 1037 2962 
Q 1175 2800 1750 2575 
Q 2300 2350 2600 2037 
Q 2900 1725 2900 1325 
z
" transform="scale(0.015625)"/>
      </defs>
      <use xlink:href="#SimHei-4f"/>
      <use xlink:href="#SimHei-53" x="50"/>
      <use xlink:href="#SimHei-46" x="100"/>
      <use xlink:href="#SimHei-20" x="150"/>
      <use xlink:href="#SimHei-76" x="200"/>
      <use xlink:href="#SimHei-73" x="250"/>
      <use xlink:href="#SimHei-20" x="300"/>
      <use xlink:href="#SimHei-5176" x="350"/>
      <use xlink:href="#SimHei-4ed6" x="450"/>
      <use xlink:href="#SimHei-20" x="550"/>
      <use xlink:href="#SimHei-28" x="600"/>
      <use xlink:href="#SimHei-41" x="650"/>
      <use xlink:href="#SimHei-55" x="700"/>
      <use xlink:href="#SimHei-43" x="750"/>
      <use xlink:href="#SimHei-20" x="800"/>
      <use xlink:href="#SimHei-3d" x="850"/>
      <use xlink:href="#SimHei-20" x="900"/>
      <use xlink:href="#SimHei-31" x="950"/>
      <use xlink:href="#SimHei-2e" x="1000"/>
      <use xlink:href="#SimHei-30" x="1050"/>
      <use xlink:href="#SimHei-30" x="1100"/>
      <use xlink:href="#SimHei-29" x="1150"/>
     </g>
    </g>
    <g id="line2d_23">
     <path d="M 418.301562 452.579375 
L 428.301562 452.579375 
L 438.301562 452.579375 
" style="fill: none; stroke-dasharray: 11.1,4.8; stroke-dashoffset: 0; stroke: #9467bd; stroke-width: 3"/>
    </g>
    <g id="text_20">
     <!-- 有故障 vs 无故障 (AUC = 1.00) -->
     <g transform="translate(446.301562 456.079375) scale(0.1 -0.1)">
      <defs>
       <path id="SimHei-6709" d="M 275 1625 
Q 850 1975 1400 2537 
Q 1950 3100 2400 3925 
L 1500 3925 
Q 1150 3925 625 3900 
L 625 4375 
Q 1275 4350 1600 4350 
L 2550 4350 
Q 2750 4950 2775 5225 
Q 3150 5125 3375 5075 
Q 3300 5000 3125 4350 
L 5150 4350 
Q 5575 4350 6025 4375 
L 6025 3900 
Q 5575 3925 5225 3925 
L 2975 3925 
Q 2800 3600 2600 3275 
L 5475 3275 
Q 5450 2650 5450 2150 
L 5450 125 
Q 5450 -225 5250 -387 
Q 5050 -550 4400 -600 
Q 4375 -325 4225 0 
Q 4600 -50 4775 -25 
Q 4950 0 4950 250 
L 4950 750 
L 2350 750 
L 2350 -575 
L 1800 -575 
Q 1825 50 1825 500 
L 1825 2275 
Q 1300 1675 725 1225 
Q 625 1400 275 1625 
z
M 4950 2175 
L 4950 2875 
L 2350 2875 
L 2350 2175 
L 4950 2175 
z
M 4950 1150 
L 4950 1775 
L 2350 1775 
L 2350 1150 
L 4950 1150 
z
" transform="scale(0.015625)"/>
      </defs>
      <use xlink:href="#SimHei-6709"/>
      <use xlink:href="#SimHei-6545" x="100"/>
      <use xlink:href="#SimHei-969c" x="200"/>
      <use xlink:href="#SimHei-20" x="300"/>
      <use xlink:href="#SimHei-76" x="350"/>
      <use xlink:href="#SimHei-73" x="400"/>
      <use xlink:href="#SimHei-20" x="450"/>
      <use xlink:href="#SimHei-65e0" x="500"/>
      <use xlink:href="#SimHei-6545" x="600"/>
      <use xlink:href="#SimHei-969c" x="700"/>
      <use xlink:href="#SimHei-20" x="800"/>
      <use xlink:href="#SimHei-28" x="850"/>
      <use xlink:href="#SimHei-41" x="900"/>
      <use xlink:href="#SimHei-55" x="950"/>
      <use xlink:href="#SimHei-43" x="1000"/>
      <use xlink:href="#SimHei-20" x="1050"/>
      <use xlink:href="#SimHei-3d" x="1100"/>
      <use xlink:href="#SimHei-20" x="1150"/>
      <use xlink:href="#SimHei-31" x="1200"/>
      <use xlink:href="#SimHei-2e" x="1250"/>
      <use xlink:href="#SimHei-30" x="1300"/>
      <use xlink:href="#SimHei-30" x="1350"/>
      <use xlink:href="#SimHei-29" x="1400"/>
     </g>
    </g>
   </g>
  </g>
 </g>
 <defs>
  <clipPath id="pa2fd617478">
   <rect x="42.301563" y="22.809375" width="558" height="443.52"/>
  </clipPath>
 </defs>
</svg>
