<?xml version="1.0" encoding="utf-8" standalone="no"?>
<!DOCTYPE svg PUBLIC "-//W3C//DTD SVG 1.1//EN"
  "http://www.w3.org/Graphics/SVG/1.1/DTD/svg11.dtd">
<svg xmlns:xlink="http://www.w3.org/1999/xlink" width="612.61875pt" height="391.032187pt" viewBox="0 0 612.61875 391.032187" xmlns="http://www.w3.org/2000/svg" version="1.1">
 <metadata>
  <rdf:RDF xmlns:dc="http://purl.org/dc/elements/1.1/" xmlns:cc="http://creativecommons.org/ns#" xmlns:rdf="http://www.w3.org/1999/02/22-rdf-syntax-ns#">
   <cc:Work>
    <dc:type rdf:resource="http://purl.org/dc/dcmitype/StillImage"/>
    <dc:date>2025-03-03T15:20:27.369895</dc:date>
    <dc:format>image/svg+xml</dc:format>
    <dc:creator>
     <cc:Agent>
      <dc:title>Matplotlib v3.9.2, https://matplotlib.org/</dc:title>
     </cc:Agent>
    </dc:creator>
   </cc:Work>
  </rdf:RDF>
 </metadata>
 <defs>
  <style type="text/css">*{stroke-linejoin: round; stroke-linecap: butt}</style>
 </defs>
 <g id="figure_1">
  <g id="patch_1">
   <path d="M 0 391.032187 
L 612.61875 391.032187 
L 612.61875 0 
L 0 0 
z
" style="fill: #ffffff"/>
  </g>
  <g id="axes_1">
   <g id="patch_2">
    <path d="M 47.41875 355.449375 
L 605.41875 355.449375 
L 605.41875 22.809375 
L 47.41875 22.809375 
z
" style="fill: #ffffff"/>
   </g>
   <g id="matplotlib.axis_1">
    <g id="xtick_1">
     <g id="line2d_1">
      <path d="M 72.782386 355.449375 
L 72.782386 22.809375 
" clip-path="url(#pa13b33ad76)" style="fill: none; stroke: #b0b0b0; stroke-width: 0.8; stroke-linecap: square"/>
     </g>
     <g id="line2d_2">
      <defs>
       <path id="m51b0f49142" d="M 0 0 
L 0 3.5 
" style="stroke: #000000; stroke-width: 0.8"/>
      </defs>
      <g>
       <use xlink:href="#m51b0f49142" x="72.782386" y="355.449375" style="stroke: #000000; stroke-width: 0.8"/>
      </g>
     </g>
     <g id="text_1">
      <!-- 0 -->
      <g transform="translate(70.282386 369.324375) scale(0.1 -0.1)">
       <defs>
        <path id="SimHei-30" d="M 225 2537 
Q 250 3200 412 3587 
Q 575 3975 875 4225 
Q 1175 4475 1612 4475 
Q 2050 4475 2375 4112 
Q 2700 3750 2800 3200 
Q 2900 2650 2862 1937 
Q 2825 1225 2612 775 
Q 2400 325 1975 150 
Q 1550 -25 1125 187 
Q 700 400 525 750 
Q 350 1100 275 1487 
Q 200 1875 225 2537 
z
M 750 2687 
Q 675 2000 800 1462 
Q 925 925 1212 700 
Q 1500 475 1800 612 
Q 2100 750 2237 1162 
Q 2375 1575 2375 2062 
Q 2375 2550 2337 2950 
Q 2300 3350 2112 3675 
Q 1925 4000 1612 4012 
Q 1300 4025 1062 3700 
Q 825 3375 750 2687 
z
" transform="scale(0.015625)"/>
       </defs>
       <use xlink:href="#SimHei-30"/>
      </g>
     </g>
    </g>
    <g id="xtick_2">
     <g id="line2d_3">
      <path d="M 175.261725 355.449375 
L 175.261725 22.809375 
" clip-path="url(#pa13b33ad76)" style="fill: none; stroke: #b0b0b0; stroke-width: 0.8; stroke-linecap: square"/>
     </g>
     <g id="line2d_4">
      <g>
       <use xlink:href="#m51b0f49142" x="175.261725" y="355.449375" style="stroke: #000000; stroke-width: 0.8"/>
      </g>
     </g>
     <g id="text_2">
      <!-- 20 -->
      <g transform="translate(170.261725 369.324375) scale(0.1 -0.1)">
       <defs>
        <path id="SimHei-32" d="M 300 250 
Q 325 625 650 925 
Q 975 1225 1475 1862 
Q 1975 2500 2125 2850 
Q 2275 3200 2237 3450 
Q 2200 3700 2000 3862 
Q 1800 4025 1537 4000 
Q 1275 3975 1037 3800 
Q 800 3625 675 3275 
L 200 3350 
Q 400 3925 712 4187 
Q 1025 4450 1450 4475 
Q 1700 4500 1900 4462 
Q 2100 4425 2312 4287 
Q 2525 4150 2662 3875 
Q 2800 3600 2762 3212 
Q 2725 2825 2375 2287 
Q 2025 1750 1025 600 
L 2825 600 
L 2825 150 
L 300 150 
L 300 250 
z
" transform="scale(0.015625)"/>
       </defs>
       <use xlink:href="#SimHei-32"/>
       <use xlink:href="#SimHei-30" x="50"/>
      </g>
     </g>
    </g>
    <g id="xtick_3">
     <g id="line2d_5">
      <path d="M 277.741064 355.449375 
L 277.741064 22.809375 
" clip-path="url(#pa13b33ad76)" style="fill: none; stroke: #b0b0b0; stroke-width: 0.8; stroke-linecap: square"/>
     </g>
     <g id="line2d_6">
      <g>
       <use xlink:href="#m51b0f49142" x="277.741064" y="355.449375" style="stroke: #000000; stroke-width: 0.8"/>
      </g>
     </g>
     <g id="text_3">
      <!-- 40 -->
      <g transform="translate(272.741064 369.324375) scale(0.1 -0.1)">
       <defs>
        <path id="SimHei-34" d="M 2000 1100 
L 75 1100 
L 75 1525 
L 2100 4450 
L 2475 4450 
L 2475 1525 
L 3075 1525 
L 3075 1100 
L 2475 1100 
L 2475 150 
L 2000 150 
L 2000 1100 
z
M 2000 1525 
L 2000 3500 
L 600 1525 
L 2000 1525 
z
" transform="scale(0.015625)"/>
       </defs>
       <use xlink:href="#SimHei-34"/>
       <use xlink:href="#SimHei-30" x="50"/>
      </g>
     </g>
    </g>
    <g id="xtick_4">
     <g id="line2d_7">
      <path d="M 380.220403 355.449375 
L 380.220403 22.809375 
" clip-path="url(#pa13b33ad76)" style="fill: none; stroke: #b0b0b0; stroke-width: 0.8; stroke-linecap: square"/>
     </g>
     <g id="line2d_8">
      <g>
       <use xlink:href="#m51b0f49142" x="380.220403" y="355.449375" style="stroke: #000000; stroke-width: 0.8"/>
      </g>
     </g>
     <g id="text_4">
      <!-- 60 -->
      <g transform="translate(375.220403 369.324375) scale(0.1 -0.1)">
       <defs>
        <path id="SimHei-36" d="M 250 1612 
Q 275 1975 387 2225 
Q 500 2475 725 2850 
L 1750 4450 
L 2325 4450 
L 1275 2800 
Q 1950 2975 2350 2750 
Q 2750 2525 2887 2237 
Q 3025 1950 3037 1612 
Q 3050 1275 2937 950 
Q 2825 625 2537 362 
Q 2250 100 1737 75 
Q 1225 50 862 262 
Q 500 475 362 862 
Q 225 1250 250 1612 
z
M 1025 787 
Q 1250 550 1625 525 
Q 2000 500 2250 775 
Q 2500 1050 2500 1575 
Q 2500 2100 2187 2300 
Q 1875 2500 1487 2450 
Q 1100 2400 925 2075 
Q 750 1750 775 1387 
Q 800 1025 1025 787 
z
" transform="scale(0.015625)"/>
       </defs>
       <use xlink:href="#SimHei-36"/>
       <use xlink:href="#SimHei-30" x="50"/>
      </g>
     </g>
    </g>
    <g id="xtick_5">
     <g id="line2d_9">
      <path d="M 482.699742 355.449375 
L 482.699742 22.809375 
" clip-path="url(#pa13b33ad76)" style="fill: none; stroke: #b0b0b0; stroke-width: 0.8; stroke-linecap: square"/>
     </g>
     <g id="line2d_10">
      <g>
       <use xlink:href="#m51b0f49142" x="482.699742" y="355.449375" style="stroke: #000000; stroke-width: 0.8"/>
      </g>
     </g>
     <g id="text_5">
      <!-- 80 -->
      <g transform="translate(477.699742 369.324375) scale(0.1 -0.1)">
       <defs>
        <path id="SimHei-38" d="M 175 1375 
Q 175 1675 325 1962 
Q 475 2250 825 2425 
Q 525 2600 425 2812 
Q 325 3025 312 3300 
Q 300 3575 387 3775 
Q 475 3975 650 4150 
Q 825 4325 1037 4387 
Q 1250 4450 1500 4450 
Q 1750 4450 1950 4400 
Q 2150 4350 2375 4187 
Q 2600 4025 2700 3725 
Q 2800 3425 2687 3025 
Q 2575 2625 2100 2400 
Q 2525 2275 2700 2012 
Q 2875 1750 2875 1375 
Q 2875 1000 2762 775 
Q 2650 550 2512 400 
Q 2375 250 2137 162 
Q 1900 75 1537 75 
Q 1175 75 912 162 
Q 650 250 475 425 
Q 300 600 237 837 
Q 175 1075 175 1375 
z
M 687 1400 
Q 675 1100 787 875 
Q 900 650 1200 587 
Q 1500 525 1825 600 
Q 2150 675 2275 950 
Q 2400 1225 2362 1500 
Q 2325 1775 2050 1962 
Q 1775 2150 1450 2125 
Q 1125 2100 912 1900 
Q 700 1700 687 1400 
z
M 775 3350 
Q 775 3100 950 2875 
Q 1125 2650 1500 2650 
Q 1875 2650 2062 2875 
Q 2250 3100 2237 3412 
Q 2225 3725 2012 3875 
Q 1800 4025 1437 4000 
Q 1075 3975 925 3787 
Q 775 3600 775 3350 
z
" transform="scale(0.015625)"/>
       </defs>
       <use xlink:href="#SimHei-38"/>
       <use xlink:href="#SimHei-30" x="50"/>
      </g>
     </g>
    </g>
    <g id="xtick_6">
     <g id="line2d_11">
      <path d="M 585.179081 355.449375 
L 585.179081 22.809375 
" clip-path="url(#pa13b33ad76)" style="fill: none; stroke: #b0b0b0; stroke-width: 0.8; stroke-linecap: square"/>
     </g>
     <g id="line2d_12">
      <g>
       <use xlink:href="#m51b0f49142" x="585.179081" y="355.449375" style="stroke: #000000; stroke-width: 0.8"/>
      </g>
     </g>
     <g id="text_6">
      <!-- 100 -->
      <g transform="translate(577.679081 369.324375) scale(0.1 -0.1)">
       <defs>
        <path id="SimHei-31" d="M 1400 3600 
Q 1075 3275 575 2975 
L 575 3450 
Q 1200 3875 1600 4450 
L 1900 4450 
L 1900 150 
L 1400 150 
L 1400 3600 
z
" transform="scale(0.015625)"/>
       </defs>
       <use xlink:href="#SimHei-31"/>
       <use xlink:href="#SimHei-30" x="50"/>
       <use xlink:href="#SimHei-30" x="100"/>
      </g>
     </g>
    </g>
    <g id="text_7">
     <!-- 轮次 -->
     <g transform="translate(316.41875 382.582187) scale(0.1 -0.1)">
      <defs>
       <path id="SimHei-8f6e" d="M 2200 3350 
Q 2175 3050 2175 2750 
L 2175 2425 
Q 2575 2425 2850 2450 
L 2850 2025 
Q 2550 2050 2175 2050 
L 2175 1150 
L 2975 1250 
Q 2925 1075 2925 850 
Q 2625 825 2175 750 
Q 2175 150 2200 -650 
L 1700 -650 
Q 1725 125 1725 700 
Q 700 550 400 475 
Q 300 775 250 975 
Q 600 1000 1725 1100 
L 1725 2050 
Q 1425 2050 1100 2025 
Q 775 2000 475 1925 
L 300 2425 
Q 450 2550 650 2900 
Q 850 3250 1075 3850 
Q 750 3850 275 3825 
L 275 4275 
Q 750 4250 1200 4250 
Q 1375 4875 1425 5200 
Q 1675 5075 1950 5025 
Q 1825 4750 1650 4250 
L 2075 4250 
Q 2600 4250 2975 4275 
L 2975 3825 
Q 2550 3850 2100 3850 
L 1550 3850 
Q 1175 2900 900 2425 
L 1725 2425 
Q 1700 3050 1700 3350 
L 2200 3350 
z
M 3750 1625 
Q 4750 2075 5200 2550 
Q 5475 2225 5625 2125 
Q 5175 1875 4750 1650 
Q 4325 1425 3750 1175 
L 3750 225 
Q 3750 -75 4050 -100 
L 4925 -100 
Q 5250 -125 5325 137 
Q 5400 400 5400 600 
Q 5800 350 5975 300 
Q 5750 -225 5612 -362 
Q 5475 -500 5175 -500 
L 3850 -500 
Q 3300 -500 3300 0 
L 3300 1900 
Q 3300 2475 3275 2900 
L 3775 2900 
Q 3750 2450 3750 2100 
L 3750 1625 
z
M 4375 4800 
Q 4875 3975 5337 3650 
Q 5800 3325 6200 3125 
Q 5975 2875 5825 2650 
Q 5200 3075 4825 3487 
Q 4450 3900 4200 4350 
Q 3875 3825 3587 3412 
Q 3300 3000 2925 2625 
Q 2725 2800 2450 3000 
Q 2775 3200 3037 3487 
Q 3300 3775 3512 4150 
Q 3725 4525 3950 5275 
Q 4300 5100 4550 5000 
L 4375 4800 
z
" transform="scale(0.015625)"/>
       <path id="SimHei-6b21" d="M 4150 3025 
Q 4000 2550 4050 2187 
Q 4100 1825 4275 1450 
Q 4450 1075 4800 750 
Q 5150 425 5475 212 
Q 5800 0 6150 -150 
Q 5875 -350 5750 -625 
Q 5250 -325 4887 -25 
Q 4525 275 4275 612 
Q 4025 950 3825 1425 
Q 3525 625 2950 125 
Q 2375 -375 1850 -650 
Q 1675 -400 1475 -225 
Q 2025 0 2487 362 
Q 2950 725 3162 1100 
Q 3375 1475 3450 1825 
Q 3525 2175 3537 2400 
Q 3550 2625 3525 3125 
Q 3825 3050 4150 3025 
z
M 3700 4975 
Q 3625 4900 3475 4575 
Q 3325 4250 3250 4075 
L 5775 4075 
Q 5650 3725 5550 3362 
Q 5450 3000 5275 2500 
Q 5000 2575 4775 2600 
Q 5025 3350 5100 3650 
L 3100 3650 
Q 2975 3400 2812 3100 
Q 2650 2800 2425 2450 
Q 2275 2600 1975 2700 
Q 2300 3050 2625 3762 
Q 2950 4475 3125 5200 
Q 3450 5025 3700 4975 
z
M 2025 2000 
Q 1825 1675 1475 1087 
Q 1125 500 725 -200 
Q 500 -25 250 175 
Q 725 725 1037 1262 
Q 1350 1800 1575 2325 
Q 1750 2175 2025 2000 
z
M 900 4750 
Q 1725 3725 1950 3375 
Q 1750 3250 1500 3050 
Q 1250 3525 500 4425 
Q 700 4575 900 4750 
z
" transform="scale(0.015625)"/>
      </defs>
      <use xlink:href="#SimHei-8f6e"/>
      <use xlink:href="#SimHei-6b21" x="100"/>
     </g>
    </g>
   </g>
   <g id="matplotlib.axis_2">
    <g id="ytick_1">
     <g id="line2d_13">
      <path d="M 47.41875 349.204666 
L 605.41875 349.204666 
" clip-path="url(#pa13b33ad76)" style="fill: none; stroke: #b0b0b0; stroke-width: 0.8; stroke-linecap: square"/>
     </g>
     <g id="line2d_14">
      <defs>
       <path id="mc225215a0a" d="M 0 0 
L -3.5 0 
" style="stroke: #000000; stroke-width: 0.8"/>
      </defs>
      <g>
       <use xlink:href="#mc225215a0a" x="47.41875" y="349.204666" style="stroke: #000000; stroke-width: 0.8"/>
      </g>
     </g>
     <g id="text_8">
      <!-- 0.00 -->
      <g transform="translate(20.41875 352.642166) scale(0.1 -0.1)">
       <defs>
        <path id="SimHei-2e" d="M 1075 125 
L 500 125 
L 500 675 
L 1075 675 
L 1075 125 
z
" transform="scale(0.015625)"/>
       </defs>
       <use xlink:href="#SimHei-30"/>
       <use xlink:href="#SimHei-2e" x="50"/>
       <use xlink:href="#SimHei-30" x="100"/>
       <use xlink:href="#SimHei-30" x="150"/>
      </g>
     </g>
    </g>
    <g id="ytick_2">
     <g id="line2d_15">
      <path d="M 47.41875 280.696284 
L 605.41875 280.696284 
" clip-path="url(#pa13b33ad76)" style="fill: none; stroke: #b0b0b0; stroke-width: 0.8; stroke-linecap: square"/>
     </g>
     <g id="line2d_16">
      <g>
       <use xlink:href="#mc225215a0a" x="47.41875" y="280.696284" style="stroke: #000000; stroke-width: 0.8"/>
      </g>
     </g>
     <g id="text_9">
      <!-- 0.05 -->
      <g transform="translate(20.41875 284.133784) scale(0.1 -0.1)">
       <defs>
        <path id="SimHei-35" d="M 550 1325 
Q 725 650 1150 575 
Q 1575 500 1837 662 
Q 2100 825 2212 1087 
Q 2325 1350 2312 1675 
Q 2300 2000 2137 2225 
Q 1975 2450 1725 2525 
Q 1475 2600 1162 2525 
Q 850 2450 650 2175 
L 225 2225 
Q 275 2375 700 4375 
L 2675 4375 
L 2675 3925 
L 1075 3925 
Q 950 3250 825 2850 
Q 1200 3025 1525 3012 
Q 1850 3000 2150 2862 
Q 2450 2725 2587 2487 
Q 2725 2250 2787 2012 
Q 2850 1775 2837 1500 
Q 2825 1225 2725 937 
Q 2625 650 2425 462 
Q 2225 275 1937 162 
Q 1650 50 1275 75 
Q 900 100 562 350 
Q 225 600 100 1200 
L 550 1325 
z
" transform="scale(0.015625)"/>
       </defs>
       <use xlink:href="#SimHei-30"/>
       <use xlink:href="#SimHei-2e" x="50"/>
       <use xlink:href="#SimHei-30" x="100"/>
       <use xlink:href="#SimHei-35" x="150"/>
      </g>
     </g>
    </g>
    <g id="ytick_3">
     <g id="line2d_17">
      <path d="M 47.41875 212.187901 
L 605.41875 212.187901 
" clip-path="url(#pa13b33ad76)" style="fill: none; stroke: #b0b0b0; stroke-width: 0.8; stroke-linecap: square"/>
     </g>
     <g id="line2d_18">
      <g>
       <use xlink:href="#mc225215a0a" x="47.41875" y="212.187901" style="stroke: #000000; stroke-width: 0.8"/>
      </g>
     </g>
     <g id="text_10">
      <!-- 0.10 -->
      <g transform="translate(20.41875 215.625401) scale(0.1 -0.1)">
       <use xlink:href="#SimHei-30"/>
       <use xlink:href="#SimHei-2e" x="50"/>
       <use xlink:href="#SimHei-31" x="100"/>
       <use xlink:href="#SimHei-30" x="150"/>
      </g>
     </g>
    </g>
    <g id="ytick_4">
     <g id="line2d_19">
      <path d="M 47.41875 143.679519 
L 605.41875 143.679519 
" clip-path="url(#pa13b33ad76)" style="fill: none; stroke: #b0b0b0; stroke-width: 0.8; stroke-linecap: square"/>
     </g>
     <g id="line2d_20">
      <g>
       <use xlink:href="#mc225215a0a" x="47.41875" y="143.679519" style="stroke: #000000; stroke-width: 0.8"/>
      </g>
     </g>
     <g id="text_11">
      <!-- 0.15 -->
      <g transform="translate(20.41875 147.117019) scale(0.1 -0.1)">
       <use xlink:href="#SimHei-30"/>
       <use xlink:href="#SimHei-2e" x="50"/>
       <use xlink:href="#SimHei-31" x="100"/>
       <use xlink:href="#SimHei-35" x="150"/>
      </g>
     </g>
    </g>
    <g id="ytick_5">
     <g id="line2d_21">
      <path d="M 47.41875 75.171137 
L 605.41875 75.171137 
" clip-path="url(#pa13b33ad76)" style="fill: none; stroke: #b0b0b0; stroke-width: 0.8; stroke-linecap: square"/>
     </g>
     <g id="line2d_22">
      <g>
       <use xlink:href="#mc225215a0a" x="47.41875" y="75.171137" style="stroke: #000000; stroke-width: 0.8"/>
      </g>
     </g>
     <g id="text_12">
      <!-- 0.20 -->
      <g transform="translate(20.41875 78.608637) scale(0.1 -0.1)">
       <use xlink:href="#SimHei-30"/>
       <use xlink:href="#SimHei-2e" x="50"/>
       <use xlink:href="#SimHei-32" x="100"/>
       <use xlink:href="#SimHei-30" x="150"/>
      </g>
     </g>
    </g>
    <g id="text_13">
     <!-- 损失 -->
     <g transform="translate(15.16875 199.129375) rotate(-90) scale(0.1 -0.1)">
      <defs>
       <path id="SimHei-635f" d="M 1175 4600 
Q 1175 4950 1150 5250 
L 1675 5250 
Q 1650 4975 1650 4600 
L 1650 4075 
Q 1950 4075 2325 4100 
L 2325 3625 
Q 1950 3650 1650 3650 
L 1650 2500 
Q 1875 2550 2275 2750 
Q 2275 2550 2300 2300 
Q 2025 2200 1650 2025 
L 1650 175 
Q 1650 -225 1425 -325 
Q 1200 -425 625 -500 
Q 600 -250 450 50 
Q 800 25 987 37 
Q 1175 50 1175 350 
L 1175 1850 
Q 675 1675 400 1500 
Q 375 1800 250 2100 
Q 600 2150 1175 2350 
L 1175 3650 
Q 650 3650 325 3625 
L 325 4100 
Q 625 4075 1175 4075 
L 1175 4600 
z
M 5550 5025 
Q 5525 4650 5525 4275 
Q 5525 3925 5550 3525 
L 2900 3525 
Q 2925 3925 2925 4275 
Q 2925 4650 2900 5025 
L 5550 5025 
z
M 5775 3075 
Q 5750 2725 5750 2350 
L 5750 1725 
Q 5750 1350 5775 875 
L 5275 875 
L 5275 2650 
L 3150 2650 
L 3150 850 
L 2650 850 
Q 2675 1275 2675 1700 
L 2675 2325 
Q 2675 2600 2650 3075 
L 5775 3075 
z
M 4525 2200 
Q 4425 1825 4362 1337 
Q 4300 850 4125 537 
Q 3950 225 3600 -62 
Q 3250 -350 2425 -650 
Q 2325 -450 2050 -175 
Q 2750 -50 3137 200 
Q 3525 450 3700 762 
Q 3875 1075 3900 1462 
Q 3925 1850 3925 2275 
Q 4225 2225 4525 2200 
z
M 5100 3925 
L 5100 4650 
L 3375 4650 
L 3375 3925 
L 5100 3925 
z
M 4675 750 
Q 4975 575 5412 337 
Q 5850 100 6175 -125 
Q 5975 -325 5850 -550 
Q 5525 -300 5200 -87 
Q 4875 125 4375 350 
Q 4550 550 4675 750 
z
" transform="scale(0.015625)"/>
       <path id="SimHei-5931" d="M 2050 4450 
Q 1925 4325 1675 3750 
L 2950 3750 
Q 2950 4650 2925 5100 
Q 3175 5075 3500 5050 
Q 3450 4700 3437 4425 
Q 3425 4150 3425 3750 
L 4600 3750 
Q 5000 3750 5425 3775 
L 5425 3300 
Q 5025 3325 4600 3325 
L 3425 3325 
Q 3425 2775 3375 2200 
L 5050 2200 
Q 5425 2200 5875 2225 
L 5875 1750 
Q 5425 1775 5050 1775 
L 3575 1775 
Q 3875 1100 4600 675 
Q 5325 250 6025 100 
Q 5825 -150 5675 -475 
Q 4950 -200 4250 287 
Q 3550 775 3200 1475 
Q 2900 825 2325 300 
Q 1750 -225 775 -650 
Q 650 -400 400 -175 
Q 1250 50 1912 587 
Q 2575 1125 2775 1775 
L 1325 1775 
Q 925 1775 450 1750 
L 450 2225 
Q 925 2200 1325 2200 
L 2875 2200 
Q 2950 2725 2950 3325 
L 1500 3325 
Q 1200 2800 975 2450 
Q 775 2575 500 2675 
Q 950 3225 1187 3750 
Q 1425 4275 1500 4675 
Q 1800 4525 2050 4450 
z
" transform="scale(0.015625)"/>
      </defs>
      <use xlink:href="#SimHei-635f"/>
      <use xlink:href="#SimHei-5931" x="100"/>
     </g>
    </g>
   </g>
   <g id="line2d_23">
    <path d="M 72.782386 37.929375 
L 77.906353 244.997269 
L 83.03032 265.296543 
L 88.154287 279.722331 
L 93.278254 292.266383 
L 98.402221 296.910425 
L 103.526188 299.815361 
L 108.650155 301.613184 
L 113.774122 305.197658 
L 118.898089 303.469197 
L 124.022056 308.107813 
L 129.146023 314.23789 
L 134.26999 297.455599 
L 139.393957 317.026564 
L 144.517924 315.307703 
L 149.64189 312.479717 
L 154.765857 321.696523 
L 159.889824 322.204371 
L 165.013791 318.129938 
L 170.137758 319.873876 
L 175.261725 318.146024 
L 180.385692 313.882345 
L 185.509659 318.617491 
L 190.633626 327.12593 
L 195.757593 325.616527 
L 200.88156 323.044714 
L 206.005527 319.234643 
L 211.129494 322.809038 
L 216.253461 329.263827 
L 221.377428 325.908722 
L 226.501395 328.934946 
L 231.625362 325.686808 
L 236.749329 322.866242 
L 241.873295 329.740829 
L 246.997262 323.792102 
L 252.121229 329.131547 
L 257.245196 326.022291 
L 262.369163 330.564688 
L 267.49313 333.018856 
L 272.617097 328.401147 
L 277.741064 326.486092 
L 282.865031 321.269496 
L 287.988998 332.403848 
L 293.112965 329.179727 
L 298.236932 325.065074 
L 303.360899 330.39146 
L 308.484866 333.688315 
L 313.608833 333.095466 
L 318.7328 329.491982 
L 323.856767 330.390481 
L 328.980733 329.634424 
L 334.1047 333.319315 
L 339.228667 332.606867 
L 344.352634 331.661871 
L 349.476601 327.289447 
L 354.600568 332.772712 
L 359.724535 331.007536 
L 364.848502 331.128017 
L 369.972469 336.66374 
L 375.096436 337.317898 
L 380.220403 328.938569 
L 385.34437 323.941918 
L 390.468337 328.80303 
L 395.592304 334.930586 
L 400.716271 334.987141 
L 405.840238 337.80438 
L 410.964205 333.068072 
L 416.088171 327.923854 
L 421.212138 333.581885 
L 426.336105 335.582225 
L 431.460072 333.822436 
L 436.584039 335.802998 
L 441.708006 339.571559 
L 446.831973 332.181253 
L 451.95594 323.887467 
L 457.079907 331.547314 
L 462.203874 338.705291 
L 467.327841 339.378894 
L 472.451808 334.580856 
L 477.575775 334.418244 
L 482.699742 337.283125 
L 487.823709 337.97036 
L 492.947676 335.202942 
L 498.071643 332.72635 
L 503.19561 327.089726 
L 508.319576 337.295664 
L 513.443543 334.186223 
L 518.56751 338.373276 
L 523.691477 338.07141 
L 528.815444 335.387628 
L 533.939411 335.588357 
L 539.063378 339.576704 
L 544.187345 338.226444 
L 549.311312 339.98581 
L 554.435279 340.329375 
L 559.559246 333.978523 
L 564.683213 334.633138 
L 569.80718 334.513246 
L 574.931147 336.554931 
L 580.055114 338.434535 
" clip-path="url(#pa13b33ad76)" style="fill: none; stroke: #1f77b4; stroke-width: 1.5; stroke-linecap: square"/>
   </g>
   <g id="line2d_24">
    <path d="M 72.782386 233.071233 
L 77.906353 250.513644 
L 83.03032 263.804837 
L 88.154287 282.638545 
L 93.278254 283.468398 
L 98.402221 283.533697 
L 103.526188 280.668367 
L 108.650155 301.511576 
L 113.774122 299.622235 
L 118.898089 287.080773 
L 124.022056 304.20554 
L 129.146023 305.085225 
L 134.26999 300.952592 
L 139.393957 305.790784 
L 144.517924 294.613147 
L 149.64189 311.798119 
L 154.765857 315.246862 
L 159.889824 305.54413 
L 165.013791 311.569734 
L 170.137758 313.693588 
L 175.261725 301.7044 
L 180.385692 304.650484 
L 185.509659 306.34619 
L 190.633626 316.656281 
L 195.757593 304.063258 
L 200.88156 317.374965 
L 206.005527 295.776886 
L 211.129494 313.156805 
L 216.253461 306.56585 
L 221.377428 314.321521 
L 226.501395 306.343561 
L 231.625362 309.987167 
L 236.749329 316.425851 
L 241.873295 316.087744 
L 246.997262 306.30605 
L 252.121229 313.99853 
L 257.245196 307.45566 
L 262.369163 317.698528 
L 267.49313 316.112306 
L 272.617097 314.293968 
L 277.741064 301.859075 
L 282.865031 316.163247 
L 287.988998 315.484379 
L 293.112965 295.477745 
L 298.236932 306.991962 
L 303.360899 313.894423 
L 308.484866 316.898208 
L 313.608833 317.951891 
L 318.7328 299.442948 
L 323.856767 317.129161 
L 328.980733 295.365512 
L 334.1047 319.310758 
L 339.228667 311.182199 
L 344.352634 295.940544 
L 349.476601 311.264118 
L 354.600568 315.900239 
L 359.724535 309.011409 
L 364.848502 319.512303 
L 369.972469 312.148252 
L 375.096436 291.454129 
L 380.220403 302.099068 
L 385.34437 299.687161 
L 390.468337 310.366986 
L 395.592304 312.910057 
L 400.716271 319.994098 
L 405.840238 318.490986 
L 410.964205 316.119 
L 416.088171 310.347985 
L 421.212138 308.065883 
L 426.336105 311.699492 
L 431.460072 316.44073 
L 436.584039 312.914885 
L 441.708006 307.59936 
L 446.831973 296.361151 
L 451.95594 309.312826 
L 457.079907 314.198773 
L 462.203874 320.56769 
L 467.327841 318.472315 
L 472.451808 303.513875 
L 477.575775 315.624721 
L 482.699742 314.022671 
L 487.823709 319.949218 
L 492.947676 318.874657 
L 498.071643 308.598008 
L 503.19561 320.575587 
L 508.319576 305.950216 
L 513.443543 305.727077 
L 518.56751 313.509571 
L 523.691477 304.100045 
L 528.815444 307.159372 
L 533.939411 310.470927 
L 539.063378 312.541702 
L 544.187345 319.482075 
L 549.311312 318.743528 
L 554.435279 312.142778 
L 559.559246 310.44306 
L 564.683213 311.711415 
L 569.80718 308.428593 
L 574.931147 318.762404 
L 580.055114 307.378631 
" clip-path="url(#pa13b33ad76)" style="fill: none; stroke: #ff7f0e; stroke-width: 1.5; stroke-linecap: square"/>
   </g>
   <g id="patch_3">
    <path d="M 47.41875 355.449375 
L 47.41875 22.809375 
" style="fill: none; stroke: #000000; stroke-width: 0.8; stroke-linejoin: miter; stroke-linecap: square"/>
   </g>
   <g id="patch_4">
    <path d="M 605.41875 355.449375 
L 605.41875 22.809375 
" style="fill: none; stroke: #000000; stroke-width: 0.8; stroke-linejoin: miter; stroke-linecap: square"/>
   </g>
   <g id="patch_5">
    <path d="M 47.41875 355.449375 
L 605.41875 355.449375 
" style="fill: none; stroke: #000000; stroke-width: 0.8; stroke-linejoin: miter; stroke-linecap: square"/>
   </g>
   <g id="patch_6">
    <path d="M 47.41875 22.809375 
L 605.41875 22.809375 
" style="fill: none; stroke: #000000; stroke-width: 0.8; stroke-linejoin: miter; stroke-linecap: square"/>
   </g>
   <g id="text_14">
    <!-- 训练历史 -->
    <g transform="translate(302.41875 16.809375) scale(0.12 -0.12)">
     <defs>
      <path id="SimHei-8bad" d="M 1650 3300 
Q 1625 2725 1625 2225 
L 1625 675 
Q 1950 1125 2050 1275 
Q 2175 1125 2350 900 
Q 2025 500 1800 212 
Q 1575 -75 1325 -425 
Q 1150 -200 950 -50 
Q 1150 225 1150 625 
L 1150 2875 
L 975 2875 
Q 600 2875 300 2850 
L 300 3325 
Q 600 3300 975 3300 
L 1650 3300 
z
M 3425 4600 
Q 3375 4350 3387 3362 
Q 3400 2375 3337 1887 
Q 3275 1400 3087 837 
Q 2900 275 2450 -375 
Q 2225 -200 1975 -125 
Q 2550 500 2762 1362 
Q 2975 2225 2950 3337 
Q 2925 4450 2900 4675 
Q 3150 4625 3425 4600 
z
M 5875 4700 
Q 5850 4500 5850 3975 
L 5850 625 
Q 5850 125 5875 -400 
L 5400 -400 
Q 5425 125 5425 600 
L 5425 3975 
Q 5425 4500 5400 4700 
L 5875 4700 
z
M 4600 175 
L 4125 175 
Q 4150 725 4150 1150 
L 4150 3600 
Q 4150 4050 4125 4350 
L 4600 4350 
L 4600 175 
z
M 1000 5150 
Q 1650 4600 2100 4100 
Q 1875 3925 1750 3750 
Q 1050 4550 700 4800 
Q 850 4950 1000 5150 
z
" transform="scale(0.015625)"/>
      <path id="SimHei-7ec3" d="M 3300 3825 
Q 2950 3825 2400 3800 
L 2400 4250 
Q 2950 4225 3325 4225 
L 3625 4225 
Q 3875 4950 3900 5175 
Q 4200 5025 4450 4925 
Q 4350 4825 4262 4612 
Q 4175 4400 4100 4225 
L 5025 4225 
Q 5425 4225 5900 4250 
L 5900 3800 
Q 5550 3825 5025 3825 
L 3975 3825 
Q 3850 3525 3700 3150 
L 4675 3150 
Q 4650 2875 4650 2475 
L 4650 1975 
L 4975 1975 
Q 5350 1975 5800 2000 
L 5800 1550 
Q 5350 1575 4975 1575 
L 4650 1575 
L 4650 125 
Q 4650 -300 4462 -425 
Q 4275 -550 3650 -625 
Q 3625 -375 3450 -100 
Q 4075 -125 4137 -25 
Q 4200 75 4200 325 
L 4200 1575 
L 3425 1575 
Q 3250 1575 3100 1562 
Q 2950 1550 2750 1475 
Q 2650 1725 2550 1950 
Q 2800 2025 3125 2775 
Q 2950 2775 2450 2750 
L 2450 3175 
Q 3025 3150 3250 3150 
Q 3400 3525 3500 3825 
L 3300 3825 
z
M 1650 2950 
Q 1875 3300 2100 3900 
Q 2325 3725 2575 3600 
Q 2325 3275 2025 2750 
Q 1725 2225 1075 1350 
Q 1300 1400 2400 1575 
Q 2350 1300 2375 1150 
Q 1825 1100 650 825 
Q 525 1075 400 1275 
Q 625 1400 887 1737 
Q 1150 2075 1450 2575 
Q 1300 2600 1012 2562 
Q 725 2525 450 2450 
Q 350 2675 250 2925 
Q 500 3075 812 3725 
Q 1125 4375 1325 5000 
Q 1600 4825 1850 4750 
Q 1600 4375 1387 3962 
Q 1175 3550 800 2925 
Q 1375 2925 1650 2950 
z
M 2425 700 
Q 2400 425 2425 250 
Q 2000 150 1462 -25 
Q 925 -200 475 -425 
Q 400 -150 300 125 
Q 950 275 1187 337 
Q 1425 400 2425 700 
z
M 3725 875 
Q 3650 800 3287 400 
Q 2925 0 2475 -475 
Q 2300 -250 2150 -125 
Q 2425 100 2750 462 
Q 3075 825 3325 1225 
Q 3475 1050 3725 875 
z
M 5275 1225 
Q 5925 375 6200 -100 
Q 5950 -200 5750 -375 
Q 5475 175 4900 950 
Q 5075 1050 5275 1225 
z
M 4200 1975 
L 4200 2775 
L 3575 2775 
Q 3325 2250 3175 1975 
L 4200 1975 
z
" transform="scale(0.015625)"/>
      <path id="SimHei-5386" d="M 3725 2500 
Q 3625 1775 3487 1337 
Q 3350 900 3150 562 
Q 2950 225 2687 -62 
Q 2425 -350 2075 -625 
Q 1825 -350 1500 -225 
Q 2075 75 2387 412 
Q 2700 750 2875 1125 
Q 3050 1500 3112 1787 
Q 3175 2075 3225 2500 
L 2725 2500 
Q 2125 2500 1900 2475 
L 1900 2950 
Q 2375 2925 2675 2925 
L 3250 2925 
Q 3275 3250 3275 3550 
L 3275 4275 
Q 3625 4175 3900 4150 
Q 3825 3775 3800 3512 
Q 3775 3250 3750 2925 
L 5650 2925 
Q 5600 2550 5550 1850 
Q 5500 1150 5475 687 
Q 5450 225 5375 -50 
Q 5300 -325 4987 -412 
Q 4675 -500 4300 -550 
Q 4225 -250 4050 100 
Q 4575 75 4725 125 
Q 4875 175 4912 562 
Q 4950 950 5000 1475 
Q 5050 2000 5075 2500 
L 3725 2500 
z
M 800 -675 
Q 550 -500 225 -400 
Q 525 0 662 412 
Q 800 825 900 1412 
Q 1000 2000 1000 2725 
L 1000 3950 
Q 1000 4450 950 4825 
L 4825 4825 
Q 5375 4825 5675 4850 
L 5675 4375 
Q 5425 4400 5000 4400 
L 1500 4400 
Q 1500 2800 1487 2287 
Q 1475 1775 1412 1275 
Q 1350 775 1262 450 
Q 1175 125 1062 -162 
Q 950 -450 800 -675 
z
" transform="scale(0.015625)"/>
      <path id="SimHei-53f2" d="M 3000 4225 
Q 3000 4975 2950 5250 
Q 3350 5200 3625 5175 
Q 3525 4950 3525 4225 
L 5500 4225 
Q 5475 3775 5475 3175 
Q 5475 2600 5500 2150 
L 3500 2150 
Q 3450 1750 3362 1362 
Q 3275 975 3125 700 
Q 3450 450 3875 325 
Q 4300 200 4750 150 
Q 5200 100 6175 125 
Q 5900 -125 5850 -425 
Q 5175 -425 4700 -350 
Q 4225 -275 3787 -150 
Q 3350 -25 2775 325 
Q 2100 -150 1562 -325 
Q 1025 -500 650 -575 
Q 525 -250 275 -75 
Q 750 -50 1350 125 
Q 1950 300 2325 575 
Q 1575 1250 1225 1800 
Q 1525 1825 1750 1950 
Q 2275 1300 2675 975 
Q 2825 1275 2887 1562 
Q 2950 1850 2975 2150 
L 900 2150 
Q 925 2600 925 3175 
Q 925 3775 900 4225 
L 3000 4225 
z
M 3000 2575 
L 3000 3800 
L 1450 3800 
L 1450 2575 
L 3000 2575 
z
M 4950 2575 
L 4950 3800 
L 3525 3800 
L 3525 2575 
L 4950 2575 
z
" transform="scale(0.015625)"/>
     </defs>
     <use xlink:href="#SimHei-8bad"/>
     <use xlink:href="#SimHei-7ec3" x="100"/>
     <use xlink:href="#SimHei-5386" x="200"/>
     <use xlink:href="#SimHei-53f2" x="300"/>
    </g>
   </g>
   <g id="legend_1">
    <g id="patch_7">
     <path d="M 526.41875 59.285937 
L 598.41875 59.285937 
Q 600.41875 59.285937 600.41875 57.285937 
L 600.41875 29.809375 
Q 600.41875 27.809375 598.41875 27.809375 
L 526.41875 27.809375 
Q 524.41875 27.809375 524.41875 29.809375 
L 524.41875 57.285937 
Q 524.41875 59.285937 526.41875 59.285937 
z
" style="fill: #ffffff; opacity: 0.8; stroke: #cccccc; stroke-linejoin: miter"/>
    </g>
    <g id="line2d_25">
     <path d="M 528.41875 36.278125 
L 538.41875 36.278125 
L 548.41875 36.278125 
" style="fill: none; stroke: #1f77b4; stroke-width: 1.5; stroke-linecap: square"/>
    </g>
    <g id="text_15">
     <!-- 训练损失 -->
     <g transform="translate(556.41875 39.778125) scale(0.1 -0.1)">
      <use xlink:href="#SimHei-8bad"/>
      <use xlink:href="#SimHei-7ec3" x="100"/>
      <use xlink:href="#SimHei-635f" x="200"/>
      <use xlink:href="#SimHei-5931" x="300"/>
     </g>
    </g>
    <g id="line2d_26">
     <path d="M 528.41875 50.535937 
L 538.41875 50.535937 
L 548.41875 50.535937 
" style="fill: none; stroke: #ff7f0e; stroke-width: 1.5; stroke-linecap: square"/>
    </g>
    <g id="text_16">
     <!-- 验证损失 -->
     <g transform="translate(556.41875 54.035937) scale(0.1 -0.1)">
      <defs>
       <path id="SimHei-9a8c" d="M 2300 4725 
Q 2250 4500 2225 4075 
L 2050 2125 
L 2525 2125 
Q 2500 1925 2475 1450 
L 2375 75 
Q 2375 -450 2075 -525 
Q 1775 -600 1250 -675 
Q 1175 -325 1050 -100 
Q 1575 -100 1737 -87 
Q 1900 -75 1950 150 
L 2025 1700 
L 550 1700 
Q 575 2175 587 2737 
Q 600 3300 600 3800 
L 1100 3800 
Q 1050 3525 1025 3087 
Q 1000 2650 1000 2125 
L 1625 2125 
L 1800 4325 
L 1125 4325 
Q 725 4325 350 4300 
L 350 4750 
Q 725 4725 1125 4725 
L 2300 4725 
z
M 4325 4875 
Q 4725 4125 5150 3775 
Q 5575 3425 6150 3225 
Q 5925 3025 5800 2725 
Q 5450 2925 5125 3200 
L 5125 2775 
Q 4800 2800 4200 2800 
Q 3600 2800 3225 2775 
L 3225 3175 
Q 3075 2975 2800 2650 
Q 2575 2875 2325 3000 
Q 2725 3275 2937 3550 
Q 3150 3825 3312 4125 
Q 3475 4425 3587 4675 
Q 3700 4925 3775 5225 
Q 4100 5150 4450 5075 
L 4325 4875 
z
M 5600 2150 
Q 5475 2000 5400 1737 
Q 5325 1475 5162 912 
Q 5000 350 4900 25 
L 5250 25 
Q 5425 25 5800 50 
L 5800 -400 
Q 5475 -375 5250 -375 
L 3325 -375 
Q 2875 -375 2675 -400 
L 2675 50 
Q 2975 25 3350 25 
L 4475 25 
Q 4675 575 4800 1150 
L 5050 2300 
Q 5250 2225 5600 2150 
z
M 5100 3225 
Q 4800 3450 4550 3775 
Q 4300 4100 4050 4600 
Q 3850 4200 3687 3912 
Q 3525 3625 3250 3225 
L 5100 3225 
z
M 3250 2175 
Q 3350 1825 3462 1375 
Q 3575 925 3675 550 
Q 3450 525 3250 425 
Q 3175 900 3087 1225 
Q 3000 1550 2850 2050 
Q 3050 2125 3250 2175 
z
M 1775 1125 
Q 1750 950 1725 700 
Q 1350 625 1112 575 
Q 875 525 375 375 
Q 300 650 200 925 
Q 550 950 925 1000 
Q 1300 1050 1775 1125 
z
M 4300 1650 
Q 4350 1325 4425 825 
L 4025 725 
Q 3925 1275 3875 1562 
Q 3825 1850 3750 2225 
Q 3975 2275 4200 2300 
L 4300 1650 
z
" transform="scale(0.015625)"/>
       <path id="SimHei-8bc1" d="M 5125 4675 
Q 5625 4675 6050 4700 
L 6050 4225 
Q 5625 4250 5125 4250 
L 4500 4250 
L 4500 2625 
L 5075 2625 
Q 5500 2625 5900 2650 
L 5900 2175 
Q 5525 2200 5075 2200 
L 4500 2200 
L 4500 125 
L 5200 125 
Q 5625 125 6175 150 
L 6175 -325 
Q 5625 -300 5200 -300 
L 3000 -300 
Q 2400 -300 2000 -325 
L 2000 150 
Q 2400 125 2775 125 
L 2775 2075 
Q 2775 2600 2750 2950 
L 3275 2950 
Q 3250 2625 3250 2075 
L 3250 125 
L 4000 125 
L 4000 4250 
L 3550 4250 
Q 2975 4250 2450 4225 
L 2450 4700 
Q 2975 4675 3550 4675 
L 5125 4675 
z
M 850 -125 
Q 1150 175 1150 500 
L 1150 2750 
L 925 2750 
Q 575 2750 225 2725 
L 225 3200 
Q 550 3175 925 3175 
L 1650 3175 
Q 1625 2700 1625 2175 
L 1625 800 
Q 1850 1075 2025 1325 
Q 2150 1050 2325 825 
Q 2050 500 1812 212 
Q 1575 -75 1225 -525 
Q 1050 -300 850 -125 
z
M 1525 3900 
Q 1100 4500 800 4825 
Q 1000 4975 1175 5175 
L 1925 4275 
Q 1675 4100 1525 3900 
z
" transform="scale(0.015625)"/>
      </defs>
      <use xlink:href="#SimHei-9a8c"/>
      <use xlink:href="#SimHei-8bc1" x="100"/>
      <use xlink:href="#SimHei-635f" x="200"/>
      <use xlink:href="#SimHei-5931" x="300"/>
     </g>
    </g>
   </g>
  </g>
 </g>
 <defs>
  <clipPath id="pa13b33ad76">
   <rect x="47.41875" y="22.809375" width="558" height="332.64"/>
  </clipPath>
 </defs>
</svg>
