<?xml version="1.0" encoding="utf-8" standalone="no"?>
<!DOCTYPE svg PUBLIC "-//W3C//DTD SVG 1.1//EN"
  "http://www.w3.org/Graphics/SVG/1.1/DTD/svg11.dtd">
<svg xmlns:xlink="http://www.w3.org/1999/xlink" width="713.15875pt" height="424.038437pt" viewBox="0 0 713.15875 424.038437" xmlns="http://www.w3.org/2000/svg" version="1.1">
 <metadata>
  <rdf:RDF xmlns:dc="http://purl.org/dc/elements/1.1/" xmlns:cc="http://creativecommons.org/ns#" xmlns:rdf="http://www.w3.org/1999/02/22-rdf-syntax-ns#">
   <cc:Work>
    <dc:type rdf:resource="http://purl.org/dc/dcmitype/StillImage"/>
    <dc:date>2025-03-07T18:30:33.083232</dc:date>
    <dc:format>image/svg+xml</dc:format>
    <dc:creator>
     <cc:Agent>
      <dc:title>Matplotlib v3.9.2, https://matplotlib.org/</dc:title>
     </cc:Agent>
    </dc:creator>
   </cc:Work>
  </rdf:RDF>
 </metadata>
 <defs>
  <style type="text/css">*{stroke-linejoin: round; stroke-linecap: butt}</style>
 </defs>
 <g id="figure_1">
  <g id="patch_1">
   <path d="M 0 424.038437 
L 713.15875 424.038437 
L 713.15875 0 
L 0 0 
z
" style="fill: #ffffff"/>
  </g>
  <g id="axes_1">
   <g id="patch_2">
    <path d="M 32.41875 388.455625 
L 705.95875 388.455625 
L 705.95875 22.809375 
L 32.41875 22.809375 
z
" style="fill: #ffffff"/>
   </g>
   <g id="matplotlib.axis_1">
    <g id="xtick_1">
     <g id="line2d_1">
      <path d="M 63.034205 388.455625 
L 63.034205 22.809375 
" clip-path="url(#p2ea182385d)" style="fill: none; stroke: #b0b0b0; stroke-width: 0.8; stroke-linecap: square"/>
     </g>
     <g id="line2d_2">
      <defs>
       <path id="m186d9c3dd3" d="M 0 0 
L 0 3.5 
" style="stroke: #000000; stroke-width: 0.8"/>
      </defs>
      <g>
       <use xlink:href="#m186d9c3dd3" x="63.034205" y="388.455625" style="stroke: #000000; stroke-width: 0.8"/>
      </g>
     </g>
     <g id="text_1">
      <!-- 0 -->
      <g transform="translate(60.534205 402.330625) scale(0.1 -0.1)">
       <defs>
        <path id="SimHei-30" d="M 225 2537 
Q 250 3200 412 3587 
Q 575 3975 875 4225 
Q 1175 4475 1612 4475 
Q 2050 4475 2375 4112 
Q 2700 3750 2800 3200 
Q 2900 2650 2862 1937 
Q 2825 1225 2612 775 
Q 2400 325 1975 150 
Q 1550 -25 1125 187 
Q 700 400 525 750 
Q 350 1100 275 1487 
Q 200 1875 225 2537 
z
M 750 2687 
Q 675 2000 800 1462 
Q 925 925 1212 700 
Q 1500 475 1800 612 
Q 2100 750 2237 1162 
Q 2375 1575 2375 2062 
Q 2375 2550 2337 2950 
Q 2300 3350 2112 3675 
Q 1925 4000 1612 4012 
Q 1300 4025 1062 3700 
Q 825 3375 750 2687 
z
" transform="scale(0.015625)"/>
       </defs>
       <use xlink:href="#SimHei-30"/>
      </g>
     </g>
    </g>
    <g id="xtick_2">
     <g id="line2d_3">
      <path d="M 207.106932 388.455625 
L 207.106932 22.809375 
" clip-path="url(#p2ea182385d)" style="fill: none; stroke: #b0b0b0; stroke-width: 0.8; stroke-linecap: square"/>
     </g>
     <g id="line2d_4">
      <g>
       <use xlink:href="#m186d9c3dd3" x="207.106932" y="388.455625" style="stroke: #000000; stroke-width: 0.8"/>
      </g>
     </g>
     <g id="text_2">
      <!-- 20 -->
      <g transform="translate(202.106932 402.330625) scale(0.1 -0.1)">
       <defs>
        <path id="SimHei-32" d="M 300 250 
Q 325 625 650 925 
Q 975 1225 1475 1862 
Q 1975 2500 2125 2850 
Q 2275 3200 2237 3450 
Q 2200 3700 2000 3862 
Q 1800 4025 1537 4000 
Q 1275 3975 1037 3800 
Q 800 3625 675 3275 
L 200 3350 
Q 400 3925 712 4187 
Q 1025 4450 1450 4475 
Q 1700 4500 1900 4462 
Q 2100 4425 2312 4287 
Q 2525 4150 2662 3875 
Q 2800 3600 2762 3212 
Q 2725 2825 2375 2287 
Q 2025 1750 1025 600 
L 2825 600 
L 2825 150 
L 300 150 
L 300 250 
z
" transform="scale(0.015625)"/>
       </defs>
       <use xlink:href="#SimHei-32"/>
       <use xlink:href="#SimHei-30" x="50"/>
      </g>
     </g>
    </g>
    <g id="xtick_3">
     <g id="line2d_5">
      <path d="M 351.179659 388.455625 
L 351.179659 22.809375 
" clip-path="url(#p2ea182385d)" style="fill: none; stroke: #b0b0b0; stroke-width: 0.8; stroke-linecap: square"/>
     </g>
     <g id="line2d_6">
      <g>
       <use xlink:href="#m186d9c3dd3" x="351.179659" y="388.455625" style="stroke: #000000; stroke-width: 0.8"/>
      </g>
     </g>
     <g id="text_3">
      <!-- 40 -->
      <g transform="translate(346.179659 402.330625) scale(0.1 -0.1)">
       <defs>
        <path id="SimHei-34" d="M 2000 1100 
L 75 1100 
L 75 1525 
L 2100 4450 
L 2475 4450 
L 2475 1525 
L 3075 1525 
L 3075 1100 
L 2475 1100 
L 2475 150 
L 2000 150 
L 2000 1100 
z
M 2000 1525 
L 2000 3500 
L 600 1525 
L 2000 1525 
z
" transform="scale(0.015625)"/>
       </defs>
       <use xlink:href="#SimHei-34"/>
       <use xlink:href="#SimHei-30" x="50"/>
      </g>
     </g>
    </g>
    <g id="xtick_4">
     <g id="line2d_7">
      <path d="M 495.252386 388.455625 
L 495.252386 22.809375 
" clip-path="url(#p2ea182385d)" style="fill: none; stroke: #b0b0b0; stroke-width: 0.8; stroke-linecap: square"/>
     </g>
     <g id="line2d_8">
      <g>
       <use xlink:href="#m186d9c3dd3" x="495.252386" y="388.455625" style="stroke: #000000; stroke-width: 0.8"/>
      </g>
     </g>
     <g id="text_4">
      <!-- 60 -->
      <g transform="translate(490.252386 402.330625) scale(0.1 -0.1)">
       <defs>
        <path id="SimHei-36" d="M 250 1612 
Q 275 1975 387 2225 
Q 500 2475 725 2850 
L 1750 4450 
L 2325 4450 
L 1275 2800 
Q 1950 2975 2350 2750 
Q 2750 2525 2887 2237 
Q 3025 1950 3037 1612 
Q 3050 1275 2937 950 
Q 2825 625 2537 362 
Q 2250 100 1737 75 
Q 1225 50 862 262 
Q 500 475 362 862 
Q 225 1250 250 1612 
z
M 1025 787 
Q 1250 550 1625 525 
Q 2000 500 2250 775 
Q 2500 1050 2500 1575 
Q 2500 2100 2187 2300 
Q 1875 2500 1487 2450 
Q 1100 2400 925 2075 
Q 750 1750 775 1387 
Q 800 1025 1025 787 
z
" transform="scale(0.015625)"/>
       </defs>
       <use xlink:href="#SimHei-36"/>
       <use xlink:href="#SimHei-30" x="50"/>
      </g>
     </g>
    </g>
    <g id="xtick_5">
     <g id="line2d_9">
      <path d="M 639.325114 388.455625 
L 639.325114 22.809375 
" clip-path="url(#p2ea182385d)" style="fill: none; stroke: #b0b0b0; stroke-width: 0.8; stroke-linecap: square"/>
     </g>
     <g id="line2d_10">
      <g>
       <use xlink:href="#m186d9c3dd3" x="639.325114" y="388.455625" style="stroke: #000000; stroke-width: 0.8"/>
      </g>
     </g>
     <g id="text_5">
      <!-- 80 -->
      <g transform="translate(634.325114 402.330625) scale(0.1 -0.1)">
       <defs>
        <path id="SimHei-38" d="M 175 1375 
Q 175 1675 325 1962 
Q 475 2250 825 2425 
Q 525 2600 425 2812 
Q 325 3025 312 3300 
Q 300 3575 387 3775 
Q 475 3975 650 4150 
Q 825 4325 1037 4387 
Q 1250 4450 1500 4450 
Q 1750 4450 1950 4400 
Q 2150 4350 2375 4187 
Q 2600 4025 2700 3725 
Q 2800 3425 2687 3025 
Q 2575 2625 2100 2400 
Q 2525 2275 2700 2012 
Q 2875 1750 2875 1375 
Q 2875 1000 2762 775 
Q 2650 550 2512 400 
Q 2375 250 2137 162 
Q 1900 75 1537 75 
Q 1175 75 912 162 
Q 650 250 475 425 
Q 300 600 237 837 
Q 175 1075 175 1375 
z
M 687 1400 
Q 675 1100 787 875 
Q 900 650 1200 587 
Q 1500 525 1825 600 
Q 2150 675 2275 950 
Q 2400 1225 2362 1500 
Q 2325 1775 2050 1962 
Q 1775 2150 1450 2125 
Q 1125 2100 912 1900 
Q 700 1700 687 1400 
z
M 775 3350 
Q 775 3100 950 2875 
Q 1125 2650 1500 2650 
Q 1875 2650 2062 2875 
Q 2250 3100 2237 3412 
Q 2225 3725 2012 3875 
Q 1800 4025 1437 4000 
Q 1075 3975 925 3787 
Q 775 3600 775 3350 
z
" transform="scale(0.015625)"/>
       </defs>
       <use xlink:href="#SimHei-38"/>
       <use xlink:href="#SimHei-30" x="50"/>
      </g>
     </g>
    </g>
    <g id="text_6">
     <!-- 轮次 -->
     <g transform="translate(359.18875 415.588437) scale(0.1 -0.1)">
      <defs>
       <path id="SimHei-8f6e" d="M 2200 3350 
Q 2175 3050 2175 2750 
L 2175 2425 
Q 2575 2425 2850 2450 
L 2850 2025 
Q 2550 2050 2175 2050 
L 2175 1150 
L 2975 1250 
Q 2925 1075 2925 850 
Q 2625 825 2175 750 
Q 2175 150 2200 -650 
L 1700 -650 
Q 1725 125 1725 700 
Q 700 550 400 475 
Q 300 775 250 975 
Q 600 1000 1725 1100 
L 1725 2050 
Q 1425 2050 1100 2025 
Q 775 2000 475 1925 
L 300 2425 
Q 450 2550 650 2900 
Q 850 3250 1075 3850 
Q 750 3850 275 3825 
L 275 4275 
Q 750 4250 1200 4250 
Q 1375 4875 1425 5200 
Q 1675 5075 1950 5025 
Q 1825 4750 1650 4250 
L 2075 4250 
Q 2600 4250 2975 4275 
L 2975 3825 
Q 2550 3850 2100 3850 
L 1550 3850 
Q 1175 2900 900 2425 
L 1725 2425 
Q 1700 3050 1700 3350 
L 2200 3350 
z
M 3750 1625 
Q 4750 2075 5200 2550 
Q 5475 2225 5625 2125 
Q 5175 1875 4750 1650 
Q 4325 1425 3750 1175 
L 3750 225 
Q 3750 -75 4050 -100 
L 4925 -100 
Q 5250 -125 5325 137 
Q 5400 400 5400 600 
Q 5800 350 5975 300 
Q 5750 -225 5612 -362 
Q 5475 -500 5175 -500 
L 3850 -500 
Q 3300 -500 3300 0 
L 3300 1900 
Q 3300 2475 3275 2900 
L 3775 2900 
Q 3750 2450 3750 2100 
L 3750 1625 
z
M 4375 4800 
Q 4875 3975 5337 3650 
Q 5800 3325 6200 3125 
Q 5975 2875 5825 2650 
Q 5200 3075 4825 3487 
Q 4450 3900 4200 4350 
Q 3875 3825 3587 3412 
Q 3300 3000 2925 2625 
Q 2725 2800 2450 3000 
Q 2775 3200 3037 3487 
Q 3300 3775 3512 4150 
Q 3725 4525 3950 5275 
Q 4300 5100 4550 5000 
L 4375 4800 
z
" transform="scale(0.015625)"/>
       <path id="SimHei-6b21" d="M 4150 3025 
Q 4000 2550 4050 2187 
Q 4100 1825 4275 1450 
Q 4450 1075 4800 750 
Q 5150 425 5475 212 
Q 5800 0 6150 -150 
Q 5875 -350 5750 -625 
Q 5250 -325 4887 -25 
Q 4525 275 4275 612 
Q 4025 950 3825 1425 
Q 3525 625 2950 125 
Q 2375 -375 1850 -650 
Q 1675 -400 1475 -225 
Q 2025 0 2487 362 
Q 2950 725 3162 1100 
Q 3375 1475 3450 1825 
Q 3525 2175 3537 2400 
Q 3550 2625 3525 3125 
Q 3825 3050 4150 3025 
z
M 3700 4975 
Q 3625 4900 3475 4575 
Q 3325 4250 3250 4075 
L 5775 4075 
Q 5650 3725 5550 3362 
Q 5450 3000 5275 2500 
Q 5000 2575 4775 2600 
Q 5025 3350 5100 3650 
L 3100 3650 
Q 2975 3400 2812 3100 
Q 2650 2800 2425 2450 
Q 2275 2600 1975 2700 
Q 2300 3050 2625 3762 
Q 2950 4475 3125 5200 
Q 3450 5025 3700 4975 
z
M 2025 2000 
Q 1825 1675 1475 1087 
Q 1125 500 725 -200 
Q 500 -25 250 175 
Q 725 725 1037 1262 
Q 1350 1800 1575 2325 
Q 1750 2175 2025 2000 
z
M 900 4750 
Q 1725 3725 1950 3375 
Q 1750 3250 1500 3050 
Q 1250 3525 500 4425 
Q 700 4575 900 4750 
z
" transform="scale(0.015625)"/>
      </defs>
      <use xlink:href="#SimHei-8f6e"/>
      <use xlink:href="#SimHei-6b21" x="100"/>
     </g>
    </g>
   </g>
   <g id="matplotlib.axis_2">
    <g id="ytick_1">
     <g id="line2d_11">
      <path d="M 32.41875 374.94647 
L 705.95875 374.94647 
" clip-path="url(#p2ea182385d)" style="fill: none; stroke: #b0b0b0; stroke-width: 0.8; stroke-linecap: square"/>
     </g>
     <g id="line2d_12">
      <defs>
       <path id="me4a3375e1a" d="M 0 0 
L -3.5 0 
" style="stroke: #000000; stroke-width: 0.8"/>
      </defs>
      <g>
       <use xlink:href="#me4a3375e1a" x="32.41875" y="374.94647" style="stroke: #000000; stroke-width: 0.8"/>
      </g>
     </g>
     <g id="text_7">
      <!-- 1 -->
      <g transform="translate(20.41875 378.38397) scale(0.1 -0.1)">
       <defs>
        <path id="SimHei-31" d="M 1400 3600 
Q 1075 3275 575 2975 
L 575 3450 
Q 1200 3875 1600 4450 
L 1900 4450 
L 1900 150 
L 1400 150 
L 1400 3600 
z
" transform="scale(0.015625)"/>
       </defs>
       <use xlink:href="#SimHei-31"/>
      </g>
     </g>
    </g>
    <g id="ytick_2">
     <g id="line2d_13">
      <path d="M 32.41875 332.562518 
L 705.95875 332.562518 
" clip-path="url(#p2ea182385d)" style="fill: none; stroke: #b0b0b0; stroke-width: 0.8; stroke-linecap: square"/>
     </g>
     <g id="line2d_14">
      <g>
       <use xlink:href="#me4a3375e1a" x="32.41875" y="332.562518" style="stroke: #000000; stroke-width: 0.8"/>
      </g>
     </g>
     <g id="text_8">
      <!-- 2 -->
      <g transform="translate(20.41875 336.000018) scale(0.1 -0.1)">
       <use xlink:href="#SimHei-32"/>
      </g>
     </g>
    </g>
    <g id="ytick_3">
     <g id="line2d_15">
      <path d="M 32.41875 290.178565 
L 705.95875 290.178565 
" clip-path="url(#p2ea182385d)" style="fill: none; stroke: #b0b0b0; stroke-width: 0.8; stroke-linecap: square"/>
     </g>
     <g id="line2d_16">
      <g>
       <use xlink:href="#me4a3375e1a" x="32.41875" y="290.178565" style="stroke: #000000; stroke-width: 0.8"/>
      </g>
     </g>
     <g id="text_9">
      <!-- 3 -->
      <g transform="translate(20.41875 293.616065) scale(0.1 -0.1)">
       <defs>
        <path id="SimHei-33" d="M 250 1225 
L 700 1300 
Q 800 975 1025 762 
Q 1250 550 1587 562 
Q 1925 575 2125 837 
Q 2325 1100 2300 1437 
Q 2275 1775 2037 1962 
Q 1800 2150 1275 2225 
L 1275 2550 
Q 1800 2600 2037 2825 
Q 2275 3050 2250 3412 
Q 2225 3775 1925 3937 
Q 1625 4100 1287 3975 
Q 950 3850 750 3275 
L 300 3350 
Q 450 3800 712 4100 
Q 975 4400 1425 4450 
Q 1875 4500 2212 4337 
Q 2550 4175 2687 3837 
Q 2825 3500 2725 3100 
Q 2625 2700 2150 2400 
Q 2500 2250 2687 1950 
Q 2875 1650 2812 1162 
Q 2750 675 2375 375 
Q 2000 75 1525 87 
Q 1050 100 700 387 
Q 350 675 250 1225 
z
" transform="scale(0.015625)"/>
       </defs>
       <use xlink:href="#SimHei-33"/>
      </g>
     </g>
    </g>
    <g id="ytick_4">
     <g id="line2d_17">
      <path d="M 32.41875 247.794613 
L 705.95875 247.794613 
" clip-path="url(#p2ea182385d)" style="fill: none; stroke: #b0b0b0; stroke-width: 0.8; stroke-linecap: square"/>
     </g>
     <g id="line2d_18">
      <g>
       <use xlink:href="#me4a3375e1a" x="32.41875" y="247.794613" style="stroke: #000000; stroke-width: 0.8"/>
      </g>
     </g>
     <g id="text_10">
      <!-- 4 -->
      <g transform="translate(20.41875 251.232113) scale(0.1 -0.1)">
       <use xlink:href="#SimHei-34"/>
      </g>
     </g>
    </g>
    <g id="ytick_5">
     <g id="line2d_19">
      <path d="M 32.41875 205.410661 
L 705.95875 205.410661 
" clip-path="url(#p2ea182385d)" style="fill: none; stroke: #b0b0b0; stroke-width: 0.8; stroke-linecap: square"/>
     </g>
     <g id="line2d_20">
      <g>
       <use xlink:href="#me4a3375e1a" x="32.41875" y="205.410661" style="stroke: #000000; stroke-width: 0.8"/>
      </g>
     </g>
     <g id="text_11">
      <!-- 5 -->
      <g transform="translate(20.41875 208.848161) scale(0.1 -0.1)">
       <defs>
        <path id="SimHei-35" d="M 550 1325 
Q 725 650 1150 575 
Q 1575 500 1837 662 
Q 2100 825 2212 1087 
Q 2325 1350 2312 1675 
Q 2300 2000 2137 2225 
Q 1975 2450 1725 2525 
Q 1475 2600 1162 2525 
Q 850 2450 650 2175 
L 225 2225 
Q 275 2375 700 4375 
L 2675 4375 
L 2675 3925 
L 1075 3925 
Q 950 3250 825 2850 
Q 1200 3025 1525 3012 
Q 1850 3000 2150 2862 
Q 2450 2725 2587 2487 
Q 2725 2250 2787 2012 
Q 2850 1775 2837 1500 
Q 2825 1225 2725 937 
Q 2625 650 2425 462 
Q 2225 275 1937 162 
Q 1650 50 1275 75 
Q 900 100 562 350 
Q 225 600 100 1200 
L 550 1325 
z
" transform="scale(0.015625)"/>
       </defs>
       <use xlink:href="#SimHei-35"/>
      </g>
     </g>
    </g>
    <g id="ytick_6">
     <g id="line2d_21">
      <path d="M 32.41875 163.026708 
L 705.95875 163.026708 
" clip-path="url(#p2ea182385d)" style="fill: none; stroke: #b0b0b0; stroke-width: 0.8; stroke-linecap: square"/>
     </g>
     <g id="line2d_22">
      <g>
       <use xlink:href="#me4a3375e1a" x="32.41875" y="163.026708" style="stroke: #000000; stroke-width: 0.8"/>
      </g>
     </g>
     <g id="text_12">
      <!-- 6 -->
      <g transform="translate(20.41875 166.464208) scale(0.1 -0.1)">
       <use xlink:href="#SimHei-36"/>
      </g>
     </g>
    </g>
    <g id="ytick_7">
     <g id="line2d_23">
      <path d="M 32.41875 120.642756 
L 705.95875 120.642756 
" clip-path="url(#p2ea182385d)" style="fill: none; stroke: #b0b0b0; stroke-width: 0.8; stroke-linecap: square"/>
     </g>
     <g id="line2d_24">
      <g>
       <use xlink:href="#me4a3375e1a" x="32.41875" y="120.642756" style="stroke: #000000; stroke-width: 0.8"/>
      </g>
     </g>
     <g id="text_13">
      <!-- 7 -->
      <g transform="translate(20.41875 124.080256) scale(0.1 -0.1)">
       <defs>
        <path id="SimHei-37" d="M 850 150 
Q 1300 2050 2425 3925 
L 275 3925 
L 275 4375 
L 2950 4375 
L 2950 3950 
Q 1775 2050 1400 150 
L 850 150 
z
" transform="scale(0.015625)"/>
       </defs>
       <use xlink:href="#SimHei-37"/>
      </g>
     </g>
    </g>
    <g id="ytick_8">
     <g id="line2d_25">
      <path d="M 32.41875 78.258803 
L 705.95875 78.258803 
" clip-path="url(#p2ea182385d)" style="fill: none; stroke: #b0b0b0; stroke-width: 0.8; stroke-linecap: square"/>
     </g>
     <g id="line2d_26">
      <g>
       <use xlink:href="#me4a3375e1a" x="32.41875" y="78.258803" style="stroke: #000000; stroke-width: 0.8"/>
      </g>
     </g>
     <g id="text_14">
      <!-- 8 -->
      <g transform="translate(20.41875 81.696303) scale(0.1 -0.1)">
       <use xlink:href="#SimHei-38"/>
      </g>
     </g>
    </g>
    <g id="ytick_9">
     <g id="line2d_27">
      <path d="M 32.41875 35.874851 
L 705.95875 35.874851 
" clip-path="url(#p2ea182385d)" style="fill: none; stroke: #b0b0b0; stroke-width: 0.8; stroke-linecap: square"/>
     </g>
     <g id="line2d_28">
      <g>
       <use xlink:href="#me4a3375e1a" x="32.41875" y="35.874851" style="stroke: #000000; stroke-width: 0.8"/>
      </g>
     </g>
     <g id="text_15">
      <!-- 9 -->
      <g transform="translate(20.41875 39.312351) scale(0.1 -0.1)">
       <defs>
        <path id="SimHei-39" d="M 800 75 
Q 1350 1000 1700 1750 
Q 1075 1650 662 1912 
Q 250 2175 162 2625 
Q 75 3075 175 3437 
Q 275 3800 487 4037 
Q 700 4275 1000 4375 
Q 1300 4475 1537 4475 
Q 1775 4475 2025 4375 
Q 2275 4275 2475 4075 
Q 2675 3875 2750 3662 
Q 2825 3450 2825 3112 
Q 2825 2775 2575 2250 
Q 2325 1725 1350 75 
L 800 75 
z
M 662 2875 
Q 700 2550 937 2337 
Q 1175 2125 1450 2150 
Q 1725 2175 1887 2300 
Q 2050 2425 2200 2725 
Q 2300 3100 2250 3362 
Q 2200 3625 1987 3800 
Q 1775 3975 1525 3975 
Q 1375 4000 1137 3900 
Q 900 3800 762 3500 
Q 625 3200 662 2875 
z
" transform="scale(0.015625)"/>
       </defs>
       <use xlink:href="#SimHei-39"/>
      </g>
     </g>
    </g>
    <g id="text_16">
     <!-- 损失 -->
     <g transform="translate(15.16875 215.6325) rotate(-90) scale(0.1 -0.1)">
      <defs>
       <path id="SimHei-635f" d="M 1175 4600 
Q 1175 4950 1150 5250 
L 1675 5250 
Q 1650 4975 1650 4600 
L 1650 4075 
Q 1950 4075 2325 4100 
L 2325 3625 
Q 1950 3650 1650 3650 
L 1650 2500 
Q 1875 2550 2275 2750 
Q 2275 2550 2300 2300 
Q 2025 2200 1650 2025 
L 1650 175 
Q 1650 -225 1425 -325 
Q 1200 -425 625 -500 
Q 600 -250 450 50 
Q 800 25 987 37 
Q 1175 50 1175 350 
L 1175 1850 
Q 675 1675 400 1500 
Q 375 1800 250 2100 
Q 600 2150 1175 2350 
L 1175 3650 
Q 650 3650 325 3625 
L 325 4100 
Q 625 4075 1175 4075 
L 1175 4600 
z
M 5550 5025 
Q 5525 4650 5525 4275 
Q 5525 3925 5550 3525 
L 2900 3525 
Q 2925 3925 2925 4275 
Q 2925 4650 2900 5025 
L 5550 5025 
z
M 5775 3075 
Q 5750 2725 5750 2350 
L 5750 1725 
Q 5750 1350 5775 875 
L 5275 875 
L 5275 2650 
L 3150 2650 
L 3150 850 
L 2650 850 
Q 2675 1275 2675 1700 
L 2675 2325 
Q 2675 2600 2650 3075 
L 5775 3075 
z
M 4525 2200 
Q 4425 1825 4362 1337 
Q 4300 850 4125 537 
Q 3950 225 3600 -62 
Q 3250 -350 2425 -650 
Q 2325 -450 2050 -175 
Q 2750 -50 3137 200 
Q 3525 450 3700 762 
Q 3875 1075 3900 1462 
Q 3925 1850 3925 2275 
Q 4225 2225 4525 2200 
z
M 5100 3925 
L 5100 4650 
L 3375 4650 
L 3375 3925 
L 5100 3925 
z
M 4675 750 
Q 4975 575 5412 337 
Q 5850 100 6175 -125 
Q 5975 -325 5850 -550 
Q 5525 -300 5200 -87 
Q 4875 125 4375 350 
Q 4550 550 4675 750 
z
" transform="scale(0.015625)"/>
       <path id="SimHei-5931" d="M 2050 4450 
Q 1925 4325 1675 3750 
L 2950 3750 
Q 2950 4650 2925 5100 
Q 3175 5075 3500 5050 
Q 3450 4700 3437 4425 
Q 3425 4150 3425 3750 
L 4600 3750 
Q 5000 3750 5425 3775 
L 5425 3300 
Q 5025 3325 4600 3325 
L 3425 3325 
Q 3425 2775 3375 2200 
L 5050 2200 
Q 5425 2200 5875 2225 
L 5875 1750 
Q 5425 1775 5050 1775 
L 3575 1775 
Q 3875 1100 4600 675 
Q 5325 250 6025 100 
Q 5825 -150 5675 -475 
Q 4950 -200 4250 287 
Q 3550 775 3200 1475 
Q 2900 825 2325 300 
Q 1750 -225 775 -650 
Q 650 -400 400 -175 
Q 1250 50 1912 587 
Q 2575 1125 2775 1775 
L 1325 1775 
Q 925 1775 450 1750 
L 450 2225 
Q 925 2200 1325 2200 
L 2875 2200 
Q 2950 2725 2950 3325 
L 1500 3325 
Q 1200 2800 975 2450 
Q 775 2575 500 2675 
Q 950 3225 1187 3750 
Q 1425 4275 1500 4675 
Q 1800 4525 2050 4450 
z
" transform="scale(0.015625)"/>
      </defs>
      <use xlink:href="#SimHei-635f"/>
      <use xlink:href="#SimHei-5931" x="100"/>
     </g>
    </g>
   </g>
   <g id="line2d_29">
    <path d="M 63.034205 39.429659 
L 70.237841 200.438485 
L 77.441477 236.822728 
L 84.645114 247.428715 
L 91.84875 256.408464 
L 99.052386 287.802055 
L 106.256023 258.395564 
L 113.459659 296.552841 
L 120.663295 286.100525 
L 127.866932 282.422273 
L 135.070568 283.653846 
L 142.274205 300.96082 
L 149.477841 293.277252 
L 156.681477 267.612377 
L 163.885114 292.35598 
L 171.08875 274.576756 
L 178.292386 288.195237 
L 185.496023 311.479283 
L 192.699659 329.473552 
L 199.903295 288.305218 
L 207.106932 308.656043 
L 214.310568 327.899907 
L 221.514205 313.641785 
L 228.717841 315.745146 
L 235.921477 322.83235 
L 243.125114 311.523761 
L 250.32875 326.423376 
L 257.532386 319.795696 
L 264.736023 314.349062 
L 271.939659 303.929862 
L 279.143295 298.256252 
L 286.346932 325.720655 
L 293.550568 326.987486 
L 300.754205 326.56787 
L 307.957841 304.053789 
L 315.161477 311.21072 
L 322.365114 297.67541 
L 329.56875 318.284978 
L 336.772386 304.479818 
L 343.976023 317.340641 
L 351.179659 306.966018 
L 358.383295 308.604453 
L 365.586932 315.310244 
L 372.790568 318.739488 
L 379.994205 307.182283 
L 387.197841 311.492889 
L 394.401477 313.407268 
L 401.605114 325.336101 
L 408.80875 334.114493 
L 416.012386 328.834404 
L 423.216023 334.336078 
L 430.419659 330.112673 
L 437.623295 308.699464 
L 444.826932 321.913127 
L 452.030568 329.878801 
L 459.234205 327.826807 
L 466.437841 345.197204 
L 473.641477 322.967286 
L 480.845114 326.993727 
L 488.04875 313.398303 
L 495.252386 336.957238 
L 502.456023 338.52659 
L 509.659659 314.243644 
L 516.863295 323.440253 
L 524.066932 322.241899 
L 531.270568 331.253334 
L 538.474205 325.309311 
L 545.677841 322.091093 
L 552.881477 325.8182 
L 560.085114 341.47409 
L 567.28875 326.38687 
L 574.492386 326.104283 
L 581.696023 343.32232 
L 588.899659 336.344725 
L 596.103295 321.48441 
L 603.306932 319.552785 
L 610.510568 323.813467 
L 617.714205 341.196129 
L 624.917841 312.813633 
L 632.121477 343.229718 
L 639.325114 324.670117 
L 646.52875 344.36255 
L 653.732386 326.3058 
L 660.936023 315.622503 
L 668.139659 335.921082 
L 675.343295 332.939859 
" clip-path="url(#p2ea182385d)" style="fill: none; stroke: #1f77b4; stroke-width: 1.5; stroke-linecap: square"/>
   </g>
   <g id="line2d_30">
    <path d="M 63.034205 347.696757 
L 70.237841 342.538845 
L 77.441477 345.841744 
L 84.645114 352.830204 
L 91.84875 351.507171 
L 99.052386 348.856749 
L 106.256023 359.532138 
L 113.459659 358.081219 
L 120.663295 357.499073 
L 127.866932 355.977803 
L 135.070568 361.570866 
L 142.274205 361.251444 
L 149.477841 357.520218 
L 156.681477 353.326259 
L 163.885114 354.90522 
L 171.08875 356.263586 
L 178.292386 352.31648 
L 185.496023 336.103742 
L 192.699659 349.089333 
L 199.903295 352.518784 
L 207.106932 358.902609 
L 214.310568 351.668994 
L 221.514205 365.714583 
L 228.717841 356.840255 
L 235.921477 359.134365 
L 243.125114 353.955849 
L 250.32875 366.162295 
L 257.532386 359.065392 
L 264.736023 353.739246 
L 271.939659 355.802737 
L 279.143295 358.909415 
L 286.346932 357.704864 
L 293.550568 359.274897 
L 300.754205 350.560083 
L 307.957841 361.375342 
L 315.161477 371.835341 
L 322.365114 367.337859 
L 329.56875 366.575312 
L 336.772386 370.40916 
L 343.976023 363.123811 
L 351.179659 359.552949 
L 358.383295 360.802518 
L 365.586932 361.190297 
L 372.790568 367.124758 
L 379.994205 360.439128 
L 387.197841 356.896394 
L 394.401477 360.836547 
L 401.605114 360.386066 
L 408.80875 363.044229 
L 416.012386 356.413329 
L 423.216023 357.770275 
L 430.419659 359.605405 
L 437.623295 361.678718 
L 444.826932 358.257008 
L 452.030568 361.480067 
L 459.234205 362.582839 
L 466.437841 358.999947 
L 473.641477 362.623795 
L 480.845114 359.151261 
L 488.04875 356.957161 
L 495.252386 356.094997 
L 502.456023 357.233662 
L 509.659659 358.562521 
L 516.863295 365.262313 
L 524.066932 362.1263 
L 531.270568 361.214115 
L 538.474205 361.188069 
L 545.677841 363.374808 
L 552.881477 362.273021 
L 560.085114 362.770046 
L 567.28875 366.147188 
L 574.492386 363.971394 
L 581.696023 364.226993 
L 588.899659 363.554674 
L 596.103295 363.273761 
L 603.306932 363.148695 
L 610.510568 362.29557 
L 617.714205 366.08005 
L 624.917841 364.077765 
L 632.121477 363.219957 
L 639.325114 363.826178 
L 646.52875 365.123479 
L 653.732386 364.14936 
L 660.936023 363.40676 
L 668.139659 362.177709 
L 675.343295 361.841229 
" clip-path="url(#p2ea182385d)" style="fill: none; stroke: #ff7f0e; stroke-width: 1.5; stroke-linecap: square"/>
   </g>
   <g id="patch_3">
    <path d="M 32.41875 388.455625 
L 32.41875 22.809375 
" style="fill: none; stroke: #000000; stroke-width: 0.8; stroke-linejoin: miter; stroke-linecap: square"/>
   </g>
   <g id="patch_4">
    <path d="M 705.95875 388.455625 
L 705.95875 22.809375 
" style="fill: none; stroke: #000000; stroke-width: 0.8; stroke-linejoin: miter; stroke-linecap: square"/>
   </g>
   <g id="patch_5">
    <path d="M 32.41875 388.455625 
L 705.95875 388.455625 
" style="fill: none; stroke: #000000; stroke-width: 0.8; stroke-linejoin: miter; stroke-linecap: square"/>
   </g>
   <g id="patch_6">
    <path d="M 32.41875 22.809375 
L 705.95875 22.809375 
" style="fill: none; stroke: #000000; stroke-width: 0.8; stroke-linejoin: miter; stroke-linecap: square"/>
   </g>
   <g id="text_17">
    <!-- 训练和验证损失 -->
    <g transform="translate(327.18875 16.809375) scale(0.12 -0.12)">
     <defs>
      <path id="SimHei-8bad" d="M 1650 3300 
Q 1625 2725 1625 2225 
L 1625 675 
Q 1950 1125 2050 1275 
Q 2175 1125 2350 900 
Q 2025 500 1800 212 
Q 1575 -75 1325 -425 
Q 1150 -200 950 -50 
Q 1150 225 1150 625 
L 1150 2875 
L 975 2875 
Q 600 2875 300 2850 
L 300 3325 
Q 600 3300 975 3300 
L 1650 3300 
z
M 3425 4600 
Q 3375 4350 3387 3362 
Q 3400 2375 3337 1887 
Q 3275 1400 3087 837 
Q 2900 275 2450 -375 
Q 2225 -200 1975 -125 
Q 2550 500 2762 1362 
Q 2975 2225 2950 3337 
Q 2925 4450 2900 4675 
Q 3150 4625 3425 4600 
z
M 5875 4700 
Q 5850 4500 5850 3975 
L 5850 625 
Q 5850 125 5875 -400 
L 5400 -400 
Q 5425 125 5425 600 
L 5425 3975 
Q 5425 4500 5400 4700 
L 5875 4700 
z
M 4600 175 
L 4125 175 
Q 4150 725 4150 1150 
L 4150 3600 
Q 4150 4050 4125 4350 
L 4600 4350 
L 4600 175 
z
M 1000 5150 
Q 1650 4600 2100 4100 
Q 1875 3925 1750 3750 
Q 1050 4550 700 4800 
Q 850 4950 1000 5150 
z
" transform="scale(0.015625)"/>
      <path id="SimHei-7ec3" d="M 3300 3825 
Q 2950 3825 2400 3800 
L 2400 4250 
Q 2950 4225 3325 4225 
L 3625 4225 
Q 3875 4950 3900 5175 
Q 4200 5025 4450 4925 
Q 4350 4825 4262 4612 
Q 4175 4400 4100 4225 
L 5025 4225 
Q 5425 4225 5900 4250 
L 5900 3800 
Q 5550 3825 5025 3825 
L 3975 3825 
Q 3850 3525 3700 3150 
L 4675 3150 
Q 4650 2875 4650 2475 
L 4650 1975 
L 4975 1975 
Q 5350 1975 5800 2000 
L 5800 1550 
Q 5350 1575 4975 1575 
L 4650 1575 
L 4650 125 
Q 4650 -300 4462 -425 
Q 4275 -550 3650 -625 
Q 3625 -375 3450 -100 
Q 4075 -125 4137 -25 
Q 4200 75 4200 325 
L 4200 1575 
L 3425 1575 
Q 3250 1575 3100 1562 
Q 2950 1550 2750 1475 
Q 2650 1725 2550 1950 
Q 2800 2025 3125 2775 
Q 2950 2775 2450 2750 
L 2450 3175 
Q 3025 3150 3250 3150 
Q 3400 3525 3500 3825 
L 3300 3825 
z
M 1650 2950 
Q 1875 3300 2100 3900 
Q 2325 3725 2575 3600 
Q 2325 3275 2025 2750 
Q 1725 2225 1075 1350 
Q 1300 1400 2400 1575 
Q 2350 1300 2375 1150 
Q 1825 1100 650 825 
Q 525 1075 400 1275 
Q 625 1400 887 1737 
Q 1150 2075 1450 2575 
Q 1300 2600 1012 2562 
Q 725 2525 450 2450 
Q 350 2675 250 2925 
Q 500 3075 812 3725 
Q 1125 4375 1325 5000 
Q 1600 4825 1850 4750 
Q 1600 4375 1387 3962 
Q 1175 3550 800 2925 
Q 1375 2925 1650 2950 
z
M 2425 700 
Q 2400 425 2425 250 
Q 2000 150 1462 -25 
Q 925 -200 475 -425 
Q 400 -150 300 125 
Q 950 275 1187 337 
Q 1425 400 2425 700 
z
M 3725 875 
Q 3650 800 3287 400 
Q 2925 0 2475 -475 
Q 2300 -250 2150 -125 
Q 2425 100 2750 462 
Q 3075 825 3325 1225 
Q 3475 1050 3725 875 
z
M 5275 1225 
Q 5925 375 6200 -100 
Q 5950 -200 5750 -375 
Q 5475 175 4900 950 
Q 5075 1050 5275 1225 
z
M 4200 1975 
L 4200 2775 
L 3575 2775 
Q 3325 2250 3175 1975 
L 4200 1975 
z
" transform="scale(0.015625)"/>
      <path id="SimHei-548c" d="M 5875 4200 
Q 5850 3700 5850 3275 
L 5850 700 
Q 5850 250 5875 -25 
L 5375 -25 
L 5375 575 
L 4175 575 
L 4175 -75 
L 3700 -75 
Q 3725 500 3725 625 
L 3725 3275 
Q 3725 3700 3700 4200 
L 5875 4200 
z
M 3275 4450 
Q 3050 4450 2250 4325 
L 2250 3200 
L 2625 3200 
Q 3000 3200 3425 3225 
L 3425 2775 
Q 3000 2800 2650 2800 
L 2250 2800 
L 2250 225 
Q 2250 -200 2275 -550 
L 1775 -550 
Q 1800 -150 1800 225 
L 1800 1850 
Q 1425 1150 675 250 
Q 550 425 275 600 
Q 825 1125 1237 1812 
Q 1650 2500 1700 2800 
L 1250 2800 
Q 700 2800 450 2775 
L 450 3225 
Q 725 3200 1250 3200 
L 1800 3200 
L 1800 4250 
Q 1475 4200 775 4125 
Q 725 4375 625 4575 
Q 1100 4600 1825 4700 
Q 2550 4800 3050 5000 
Q 3100 4725 3275 4450 
z
M 5375 975 
L 5375 3775 
L 4175 3775 
L 4175 975 
L 5375 975 
z
M 3075 1000 
Q 2750 1625 2325 2100 
Q 2475 2200 2700 2400 
Q 3175 1875 3500 1325 
Q 3250 1175 3075 1000 
z
" transform="scale(0.015625)"/>
      <path id="SimHei-9a8c" d="M 2300 4725 
Q 2250 4500 2225 4075 
L 2050 2125 
L 2525 2125 
Q 2500 1925 2475 1450 
L 2375 75 
Q 2375 -450 2075 -525 
Q 1775 -600 1250 -675 
Q 1175 -325 1050 -100 
Q 1575 -100 1737 -87 
Q 1900 -75 1950 150 
L 2025 1700 
L 550 1700 
Q 575 2175 587 2737 
Q 600 3300 600 3800 
L 1100 3800 
Q 1050 3525 1025 3087 
Q 1000 2650 1000 2125 
L 1625 2125 
L 1800 4325 
L 1125 4325 
Q 725 4325 350 4300 
L 350 4750 
Q 725 4725 1125 4725 
L 2300 4725 
z
M 4325 4875 
Q 4725 4125 5150 3775 
Q 5575 3425 6150 3225 
Q 5925 3025 5800 2725 
Q 5450 2925 5125 3200 
L 5125 2775 
Q 4800 2800 4200 2800 
Q 3600 2800 3225 2775 
L 3225 3175 
Q 3075 2975 2800 2650 
Q 2575 2875 2325 3000 
Q 2725 3275 2937 3550 
Q 3150 3825 3312 4125 
Q 3475 4425 3587 4675 
Q 3700 4925 3775 5225 
Q 4100 5150 4450 5075 
L 4325 4875 
z
M 5600 2150 
Q 5475 2000 5400 1737 
Q 5325 1475 5162 912 
Q 5000 350 4900 25 
L 5250 25 
Q 5425 25 5800 50 
L 5800 -400 
Q 5475 -375 5250 -375 
L 3325 -375 
Q 2875 -375 2675 -400 
L 2675 50 
Q 2975 25 3350 25 
L 4475 25 
Q 4675 575 4800 1150 
L 5050 2300 
Q 5250 2225 5600 2150 
z
M 5100 3225 
Q 4800 3450 4550 3775 
Q 4300 4100 4050 4600 
Q 3850 4200 3687 3912 
Q 3525 3625 3250 3225 
L 5100 3225 
z
M 3250 2175 
Q 3350 1825 3462 1375 
Q 3575 925 3675 550 
Q 3450 525 3250 425 
Q 3175 900 3087 1225 
Q 3000 1550 2850 2050 
Q 3050 2125 3250 2175 
z
M 1775 1125 
Q 1750 950 1725 700 
Q 1350 625 1112 575 
Q 875 525 375 375 
Q 300 650 200 925 
Q 550 950 925 1000 
Q 1300 1050 1775 1125 
z
M 4300 1650 
Q 4350 1325 4425 825 
L 4025 725 
Q 3925 1275 3875 1562 
Q 3825 1850 3750 2225 
Q 3975 2275 4200 2300 
L 4300 1650 
z
" transform="scale(0.015625)"/>
      <path id="SimHei-8bc1" d="M 5125 4675 
Q 5625 4675 6050 4700 
L 6050 4225 
Q 5625 4250 5125 4250 
L 4500 4250 
L 4500 2625 
L 5075 2625 
Q 5500 2625 5900 2650 
L 5900 2175 
Q 5525 2200 5075 2200 
L 4500 2200 
L 4500 125 
L 5200 125 
Q 5625 125 6175 150 
L 6175 -325 
Q 5625 -300 5200 -300 
L 3000 -300 
Q 2400 -300 2000 -325 
L 2000 150 
Q 2400 125 2775 125 
L 2775 2075 
Q 2775 2600 2750 2950 
L 3275 2950 
Q 3250 2625 3250 2075 
L 3250 125 
L 4000 125 
L 4000 4250 
L 3550 4250 
Q 2975 4250 2450 4225 
L 2450 4700 
Q 2975 4675 3550 4675 
L 5125 4675 
z
M 850 -125 
Q 1150 175 1150 500 
L 1150 2750 
L 925 2750 
Q 575 2750 225 2725 
L 225 3200 
Q 550 3175 925 3175 
L 1650 3175 
Q 1625 2700 1625 2175 
L 1625 800 
Q 1850 1075 2025 1325 
Q 2150 1050 2325 825 
Q 2050 500 1812 212 
Q 1575 -75 1225 -525 
Q 1050 -300 850 -125 
z
M 1525 3900 
Q 1100 4500 800 4825 
Q 1000 4975 1175 5175 
L 1925 4275 
Q 1675 4100 1525 3900 
z
" transform="scale(0.015625)"/>
     </defs>
     <use xlink:href="#SimHei-8bad"/>
     <use xlink:href="#SimHei-7ec3" x="100"/>
     <use xlink:href="#SimHei-548c" x="200"/>
     <use xlink:href="#SimHei-9a8c" x="300"/>
     <use xlink:href="#SimHei-8bc1" x="400"/>
     <use xlink:href="#SimHei-635f" x="500"/>
     <use xlink:href="#SimHei-5931" x="600"/>
    </g>
   </g>
   <g id="legend_1">
    <g id="patch_7">
     <path d="M 626.95875 59.285937 
L 698.95875 59.285937 
Q 700.95875 59.285937 700.95875 57.285937 
L 700.95875 29.809375 
Q 700.95875 27.809375 698.95875 27.809375 
L 626.95875 27.809375 
Q 624.95875 27.809375 624.95875 29.809375 
L 624.95875 57.285937 
Q 624.95875 59.285937 626.95875 59.285937 
z
" style="fill: #ffffff; opacity: 0.8; stroke: #cccccc; stroke-linejoin: miter"/>
    </g>
    <g id="line2d_31">
     <path d="M 628.95875 36.278125 
L 638.95875 36.278125 
L 648.95875 36.278125 
" style="fill: none; stroke: #1f77b4; stroke-width: 1.5; stroke-linecap: square"/>
    </g>
    <g id="text_18">
     <!-- 训练损失 -->
     <g transform="translate(656.95875 39.778125) scale(0.1 -0.1)">
      <use xlink:href="#SimHei-8bad"/>
      <use xlink:href="#SimHei-7ec3" x="100"/>
      <use xlink:href="#SimHei-635f" x="200"/>
      <use xlink:href="#SimHei-5931" x="300"/>
     </g>
    </g>
    <g id="line2d_32">
     <path d="M 628.95875 50.535937 
L 638.95875 50.535937 
L 648.95875 50.535937 
" style="fill: none; stroke: #ff7f0e; stroke-width: 1.5; stroke-linecap: square"/>
    </g>
    <g id="text_19">
     <!-- 验证损失 -->
     <g transform="translate(656.95875 54.035937) scale(0.1 -0.1)">
      <use xlink:href="#SimHei-9a8c"/>
      <use xlink:href="#SimHei-8bc1" x="100"/>
      <use xlink:href="#SimHei-635f" x="200"/>
      <use xlink:href="#SimHei-5931" x="300"/>
     </g>
    </g>
   </g>
  </g>
 </g>
 <defs>
  <clipPath id="p2ea182385d">
   <rect x="32.41875" y="22.809375" width="673.54" height="365.64625"/>
  </clipPath>
 </defs>
</svg>
